<?xml version="1.0" encoding="UTF-8" standalone="no"?>
<!-- Created with Inkscape (http://www.inkscape.org/) -->

<svg
   xmlns:dc="http://purl.org/dc/elements/1.1/"
   xmlns:cc="http://creativecommons.org/ns#"
   xmlns:rdf="http://www.w3.org/1999/02/22-rdf-syntax-ns#"
   xmlns:svg="http://www.w3.org/2000/svg"
   xmlns="http://www.w3.org/2000/svg"
   version="1.1"
   width="87.874001"
   height="54.734001"
   viewBox="0 0 87.874 54.734"
   id="Layer_1"
   xml:space="preserve"><metadata
   id="metadata3059"><rdf:RDF><cc:Work
       rdf:about=""><dc:format>image/svg+xml</dc:format><dc:type
         rdf:resource="http://purl.org/dc/dcmitype/StillImage" /><dc:title></dc:title></cc:Work></rdf:RDF></metadata><defs
   id="defs3057"><filter
     x="0"
     y="0"
     width="1"
     height="1"
     color-interpolation-filters="sRGB"
     id="filter3061"><feColorMatrix
       result="fbSourceGraphic"
       values="1"
       type="saturate"
       id="feColorMatrix3063" /><feColorMatrix
       values="-1 0 0 0 1 0 -1 0 0 1 0 0 -1 0 1 0 0 0 1 0 "
       in="fbSourceGraphic"
       id="feColorMatrix3065" /></filter></defs>
<g
   id="g3043"
   style="filter:url(#filter3061)">
	<path
   d="m 25.512,51.856 c 0,1.587 -1.321,2.878 -2.952,2.878 H 2.952 C 1.321,54.734 0,53.444 0,51.856 V 40.604 c 0,-1.59 1.321,-2.879 2.952,-2.879 H 22.56 c 1.631,0 2.952,1.289 2.952,2.879 v 11.252 z"
   id="path3045"
   style="fill:#000000" />
	<path
   d="m 56.692,51.856 c 0,1.587 -1.321,2.878 -2.952,2.878 H 34.133 c -1.631,0 -2.952,-1.29 -2.952,-2.878 V 40.604 c 0,-1.59 1.321,-2.879 2.952,-2.879 H 53.74 c 1.631,0 2.952,1.289 2.952,2.879 v 11.252 z"
   id="path3047"
   style="fill:#000000" />
	<path
   d="m 87.874,51.856 c 0,1.587 -1.321,2.878 -2.952,2.878 H 65.314 c -1.631,0 -2.951,-1.29 -2.951,-2.878 V 40.604 c 0,-1.59 1.32,-2.879 2.951,-2.879 h 19.607 c 1.631,0 2.952,1.289 2.952,2.879 v 11.252 z"
   id="path3049"
   style="fill:#000000" />
	<path
   d="m 58.381,16.407 c 0,1.847 -1.496,3.344 -3.342,3.344 H 32.834 c -1.846,0 -3.342,-1.497 -3.342,-3.344 V 3.344 C 29.494,1.497 30.989,0 32.834,0 h 22.205 c 1.846,0 3.342,1.497 3.342,3.344 v 13.063 z"
   id="path3051"
   style="fill:#000000" />
	<polygon
   points="45.437,21.242 42.437,21.242 42.437,26.735 11.256,26.735 11.256,35.985 14.256,35.985 14.256,29.735 42.437,29.735 42.437,35.985 45.437,35.985 45.437,29.735 73.619,29.735 73.619,35.985 76.619,35.985 76.619,26.735 45.437,26.735 "
   id="polygon3053"
   style="fill:#000000" />
</g>
</svg>