<?xml version="1.0" encoding="UTF-8" standalone="no"?>
<!-- Created with Inkscape (http://www.inkscape.org/) -->

<svg
   xmlns:dc="http://purl.org/dc/elements/1.1/"
   xmlns:cc="http://creativecommons.org/ns#"
   xmlns:rdf="http://www.w3.org/1999/02/22-rdf-syntax-ns#"
   xmlns:svg="http://www.w3.org/2000/svg"
   xmlns="http://www.w3.org/2000/svg"
   version="1.1"
   width="100"
   height="100"
   viewBox="0 0 111.3966 111.3966"
   id="Layer_1"
   xml:space="preserve"><metadata
   id="metadata9"><rdf:RDF><cc:Work
       rdf:about=""><dc:format>image/svg+xml</dc:format><dc:type
         rdf:resource="http://purl.org/dc/dcmitype/StillImage" /><dc:title></dc:title></cc:Work></rdf:RDF></metadata><defs
   id="defs7"><filter
     x="0"
     y="0"
     width="1"
     height="1"
     color-interpolation-filters="sRGB"
     id="filter3027"><feColorMatrix
       result="fbSourceGraphic"
       values="1"
       type="saturate"
       id="feColorMatrix3029" /><feColorMatrix
       values="-1 0 0 0 1 0 -1 0 0 1 0 0 -1 0 1 0 0 0 1 0 "
       in="fbSourceGraphic"
       id="feColorMatrix3031" /></filter></defs>
<path
   d="M 102.90625,0 85.5,17.40625 C 73.852535,9.6888911 58.01295,10.955798 47.75,21.21875 l -11.3125,11.3125 6.375,6.375 -3.90625,3.90625 -6.375,-6.375 L 21.21875,47.75 C 10.955802,58.012948 9.6888867,73.852537 17.40625,85.5 L 0,102.90625 l 8.5,8.5 L 25.875,94 c 11.647463,7.71736 27.487052,6.45045 37.75,-3.8125 L 74.96875,78.875 68.59375,72.5 72.5,68.59375 78.875,74.96875 90.1875,63.625 C 100.45045,53.362052 101.71737,37.522463 94,25.875 L 111.40625,8.5 l -8.5,-8.5 z m -54.4375,44.5625 18.375,18.375 -3.90625,3.90625 -18.375,-18.375 3.90625,-3.90625 z"
   id="path3"
   style="filter:url(#filter3027)" />
</svg>