<?xml version="1.0" encoding="UTF-8" standalone="no"?>
<!-- Created with Inkscape (http://www.inkscape.org/) -->

<svg
   xmlns:dc="http://purl.org/dc/elements/1.1/"
   xmlns:cc="http://creativecommons.org/ns#"
   xmlns:rdf="http://www.w3.org/1999/02/22-rdf-syntax-ns#"
   xmlns:svg="http://www.w3.org/2000/svg"
   xmlns="http://www.w3.org/2000/svg"
   version="1.1"
   width="81.525002"
   height="100"
   viewBox="0 0 81.525 100"
   id="Layer_1"
   xml:space="preserve"><metadata
   id="metadata9"><rdf:RDF><cc:Work
       rdf:about=""><dc:format>image/svg+xml</dc:format><dc:type
         rdf:resource="http://purl.org/dc/dcmitype/StillImage" /><dc:title></dc:title></cc:Work></rdf:RDF></metadata><defs
   id="defs7" />
<path
   d="M 45.493,37.024 H 19.749 v 2.699 h 25.744 v -2.699 z m 0,8.557 H 19.749 v 2.699 h 25.744 v -2.699 z m 0,8.252 H 19.749 v 2.704 h 25.744 v -2.704 z m 0,17.412 H 19.749 v 2.699 h 25.744 v -2.699 z m 0,-8.855 H 19.749 v 2.703 H 45.493 V 62.39 z M 65.169,10.851 H 60.196 L 63.189,0 H 57.774 L 54.781,10.851 H 44.97 L 47.965,0 H 42.55 L 39.555,10.851 H 29.743 L 32.738,0 H 27.326 L 24.33,10.851 H 14.516 L 17.511,0 H 12.099 L 9.103,10.851 H 0 V 100 H 65.616 V 85.29 H 81.525 L 65.169,10.851 z M 57.513,91.896 H 8.103 v -72.94 h 49.41 v 72.94 z"
   id="path3"
   style="fill:#ffffff" />
</svg>