<?xml version="1.0" encoding="UTF-8" standalone="no"?>
<svg
   xmlns:dc="http://purl.org/dc/elements/1.1/"
   xmlns:cc="http://creativecommons.org/ns#"
   xmlns:rdf="http://www.w3.org/1999/02/22-rdf-syntax-ns#"
   xmlns:svg="http://www.w3.org/2000/svg"
   xmlns="http://www.w3.org/2000/svg"
   xmlns:sodipodi="http://sodipodi.sourceforge.net/DTD/sodipodi-0.dtd"
   xmlns:inkscape="http://www.inkscape.org/namespaces/inkscape"
   version="1.1"
   id="Layer_1"
   x="0px"
   y="0px"
   width="77.2727272727px"
   height="100px"
   viewBox="0 0 612 792"
   enable-background="new 0 0 612 792"
   xml:space="preserve"
   inkscape:version="0.48.2 r9819"
   sodipodi:docname="store_white.svg"><metadata
   id="metadata11"><rdf:RDF><cc:Work
       rdf:about=""><dc:format>image/svg+xml</dc:format><dc:type
         rdf:resource="http://purl.org/dc/dcmitype/StillImage" /><dc:title /></cc:Work></rdf:RDF></metadata><defs
   id="defs9"><filter
     id="filter2988"
     inkscape:label="Invert"
     x="0"
     y="0"
     width="1"
     height="1"
     inkscape:menu="Color"
     inkscape:menu-tooltip="Invert colors"
     color-interpolation-filters="sRGB"><feColorMatrix
       id="feColorMatrix2990"
       type="saturate"
       values="1"
       result="fbSourceGraphic" /><feColorMatrix
       id="feColorMatrix2992"
       in="fbSourceGraphic"
       values="-1 0 0 0 1 0 -1 0 0 1 0 0 -1 0 1 0 0 0 1 0 " /></filter></defs><sodipodi:namedview
   pagecolor="#ffffff"
   bordercolor="#666666"
   borderopacity="1"
   objecttolerance="10"
   gridtolerance="10"
   guidetolerance="10"
   inkscape:pageopacity="0"
   inkscape:pageshadow="2"
   inkscape:window-width="640"
   inkscape:window-height="480"
   id="namedview7"
   showgrid="false"
   inkscape:zoom="2.36"
   inkscape:cx="38.636364"
   inkscape:cy="50"
   inkscape:window-x="0"
   inkscape:window-y="0"
   inkscape:window-maximized="0"
   inkscape:current-layer="Layer_1" />
<g
   id="g3"
   style="filter:url(#filter2988)"
   transform="matrix(3.6484909,0,0,3.8250638,-737.30394,-865.60089)">
	<path
   d="m 344.346,276.296 c 6,0 8.8,3.6 8.8,8 v 37.399 c 0,4.2 -3.2,7.6 -7.399,8 l -80.799,9 c -6.6,0.8 -7.4,9.4 0.4,9.4 h 76.599 c 8.8,0 8.8,13 0,13 h -78.199 c -17.6,0 -24.2,-19.399 -10.4,-29.6 l 7,-5.2 -24.8,-54.199 h -12.2 c -9.4,0 -9.4,-14.4 0,-14.4 h 14.2 c 7.2,0 9.2,3.4 11.4,8.6 l 5,10 h 90.398 z m -86.199,106.799 c 0,6.8 -5.4,12.399 -12.6,12.399 -6.8,0 -12.4,-5.6 -12.4,-12.399 0,-7 5.6,-12.6 12.4,-12.6 7.2,0 12.6,5.6 12.6,12.6 z m 7.2,-81.999 h 20.2 l -4.4,-13.6 h -22 l 6.2,13.6 z m 27.199,23.4 -5.2,-16.2 h -19 l 8.2,17.799 16,-1.599 z m -4.2,-37 4.2,13.6 h 19.799 l -3.199,-13.6 h -20.8 z m 29.2,34.4 -4,-13.6 h -19 l 5,15.399 18,-1.799 z m 24.6,-34.4 h -25.8 l 3,13.6 h 22.8 v -13.6 z m 0.6,95.599 c 0,6.8 -5.4,12.399 -12.4,12.399 -7,0 -12.6,-5.6 -12.6,-12.399 0,-7 5.6,-12.6 12.6,-12.6 7,0 12.4,5.6 12.4,12.6 z m -0.6,-74.799 h -21.2 l 3.2,12.6 18,-1.8 v -10.8 z"
   id="path5"
   inkscape:connector-curvature="0" />
</g>
</svg>