<?xml version="1.0" encoding="UTF-8" standalone="no"?>
<!-- Created with Inkscape (http://www.inkscape.org/) -->

<svg
   xmlns:dc="http://purl.org/dc/elements/1.1/"
   xmlns:cc="http://creativecommons.org/ns#"
   xmlns:rdf="http://www.w3.org/1999/02/22-rdf-syntax-ns#"
   xmlns:svg="http://www.w3.org/2000/svg"
   xmlns="http://www.w3.org/2000/svg"
   version="1.0"
   width="100"
   height="67.394997"
   viewBox="0 0 100 67.395"
   id="svg2"
   xml:space="preserve"
   style="overflow:visible"><metadata
   id="metadata10"><rdf:RDF><cc:Work
       rdf:about=""><dc:format>image/svg+xml</dc:format><dc:type
         rdf:resource="http://purl.org/dc/dcmitype/StillImage" /><dc:title></dc:title></cc:Work></rdf:RDF></metadata><defs
   id="defs8"><filter
     x="0"
     y="0"
     width="1"
     height="1"
     color-interpolation-filters="sRGB"
     id="filter2987"><feColorMatrix
       result="fbSourceGraphic"
       values="1"
       type="saturate"
       id="feColorMatrix2989" /><feColorMatrix
       values="-1 0 0 0 1 0 -1 0 0 1 0 0 -1 0 1 0 0 0 1 0 "
       in="fbSourceGraphic"
       id="feColorMatrix2991" /></filter></defs>
    <path
   d="M 96.543,32.133 71.592,31.38 64.343,48.725 c -0.534,1.41 -1.966,2.206 -3.387,2.009 -1.64,-0.118 -2.938,-1.484 -2.938,-3.157 V 20.034 L 40.625,65.327 c -0.171,0.439 -0.427,0.816 -0.743,1.133 -0.016,0.011 -0.026,0.021 -0.042,0.032 -0.042,0.049 -0.091,0.091 -0.144,0.133 -0.551,0.477 -1.277,0.771 -2.067,0.771 -1.747,0 -3.168,-1.422 -3.168,-3.17 V 35.492 l -1.944,4.648 c -0.535,1.415 -1.971,2.217 -3.414,2.009 L 1.485,40.167 C 0.667,40.167 0,39.504 0,38.681 0,37.865 0.667,37.202 1.485,37.202 l 25.951,-1.309 7.217,-17.287 c 0.625,-1.635 2.452,-2.458 4.087,-1.833 1.052,0.4 1.763,1.303 1.976,2.329 0.048,0.235 0.08,0.476 0.08,0.721 V 47.194 L 58.141,2.031 c 0.561,-1.469 2.104,-2.276 3.602,-1.966 1.483,0.256 2.617,1.554 2.617,3.114 v 29.085 l 2.115,-5.074 c 0.512,-1.336 1.838,-2.131 3.199,-2.03 l 26.869,-0.043 c 1.94,0 3.511,1.571 3.511,3.504 -0.054,1.941 -1.571,3.512 -3.511,3.512 z"
   id="path4"
   style="filter:url(#filter2987)" />
</svg>