<?xml version="1.0" encoding="UTF-8" standalone="no"?>
<!-- Created with Inkscape (http://www.inkscape.org/) -->

<svg
   xmlns:dc="http://purl.org/dc/elements/1.1/"
   xmlns:cc="http://creativecommons.org/ns#"
   xmlns:rdf="http://www.w3.org/1999/02/22-rdf-syntax-ns#"
   xmlns:svg="http://www.w3.org/2000/svg"
   xmlns="http://www.w3.org/2000/svg"
   version="1.1"
   width="75"
   height="100"
   viewBox="0 0 75 100"
   id="Layer_1"
   xml:space="preserve"><metadata
   id="metadata9"><rdf:RDF><cc:Work
       rdf:about=""><dc:format>image/svg+xml</dc:format><dc:type
         rdf:resource="http://purl.org/dc/dcmitype/StillImage" /><dc:title></dc:title></cc:Work></rdf:RDF></metadata><defs
   id="defs7" />
<path
   d="M 50,0 H 25 C 11.193,0 0,11.193 0,25 v 50 c 0,13.807 11.193,25 25,25 H 50 C 63.807,100 75,88.807 75,75 V 25 C 75,11.193 63.807,0 50,0 z M 37.5,93.945 c -3.559,0 -6.445,-2.881 -6.445,-6.445 0,-3.564 2.887,-6.445 6.445,-6.445 3.558,0 6.445,2.881 6.445,6.445 0,3.564 -2.886,6.445 -6.445,6.445 z M 62.5,75 h -50 V 25 c 0,-6.885 5.609,-12.5 12.5,-12.5 h 25 c 6.885,0 12.5,5.615 12.5,12.5 v 50 z"
   id="path3"
   style="fill:#ffffff" />
</svg>