<?xml version="1.0" encoding="UTF-8" standalone="no"?>
<svg width="24px" height="24px" viewBox="0 0 24 24" version="1.1" xmlns="http://www.w3.org/2000/svg" xmlns:xlink="http://www.w3.org/1999/xlink" xmlns:sketch="http://www.bohemiancoding.com/sketch/ns">
    <!-- Generator: Sketch 3.0.4 (8053) - http://www.bohemiancoding.com/sketch -->
    <title>citycom_orderentries/baseaddonmodule</title>
    <desc>Created with Sketch.</desc>
    <defs></defs>
    <g id="Citycom" stroke="none" stroke-width="1" fill="none" fill-rule="evenodd" sketch:type="MSPage">
        <g id="scratch" sketch:type="MSArtboardGroup" transform="translate(-89.000000, -131.000000)">
            <g id="BaseAddonG" sketch:type="MSLayerGroup" transform="translate(89.000000, 131.000000)">
                <path d="M2.79651634,9.38664874 C2.79651622,9.38664874 0.449607799,11.8146695 0.202310934,12.1981202 C-0.0449859299,12.581571 0.0183350795,12.8163266 0.362326174,13.1610273 C0.706317268,13.505728 3.804529,16.8857155 3.804529,16.8857155 C3.804529,16.8857155 3.64638883,13.1213585 7.44425064,15.5918875 C11.2421125,18.0624164 6.70105486,19.435582 6.70105486,19.435582 C6.70105486,19.435582 9.4329179,22.4166044 9.86448114,22.7481326 C10.2960444,23.0796608 10.6299188,23.0914247 11.0131322,22.7481326 C11.3963456,22.4048405 18.4350891,15.0611611 18.4350891,15.0611611 C18.4350891,15.0611611 19.0514012,14.4373524 18.3646137,13.8419208 C17.599541,13.1786173 17.1321637,12.8718629 16.4185542,12.1981202 C15.7049447,11.5243776 15.2399153,9.26790335 15.6527409,9.38664867 C15.6527409,9.38664867 15.791411,11.2241478 16.4185542,10.5606356 C17.0456973,9.89712327 16.6317929,10.3988286 15.6527413,9.38664878 C14.6736897,8.37446893 14.095509,4.45122807 13.397526,5.6279289 C12.6995429,6.80462973 13.6419078,7.11805163 13.7808958,7.31781827 C13.9558084,7.56921907 14.0575887,7.85689603 13.7275574,8.28260439 C13.3975261,8.70831274 12.8870606,8.21746402 12.5845319,7.99156092 C12.2820032,7.76565782 9.69854491,4.76704619 9.21525265,4.39590058 C8.73196038,4.02475497 8.1253052,4.21723455 7.92033765,4.40968026 C7.7153701,4.60212596 5.71804458,6.37892125 5.71804458,6.37892125 C5.71804458,6.37892125 7.61780873,6.68395317 7.61780884,7.86253305 C7.61780895,9.04111292 7.13026229,10.0299091 6.42415349,10.5606354 C5.71804469,11.0913617 4.01413239,11.7252268 3.40532432,11.1429311 C2.79651625,10.5606354 2.79651645,9.38664874 2.79651634,9.38664874 Z" id="Module-2" fill-opacity="0.56000042" fill="#417505" sketch:type="MSShapeGroup"></path>
                <path d="M16.5958883,12.605237 L14.4361183,12.605237 L14.4361183,10.7485453 L16.5958883,10.7485453 L16.5958883,8.58877533 L18.4525799,8.58877533 L18.4525799,10.7485453 L20.6123499,10.7485453 L20.6123499,12.605237 L18.4525799,12.605237 L18.4525799,14.765007 L16.5958883,14.765007 L16.5958883,12.605237 Z M8.50320871,7.12589982 C8.5032086,7.12589982 6.22570548,9.48211656 5.98572194,9.85422747 C5.74573841,10.2263384 5.80718682,10.4541516 6.14100504,10.7886584 C6.47482326,11.1231652 9.48141135,14.4031961 9.48141135,14.4031961 C9.48141135,14.4031961 9.32794787,10.7501628 13.0134952,13.1476305 C16.6990426,15.5450983 12.292278,16.8776552 12.292278,16.8776552 C12.292278,16.8776552 14.9433515,19.7705197 15.3621521,20.0922435 C15.7809527,20.4139674 16.1049534,20.4253835 16.476834,20.0922435 C16.8487146,19.7591036 23.6793008,12.6325994 23.6793008,12.6325994 C23.6793008,12.6325994 24.2773867,12.0272387 23.6109096,11.4494158 C22.8684624,10.8057282 20.9913664,8.98787302 20.2988605,8.33405501 C19.6063546,7.680237 20.5786181,7.0106661 20.9792352,7.12589975 C20.9792352,7.12589975 23.0023131,7.76978994 23.6109097,7.12589975 C24.2195063,6.48200957 23.2741091,5.44921214 22.3240111,4.46696556 C21.3739131,3.48471898 19.4680554,2.33643471 18.7907139,3.47833688 C18.1133724,4.62023905 19.0278686,4.92439211 19.1627463,5.11825103 C19.3324862,5.36221713 19.4312566,5.64138661 19.1109853,6.05450545 C18.790714,6.4676243 18.2953445,5.99129149 18.0017625,5.77206904 C17.7081805,5.55284659 15.2011231,2.64291312 14.7321233,2.28274343 C14.2631234,1.92257374 13.6744089,2.1093611 13.4755029,2.2961156 C13.2765969,2.48287009 11.3383384,4.20712008 11.3383384,4.20712008 C11.3383384,4.20712008 13.1819207,4.50313127 13.1819208,5.64685692 C13.1819209,6.79058256 12.7087925,7.75013697 12.0235655,8.26516808 C11.3383385,8.78019919 9.68481612,9.39531895 9.09401237,8.83024351 C8.50320863,8.26516808 8.50320882,7.12589982 8.50320871,7.12589982 Z" id="ModuleAdd-2" fill="#005DC9" sketch:type="MSShapeGroup"></path>
            </g>
        </g>
    </g>
</svg>