<?xml version="1.0" encoding="UTF-8" standalone="no"?>
<svg width="24px" height="24px" viewBox="0 0 24 24" version="1.1" xmlns="http://www.w3.org/2000/svg" xmlns:xlink="http://www.w3.org/1999/xlink" xmlns:sketch="http://www.bohemiancoding.com/sketch/ns">
    <!-- Generator: Sketch 3.0.4 (8053) - http://www.bohemiancoding.com/sketch -->
    <title>citycom_orderentries/basemodule</title>
    <desc>Created with Sketch.</desc>
    <defs></defs>
    <g id="Citycom" stroke="none" stroke-width="1" fill="none" fill-rule="evenodd" sketch:type="MSPage">
        <g id="scratch" sketch:type="MSArtboardGroup" transform="translate(-89.000000, -79.000000)" fill="#417505">
            <g id="BaseModuleG" sketch:type="MSLayerGroup" transform="translate(89.000000, 79.000000)">
                <path d="M4.27685547,7.07543945 C4.27685534,7.07543945 1.52683396,9.91464853 1.23706055,10.3630371 C0.947287134,10.8114257 1.02148438,11.0859375 1.42456055,11.4890137 C1.82763672,11.8920898 5.45800781,15.8444824 5.45800781,15.8444824 C5.45800781,15.8444824 5.27270495,11.442627 9.72290039,14.331543 C14.1730958,17.220459 8.85205078,18.8261719 8.85205078,18.8261719 C8.85205078,18.8261719 12.0531479,22.3120342 12.5588379,22.699707 C13.0645279,23.0873799 13.4557498,23.1011361 13.9047852,22.699707 C14.3538206,22.2982779 22.6015625,13.7109375 22.6015625,13.7109375 C22.6015625,13.7109375 23.3237345,12.981486 22.5189821,12.2852173 C21.6224978,11.5095825 19.3559569,9.3190918 18.5197754,8.53125 C17.6835939,7.7434082 18.8575748,6.93658439 19.3413088,7.07543937 C19.3413088,7.07543937 21.7841188,7.85131827 22.5189822,7.07543937 C23.2538456,6.29956046 22.1123049,5.05505363 20.9650881,3.87145988 C19.8178713,2.68786613 17.5166014,1.30419922 16.6987305,2.68017578 C15.8808595,4.05615234 16.9850881,4.42265263 17.1479492,4.65625 C17.3529054,4.95022583 17.4721678,5.28662124 17.0854492,5.78442383 C16.6987306,6.28222641 16.1005858,5.70825186 15.7460938,5.4440918 C15.3916017,5.17993173 12.3643999,1.67350153 11.7980957,1.23950195 C11.2317915,0.805502377 10.5209352,1.03057861 10.2807617,1.25561523 C10.0405882,1.48065186 7.70019531,3.55834961 7.70019531,3.55834961 C7.70019531,3.55834961 9.9262694,3.91503906 9.92626953,5.29321289 C9.92626966,6.67138672 9.35498034,7.82763672 8.52758789,8.44824219 C7.70019544,9.06884766 5.70361339,9.81005859 4.99023438,9.12915039 C4.27685536,8.44824219 4.2768556,7.07543945 4.27685547,7.07543945 Z" id="Module-2" sketch:type="MSShapeGroup"></path>
            </g>
        </g>
    </g>
</svg>