<?xml version="1.0" encoding="UTF-8" standalone="no"?>
<svg width="64px" height="64px" viewBox="0 0 64 64" version="1.1" xmlns="http://www.w3.org/2000/svg" xmlns:xlink="http://www.w3.org/1999/xlink" xmlns:sketch="http://www.bohemiancoding.com/sketch/ns">
    <!-- Generator: Sketch 3.0.4 (8053) - http://www.bohemiancoding.com/sketch -->
    <title>citycom_orderentries/module</title>
    <desc>Created with Sketch.</desc>
    <defs></defs>
    <g id="Citycom" stroke="none" stroke-width="1" fill="none" fill-rule="evenodd" sketch:type="MSPage">
        <g id="scratch" sketch:type="MSArtboardGroup" transform="translate(-89.000000, -10.000000)" fill="#417505">
            <g id="ModuleG" sketch:type="MSLayerGroup" transform="translate(89.000000, 10.000000)">
                <path d="M10.7879306,18.293224 C10.7879302,18.293224 3.41287289,25.9074665 2.63575328,27.1099632 C1.85863368,28.3124598 2.05761719,29.0486506 3.13859419,30.1296276 C4.2195712,31.2106046 13.9555664,41.8102029 13.9555664,41.8102029 C13.9555664,41.8102029 13.4586178,30.0052268 25.3932329,37.7527743 C37.3278479,45.5003218 23.0577725,49.8065518 23.0577725,49.8065518 C23.0577725,49.8065518 31.6425329,59.1550007 32.9987016,60.1946689 C34.3548703,61.234337 35.4040562,61.2712287 36.6082875,60.1946689 C37.8125188,59.118109 59.9314631,36.0884233 59.9314631,36.0884233 C59.9314631,36.0884233 61.8681971,34.1321671 59.7099974,32.2649009 C57.3057896,30.1847895 51.227339,24.3102916 48.9848522,22.1974432 C46.7423654,20.0845947 49.8907689,17.9208399 51.1880555,18.2932238 C51.1880555,18.2932238 57.7392276,20.3739899 59.7099977,18.2932238 C61.6807677,16.2124576 58.6193632,12.8749165 55.5427364,9.7007333 C52.4661095,6.52655006 46.294522,2.815807 44.1011408,6.50592596 C41.9077596,10.1960449 44.8691,11.1789321 45.3058638,11.8053977 C45.855519,12.5937875 46.1753592,13.4959388 45.1382502,14.8309548 C44.1011412,16.1659708 42.4970256,14.6266755 41.5463423,13.9182462 C40.5956591,13.2098169 32.4772542,3.80620865 30.9585294,2.64230069 C29.4398045,1.47839274 27.5334171,2.08200628 26.8893155,2.68551358 C26.2452139,3.28902088 19.9687056,8.8610285 19.9687056,8.8610285 C19.9687056,8.8610285 25.9386316,9.81760476 25.9386319,13.5136164 C25.9386323,17.209628 24.4065382,20.3104803 22.1876221,21.9748313 C19.968706,23.6391824 14.6142359,25.6269753 12.7010831,23.8009033 C10.7879303,21.9748313 10.7879309,18.293224 10.7879306,18.293224 Z" id="Module" sketch:type="MSShapeGroup"></path>
            </g>
        </g>
    </g>
</svg>