<?xml version="1.0" encoding="UTF-8" standalone="no"?>
<svg width="64px" height="64px" viewBox="0 0 64 64" version="1.1" xmlns="http://www.w3.org/2000/svg" xmlns:xlink="http://www.w3.org/1999/xlink" xmlns:sketch="http://www.bohemiancoding.com/sketch/ns">
    <!-- Generator: Sketch 3.0.3 (7891) - http://www.bohemiancoding.com/sketch -->
    <title>antispam</title>
    <desc>Created with Sketch.</desc>
    <defs></defs>
    <g id="Page-1" stroke="none" stroke-width="1" fill="none" fill-rule="evenodd" sketch:type="MSPage">
        <g id="Landscape" sketch:type="MSArtboardGroup" transform="translate(-297.000000, -223.000000)" fill="#FFFFFF">
            <g id="antispam" sketch:type="MSLayerGroup" transform="translate(297.000000, 223.000000)">
                <g id="SPAM" transform="translate(15.000000, 8.000000)" sketch:type="MSShapeGroup">
                    <g id="spam" transform="translate(7.000000, 21.000000)">
                        <g id="junk" transform="translate(7.500000, 3.554839)" stroke="#000000" stroke-opacity="0.2" stroke-width="2" fill-opacity="0.436848958">
                            <g id="path5359">
                                <path d="M9.70853365,2.10142809 L6.58954327,3.03642473 L5.76021635,5.03602151 C5.72142173,5.12564788 5.63487115,5.18340749 5.53936298,5.18340749 C5.44385481,5.18340749 5.35730423,5.12564788 5.31850962,5.03602151 L5.09314904,4.50835013 L4.60637019,4.53612231 L4.60637019,5.13785282 C4.60772942,5.2418911 4.54575721,5.33575751 4.45114183,5.37296985 C4.35652644,5.4101822 4.2493526,5.38284135 4.18269231,5.30448589 L3.33533654,4.3046875 L2.21754808,5.54517809 L2.21754808,7.48923051 L4.52524038,9.56288642 C4.58182413,9.61669513 4.61000683,9.69500378 4.60109971,9.77366999 C4.5921926,9.8523362 4.547265,9.92191447 4.48016827,9.9609543 L3.09194712,10.7756048 L3.11899038,11.4051075 L3.91225962,12.1271841 C3.99938945,12.2071221 4.0183633,12.3396219 3.95733173,12.4419355 L3.59675481,13.0344086 L4.28185096,13.3399026 L4.93088942,12.8029738 C4.97891337,12.7625523 5.04024404,12.7426627 5.10216346,12.7474294 L8.51862981,13.0066364 C8.58725712,13.0139194 8.6495824,13.050975 8.68990385,13.1084677 L9.54627404,14.2841566 L10.3305288,12.9696069 C10.3965104,12.8536824 10.5402995,12.8126646 10.6550481,12.8770329 L11.8179087,13.5250504 L13.0348558,13.3676747 L12.7644231,12.7937164 C12.7176237,12.6980826 12.7357907,12.5824112 12.8094952,12.5067372 L13.7740385,11.5161962 L12.3407452,9.85912298 C12.2680924,9.78167964 12.2522657,9.66499887 12.301543,9.57011312 C12.3508206,9.47522736 12.4539923,9.42372278 12.5570913,9.44254032 L13.6748798,9.59991599 C13.6642537,9.5855426 13.6551857,9.57002187 13.6478365,9.55362903 L12.7824519,8.02615927 L11.5564904,7.73918011 C11.4545662,7.71245927 11.3811764,7.62110525 11.3749993,7.51326359 C11.3688222,7.40542163 11.4312764,7.30586127 11.5294471,7.26705309 L12.4399038,6.95230175 L12.4759615,6.28576949 L10.4747596,4.48983535 C10.4412923,4.46026502 10.4163516,4.42184521 10.4026442,4.37874664 L9.70853365,2.10142809 L9.70853365,2.10142809 Z" transform="translate(7.986779, 8.174278) rotate(332.000000) translate(-7.986779, -8.174278) "></path>
                            </g>
                        </g>
                        <g id="junk-2" transform="translate(14.671537, 11.080520) rotate(-29.000000) translate(-14.671537, -11.080520) translate(6.738845, 2.934015)" stroke="#000000" stroke-opacity="0.2" stroke-width="2" fill-opacity="0.436848958">
                            <g id="junk">
                                <path d="M9.70853365,2.10142809 L6.58954327,3.03642473 L5.76021635,5.03602151 C5.72142173,5.12564788 5.63487115,5.18340749 5.53936298,5.18340749 C5.44385481,5.18340749 5.35730423,5.12564788 5.31850962,5.03602151 L5.09314904,4.50835013 L4.60637019,4.53612231 L4.60637019,5.13785282 C4.60772942,5.2418911 4.54575721,5.33575751 4.45114183,5.37296985 C4.35652644,5.4101822 4.2493526,5.38284135 4.18269231,5.30448589 L3.33533654,4.3046875 L2.21754808,5.54517809 L2.21754808,7.48923051 L4.52524038,9.56288642 C4.58182413,9.61669513 4.61000683,9.69500378 4.60109971,9.77366999 C4.5921926,9.8523362 4.547265,9.92191447 4.48016827,9.9609543 L3.09194712,10.7756048 L3.11899038,11.4051075 L3.91225962,12.1271841 C3.99938945,12.2071221 4.0183633,12.3396219 3.95733173,12.4419355 L3.59675481,13.0344086 L4.28185096,13.3399026 L4.93088942,12.8029738 C4.97891337,12.7625523 5.04024404,12.7426627 5.10216346,12.7474294 L8.51862981,13.0066364 C8.58725712,13.0139194 8.6495824,13.050975 8.68990385,13.1084677 L9.54627404,14.2841566 L10.3305288,12.9696069 C10.3965104,12.8536824 10.5402995,12.8126646 10.6550481,12.8770329 L11.8179087,13.5250504 L13.0348558,13.3676747 L12.7644231,12.7937164 C12.7176237,12.6980826 12.7357907,12.5824112 12.8094952,12.5067372 L13.7740385,11.5161962 L12.3407452,9.85912298 C12.2680924,9.78167964 12.2522657,9.66499887 12.301543,9.57011312 C12.3508206,9.47522736 12.4539923,9.42372278 12.5570913,9.44254032 L13.6748798,9.59991599 C13.6642537,9.5855426 13.6551857,9.57002187 13.6478365,9.55362903 L12.7824519,8.02615927 L11.5564904,7.73918011 C11.4545662,7.71245927 11.3811764,7.62110525 11.3749993,7.51326359 C11.3688222,7.40542163 11.4312764,7.30586127 11.5294471,7.26705309 L12.4399038,6.95230175 L12.4759615,6.28576949 L10.4747596,4.48983535 C10.4412923,4.46026502 10.4163516,4.42184521 10.4026442,4.37874664 L9.70853365,2.10142809 L9.70853365,2.10142809 Z" id="path5359" transform="translate(7.986779, 8.174278) rotate(332.000000) translate(-7.986779, -8.174278) "></path>
                            </g>
                        </g>
                        <g id="junk-3" transform="translate(15.226480, 12.261440) rotate(-316.000000) translate(-15.226480, -12.261440) translate(7.149557, 4.141440)" stroke="#000000" stroke-opacity="0.2" stroke-width="2" fill-opacity="0.436848958">
                            <g id="junk" transform="translate(0.000000, -0.000000)">
                                <path d="M9.70853365,2.10142809 L6.58954327,3.03642473 L5.76021635,5.03602151 C5.72142173,5.12564788 5.63487115,5.18340749 5.53936298,5.18340749 C5.44385481,5.18340749 5.35730423,5.12564788 5.31850962,5.03602151 L5.09314904,4.50835013 L4.60637019,4.53612231 L4.60637019,5.13785282 C4.60772942,5.2418911 4.54575721,5.33575751 4.45114183,5.37296985 C4.35652644,5.4101822 4.2493526,5.38284135 4.18269231,5.30448589 L3.33533654,4.3046875 L2.21754808,5.54517809 L2.21754808,7.48923051 L4.52524038,9.56288642 C4.58182413,9.61669513 4.61000683,9.69500378 4.60109971,9.77366999 C4.5921926,9.8523362 4.547265,9.92191447 4.48016827,9.9609543 L3.09194712,10.7756048 L3.11899038,11.4051075 L3.91225962,12.1271841 C3.99938945,12.2071221 4.0183633,12.3396219 3.95733173,12.4419355 L3.59675481,13.0344086 L4.28185096,13.3399026 L4.93088942,12.8029738 C4.97891337,12.7625523 5.04024404,12.7426627 5.10216346,12.7474294 L8.51862981,13.0066364 C8.58725712,13.0139194 8.6495824,13.050975 8.68990385,13.1084677 L9.54627404,14.2841566 L10.3305288,12.9696069 C10.3965104,12.8536824 10.5402995,12.8126646 10.6550481,12.8770329 L11.8179087,13.5250504 L13.0348558,13.3676747 L12.7644231,12.7937164 C12.7176237,12.6980826 12.7357907,12.5824112 12.8094952,12.5067372 L13.7740385,11.5161962 L12.3407452,9.85912298 C12.2680924,9.78167964 12.2522657,9.66499887 12.301543,9.57011312 C12.3508206,9.47522736 12.4539923,9.42372278 12.5570913,9.44254032 L13.6748798,9.59991599 C13.6642538,9.5855426 13.6551857,9.57002187 13.6478365,9.55362903 L12.7824519,8.02615927 L11.5564904,7.73918011 C11.4545663,7.71245927 11.3811764,7.62110525 11.3749993,7.51326359 C11.3688222,7.40542163 11.4312764,7.30586127 11.5294471,7.26705309 L12.4399038,6.95230175 L12.4759615,6.28576949 L10.4747596,4.48983535 C10.4412923,4.46026502 10.4163516,4.42184521 10.4026442,4.37874664 L9.70853365,2.10142809 L9.70853365,2.10142809 Z" id="path5359" transform="translate(7.986779, 8.174278) rotate(332.000000) translate(-7.986779, -8.174278) "></path>
                            </g>
                        </g>
                        <path d="M0.469495042,3.89393186 L7.61743326,28.9723232 L24.0425999,28.7098134 L30.6941339,3.89393188 L27.3943713,3.89393188 L21.3175301,26.5518656 L10.2347875,26.5518656 L4.03213389,3.89393186 L0.469495042,3.89393186 Z" id="Path-276" stroke-opacity="0.101873868" stroke="#FFFFFF" fill-opacity="0.666185462"></path>
                    </g>
                    <path d="M3.92857143,4 C2.86345068,4 2,4.87171435 2,5.95 C2.02391171,8.9069436 2.00006274,12.0364368 2,15.05 C2,16.0877828 2.79840337,16.9277197 3.80803571,16.9898437 L18.1517857,17 C19.180136,16.9580106 20,16.1013958 20,15.05 L20,5.61484375 C19.8439496,4.69552633 19.0545937,4 18.1015625,4 C13.3797797,4.00216791 8.65215296,4.00002528 3.92857143,4 L3.92857143,4 Z M3.8984375,5.02578125 L18.1618304,5.02578125 L11.2611607,12.003125 C11.1352453,12.1304395 10.9350676,12.1304395 10.8091518,12.003125 L3.8984375,5.02578125 L3.8984375,5.02578125 Z M19.0357143,5.5234375 L19.0357143,14.9789062 C19.0357143,15.5422606 18.8349837,15.8604769 18.4330357,15.9742188 L13.5714286,11.0484375 L19.0357143,5.5234375 L19.0357143,5.5234375 Z M3.07477679,5.5640625 L8.44866071,10.9976563 L3.53683036,15.9640625 C3.20055056,15.8493287 3.08350293,15.5755861 3.07477679,15.2023438 L3.07477679,5.5640625 L3.07477679,5.5640625 Z M9.13169643,11.678125 L10.8091518,13.384375 C10.9350676,13.5116895 11.1352453,13.5116895 11.2611607,13.384375 L12.8883929,11.7390625 L17.1272321,16.025 L4.83258929,16.025 L9.13169643,11.678125 L9.13169643,11.678125 Z" id="mail-3" fill-opacity="0.438830389" transform="translate(11.000000, 10.500000) rotate(31.000000) translate(-11.000000, -10.500000) "></path>
                </g>
            </g>
        </g>
    </g>
</svg>