<?xml version="1.0" encoding="UTF-8" standalone="no"?>
<svg width="64px" height="64px" viewBox="0 0 64 64" version="1.1" xmlns="http://www.w3.org/2000/svg" xmlns:xlink="http://www.w3.org/1999/xlink" xmlns:sketch="http://www.bohemiancoding.com/sketch/ns">
    <!-- Generator: Sketch 3.0.3 (7891) - http://www.bohemiancoding.com/sketch -->
    <title>calender</title>
    <desc>Created with Sketch.</desc>
    <defs></defs>
    <g id="Page-1" stroke="none" stroke-width="1" fill="none" fill-rule="evenodd" sketch:type="MSPage">
        <g id="Landscape" sketch:type="MSArtboardGroup" transform="translate(-225.000000, -223.000000)">
            <g id="calender" sketch:type="MSLayerGroup" transform="translate(225.000000, 223.000000)">
                <g id="cal" transform="translate(9.000000, 8.000000)" sketch:type="MSShapeGroup">
                    <g id="layer1">
                        <g transform="translate(0.028245, 0.003138)">
                            <g id="g3000">
                                <path d="M45.9938334,1.02612125 L46.0070165,34.9268325 L35.646203,34.9291018 C33.6229454,34.9295034 32.4545384,36.9328423 32.4506238,38.6185919 L32.4273306,48.6490726 L4.01898808,48.6490726 C2.33294041,48.6490726 0.975580406,47.0205245 0.975580406,44.9976188 L0.975580406,1.00076475 L45.9938334,1.02612125 Z" id="rect2985" stroke-opacity="0.500000477" stroke="#FFFFFF" stroke-width="2"></path>
                                <rect id="rect3755" fill-opacity="0.80262115" fill="#FFFFFF" x="0" y="0" width="47.0324069" height="12.3476405"></rect>
                                <path d="M32.7000291,48.9307152 L46.2927263,35.2065502" id="path3791" stroke-opacity="0.500000477" stroke="#FFFFFF" stroke-width="2"></path>
                                <path d="M44.1067081,35.9172872 L35.9529362,35.9190644 C34.3606696,35.9193657 33.4411538,37.4959718 33.4380737,38.8226277 L33.4197427,46.7164333 C44.1208393,35.8908583 33.3666648,46.7373266 44.1067081,35.9172791 L44.1067081,35.9172872 Z" id="rect2985-4" fill-opacity="0.818094552" fill="#FFFFFF"></path>
                            </g>
                        </g>
                    </g>
                    <path d="M12.5742188,24.6289062 C13.2929723,24.6289062 13.9121068,24.4179709 14.4316406,23.9960938 C14.9511745,23.5742166 15.2109375,22.9687539 15.2109375,22.1796875 C15.2109375,21.578122 15.0039083,21.060549 14.5898438,20.6269531 C14.1757792,20.1933572 13.617191,19.9765625 12.9140625,19.9765625 C12.4374976,19.9765625 12.0449234,20.0429681 11.7363281,20.1757812 C11.4277328,20.3085944 11.1835946,20.4843739 11.0039062,20.703125 C10.8242179,20.9218761 10.6542977,21.2031233 10.4941406,21.546875 C10.3339836,21.8906267 10.1875007,22.2148422 10.0546875,22.5195312 C9.97656211,22.6835946 9.83593852,22.8124995 9.6328125,22.90625 C9.42968648,23.0000005 9.19531383,23.046875 8.9296875,23.046875 C8.61718594,23.046875 8.33007943,22.9199231 8.06835938,22.6660156 C7.80663932,22.4121081 7.67578125,22.0742209 7.67578125,21.6523438 C7.67578125,21.2460917 7.79882689,20.8183616 8.04492188,20.3691406 C8.29101686,19.9199196 8.65038826,19.4921895 9.12304688,19.0859375 C9.59570549,18.6796855 10.1835902,18.3535169 10.8867188,18.1074219 C11.5898473,17.8613269 12.3749957,17.7382812 13.2421875,17.7382812 C14.0000038,17.7382812 14.6914031,17.8417958 15.3164062,18.0488281 C15.9414094,18.2558604 16.4843727,18.5546855 16.9453125,18.9453125 C17.4062523,19.3359395 17.7539051,19.7890599 17.9882812,20.3046875 C18.2226574,20.8203151 18.3398438,21.374997 18.3398438,21.96875 C18.3398438,22.7500039 18.1699236,23.4199191 17.8300781,23.9785156 C17.4902327,24.5371122 17.0039094,25.0820286 16.3710938,25.6132812 C16.9804718,25.9414079 17.4941385,26.3164041 17.9121094,26.7382812 C18.3300802,27.1601584 18.6445302,27.6269506 18.8554688,28.1386719 C19.0664073,28.6503932 19.171875,29.203122 19.171875,29.796875 C19.171875,30.5078161 19.0292983,31.1953092 18.7441406,31.859375 C18.4589829,32.5234408 18.0390653,33.1152318 17.484375,33.6347656 C16.9296847,34.1542995 16.2714882,34.5605454 15.5097656,34.8535156 C14.7480431,35.1464858 13.9062546,35.2929688 12.984375,35.2929688 C12.0468703,35.2929688 11.207035,35.1250017 10.4648438,34.7890625 C9.72265254,34.4531233 9.11133053,34.0332056 8.63085938,33.5292969 C8.15038822,33.0253881 7.78711061,32.5039089 7.54101562,31.9648438 C7.29492064,31.4257786 7.171875,30.9804705 7.171875,30.6289062 C7.171875,30.175779 7.31835791,29.8105483 7.61132812,29.5332031 C7.90429834,29.255858 8.26952906,29.1171875 8.70703125,29.1171875 C8.92578234,29.1171875 9.13671773,29.18164 9.33984375,29.3105469 C9.54296977,29.4394538 9.67578094,29.5937491 9.73828125,29.7734375 C10.1445333,30.8593804 10.5800758,31.666013 11.0449219,32.1933594 C11.5097679,32.7207058 12.1640583,32.984375 13.0078125,32.984375 C13.4921899,32.984375 13.9589821,32.8652356 14.4082031,32.6269531 C14.8574241,32.3886707 15.2285142,32.0351586 15.5214844,31.5664062 C15.8144546,31.0976539 15.9609375,30.5546906 15.9609375,29.9375 C15.9609375,29.0234329 15.71094,28.3066432 15.2109375,27.7871094 C14.710935,27.2675755 14.0156295,27.0078125 13.125,27.0078125 C12.9687492,27.0078125 12.7265641,27.0234373 12.3984375,27.0546875 C12.0703109,27.0859377 11.8593755,27.1015625 11.765625,27.1015625 C11.3359354,27.1015625 11.0039074,26.9941417 10.7695312,26.7792969 C10.5351551,26.5644521 10.4179688,26.2656269 10.4179688,25.8828125 C10.4179688,25.5078106 10.5585923,25.2050793 10.8398438,24.9746094 C11.1210952,24.7441395 11.5390597,24.6289062 12.09375,24.6289062 L12.5742188,24.6289062 Z M27.0351562,33.3945312 L27.0351562,22.7304688 C25.0507713,24.2539139 23.7148472,25.015625 23.0273438,25.015625 C22.6992171,25.015625 22.4082044,24.8847669 22.1542969,24.6230469 C21.9003894,24.3613268 21.7734375,24.0585955 21.7734375,23.7148438 C21.7734375,23.3164043 21.8984362,23.0234384 22.1484375,22.8359375 C22.3984388,22.6484366 22.8398406,22.4062515 23.4726562,22.109375 C24.4179735,21.6640603 25.1738253,21.195315 25.7402344,20.703125 C26.3066435,20.210935 26.8085916,19.6601593 27.2460938,19.0507812 C27.6835959,18.4414032 27.9687493,18.066407 28.1015625,17.9257812 C28.2343757,17.7851555 28.4843732,17.7148438 28.8515625,17.7148438 C29.2656271,17.7148438 29.597655,17.8749984 29.8476562,18.1953125 C30.0976575,18.5156266 30.2226562,18.9570284 30.2226562,19.5195312 L30.2226562,32.9375 C30.2226562,34.5078204 29.6875054,35.2929688 28.6171875,35.2929688 C28.1406226,35.2929688 27.7578139,35.1328141 27.46875,34.8125 C27.1796861,34.4921859 27.0351562,34.0195344 27.0351562,33.3945312 L27.0351562,33.3945312 Z" id="31" fill-opacity="0.6" fill="#FFFFFF"></path>
                </g>
            </g>
        </g>
    </g>
</svg>