<?xml version="1.0" encoding="UTF-8" standalone="no"?>
<svg width="64px" height="64px" viewBox="0 0 64 64" version="1.1" xmlns="http://www.w3.org/2000/svg" xmlns:xlink="http://www.w3.org/1999/xlink" xmlns:sketch="http://www.bohemiancoding.com/sketch/ns">
    <!-- Generator: Sketch 3.0.3 (7891) - http://www.bohemiancoding.com/sketch -->
    <title>crypto</title>
    <desc>Created with Sketch.</desc>
    <defs></defs>
    <g id="Page-1" stroke="none" stroke-width="1" fill="none" fill-rule="evenodd" sketch:type="MSPage">
        <g id="Landscape" sketch:type="MSArtboardGroup" transform="translate(-6.000000, -151.000000)" fill="#FFFFFF">
            <g id="crypto" sketch:type="MSLayerGroup" transform="translate(6.000000, 151.000000)">
                <path d="M33.8227562,28.4285559 L19.3137578,28.4285559 L19.3137578,26.6362638 C19.3137578,22.598483 22.5679228,19.3129246 26.5701028,19.3129246 C30.5690526,19.3129246 33.8227562,22.598483 33.8227562,26.6362638 L33.8227562,28.4285559 Z M28.2843999,39.3183143 L29.1943848,46.746918 L23.9042901,46.746918 L24.8521141,39.3178485 C23.4815993,38.6666987 22.5314681,37.2633265 22.5314681,35.6331232 C22.5314681,33.3820452 24.3380557,31.5576148 26.5687184,31.5576148 C28.7993812,31.5576148 30.6068917,33.3820452 30.6068917,35.6331232 C30.6068917,37.264258 29.6535303,38.6676302 28.2843999,39.3183143 L28.2843999,39.3183143 Z M39.3546521,28.4285559 L37.9938278,28.4285559 L37.9938278,26.6362638 C37.9938278,20.2766077 32.8698562,15.1037396 26.5701028,15.1037396 C20.2680422,15.1037396 15.1431476,20.2766077 15.1431476,26.6362638 L15.1431476,28.4285559 L13.7827848,28.4285559 C12.8368066,28.4285559 12.0689492,29.2026696 12.0689492,30.1584346 L12.0689492,48.3733952 C12.0689492,49.3286943 12.8368066,50.1037396 13.7827848,50.1037396 L39.3546521,50.1037396 C40.3001688,50.1037396 41.0689492,49.3286943 41.0689492,48.3733952 L41.0689492,30.1584346 C41.0689492,29.2026696 40.3001688,28.4285559 39.3546521,28.4285559 L39.3546521,28.4285559 Z" id="Fill-42" sketch:type="MSShapeGroup" transform="translate(26.568949, 32.603740) rotate(28.000000) translate(-26.568949, -32.603740) "></path>
                <path d="M46.2368187,27.3854752 L31.7278203,27.3854752 L31.7278203,25.5931831 C31.7278203,21.5554023 34.9819853,18.2698439 38.9841653,18.2698439 C42.9831151,18.2698439 46.2368187,21.5554023 46.2368187,25.5931831 L46.2368187,27.3854752 Z M40.6984624,38.2752335 L41.6084473,45.7038373 L36.3183526,45.7038373 L37.2661766,38.2747678 C35.8956618,37.623618 34.9455306,36.2202458 34.9455306,34.5900424 C34.9455306,32.3389645 36.7521182,30.5145341 38.9827809,30.5145341 C41.2134437,30.5145341 43.0209542,32.3389645 43.0209542,34.5900424 C43.0209542,36.2211773 42.0675928,37.6245495 40.6984624,38.2752335 L40.6984624,38.2752335 Z M51.7687146,27.3854752 L50.4078903,27.3854752 L50.4078903,25.5931831 C50.4078903,19.2335269 45.2839187,14.0606589 38.9841653,14.0606589 C32.6821047,14.0606589 27.5572101,19.2335269 27.5572101,25.5931831 L27.5572101,27.3854752 L26.1968473,27.3854752 C25.2508691,27.3854752 24.4830117,28.1595889 24.4830117,29.1153538 L24.4830117,47.3303144 C24.4830117,48.2856136 25.2508691,49.0606589 26.1968473,49.0606589 L51.7687146,49.0606589 C52.7142313,49.0606589 53.4830117,48.2856136 53.4830117,47.3303144 L53.4830117,29.1153538 C53.4830117,28.1595889 52.7142313,27.3854752 51.7687146,27.3854752 L51.7687146,27.3854752 Z" id="Fill-43" fill-opacity="0.5" sketch:type="MSShapeGroup" transform="translate(38.983012, 31.560659) rotate(-36.000000) translate(-38.983012, -31.560659) "></path>
            </g>
        </g>
    </g>
</svg>