<?xml version="1.0" encoding="UTF-8" standalone="no"?>
<svg width="64px" height="64px" viewBox="0 0 64 64" version="1.1" xmlns="http://www.w3.org/2000/svg" xmlns:xlink="http://www.w3.org/1999/xlink" xmlns:sketch="http://www.bohemiancoding.com/sketch/ns">
    <!-- Generator: Sketch 3.0.3 (7891) - http://www.bohemiancoding.com/sketch -->
    <title>datastore</title>
    <desc>Created with Sketch.</desc>
    <defs></defs>
    <g id="Page-1" stroke="none" stroke-width="1" fill="none" fill-rule="evenodd" sketch:type="MSPage">
        <g id="Landscape" sketch:type="MSArtboardGroup" transform="translate(-153.000000, -296.000000)" stroke="#FFFFFF">
            <g id="datastore" sketch:type="MSLayerGroup" transform="translate(153.000000, 296.000000)">
                <g id="bigdata" transform="translate(6.000000, 8.000000)" stroke-width="2" sketch:type="MSShapeGroup">
                    <g id="data" transform="translate(-0.390842, 0.000000)">
                        <g>
                            <path d="M0.186929003,2.23937379 L0.186929003,16.0052211 C0.184665992,16.0161902 0.183665547,16.0268708 0.183665547,16.0379061 C0.183665547,16.0489415 0.184665992,16.0623458 0.186929003,16.0733149 L0.186929003,16.1005525 L0.193455913,16.1005525 C0.448810595,16.7789909 5.00844156,17.31807 10.5908248,17.31807 C16.1714474,17.31807 20.7302043,16.7786894 20.9881938,16.1005525 L20.9979841,16.1005525 L20.9979841,16.0733149 C21.0002471,16.0623458 21.0012476,16.0489415 21.0012476,16.0379061 C21.0012476,16.0268708 21.0002471,16.0161902 20.9979841,16.0052211 L20.9979841,2.23937379 C20.9971967,2.24030763 20.9955655,2.24116476 20.9947207,2.24209755 C20.805977,2.92804313 16.2172193,3.47595763 10.5908248,3.47595763 C4.96443034,3.47595763 0.378935054,2.92804313 0.190192458,2.24209755 C0.189347615,2.24116476 0.187715365,2.24030763 0.186929003,2.23937379 L0.186929003,2.23937379 Z" id="path5588" stroke-opacity="0.7"></path>
                            <path d="M21.002067,1.32173478 C21.002067,2.04941603 16.341526,2.63931823 10.5924574,2.63931823 C4.8433887,2.63931823 0.18284771,2.04941603 0.18284771,1.32173478 C0.182847655,0.85100754 2.16690804,0.416037634 5.3876525,0.180674014 C8.60839696,-0.0546896055 12.5765178,-0.0546896055 15.7972622,0.180674014 C19.0180067,0.416037634 21.0020671,0.85100754 21.002067,1.32173478 L21.002067,1.32173478 Z" id="path5584" stroke-opacity="0.500000477"></path>
                        </g>
                    </g>
                    <g id="data-2" transform="translate(-0.390842, 17.318070)" stroke-opacity="0.7">
                        <g id="data">
                            <path d="M0.186929003,-0.358336709 L0.186929003,13.4075106 C0.184665992,13.4184797 0.183665547,13.4291603 0.183665547,13.4401956 C0.183665547,13.451231 0.184665992,13.4646353 0.186929003,13.4756044 L0.186929003,13.502842 L0.193455913,13.502842 C0.448810595,14.1812804 5.00844156,14.7203595 10.5908248,14.7203595 C16.1714474,14.7203595 20.7302043,14.1809789 20.9881938,13.502842 L20.9979841,13.502842 L20.9979841,13.4756044 C21.0002471,13.4646353 21.0012476,13.451231 21.0012476,13.4401956 C21.0012476,13.4291603 21.0002471,13.4184797 20.9979841,13.4075106 L20.9979841,-0.358336709 C20.9971967,-0.357402876 20.9955655,-0.356545743 20.9947207,-0.355612956 C20.805977,0.330332624 16.2172193,0.878247122 10.5908248,0.878247122 C4.96443034,0.878247122 0.378935054,0.330332624 0.190192458,-0.355612956 C0.189347615,-0.356545743 0.187715365,-0.357402876 0.186929003,-0.358336709 L0.186929003,-0.358336709 Z" id="path5588"></path>
                        </g>
                    </g>
                    <g id="data-4" transform="translate(-0.390842, 32.038430)" stroke-opacity="0.7">
                        <g id="data">
                            <path d="M0.186929003,-0.358336709 L0.186929003,13.4075106 C0.184665992,13.4184797 0.183665547,13.4291603 0.183665547,13.4401956 C0.183665547,13.451231 0.184665992,13.4646353 0.186929003,13.4756044 L0.186929003,13.502842 L0.193455913,13.502842 C0.448810595,14.1812804 5.00844156,14.7203595 10.5908248,14.7203595 C16.1714474,14.7203595 20.7302043,14.1809789 20.9881938,13.502842 L20.9979841,13.502842 L20.9979841,13.4756044 C21.0002471,13.4646353 21.0012476,13.451231 21.0012476,13.4401956 C21.0012476,13.4291603 21.0002471,13.4184797 20.9979841,13.4075106 L20.9979841,-0.358336709 C20.9971967,-0.357402876 20.9955655,-0.356545743 20.9947207,-0.355612956 C20.805977,0.330332624 16.2172193,0.878247122 10.5908248,0.878247122 C4.96443034,0.878247122 0.378935054,0.330332624 0.190192458,-0.355612956 C0.189347615,-0.356545743 0.187715365,-0.357402876 0.186929003,-0.358336709 L0.186929003,-0.358336709 Z" id="path5588"></path>
                        </g>
                    </g>
                </g>
                <g id="cloud" transform="translate(32.000000, 22.000000)" stroke-width="2.5" sketch:type="MSShapeGroup">
                    <path d="M6.8438769,13.9364029 C7.31715964,21.6214376 15.5996183,16.5457402 15.0671754,14.6334173 C18.0646364,19.458905 22.0086658,14.9551164 21.9297845,13.1857728 C29.2853972,15.2589439 27.5303027,3.82075323 22.87635,6.69817337 C22.8960695,2.33736343 19.6834069,0.746764698 17.3958712,2.33738851 C15.0671757,0.746764723 11.021319,-2.36358558 8.97042379,3.83805791 C6.05184278,3.39125322 5.08878406,5.00031702 5.18738484,7.34157153 C0.474272085,1.22928898 -2.19570327,11.2153456 2.46600538,10.5049461 C0.888394688,11.8453587 1.91384137,16.6708458 6.8438769,13.9364029 Z" id="path4006" stroke-opacity="0.433706975" fill-opacity="0.464447464" fill="#FFFFFF"></path>
                    <path d="M17.8840313,6.09636947 C19.4813632,6.20360349 19.5996835,7.97294919 19.1855609,9.31336178" id="path5253" stroke-opacity="0.324898098"></path>
                </g>
            </g>
        </g>
    </g>
</svg>