<?xml version="1.0" encoding="UTF-8" standalone="no"?>
<svg width="64px" height="64px" viewBox="0 0 64 64" version="1.1" xmlns="http://www.w3.org/2000/svg" xmlns:xlink="http://www.w3.org/1999/xlink" xmlns:sketch="http://www.bohemiancoding.com/sketch/ns">
    <!-- Generator: Sketch 3.0.3 (7891) - http://www.bohemiancoding.com/sketch -->
    <title>dns</title>
    <desc>Created with Sketch.</desc>
    <defs></defs>
    <g id="Page-1" stroke="none" stroke-width="1" fill="none" fill-rule="evenodd" sketch:type="MSPage">
        <g id="Landscape" sketch:type="MSArtboardGroup" transform="translate(-513.000000, -223.000000)" fill="#FFFFFF">
            <g id="webdomain" sketch:type="MSLayerGroup" transform="translate(441.000000, 223.000000)" stroke="#000000" stroke-opacity="0.199643342" stroke-width="1.81818182" fill-opacity="0.332314312">
                <g id="cog" transform="translate(104.602324, 46.033470) rotate(22.000000) translate(-104.602324, -46.033470) translate(91.099205, 32.530351)" sketch:type="MSShapeGroup">
                    <g id="cw" transform="translate(-0.136334, -0.163468)">
                        <path d="M13.6394532,0.163468015 C12.7147731,0.163468015 11.8114212,0.260417709 10.9388294,0.437750153 L10.9388294,2.52651397 C9.76579996,2.80969868 8.67037293,3.26399359 7.66854278,3.87682593 L6.19163915,2.39992223 C5.43457328,2.90160496 4.74266671,3.49022012 4.10287543,4.13000941 C3.46308415,4.76979887 2.8744697,5.46170746 2.37278832,6.21877333 L3.84969195,7.69567696 C3.23685965,8.69750576 2.78256747,9.79293211 2.49938006,10.9659636 L0.410616344,10.9659636 C0.233286635,11.8385537 0.136334241,12.7419043 0.136334241,13.6665877 C0.136334241,14.5912712 0.233286635,15.4946217 0.410616344,16.3672115 L2.49938006,16.3672115 C2.78256747,17.540243 3.23685965,18.6356697 3.84969195,19.6374985 L2.37278832,21.1144021 C2.8744697,21.871468 3.46308415,22.5633766 4.10287543,23.2031658 C4.74266671,23.8429551 5.43457328,24.4315705 6.19163915,24.9332533 L7.66854278,23.4563493 C8.67037293,24.0691816 9.76579996,24.5234768 10.9388294,24.8066615 L10.9388294,26.8954252 C11.8114212,27.0727576 12.7147664,27.1697073 13.6394532,27.1697073 C14.5641333,27.1697073 15.4674852,27.0727576 16.340077,26.8954252 L16.340077,24.8066615 C17.5131064,24.5234768 18.6085335,24.0691816 19.6103636,23.4563493 L21.0872672,24.9332533 C21.8443331,24.4315705 22.5362397,23.8429551 23.176031,23.2031658 C23.8158222,22.5633766 24.4044367,21.871468 24.9061181,21.1144021 L23.4292144,19.6374985 C24.0420467,18.6356697 24.4963389,17.540243 24.7795263,16.3672115 L26.86829,16.3672115 C27.0456198,15.4946217 27.1425721,14.5912712 27.1425721,13.6665877 C27.1425721,12.7419043 27.0456198,11.8385537 26.86829,10.9659636 L24.7795263,10.9659636 C24.4963389,9.79293211 24.0420467,8.69750576 23.4292144,7.69567696 L24.9061181,6.21877333 C24.4044367,5.46170746 23.8158222,4.76979887 23.176031,4.13000941 C22.5362397,3.49022012 21.8443331,2.90160496 21.0872672,2.39992223 L19.6103636,3.87682593 C18.6085335,3.26399359 17.5131064,2.80969868 16.340077,2.52651397 L16.340077,0.437750153 C15.4674852,0.260417709 14.5641333,0.163468015 13.6394532,0.163468015 L13.6394532,0.163468015 Z M13.6394532,6.9150279 C17.366314,6.9150279 20.3910127,9.93972654 20.3910127,13.6665877 C20.3910127,17.3934485 17.366314,20.4181475 13.6394532,20.4181475 C9.91259236,20.4181475 6.88789372,17.3934485 6.88789372,13.6665877 C6.88789372,9.93972654 9.91259236,6.9150279 13.6394532,6.9150279 L13.6394532,6.9150279 Z"></path>
                    </g>
                </g>
            </g>
            <g id="dns" sketch:type="MSLayerGroup" transform="translate(513.000000, 223.000000)">
                <path d="M10.03125,7.8203125 L14.5664062,7.8203125 C15.7460996,7.8203125 16.7578083,7.92968641 17.6015625,8.1484375 C18.4453167,8.36718859 19.2109341,8.77734074 19.8984375,9.37890625 C21.6875089,10.9101639 22.5820312,13.2382656 22.5820312,16.3632812 C22.5820312,17.3945364 22.4921884,18.3359332 22.3125,19.1875 C22.1328116,20.0390668 21.8554706,20.8066372 21.4804688,21.4902344 C21.1054669,22.1738315 20.6250029,22.7851536 20.0390625,23.3242188 C19.5781227,23.7382833 19.0742215,24.0703112 18.5273438,24.3203125 C17.980466,24.5703138 17.3925813,24.7460932 16.7636719,24.8476562 C16.1347625,24.9492193 15.4257852,25 14.6367188,25 L10.1015625,25 C9.46874684,25 8.9921891,24.9042978 8.671875,24.7128906 C8.3515609,24.5214834 8.14257861,24.2519549 8.04492188,23.9042969 C7.94726514,23.5566389 7.8984375,23.1054715 7.8984375,22.5507812 L7.8984375,9.953125 C7.8984375,9.20312125 8.06640457,8.66015793 8.40234375,8.32421875 C8.73828293,7.98827957 9.28124625,7.8203125 10.03125,7.8203125 Z M11.3789062,10.5742188 L11.3789062,22.234375 L14.015625,22.234375 C14.5937529,22.234375 15.0468734,22.2187502 15.375,22.1875 C15.7031266,22.1562498 16.042967,22.0781256 16.3945312,21.953125 C16.7460955,21.8281244 17.05078,21.6523449 17.3085938,21.4257812 C18.4726621,20.4414013 19.0546875,18.7461058 19.0546875,16.3398438 C19.0546875,14.6445228 18.7988307,13.3750042 18.2871094,12.53125 C17.7753881,11.6874958 17.144535,11.1503918 16.3945312,10.9199219 C15.6445275,10.689452 14.7382866,10.5742188 13.6757812,10.5742188 L11.3789062,10.5742188 Z" id="DNS" fill-opacity="0.8" sketch:type="MSShapeGroup"></path>
                <path d="M30.2684456,9.64080021 L36.7835231,19.8993754 L36.7835231,9.54581341 C36.7835231,8.87298682 36.9223427,8.36837446 37.199986,8.03196116 C37.4776293,7.69554787 37.852252,7.52734375 38.3238654,7.52734375 C38.810692,7.52734375 39.1948229,7.69554787 39.4762696,8.03196116 C39.7577163,8.36837446 39.8984375,8.87298682 39.8984375,9.54581341 L39.8984375,23.235787 C39.8984375,24.7634991 39.2899133,25.5273438 38.0728466,25.5273438 C37.76858,25.5273438 37.4947441,25.4818297 37.2513307,25.3908002 C37.0079174,25.2997707 36.7797208,25.1553131 36.5667342,24.9574229 C36.3537475,24.7595327 36.1559771,24.5280047 35.9734171,24.2628319 C35.7908571,23.997659 35.6082999,23.7265536 35.4257399,23.4495073 L29.0704016,13.3096656 L29.0704016,23.5088741 C29.0704016,24.1737851 28.9220739,24.6764186 28.6254139,25.0167897 C28.3287539,25.3571608 27.9484262,25.5273438 27.4844196,25.5273438 C27.0051996,25.5273438 26.6210687,25.3551819 26.3320153,25.010853 C26.042962,24.6665241 25.8984375,24.1658695 25.8984375,23.5088741 L25.8984375,10.0801142 C25.8984375,9.5101905 25.9592899,9.06296543 26.0809966,8.73842554 C26.2255233,8.38222324 26.4651297,8.09132905 26.799823,7.86573425 C27.1345163,7.64013946 27.4958276,7.52734375 27.8837676,7.52734375 C28.1880342,7.52734375 28.4485587,7.57879442 28.6653487,7.68169731 C28.8821387,7.7846002 29.0723025,7.92312124 29.2358458,8.09726459 C29.3993891,8.27140795 29.5667333,8.49699936 29.7378833,8.7740456 C29.9090333,9.05109184 30.0858856,9.34000715 30.2684456,9.64080021 L30.2684456,9.64080021 Z" id="Path" fill-opacity="0.6" sketch:type="MSShapeGroup"></path>
                <path d="M56.8984375,20.0062356 C56.8984375,21.0590113 56.6240483,22.0049121 56.0752615,22.8439664 C55.5264748,23.6830208 54.7233355,24.3400063 53.6658195,24.8149427 C52.6083035,25.2898791 51.3545249,25.5273438 49.9044461,25.5273438 C48.1659538,25.5273438 46.7319195,25.2028087 45.6023002,24.553729 C44.8011517,24.0867082 44.1502283,23.4633635 43.6495105,22.6836762 C43.1487927,21.9039889 42.8984375,21.1460809 42.8984375,20.4099295 C42.8984375,19.9824867 43.0486506,19.6163954 43.3490813,19.3116445 C43.649512,19.0068937 44.0320546,18.8545205 44.4967208,18.8545205 C44.8732606,18.8545205 45.1917123,18.9732529 45.4520856,19.2107211 C45.7124588,19.4481893 45.9347742,19.8004285 46.1190384,20.2674493 C46.3433599,20.8215418 46.5857037,21.2845978 46.846077,21.6566313 C47.1064502,22.0286649 47.4729702,22.33539 47.9456478,22.576816 C48.4183254,22.8182421 49.0392062,22.9389532 49.8083087,22.9389532 C50.8658248,22.9389532 51.7250436,22.695552 52.3859911,22.2087422 C53.0469387,21.7219323 53.3774075,21.1144186 53.3774075,20.3861828 C53.3774075,19.8083435 53.1991546,19.3393508 52.8426435,18.9791907 C52.4861324,18.6190306 52.025479,18.3439674 51.4606693,18.1539928 C50.8958596,17.9640183 50.1407884,17.7621733 49.1954332,17.5484519 C47.9296186,17.2555745 46.8701156,16.9132296 46.0168924,16.5214071 C45.1636693,16.1295845 44.486709,15.5952891 43.9859911,14.9185047 C43.4852733,14.2417203 43.2349182,13.4006997 43.2349182,12.3954176 C43.2349182,11.4376292 43.4992932,10.5867142 44.0280512,9.84264718 C44.5568092,9.09858014 45.3218946,8.52668612 46.3233302,8.12694797 C47.3247658,7.72720983 48.5024365,7.52734375 49.8563774,7.52734375 C50.9379279,7.52734375 51.8732547,7.65992818 52.662386,7.92510101 C53.4515173,8.19027384 54.1064463,8.54251306 54.6271929,8.98182924 C55.1479394,9.42114542 55.5284792,9.8822226 55.7688238,10.3650746 C56.0091683,10.8479266 56.1293388,11.3188982 56.1293388,11.7780034 C56.1293388,12.1975305 55.9791257,12.5754951 55.678695,12.9119084 C55.3782643,13.2483217 55.003733,13.4165258 54.5550899,13.4165258 C54.1465041,13.4165258 53.8360637,13.3156033 53.6237594,13.1137554 C53.411455,12.9119074 53.1811283,12.5814358 52.9327723,12.1223306 C52.6123129,11.4653352 52.2277674,10.9528073 51.7791242,10.5847316 C51.330481,10.2166559 50.6094582,10.0326208 49.6160341,10.0326208 C48.6947133,10.0326208 47.9516592,10.2324869 47.3868495,10.632225 C46.8220398,11.0319632 46.5396392,11.5128291 46.5396392,12.0748372 C46.5396392,12.4231239 46.6357756,12.7239124 46.8280512,12.9772118 C47.0203269,13.2305112 47.2847019,13.4481872 47.6211843,13.6302461 C47.9576667,13.8123051 48.2981497,13.9547839 48.6426435,14.0576868 C48.9871374,14.1605896 49.5559443,14.3109839 50.3490813,14.5088741 C51.3425054,14.7384267 52.2417811,14.9917223 53.0469354,15.2687686 C53.8520896,15.5458148 54.5370613,15.882223 55.101871,16.2780034 C55.6666807,16.6737837 56.1073057,17.1744383 56.4237594,17.7799823 C56.740213,18.3855262 56.8984375,19.1276032 56.8984375,20.0062356 L56.8984375,20.0062356 Z" id="Path" fill-opacity="0.4" sketch:type="MSShapeGroup"></path>
            </g>
        </g>
    </g>
</svg>