<?xml version="1.0" encoding="UTF-8" standalone="no"?>
<svg width="64px" height="64px" viewBox="0 0 64 64" version="1.1" xmlns="http://www.w3.org/2000/svg" xmlns:xlink="http://www.w3.org/1999/xlink" xmlns:sketch="http://www.bohemiancoding.com/sketch/ns">
    <!-- Generator: Sketch 3.0.3 (7891) - http://www.bohemiancoding.com/sketch -->
    <title>fileserver</title>
    <desc>Created with Sketch.</desc>
    <defs></defs>
    <g id="Page-1" stroke="none" stroke-width="1" fill="none" fill-rule="evenodd" sketch:type="MSPage">
        <g id="Landscape" sketch:type="MSArtboardGroup" transform="translate(-585.000000, -223.000000)" stroke="#000000" fill="#FFFFFF">
            <g id="fileserver" sketch:type="MSLayerGroup" transform="translate(585.000000, 223.000000)">
                <g id="folder-2" transform="translate(7.000000, 13.000000)" stroke-opacity="0.303498641" stroke-width="3.125" sketch:type="MSShapeGroup" fill-opacity="0.520408741">
                    <g id="folder">
                        <g id="f">
                            <path d="M1.23384079,-0.366505057 C0.58453454,-0.366505057 0.0385575246,0.0458263523 0.0385575246,0.536193807 L0.0385575246,5.07880698 C0.0371373738,5.10208566 3.55271368e-14,5.11349298 3.55271368e-14,5.13704561 L3.55271368e-14,39.6143183 C3.55271368e-14,40.4378555 0.875972669,41.0994036 1.96643375,41.0994036 L47.9655604,41.0994036 C49.0560203,41.0994026 49.9319942,40.4378537 49.9319942,39.6143183 L49.9319942,5.13704561 C49.9319942,4.3135103 49.0560215,3.65196039 47.9655604,3.65196039 L29.8049664,3.65196039 L29.8049664,0.536193807 C29.8049664,0.0458272841 29.2589894,-0.366505057 28.6096831,-0.366505057 L1.23384079,-0.366505057 L1.23384079,-0.366505057 Z"></path>
                        </g>
                    </g>
                </g>
                <g id="cog-2" transform="translate(31.503119, 35.503119) rotate(22.000000) translate(-31.503119, -35.503119) translate(18.000000, 22.000000)" stroke-opacity="0.199643342" stroke-width="1.81818182" sketch:type="MSShapeGroup" fill-opacity="0.332314312">
                    <g id="cw" transform="translate(-0.136334, -0.163468)">
                        <path d="M13.6394532,0.163468015 C12.7147731,0.163468015 11.8114212,0.260417709 10.9388294,0.437750153 L10.9388294,2.52651397 C9.76579996,2.80969868 8.67037293,3.26399359 7.66854278,3.87682593 L6.19163915,2.39992223 C5.43457328,2.90160496 4.74266671,3.49022012 4.10287543,4.13000941 C3.46308415,4.76979887 2.8744697,5.46170746 2.37278832,6.21877333 L3.84969195,7.69567696 C3.23685965,8.69750576 2.78256747,9.79293211 2.49938006,10.9659636 L0.410616344,10.9659636 C0.233286635,11.8385537 0.136334241,12.7419043 0.136334241,13.6665877 C0.136334241,14.5912712 0.233286635,15.4946217 0.410616344,16.3672115 L2.49938006,16.3672115 C2.78256747,17.540243 3.23685965,18.6356697 3.84969195,19.6374985 L2.37278832,21.1144021 C2.8744697,21.871468 3.46308415,22.5633766 4.10287543,23.2031658 C4.74266671,23.8429551 5.43457328,24.4315705 6.19163915,24.9332533 L7.66854278,23.4563493 C8.67037293,24.0691816 9.76579996,24.5234768 10.9388294,24.8066615 L10.9388294,26.8954252 C11.8114212,27.0727576 12.7147664,27.1697073 13.6394532,27.1697073 C14.5641333,27.1697073 15.4674852,27.0727576 16.340077,26.8954252 L16.340077,24.8066615 C17.5131064,24.5234768 18.6085335,24.0691816 19.6103636,23.4563493 L21.0872672,24.9332533 C21.8443331,24.4315705 22.5362397,23.8429551 23.176031,23.2031658 C23.8158222,22.5633766 24.4044367,21.871468 24.9061181,21.1144021 L23.4292144,19.6374985 C24.0420467,18.6356697 24.4963389,17.540243 24.7795263,16.3672115 L26.86829,16.3672115 C27.0456198,15.4946217 27.1425721,14.5912712 27.1425721,13.6665877 C27.1425721,12.7419043 27.0456198,11.8385537 26.86829,10.9659636 L24.7795263,10.9659636 C24.4963389,9.79293211 24.0420467,8.69750576 23.4292144,7.69567696 L24.9061181,6.21877333 C24.4044367,5.46170746 23.8158222,4.76979887 23.176031,4.13000941 C22.5362397,3.49022012 21.8443331,2.90160496 21.0872672,2.39992223 L19.6103636,3.87682593 C18.6085335,3.26399359 17.5131064,2.80969868 16.340077,2.52651397 L16.340077,0.437750153 C15.4674852,0.260417709 14.5641333,0.163468015 13.6394532,0.163468015 L13.6394532,0.163468015 Z M13.6394532,6.9150279 C17.366314,6.9150279 20.3910127,9.93972654 20.3910127,13.6665877 C20.3910127,17.3934485 17.366314,20.4181475 13.6394532,20.4181475 C9.91259236,20.4181475 6.88789372,17.3934485 6.88789372,13.6665877 C6.88789372,9.93972654 9.91259236,6.9150279 13.6394532,6.9150279 L13.6394532,6.9150279 Z"></path>
                    </g>
                </g>
            </g>
        </g>
    </g>
</svg>