<?xml version="1.0" encoding="UTF-8" standalone="no"?>
<svg width="64px" height="64px" viewBox="0 0 64 64" version="1.1" xmlns="http://www.w3.org/2000/svg" xmlns:xlink="http://www.w3.org/1999/xlink" xmlns:sketch="http://www.bohemiancoding.com/sketch/ns">
    <!-- Generator: Sketch 3.0.3 (7891) - http://www.bohemiancoding.com/sketch -->
    <title>fileshares</title>
    <desc>Created with Sketch.</desc>
    <defs></defs>
    <g id="Page-1" stroke="none" stroke-width="1" fill="none" fill-rule="evenodd" sketch:type="MSPage">
        <g id="Landscape" sketch:type="MSArtboardGroup" transform="translate(-657.000000, -223.000000)">
            <g id="fileshares" sketch:type="MSLayerGroup" transform="translate(657.000000, 223.000000)"></g>
            <g id="folder-3" sketch:type="MSLayerGroup" transform="translate(662.000000, 234.000000)" stroke="#000000" stroke-opacity="0.303498641" stroke-width="2.8125" fill="#FFFFFF" fill-opacity="0.520408741">
                <g id="folder" sketch:type="MSShapeGroup">
                    <g id="f">
                        <path d="M0.604330181,-0.187722102 C0.286302632,-0.187722102 0.0188853182,0.0234720341 0.0188853182,0.274635852 L0.0188853182,2.60134016 C0.0181897341,2.61326339 1.77635684e-14,2.61910616 1.77635684e-14,2.6311697 L1.77635684e-14,20.2902606 C1.77635684e-14,20.7120723 0.429047838,21.050914 0.963151226,21.050914 L23.4933357,21.050914 C24.0274385,21.0509135 24.456487,20.7120714 24.456487,20.2902606 L24.456487,2.6311697 C24.456487,2.20935893 24.0274391,1.8705163 23.4933357,1.8705163 L14.5983509,1.8705163 L14.5983509,0.274635852 C14.5983509,0.0234725114 14.3309336,-0.187722102 14.012906,-0.187722102 L0.604330181,-0.187722102 L0.604330181,-0.187722102 Z"></path>
                    </g>
                </g>
            </g>
            <g id="folder-4" sketch:type="MSLayerGroup" transform="translate(675.000000, 243.000000)" stroke="#000000" stroke-opacity="0.303498641" stroke-width="2.8125" fill="#FFFFFF" fill-opacity="0.520408741">
                <g id="folder" sketch:type="MSShapeGroup">
                    <g id="f">
                        <path d="M0.604330181,-0.187722102 C0.286302632,-0.187722102 0.0188853182,0.0234720341 0.0188853182,0.274635852 L0.0188853182,2.60134016 C0.0181897341,2.61326339 1.77635684e-14,2.61910616 1.77635684e-14,2.6311697 L1.77635684e-14,20.2902606 C1.77635684e-14,20.7120723 0.429047838,21.050914 0.963151226,21.050914 L23.4933357,21.050914 C24.0274385,21.0509135 24.456487,20.7120714 24.456487,20.2902606 L24.456487,2.6311697 C24.456487,2.20935893 24.0274391,1.8705163 23.4933357,1.8705163 L14.5983509,1.8705163 L14.5983509,0.274635852 C14.5983509,0.0234725114 14.3309336,-0.187722102 14.012906,-0.187722102 L0.604330181,-0.187722102 L0.604330181,-0.187722102 Z"></path>
                    </g>
                </g>
            </g>
            <g id="folder-5" sketch:type="MSLayerGroup" transform="translate(687.000000, 253.000000)" stroke="#000000" stroke-opacity="0.303498641" stroke-width="2.8125" fill="#FFFFFF" fill-opacity="0.520408741">
                <g id="folder" sketch:type="MSShapeGroup">
                    <g id="f">
                        <path d="M0.604330181,-0.187722102 C0.286302632,-0.187722102 0.0188853182,0.0234720341 0.0188853182,0.274635852 L0.0188853182,2.60134016 C0.0181897341,2.61326339 1.77635684e-14,2.61910616 1.77635684e-14,2.6311697 L1.77635684e-14,20.2902606 C1.77635684e-14,20.7120723 0.429047838,21.050914 0.963151226,21.050914 L23.4933357,21.050914 C24.0274385,21.0509135 24.456487,20.7120714 24.456487,20.2902606 L24.456487,2.6311697 C24.456487,2.20935893 24.0274391,1.8705163 23.4933357,1.8705163 L14.5983509,1.8705163 L14.5983509,0.274635852 C14.5983509,0.0234725114 14.3309336,-0.187722102 14.012906,-0.187722102 L0.604330181,-0.187722102 L0.604330181,-0.187722102 Z"></path>
                    </g>
                </g>
            </g>
        </g>
    </g>
</svg>