<?xml version="1.0" encoding="UTF-8" standalone="no"?>
<svg width="64px" height="64px" viewBox="0 0 64 64" version="1.1" xmlns="http://www.w3.org/2000/svg" xmlns:xlink="http://www.w3.org/1999/xlink" xmlns:sketch="http://www.bohemiancoding.com/sketch/ns">
    <!-- Generator: Sketch 3.0.3 (7891) - http://www.bohemiancoding.com/sketch -->
    <title>firewall</title>
    <desc>Created with Sketch.</desc>
    <defs></defs>
    <g id="Page-1" stroke="none" stroke-width="1" fill="none" fill-rule="evenodd" sketch:type="MSPage">
        <g id="Landscape" sketch:type="MSArtboardGroup" transform="translate(-152.000000, -79.000000)">
            <g id="firewall" sketch:type="MSLayerGroup" transform="translate(152.000000, 79.000000)">
                <g transform="translate(8.000000, 7.000000)" id="security-3" sketch:type="MSShapeGroup">
                    <g>
                        <path d="M27.16038,46.0370968 C24.40014,45.5274194 22.56475,42.8408602 23.06295,40.0473118 C23.40427,38.1510753 24.73192,36.6586022 26.44912,36.0747312 L28.0635,33.0274194 L25.70288,30.5258065 C25.49141,30.5145161 25.27517,30.4892473 25.06158,30.4483871 C23.73605,30.2064516 22.57641,29.45 21.80314,28.3145161 C21.02775,27.1844086 20.73413,25.8166667 20.97528,24.4623656 C21.41677,22.005914 23.51769,20.2247312 25.97106,20.2247312 C26.27104,20.2247312 26.57155,20.2510753 26.87842,20.3075269 C28.1589,20.5419355 29.28886,21.2763441 30.051,22.3102151 L33.41862,22.927957 L35.06321,19.8231183 C34.87453,19.1010753 34.83796,18.3365591 34.96993,17.5924731 C35.41089,15.1360215 37.50969,13.3548387 39.96359,13.3548387 C40.26145,13.3548387 40.56408,13.3827957 40.87095,13.4365591 C40.95946,13.4537634 41.04373,13.4908602 41.13224,13.511828 L41.13224,8.6811828 C41.13224,3.81182796 31.92508,-0.134946237 20.56612,-0.134946237 C9.20769,-0.134408602 0,3.81290323 0,8.68225806 L0,24.6037634 C0,32.9150538 8.61356,44.7 20.56612,49.7284946 C22.91985,48.7392473 25.13896,47.4768817 27.19748,46.0403226 C27.18582,46.038172 27.17416,46.0392473 27.16038,46.0370968 L27.16038,46.0370968 Z" id="path3000" fill-opacity="0.35000062" fill="#FFFFFF"></path>
                        <path d="M52.5866,28.477957 C52.21613,27.9344086 51.65645,27.5704301 51.01727,27.4526882 C50.03942,27.2704301 49.11404,27.7064516 48.5957,28.4397849 L42.1827,27.2612903 L41.28912,20.5784946 C41.84615,20.2209677 42.24895,19.6419355 42.37138,18.9526882 C42.48745,18.3010753 42.34647,17.6419355 41.97335,17.0989247 C41.60288,16.555914 41.04532,16.1913978 40.40402,16.0747312 C39.05093,15.8290323 37.80543,16.7446237 37.5664,18.0688172 C37.44821,18.7413978 37.61463,19.416129 37.99676,19.9451613 L34.83584,25.911828 L28.32532,24.7145161 C28.08205,23.8306452 27.35913,23.1172043 26.40831,22.9430108 C25.069,22.6983871 23.81184,23.6145161 23.57493,24.938172 C23.33378,26.2833333 24.21835,27.5736559 25.53964,27.8150538 C25.94668,27.8913978 26.34259,27.8553763 26.7173,27.7274194 L31.29703,32.5827957 L28.16579,38.4903226 C26.94467,38.4370968 25.87831,39.3091398 25.65995,40.5236559 C25.42145,41.8650538 26.30337,43.1564516 27.62678,43.4016129 C28.97775,43.6462366 30.2259,42.727957 30.46281,41.4064516 C30.49037,41.2607527 30.5015,41.1166667 30.49885,40.9709677 L36.46135,38.0564516 L41.09355,42.9688172 C40.98172,43.1854839 40.90275,43.422043 40.85717,43.6704301 C40.7411,44.322043 40.87996,44.9795699 41.2552,45.5236559 C41.62302,46.0655914 42.1827,46.4306452 42.824,46.5478495 C42.97187,46.5752688 43.11762,46.5892473 43.26072,46.5892473 C44.44262,46.5892473 45.4528,45.7333333 45.66162,44.5548387 C45.77769,43.9043011 45.63671,43.2467742 45.26359,42.7026882 C44.97951,42.2876344 44.58625,41.9758065 44.12886,41.8005376 L43.18758,34.7672043 L49.12941,31.8655914 C49.42568,32.0962366 49.77336,32.2553763 50.14595,32.3247312 C50.29382,32.3526882 50.43745,32.3650538 50.58055,32.3650538 C51.76086,32.3650538 52.77051,31.5080645 52.97933,30.3306452 C53.09805,29.6784946 52.95919,29.0209677 52.5866,28.477957 L52.5866,28.477957 Z" id="path3002" fill-opacity="0.850000143" fill="#D8D8D8"></path>
                        <g id="fire" transform="translate(1.472222, 2.238806)">
                            <g transform="translate(0.004119, 0.015295)">
                                <path d="M10.3187792,13.6640541 C10.9646435,16.5702359 10.2710226,19.5026516 10.2710226,19.5026516 C9.03508716,18.4997895 8.29140772,17.3338851 8.11749615,16.6077694 C7.22423525,17.8332349 7.70599191,22.0205625 8.11749615,23.3360434 C7.00926777,22.6852209 7.19879433,22.44837 6.14753437,19.8124361 C5.49238908,23.2851262 6.85896518,26.9667122 8.11766665,29.033136 C9.17038843,29.033136 9.59803108,29.0331355 10.7137582,29.0331355 C13.5176638,27.4259892 15.595282,24.0154415 15.9242159,20.3099224 C15.2710095,20.5758285 15.0629448,21.6175832 13.1782086,21.7688088 C13.6701379,20.7449894 14.3960003,17.6885173 14.2258701,16.2338916 C13.6052853,17.7986094 13.5245398,18.8558481 12.3947011,19.0005872 C12.1381094,16.5929872 11.3046751,14.8215563 10.3187792,13.6640541 L10.3187792,13.6640541 Z" id="path3918" fill-opacity="0.299932065" fill="#FFFFFF"></path>
                                <path d="M10.1620777,0.00912200741 C7.21759612,1.51031094 9.1139587,4.96114486 8.11766665,7.84743053 C8.11766665,7.84743053 7.03621732,4.62974741 4.94317137,4.87563727 C5.25915372,5.42489492 5.71608266,5.97305139 5.99680245,6.52680363 C6.98714689,8.48037088 6.32363702,11.9457424 6.32363702,11.9457424 C6.32363702,11.9457424 3.9682657,9.89956088 2.09568116,9.90085984 C3.08204174,11.9591099 4.36536606,13.6749835 3.48360878,16.1850586 C3.22636998,16.0437549 1.38611955,15.3685525 0.0197593136,15.2618094 C3.21907276,20.5506985 0.0866878697,28.136197 8.11749615,29.089186 C6.82927391,27.0499574 5.47584474,23.3726208 6.14736388,19.8131398 C7.19862384,22.4490737 7.00943826,22.6847926 8.11766665,23.3356151 C7.7061624,22.0201343 7.22440574,17.8334205 8.11766665,16.607955 C8.29157822,17.3340707 9.03461246,18.4992328 10.2705479,19.5020949 C10.2705479,19.5020949 10.9642538,16.5700312 10.3183895,13.6638495 C11.3042854,14.8213517 12.1384011,16.5926502 12.3949928,19.0002502 C13.5248316,18.8555111 13.605962,17.7989278 14.2265468,16.23421 C14.396677,17.6888357 13.6707296,20.7445612 13.1788003,21.7683805 C15.0635365,21.6171549 15.2704904,20.5754461 15.9236968,20.3095401 C15.5947628,24.0150592 13.504738,27.4820368 10.7008324,29.0891831 C15.830345,29.0331355 17.2717562,28.0358823 18.6696707,24.6753875 C19.0147211,23.8459089 19.1332025,22.9034361 19.4890831,21.9242203 C20.2578491,19.8089372 20.9743044,18.9949401 21.3454108,16.8048448 C20.5482988,17.6868404 18.8418487,17.9918773 18.8418487,17.9918773 C18.8418487,17.9918773 19.9014656,12.6326525 17.6091302,11.153729 C17.6362746,12.0578146 17.8633197,14.7156268 16.6166873,14.8497779 C16.6490157,11.9762938 16.7772552,6.61917909 13.236412,5.66001466 C13.3030769,6.12355132 13.4423673,6.44366298 13.542353,6.75723149 C13.6351724,7.11889516 13.9582361,8.34235657 13.4945964,8.40687182 C12.7033518,5.59628806 11.0484669,5.9224218 10.1620777,0.00912200741 L10.1620777,0.00912200741 Z" id="path2969" fill-opacity="0.391021286" fill="#000000"></path>
                            </g>
                        </g>
                    </g>
                </g>
            </g>
        </g>
    </g>
</svg>