<?xml version="1.0" encoding="UTF-8" standalone="no"?>
<svg width="64px" height="64px" viewBox="0 0 64 64" version="1.1" xmlns="http://www.w3.org/2000/svg" xmlns:xlink="http://www.w3.org/1999/xlink" xmlns:sketch="http://www.bohemiancoding.com/sketch/ns">
    <!-- Generator: Sketch 3.0.3 (7891) - http://www.bohemiancoding.com/sketch -->
    <title>groupware</title>
    <desc>Created with Sketch.</desc>
    <defs></defs>
    <g id="Page-1" stroke="none" stroke-width="1" fill="none" fill-rule="evenodd" sketch:type="MSPage">
        <g id="Landscape" sketch:type="MSArtboardGroup" transform="translate(-79.000000, -223.000000)">
            <g id="groupware" sketch:type="MSLayerGroup" transform="translate(79.000000, 223.000000)">
                <g id="mail-2" transform="translate(19.000000, 46.000000) rotate(45.000000) translate(-19.000000, -46.000000) translate(5.000000, 36.000000)" fill-opacity="0.438830389" fill="#FFFFFF" sketch:type="MSShapeGroup">
                    <path d="M3,0 C1.3431455,0 0,1.341099 0,3 C0.037196,7.549144 9.76e-05,12.363749 0,17 C0,18.596589 1.2419608,19.8887995 2.8125,19.984375 L25.125,20 C26.724656,19.935401 28,18.617532 28,17 L28,2.484375 C27.757255,1.0700405 26.529368,0 25.046875,0 C17.7018795,0.00333525 10.3477935,3.89e-05 3,0 L3,0 Z M2.953125,1.578125 L25.140625,1.578125 L14.40625,12.3125 C14.2103815,12.5083685 13.898994,12.5083685 13.703125,12.3125 L2.953125,1.578125 L2.953125,1.578125 Z M26.5,2.34375 L26.5,16.890625 C26.5,17.757324 26.1877525,18.2468875 25.5625,18.421875 L18,10.84375 L26.5,2.34375 L26.5,2.34375 Z M1.671875,2.40625 L10.03125,10.765625 L2.390625,18.40625 C1.8675231,18.2297365 1.685449,17.808594 1.671875,17.234375 L1.671875,2.40625 L1.671875,2.40625 Z M11.09375,11.8125 L13.703125,14.4375 C13.898994,14.6333685 14.2103815,14.6333685 14.40625,14.4375 L16.9375,11.90625 L23.53125,18.5 L4.40625,18.5 L11.09375,11.8125 L11.09375,11.8125 Z" id="mail"></path>
                </g>
                <g id="cal" transform="translate(38.000000, 28.000000)" sketch:type="MSShapeGroup">
                    <g id="layer1">
                        <g transform="translate(0.014423, 0.001601)">
                            <g id="g3000">
                                <path d="M23.4862128,0.52353125 L23.4929446,17.8198125 L18.2023164,17.8209703 C17.1691636,17.8211752 16.5725303,18.8432869 16.5705313,19.7033632 L16.5586369,24.8209554 L2.05224923,24.8209554 C1.19128872,24.8209554 0.498168718,23.9900635 0.498168718,22.9579688 L0.498168718,0.510594262 L23.4862128,0.52353125 Z" id="rect2985" stroke-opacity="0.500000477" stroke="#FFFFFF"></path>
                                <rect id="rect3755" fill-opacity="0.80262115" fill="#FFFFFF" x="0" y="0" width="24.0165482" height="6.2998166"></rect>
                                <path d="M16.6978872,24.9646506 L23.638839,17.9625256" id="path3791" stroke-opacity="0.500000477" stroke="#FFFFFF"></path>
                                <path d="M22.5225744,18.3251465 L18.3589462,18.3260533 C17.5458738,18.326207 17.0763338,19.1305978 17.074761,19.8074631 L17.0654005,23.834915 C22.5297903,18.3116624 17.0382969,23.8455748 22.5225744,18.3251424 L22.5225744,18.3251465 Z" id="rect2985-4" fill-opacity="0.818094552" fill="#FFFFFF"></path>
                            </g>
                        </g>
                    </g>
                    <path d="M6.42087766,12.5657685 C6.78790077,12.5657685 7.10405452,12.4581484 7.3693484,12.242905 C7.63464228,12.0276616 7.76728723,11.718752 7.76728723,11.3161671 C7.76728723,11.0092459 7.66157021,10.7451781 7.45013298,10.5239557 C7.23869575,10.3027333 6.95345924,10.1921237 6.59441489,10.1921237 C6.35106261,10.1921237 6.15059919,10.2260041 5.99301862,10.2937659 C5.83543804,10.3615278 5.71077174,10.4512112 5.61901596,10.5628189 C5.52726018,10.6744266 5.44049243,10.81792 5.35871011,10.9933036 C5.27692778,11.1686871 5.202128,11.3341032 5.13430851,11.4895568 C5.09441469,11.5732625 5.0226069,11.6390304 4.91888298,11.6868622 C4.81515906,11.7346941 4.6954794,11.7586097 4.55984043,11.7586097 C4.40026516,11.7586097 4.25365758,11.6938383 4.1200133,11.5642937 C3.98636901,11.434749 3.91954787,11.2623576 3.91954787,11.0471142 C3.91954787,10.8398427 3.98237969,10.6216131 4.10804521,10.3924187 C4.23371073,10.1632243 4.41721954,9.94499466 4.65857713,9.73772321 C4.89993472,9.53045177 5.20013118,9.36403921 5.55917553,9.23848055 C5.91821988,9.11292188 6.31914672,9.05014349 6.76196809,9.05014349 C7.14893811,9.05014349 7.50199309,9.10295706 7.82114362,9.20858578 C8.14029415,9.31421449 8.41755201,9.4666763 8.65292553,9.66597577 C8.88829905,9.86527523 9.06582387,10.0964591 9.18550532,10.3595344 C9.30518677,10.6226097 9.3650266,10.9056107 9.3650266,11.2085459 C9.3650266,11.6071449 9.27825885,11.9489383 9.10472074,12.2339365 C8.93118264,12.5189348 8.68284736,12.7969534 8.35970745,13.0680006 C8.67087922,13.2354122 8.93317712,13.4267368 9.14660904,13.6419802 C9.36004096,13.8572237 9.52061116,14.0953829 9.62832447,14.3564652 C9.73603777,14.6175475 9.78989362,14.8995521 9.78989362,15.2024872 C9.78989362,15.5652123 9.71708849,15.9159741 9.57147606,16.2547832 C9.42586363,16.5935923 9.21143759,16.8955264 8.92819149,17.1605947 C8.64494539,17.425663 8.30884503,17.6329313 7.91988032,17.7824059 C7.53091561,17.9318805 7.10106618,18.0066167 6.63031915,18.0066167 C6.15159335,18.0066167 5.72274126,17.9209192 5.34375,17.7495217 C4.96475874,17.5781241 4.65259431,17.3638804 4.40724734,17.1067841 C4.16190037,16.8496878 3.9763969,16.583627 3.85073138,16.3085938 C3.72506586,16.0335605 3.66223404,15.8063625 3.66223404,15.626993 C3.66223404,15.3958056 3.73703383,15.2094634 3.88663564,15.0679608 C4.03623745,14.9264582 4.22273824,14.8557079 4.44614362,14.8557079 C4.5578463,14.8557079 4.66555799,14.8885918 4.76928191,14.9543607 C4.87300584,15.0201295 4.94082431,15.0988516 4.97273936,15.1905293 C5.18018721,15.7445819 5.4025919,16.1561291 5.63996011,16.4251834 C5.87732831,16.6942376 6.21143402,16.8287628 6.64228723,16.8287628 C6.8896289,16.8287628 7.12799087,16.7679773 7.35738032,16.6464047 C7.58676976,16.524832 7.77626255,16.3444687 7.92586436,16.1053093 C8.07546617,15.86615 8.15026596,15.5891278 8.15026596,15.2742347 C8.15026596,14.8078739 8.02260766,14.4421649 7.76728723,14.1770966 C7.51196681,13.9120283 7.15691717,13.7794962 6.70212766,13.7794962 C6.62234003,13.7794962 6.49867105,13.787468 6.33111702,13.803412 C6.16356299,13.8193559 6.0558513,13.8273278 6.00797872,13.8273278 C5.78856273,13.8273278 5.61901656,13.7725213 5.49933511,13.6629066 C5.37965366,13.5532919 5.31981383,13.4008301 5.31981383,13.2055166 C5.31981383,13.0141891 5.39162162,12.8597343 5.53523936,12.7421476 C5.6788571,12.624561 5.89228582,12.5657685 6.17553191,12.5657685 L6.42087766,12.5657685 Z M13.8051862,17.0380261 L13.8051862,11.5971779 C12.7918832,12.3744459 12.1097092,12.763074 11.7586436,12.763074 C11.5910896,12.763074 11.4424874,12.6963097 11.3128324,12.562779 C11.1831775,12.4292484 11.1183511,12.2747936 11.1183511,12.0994101 C11.1183511,11.8961246 11.1821802,11.7466523 11.3098404,11.6509885 C11.4375006,11.5553248 11.6628973,11.431761 11.9860372,11.2802934 C12.4687524,11.053092 12.8547193,10.8139362 13.1439495,10.5628189 C13.4331796,10.3117016 13.6894936,10.0306935 13.9128989,9.71978635 C14.1363043,9.40887919 14.2819146,9.21755457 14.349734,9.14580676 C14.4175535,9.07405895 14.5452118,9.03818559 14.7327128,9.03818559 C14.94415,9.03818559 15.1136962,9.11989714 15.2413564,9.2833227 C15.3690166,9.44674827 15.4328457,9.67195328 15.4328457,9.95894452 L15.4328457,16.8048469 C15.4328457,17.6060308 15.1595772,18.0066167 14.6130319,18.0066167 C14.3696796,18.0066167 14.1742029,17.9249052 14.0265957,17.7614796 C13.8789886,17.598054 13.8051862,17.3569053 13.8051862,17.0380261 L13.8051862,17.0380261 Z" id="31" fill-opacity="0.6" fill="#FFFFFF"></path>
                </g>
                <g id="user" transform="translate(21.000000, 4.000000)" fill="#FFFFFF" sketch:type="MSShapeGroup">
                    <path d="M14.0625,6.13654054 C14.0625,9.60664865 11.1264474,12.4198919 7.50671053,12.4198919 C3.88657895,12.4198919 0.952105263,9.60627027 0.952105263,6.13654054 C0.952105263,2.66681081 3.88697368,-0.146810811 7.50671053,-0.146810811 C11.1268421,-0.147189189 14.0625,2.66605405 14.0625,6.13654054 L14.0625,6.13654054 Z" id="path3"></path>
                    <path d="M14.8713158,19.3271892 C14.8713158,16.1722703 11.4268421,13.6605946 7.37171053,13.6605946 C3.31657895,13.6605946 0.101447368,16.2608108 0.101447368,19.4168649 L0.101447368,28 L14.9127632,28 L14.8713158,19.3271892 Z" id="path5"></path>
                </g>
            </g>
        </g>
    </g>
</svg>