<?xml version="1.0" encoding="UTF-8" standalone="no"?>
<svg width="64px" height="64px" viewBox="0 0 64 64" version="1.1" xmlns="http://www.w3.org/2000/svg" xmlns:xlink="http://www.w3.org/1999/xlink" xmlns:sketch="http://www.bohemiancoding.com/sketch/ns">
    <!-- Generator: Sketch 3.0.3 (7891) - http://www.bohemiancoding.com/sketch -->
    <title>keys</title>
    <desc>Created with Sketch.</desc>
    <defs></defs>
    <g id="Page-1" stroke="none" stroke-width="1" fill="none" fill-rule="evenodd" sketch:type="MSPage">
        <g id="Landscape" sketch:type="MSArtboardGroup" transform="translate(-79.000000, -151.000000)" fill="#FFFFFF">
            <g id="keys" sketch:type="MSLayerGroup" transform="translate(79.000000, 151.000000)">
                <path d="M29.0240821,19.1417611 L48.5848371,19.1417611 L51.1619618,21.5056266 L31.0848033,21.3849433 L29.947847,22.2090066 L50.2959992,22.2642592 L50.2755942,23.8705827 L47.4962086,26.7724339 L46.3986305,26.7724339 L45.4005719,24.9770884 L43.8304554,24.9530971 L42.8649733,26.7724339 L41.0725489,26.7724339 L39.3513632,23.6604774 L38.1496118,26.7724339 L36.0074373,26.7724339 L34.717264,24.9218358 L32.3105395,24.9218358 L31.4449349,26.25953 L28.8661027,26.2409236 C27.4401814,29.6186609 24.1461284,31.9836251 20.310273,31.9836251 C15.1683512,31.9836251 11,27.7339959 11,22.4918126 C11,17.2496292 15.1683512,13 20.310273,13 C24.2954763,13 27.695866,15.5527076 29.0240821,19.1417611 Z M15.928968,24.7251802 C17.138832,24.7251802 18.1196205,23.7252675 18.1196205,22.4918126 C18.1196205,21.2583577 17.138832,20.2584449 15.928968,20.2584449 C14.7191041,20.2584449 13.7383156,21.2583577 13.7383156,22.4918126 C13.7383156,23.7252675 14.7191041,24.7251802 15.928968,24.7251802 Z" id="Oval-8" sketch:type="MSShapeGroup"></path>
                <path d="M28.951396,39.1470588 L48.4332681,39.1470588 L51,41.5129634 L31.0038069,41.392176 L29.8714357,42.2169501 L50.1375296,42.2722503 L50.1172068,43.8799594 L47.3490297,46.7843137 L46.2558779,46.7843137 L45.2618442,44.9874196 L43.6980594,44.9634076 L42.7364709,46.7843137 L40.9512748,46.7843137 L39.2370301,43.6696729 L38.0401251,46.7843137 L35.9065894,46.7843137 L34.621619,44.9321193 L32.2246001,44.9321193 L31.3624862,46.2709674 L28.7940537,46.252345 C27.3738828,49.6329958 24.0931138,52 20.2727273,52 C15.1515414,52 11,47.7467051 11,42.5 C11,37.2532949 15.1515414,33 20.2727273,33 C24.2418594,33 27.6285363,35.5549095 28.951396,39.1470588 Z M15.9090909,44.7352941 C17.1140758,44.7352941 18.0909091,43.7345189 18.0909091,42.5 C18.0909091,41.2654811 17.1140758,40.2647059 15.9090909,40.2647059 C14.704106,40.2647059 13.7272727,41.2654811 13.7272727,42.5 C13.7272727,43.7345189 14.704106,44.7352941 15.9090909,44.7352941 Z" id="Oval-7" fill-opacity="0.6" sketch:type="MSShapeGroup" transform="translate(31.000000, 42.500000) scale(-1, 1) translate(-31.000000, -42.500000) "></path>
            </g>
        </g>
    </g>
</svg>