<?xml version="1.0" encoding="UTF-8" standalone="no"?>
<svg width="64px" height="64px" viewBox="0 0 64 64" version="1.1" xmlns="http://www.w3.org/2000/svg" xmlns:xlink="http://www.w3.org/1999/xlink" xmlns:sketch="http://www.bohemiancoding.com/sketch/ns">
    <!-- Generator: Sketch 3.0.3 (7891) - http://www.bohemiancoding.com/sketch -->
    <title>mailserver</title>
    <desc>Created with Sketch.</desc>
    <defs></defs>
    <g id="Page-1" stroke="none" stroke-width="1" fill="none" fill-rule="evenodd" sketch:type="MSPage">
        <g id="Landscape" sketch:type="MSArtboardGroup" transform="translate(-153.000000, -223.000000)" fill-opacity="0.438830389" fill="#FFFFFF">
            <g id="mailserver" sketch:type="MSLayerGroup" transform="translate(153.000000, 223.000000)">
                <g id="mail-2" transform="translate(4.000000, 12.000000)" sketch:type="MSShapeGroup">
                    <path d="M6,0 C2.686291,0 0,2.682198 0,6 C0.074392,15.098288 0.0001952,24.727498 0,34 C0,37.193178 2.4839216,39.777599 5.625,39.96875 L50.25,40 C53.449312,39.870802 56,37.235064 56,34 L56,4.96875 C55.51451,2.140081 53.058736,0 50.09375,0 C35.403759,0.0066705 20.695587,7.78e-05 6,0 L6,0 Z M5.90625,3.15625 L50.28125,3.15625 L28.8125,24.625 C28.420763,25.016737 27.797988,25.016737 27.40625,24.625 L5.90625,3.15625 L5.90625,3.15625 Z M53,4.6875 L53,33.78125 C53,35.514648 52.375505,36.493775 51.125,36.84375 L36,21.6875 L53,4.6875 L53,4.6875 Z M3.34375,4.8125 L20.0625,21.53125 L4.78125,36.8125 C3.7350462,36.459473 3.370898,35.617188 3.34375,34.46875 L3.34375,4.8125 L3.34375,4.8125 Z M22.1875,23.625 L27.40625,28.875 C27.797988,29.266737 28.420763,29.266737 28.8125,28.875 L33.875,23.8125 L47.0625,37 L8.8125,37 L22.1875,23.625 L22.1875,23.625 Z" id="mail"></path>
                </g>
            </g>
        </g>
    </g>
</svg>