<?xml version="1.0" encoding="UTF-8" standalone="no"?>
<svg width="64px" height="64px" viewBox="0 0 64 64" version="1.1" xmlns="http://www.w3.org/2000/svg" xmlns:xlink="http://www.w3.org/1999/xlink" xmlns:sketch="http://www.bohemiancoding.com/sketch/ns">
    <!-- Generator: Sketch 3.0.3 (7891) - http://www.bohemiancoding.com/sketch -->
    <title>main</title>
    <desc>Created with Sketch.</desc>
    <defs></defs>
    <g id="Page-1" stroke="none" stroke-width="1" fill="none" fill-rule="evenodd" sketch:type="MSPage">
        <g id="Landscape" sketch:type="MSArtboardGroup" transform="translate(-6.000000, -7.000000)">
            <g id="main" sketch:type="MSLayerGroup" transform="translate(6.000000, 7.000000)">
                <g id="network-+-cogwheel-3-+-wireless-3" transform="translate(0.000000, 8.000000)">
                    <g id="network" transform="translate(15.858407, 29.780822)">
                        <g id="h2" transform="translate(0.000000, 14.081213)"></g>
                        <g id="h3" transform="translate(11.172969, 14.081213)"></g>
                        <g id="h4" transform="translate(22.345937, 14.081213)"></g>
                        <g id="h1" transform="translate(10.091714, 0.000000)"></g>
                        <g id="wire" transform="translate(3.964602, 7.943249)"></g>
                        <path d="M9.19499276,19.0840157 C9.19499276,19.6570127 8.71888013,20.123137 8.13103781,20.123137 L1.06395495,20.123137 C0.476112631,20.123137 0,19.6573738 0,19.0840157 L0,15.0214051 C0,14.4473249 0.476112631,13.9819227 1.06395495,13.9819227 L8.13103781,13.9819227 C8.71888013,13.9819227 9.19499276,14.4473249 9.19499276,15.0214051 L9.19499276,19.0840157 L9.19499276,19.0840157 Z" id="path3045" opacity="0.792910448" fill="#FFFFFF" sketch:type="MSShapeGroup"></path>
                        <path d="M20.4328367,19.0840157 C20.4328367,19.6570127 19.9567241,20.123137 19.3688817,20.123137 L12.3021593,20.123137 C11.714317,20.123137 11.2382043,19.6573738 11.2382043,19.0840157 L11.2382043,15.0214051 C11.2382043,14.4473249 11.714317,13.9819227 12.3021593,13.9819227 L19.3688817,13.9819227 C19.9567241,13.9819227 20.4328367,14.4473249 20.4328367,15.0214051 L20.4328367,19.0840157 L20.4328367,19.0840157 Z" id="path3047" opacity="0.595557369" fill="#FFFFFF" sketch:type="MSShapeGroup"></path>
                        <path d="M31.6714014,19.0840157 C31.6714014,19.6570127 31.1952888,20.123137 30.6074465,20.123137 L23.5403636,20.123137 C22.9525213,20.123137 22.4767691,19.6573738 22.4767691,19.0840157 L22.4767691,15.0214051 C22.4767691,14.4473249 22.9525213,13.9819227 23.5403636,13.9819227 L30.6070861,13.9819227 C31.1949284,13.9819227 31.671041,14.4473249 31.671041,15.0214051 L31.671041,19.0840157 L31.6714014,19.0840157 Z" id="path3049" opacity="0.400478078" fill="#FFFFFF" sketch:type="MSShapeGroup"></path>
                        <path d="M20.6811649,5.92385812 C20.6811649,6.59072994 20.1419791,7.1312319 19.4766468,7.1312319 L11.4735575,7.1312319 C10.8082253,7.1312319 10.2690394,6.59072994 10.2690394,5.92385812 L10.2690394,1.20737378 C10.2697603,0.540501957 10.8085857,0 11.4735575,0 L19.4766468,0 C20.1419791,0 20.6811649,0.540501957 20.6811649,1.20737378 L20.6811649,5.92385812 L20.6811649,5.92385812 Z" id="path3051" opacity="0.813257929" fill="#FFFFFF" sketch:type="MSShapeGroup"></path>
                        <path d="M16.3763282,8.03062427 L15.2950732,8.03062427 L15.2950732,10.013909 L4.05686887,10.013909 L4.05686887,13.353684 L5.13812389,13.353684 L5.13812389,11.0970793 L15.2950732,11.0970793 L15.2950732,13.353684 L16.3763282,13.353684 L16.3763282,11.0970793 L26.533638,11.0970793 L26.533638,13.353684 L27.614893,13.353684 L27.614893,10.013909 L16.3763282,10.013909 L16.3763282,8.03062427 Z" id="polygon3053" opacity="0.492362407" fill="#FFFFFF" sketch:type="MSShapeGroup"></path>
                    </g>
                    <g id="cogwheel-3" transform="translate(14.395786, 22.996827) rotate(22.000000) translate(-14.395786, -22.996827) translate(3.441762, 12.134243)" stroke="#000000" stroke-opacity="0.199643342" stroke-width="1.02976669" sketch:type="MSShapeGroup" fill="#FFFFFF" fill-opacity="0.332314312">
                        <g id="cw" transform="translate(-0.110597, -0.131502)">
                            <path d="M11.064621,0.131501843 C10.3145004,0.131501843 9.5816817,0.209493022 8.87381626,0.352148105 L8.87381626,2.03245413 C7.92222927,2.26026206 7.03359505,2.6257196 6.22088865,3.11871257 L5.0227923,1.9306174 C4.40864401,2.33419607 3.84735436,2.80770753 3.32834176,3.32238602 C2.80932917,3.83706464 2.33183232,4.39367049 1.92485748,5.00269212 L3.12295382,6.19078723 C2.62581093,6.9967084 2.25727923,7.87792411 2.02755145,8.82156926 L0.333100907,8.82156926 C0.18924719,9.52352437 0.1105973,10.2502247 0.1105973,10.9940863 C0.1105973,11.7379479 0.18924719,12.4646482 0.333100907,13.1666031 L2.02755145,13.1666031 C2.25727923,14.1102482 2.62581093,14.9914642 3.12295382,15.7973854 L1.92485748,16.9854805 C2.33183232,17.5945021 2.80932917,18.151108 3.32834176,18.6657864 C3.84735436,19.1804649 4.40864401,19.6539766 5.0227923,20.0575553 L6.22088865,18.8694599 C7.03359505,19.3624528 7.92222927,19.7279106 8.87381626,19.9557185 L8.87381626,21.6360245 C9.5816817,21.7786795 10.3144949,21.8566707 11.064621,21.8566707 C11.8147416,21.8566707 12.5475603,21.7786795 13.2554257,21.6360245 L13.2554257,19.9557185 C14.2070127,19.7279106 15.095647,19.3624528 15.9083534,18.8694599 L17.1064497,20.0575553 C17.720598,19.6539766 18.2818876,19.1804649 18.8009002,18.6657864 C19.3199128,18.151108 19.7974097,17.5945021 20.2043845,16.9854805 L19.0062882,15.7973854 C19.5034311,14.9914642 19.8719628,14.1102482 20.1016906,13.1666031 L21.7961411,13.1666031 C21.9399948,12.4646482 22.0186447,11.7379479 22.0186447,10.9940863 C22.0186447,10.2502247 21.9399948,9.52352437 21.7961411,8.82156926 L20.1016906,8.82156926 C19.8719628,7.87792411 19.5034311,6.9967084 19.0062882,6.19078723 L20.2043845,5.00269212 C19.7974097,4.39367049 19.3199128,3.83706464 18.8009002,3.32238602 C18.2818876,2.80770753 17.720598,2.33419607 17.1064497,1.9306174 L15.9083534,3.11871257 C15.095647,2.6257196 14.2070127,2.26026206 13.2554257,2.03245413 L13.2554257,0.352148105 C12.5475603,0.209493022 11.8147416,0.131501843 11.064621,0.131501843 L11.064621,0.131501843 Z M11.064621,5.5627941 C14.0879315,5.5627941 16.5416329,7.99601289 16.5416329,10.9940863 C16.5416329,13.9921595 14.0879315,16.4253785 11.064621,16.4253785 C8.04131046,16.4253785 5.58760915,13.9921595 5.58760915,10.9940863 C5.58760915,7.99601289 8.04131046,5.5627941 11.064621,5.5627941 L11.064621,5.5627941 Z"></path>
                        </g>
                    </g>
                    <g id="wireless-2" transform="translate(17.664676, -0.106707)" fill="#FFFFFF" sketch:type="MSShapeGroup">
                        <path d="M20.1516091,13.6376005 C18.5845147,12.0900733 16.4289167,11.132067 14.0521381,11.132067 C11.6753595,11.132067 9.51976147,12.0900733 7.95266703,13.6376005 C7.93608551,13.6541082 7.91950398,13.6703361 7.9032035,13.6868438 L9.87949621,15.6546179 C9.89579669,15.6381102 9.91237821,15.6213227 9.92895973,15.6053745 C10.9898962,14.5611924 12.4462597,13.9151537 14.0521381,13.9151537 C15.6582975,13.9151537 17.11438,14.5611924 18.1755975,15.6053745 C18.192179,15.6213227 18.2084795,15.6381102 18.225061,15.6546179 L20.2010727,13.6868438 C20.1844912,13.6703361 20.1681907,13.6541082 20.1516091,13.6376005 L20.1516091,13.6376005 Z" id="path3130" fill-opacity="0.248669611"></path>
                        <path d="M24.1033514,9.70401085 C21.523941,7.1481149 17.9701552,5.56617339 14.0521381,5.56617339 C10.1341209,5.56617339 6.58061627,7.14839469 4.00092476,9.70401085 C3.98434323,9.72023876 3.96776171,9.73674646 3.95146123,9.75325417 L5.92719185,11.7201889 C5.94349233,11.7036812 5.96007385,11.6874533 5.97665537,11.6709456 C8.05018887,9.61895421 10.9047402,8.3489803 14.0521381,8.3489803 C17.199536,8.3489803 20.0538063,9.61895421 22.1273398,11.6709456 C22.1439213,11.6874533 22.1605028,11.7036812 22.1768033,11.7201889 L24.1525339,9.75325417 C24.1362334,9.73674646 24.1196519,9.72023876 24.1033514,9.70401085 L24.1033514,9.70401085 Z" id="path3132" fill-opacity="0.700181159"></path>
                        <path d="M28.0548127,5.76986165 C24.4628051,2.20643628 19.5116748,0 14.0521381,0 C8.5926014,0 3.64147106,2.20643628 0.0494635261,5.76986165 C0.0331630459,5.78636936 0.0165815229,5.80287706 0,5.81910497 L1.97573062,7.78603967 C1.99231214,7.76953197 2.00861262,7.75330406 2.02519414,7.73679636 C5.11104367,4.67727559 9.36322065,2.7830867 14.0521381,2.7830867 C18.7410555,2.7830867 22.9932325,4.67755538 26.079082,7.73707615 C26.0956636,7.75358385 26.111964,7.76981176 26.1285456,7.78631946 L28.1042762,5.81938476 C28.0876947,5.80287706 28.0713942,5.78636936 28.0548127,5.76986165 L28.0548127,5.76986165 Z" id="path3134" fill-opacity="0.902683424"></path>
                        <ellipse id="circle3136" fill-opacity="0.500000477" cx="14.0521381" cy="19.8652011" rx="2.24834209" ry="2.23833252"></ellipse>
                    </g>
                </g>
            </g>
            <g id="cogwheel-4" sketch:type="MSLayerGroup" transform="translate(53.954024, 37.862584) rotate(22.000000) translate(-53.954024, -37.862584) translate(43.000000, 27.000000)" stroke="#000000" stroke-opacity="0.199643342" stroke-width="1.02976669" fill="#FFFFFF" fill-opacity="0.332314312">
                <g id="cw" transform="translate(-0.110597, -0.131502)" sketch:type="MSShapeGroup">
                    <path d="M11.064621,0.131501843 C10.3145004,0.131501843 9.5816817,0.209493022 8.87381626,0.352148105 L8.87381626,2.03245413 C7.92222927,2.26026206 7.03359505,2.6257196 6.22088865,3.11871257 L5.0227923,1.9306174 C4.40864401,2.33419607 3.84735436,2.80770753 3.32834176,3.32238602 C2.80932917,3.83706464 2.33183232,4.39367049 1.92485748,5.00269212 L3.12295382,6.19078723 C2.62581093,6.9967084 2.25727923,7.87792411 2.02755145,8.82156926 L0.333100907,8.82156926 C0.18924719,9.52352437 0.1105973,10.2502247 0.1105973,10.9940863 C0.1105973,11.7379479 0.18924719,12.4646482 0.333100907,13.1666031 L2.02755145,13.1666031 C2.25727923,14.1102482 2.62581093,14.9914642 3.12295382,15.7973854 L1.92485748,16.9854805 C2.33183232,17.5945021 2.80932917,18.151108 3.32834176,18.6657864 C3.84735436,19.1804649 4.40864401,19.6539766 5.0227923,20.0575553 L6.22088865,18.8694599 C7.03359505,19.3624528 7.92222927,19.7279106 8.87381626,19.9557185 L8.87381626,21.6360245 C9.5816817,21.7786795 10.3144949,21.8566707 11.064621,21.8566707 C11.8147416,21.8566707 12.5475603,21.7786795 13.2554257,21.6360245 L13.2554257,19.9557185 C14.2070127,19.7279106 15.095647,19.3624528 15.9083534,18.8694599 L17.1064497,20.0575553 C17.720598,19.6539766 18.2818876,19.1804649 18.8009002,18.6657864 C19.3199128,18.151108 19.7974097,17.5945021 20.2043845,16.9854805 L19.0062882,15.7973854 C19.5034311,14.9914642 19.8719628,14.1102482 20.1016906,13.1666031 L21.7961411,13.1666031 C21.9399948,12.4646482 22.0186447,11.7379479 22.0186447,10.9940863 C22.0186447,10.2502247 21.9399948,9.52352437 21.7961411,8.82156926 L20.1016906,8.82156926 C19.8719628,7.87792411 19.5034311,6.9967084 19.0062882,6.19078723 L20.2043845,5.00269212 C19.7974097,4.39367049 19.3199128,3.83706464 18.8009002,3.32238602 C18.2818876,2.80770753 17.720598,2.33419607 17.1064497,1.9306174 L15.9083534,3.11871257 C15.095647,2.6257196 14.2070127,2.26026206 13.2554257,2.03245413 L13.2554257,0.352148105 C12.5475603,0.209493022 11.8147416,0.131501843 11.064621,0.131501843 L11.064621,0.131501843 Z M11.064621,5.5627941 C14.0879315,5.5627941 16.5416329,7.99601289 16.5416329,10.9940863 C16.5416329,13.9921595 14.0879315,16.4253785 11.064621,16.4253785 C8.04131046,16.4253785 5.58760915,13.9921595 5.58760915,10.9940863 C5.58760915,7.99601289 8.04131046,5.5627941 11.064621,5.5627941 L11.064621,5.5627941 Z"></path>
                </g>
            </g>
        </g>
    </g>
</svg>