<?xml version="1.0" encoding="UTF-8" standalone="no"?>
<svg width="64px" height="64px" viewBox="0 0 64 64" version="1.1" xmlns="http://www.w3.org/2000/svg" xmlns:xlink="http://www.w3.org/1999/xlink" xmlns:sketch="http://www.bohemiancoding.com/sketch/ns">
    <!-- Generator: Sketch 3.1.1 (8761) - http://www.bohemiancoding.com/sketch -->
    <title>citycom_adcadmin/main</title>
    <desc>Created with Sketch.</desc>
    <defs></defs>
    <g id="ADC" stroke="none" stroke-width="1" fill="none" fill-rule="evenodd" sketch:type="MSPage">
        <g id="adc_admin" sketch:type="MSArtboardGroup" transform="translate(-6.000000, -7.000000)">
            <g id="main" sketch:type="MSLayerGroup" transform="translate(6.000000, 7.000000)">
                <g id="datacenter" transform="translate(5.000000, 1.000000)" sketch:type="MSShapeGroup">
                    <g id="datacenter-3" transform="translate(1.666667, 31.413333)">
                        <rect id="Rectangle-98" stroke-opacity="0.600000024" stroke="#000000" opacity="0.600391805" fill="#D8D8D8" x="0" y="0" width="51.6666667" height="13.2266667" rx="3"></rect>
                        <rect id="Rectangle-99" opacity="0.631646455" fill="#FFFFFF" x="2.5" y="2.48" width="10.8333333" height="3.30666667" rx="1"></rect>
                        <rect id="Rectangle-100" opacity="0.631646455" fill="#FFFFFF" x="15" y="2.48" width="10.8333333" height="3.30666667" rx="1"></rect>
                        <rect id="Rectangle-101" opacity="0.631646455" fill="#FFFFFF" x="27.5" y="2.48" width="10.8333333" height="3.30666667" rx="1"></rect>
                        <rect id="Rectangle-104" opacity="0.631646455" fill="#FFFFFF" x="2.5" y="6.61333333" width="10.8333333" height="3.30666667" rx="1"></rect>
                        <rect id="Rectangle-102" opacity="0.631646455" fill="#FFFFFF" x="15" y="6.61333333" width="10.8333333" height="3.30666667" rx="1"></rect>
                        <rect id="Rectangle-103" opacity="0.631646455" fill="#FFFFFF" x="27.5" y="6.61333333" width="10.8333333" height="3.30666667" rx="1"></rect>
                        <ellipse id="Oval-22" fill="#FFFFFF" cx="42.5" cy="4.13333333" rx="1.66666667" ry="1.65333333"></ellipse>
                        <ellipse id="Oval-23" fill="#FFFFFF" cx="47.5" cy="4.13333333" rx="1.66666667" ry="1.65333333"></ellipse>
                    </g>
                    <g id="datacenter-4" transform="translate(1.666667, 45.466667)">
                        <rect id="Rectangle-98" stroke-opacity="0.600000024" stroke="#000000" opacity="0.600391805" fill="#D8D8D8" x="0" y="0" width="51.6666667" height="13.2266667" rx="3"></rect>
                        <rect id="Rectangle-99" opacity="0.631646455" fill="#FFFFFF" x="2.5" y="2.48" width="10.8333333" height="3.30666667" rx="1"></rect>
                        <rect id="Rectangle-100" opacity="0.631646455" fill="#FFFFFF" x="15" y="2.48" width="10.8333333" height="3.30666667" rx="1"></rect>
                        <rect id="Rectangle-101" opacity="0.631646455" fill="#FFFFFF" x="27.5" y="2.48" width="10.8333333" height="3.30666667" rx="1"></rect>
                        <rect id="Rectangle-104" opacity="0.631646455" fill="#FFFFFF" x="2.5" y="6.61333333" width="10.8333333" height="3.30666667" rx="1"></rect>
                        <rect id="Rectangle-102" opacity="0.631646455" fill="#FFFFFF" x="15" y="6.61333333" width="10.8333333" height="3.30666667" rx="1"></rect>
                        <rect id="Rectangle-103" opacity="0.631646455" fill="#FFFFFF" x="27.5" y="6.61333333" width="10.8333333" height="3.30666667" rx="1"></rect>
                        <ellipse id="Oval-22" fill="#FFFFFF" cx="42.5" cy="4.13333333" rx="1.66666667" ry="1.65333333"></ellipse>
                        <ellipse id="Oval-23" fill="#FFFFFF" cx="47.5" cy="4.13333333" rx="1.66666667" ry="1.65333333"></ellipse>
                    </g>
                    <g id="datacenter-2" transform="translate(1.666667, 17.360000)">
                        <rect id="Rectangle-98" stroke-opacity="0.600000024" stroke="#000000" opacity="0.600391805" fill="#D8D8D8" x="0" y="0" width="51.6666667" height="13.2266667" rx="3"></rect>
                        <rect id="Rectangle-99" opacity="0.631646455" fill="#FFFFFF" x="2.5" y="2.48" width="10.8333333" height="3.30666667" rx="1"></rect>
                        <rect id="Rectangle-100" opacity="0.631646455" fill="#FFFFFF" x="15" y="2.48" width="10.8333333" height="3.30666667" rx="1"></rect>
                        <rect id="Rectangle-101" opacity="0.631646455" fill="#FFFFFF" x="27.5" y="2.48" width="10.8333333" height="3.30666667" rx="1"></rect>
                        <rect id="Rectangle-104" opacity="0.631646455" fill="#FFFFFF" x="2.5" y="6.61333333" width="10.8333333" height="3.30666667" rx="1"></rect>
                        <rect id="Rectangle-102" opacity="0.631646455" fill="#FFFFFF" x="15" y="6.61333333" width="10.8333333" height="3.30666667" rx="1"></rect>
                        <rect id="Rectangle-103" opacity="0.631646455" fill="#FFFFFF" x="27.5" y="6.61333333" width="10.8333333" height="3.30666667" rx="1"></rect>
                        <ellipse id="Oval-22" fill="#FFFFFF" cx="42.5" cy="4.13333333" rx="1.66666667" ry="1.65333333"></ellipse>
                        <ellipse id="Oval-23" fill="#FFFFFF" cx="47.5" cy="4.13333333" rx="1.66666667" ry="1.65333333"></ellipse>
                    </g>
                    <g transform="translate(1.666667, 3.306667)">
                        <rect id="Rectangle-98" stroke-opacity="0.600000024" stroke="#000000" opacity="0.600391805" fill="#D8D8D8" x="0" y="0" width="51.6666667" height="13.2266667" rx="3"></rect>
                        <rect id="Rectangle-99" opacity="0.631646455" fill="#FFFFFF" x="2.5" y="2.48" width="10.8333333" height="3.30666667" rx="1"></rect>
                        <rect id="Rectangle-100" opacity="0.631646455" fill="#FFFFFF" x="15" y="2.48" width="10.8333333" height="3.30666667" rx="1"></rect>
                        <rect id="Rectangle-101" opacity="0.631646455" fill="#FFFFFF" x="27.5" y="2.48" width="10.8333333" height="3.30666667" rx="1"></rect>
                        <rect id="Rectangle-104" opacity="0.631646455" fill="#FFFFFF" x="2.5" y="6.61333333" width="10.8333333" height="3.30666667" rx="1"></rect>
                        <rect id="Rectangle-102" opacity="0.631646455" fill="#FFFFFF" x="15" y="6.61333333" width="10.8333333" height="3.30666667" rx="1"></rect>
                        <rect id="Rectangle-103" opacity="0.631646455" fill="#FFFFFF" x="27.5" y="6.61333333" width="10.8333333" height="3.30666667" rx="1"></rect>
                        <ellipse id="Oval-22" fill="#FFFFFF" cx="42.5" cy="4.13333333" rx="1.66666667" ry="1.65333333"></ellipse>
                        <ellipse id="Oval-23" fill="#FFFFFF" cx="47.5" cy="4.13333333" rx="1.66666667" ry="1.65333333"></ellipse>
                    </g>
                    <rect id="Rectangle-118" stroke="#000000" opacity="0.393131996" x="0" y="0" width="55" height="62" rx="2"></rect>
                </g>
            </g>
        </g>
    </g>
</svg>