<?xml version="1.0" encoding="UTF-8" standalone="no"?>
<svg width="64px" height="64px" viewBox="0 0 64 64" version="1.1" xmlns="http://www.w3.org/2000/svg" xmlns:xlink="http://www.w3.org/1999/xlink" xmlns:sketch="http://www.bohemiancoding.com/sketch/ns">
    <!-- Generator: Sketch 3.0.3 (7891) - http://www.bohemiancoding.com/sketch -->
    <title>network</title>
    <desc>Created with Sketch.</desc>
    <defs></defs>
    <g id="Page-1" stroke="none" stroke-width="1" fill="none" fill-rule="evenodd" sketch:type="MSPage">
        <g id="Landscape" sketch:type="MSArtboardGroup" transform="translate(-6.000000, -80.000000)">
            <g id="network" sketch:type="MSLayerGroup" transform="translate(3.000000, 80.000000)">
                <g id="network-2" transform="translate(6.000000, 14.000000)">
                    <g id="h2" transform="translate(0.000000, 25.346184)"></g>
                    <g id="h3" transform="translate(20.251006, 25.346184)"></g>
                    <g id="h4" transform="translate(40.502011, 25.346184)"></g>
                    <g id="h1" transform="translate(18.291231, 0.000000)"></g>
                    <g id="wire" transform="translate(7.185841, 14.297847)"></g>
                    <path d="M16.6659244,34.3512282 C16.6659244,35.3826229 15.8029702,36.2216466 14.737506,36.2216466 L1.92841834,36.2216466 C0.862954143,36.2216466 0,35.3832728 0,34.3512282 L0,27.0385292 C0,26.0051847 0.862954143,25.1674609 1.92841834,25.1674609 L14.737506,25.1674609 C15.8029702,25.1674609 16.6659244,26.0051847 16.6659244,27.0385292 L16.6659244,34.3512282 L16.6659244,34.3512282 Z" id="path3045" opacity="0.792910448" fill="#FFFFFF" sketch:type="MSShapeGroup"></path>
                    <path d="M37.0345165,34.3512282 C37.0345165,35.3826229 36.1715623,36.2216466 35.1060981,36.2216466 L22.2976637,36.2216466 C21.2321995,36.2216466 20.3692454,35.3832728 20.3692454,34.3512282 L20.3692454,27.0385292 C20.3692454,26.0051847 21.2321995,25.1674609 22.2976637,25.1674609 L35.1060981,25.1674609 C36.1715623,25.1674609 37.0345165,26.0051847 37.0345165,27.0385292 L37.0345165,34.3512282 L37.0345165,34.3512282 Z" id="path3047" opacity="0.595557369" fill="#FFFFFF" sketch:type="MSShapeGroup"></path>
                    <path d="M57.4044151,34.3512282 C57.4044151,35.3826229 56.541461,36.2216466 55.4759968,36.2216466 L42.6669091,36.2216466 C41.6014449,36.2216466 40.739144,35.3832728 40.739144,34.3512282 L40.739144,27.0385292 C40.739144,26.0051847 41.6014449,25.1674609 42.6669091,25.1674609 L55.4753435,25.1674609 C56.5408077,25.1674609 57.4037619,26.0051847 57.4037619,27.0385292 L57.4037619,34.3512282 L57.4044151,34.3512282 Z" id="path3049" opacity="0.400478078" fill="#FFFFFF" sketch:type="MSShapeGroup"></path>
                    <path d="M37.4846114,10.6629446 C37.4846114,11.8633139 36.5073371,12.8362174 35.3014224,12.8362174 L20.795823,12.8362174 C19.5899083,12.8362174 18.612634,11.8633139 18.612634,10.6629446 L18.612634,2.1732728 C18.6139405,0.972903523 19.5905615,0 20.795823,0 L35.3014224,0 C36.5073371,0 37.4846114,0.972903523 37.4846114,2.1732728 L37.4846114,10.6629446 L37.4846114,10.6629446 Z" id="path3051" opacity="0.813257929" fill="#FFFFFF" sketch:type="MSShapeGroup"></path>
                    <path d="M29.6820949,14.4551237 L27.7223202,14.4551237 L27.7223202,18.0250362 L7.35307482,18.0250362 L7.35307482,24.0366311 L9.31284956,24.0366311 L9.31284956,19.9747427 L27.7223202,19.9747427 L27.7223202,24.0366311 L29.6820949,24.0366311 L29.6820949,19.9747427 L48.0922188,19.9747427 L48.0922188,24.0366311 L50.0519936,24.0366311 L50.0519936,18.0250362 L29.6820949,18.0250362 L29.6820949,14.4551237 Z" id="polygon3053" opacity="0.492362407" fill="#FFFFFF" sketch:type="MSShapeGroup"></path>
                </g>
            </g>
        </g>
    </g>
</svg>