<?xml version="1.0" encoding="UTF-8" standalone="no"?>
<svg width="64px" height="64px" viewBox="0 0 64 64" version="1.1" xmlns="http://www.w3.org/2000/svg" xmlns:xlink="http://www.w3.org/1999/xlink" xmlns:sketch="http://www.bohemiancoding.com/sketch/ns">
    <!-- Generator: Sketch 3.0.3 (7891) - http://www.bohemiancoding.com/sketch -->
    <title>netsrouting</title>
    <desc>Created with Sketch.</desc>
    <defs></defs>
    <g id="Page-1" stroke="none" stroke-width="1" fill="none" fill-rule="evenodd" sketch:type="MSPage">
        <g id="Landscape" sketch:type="MSArtboardGroup" transform="translate(-79.000000, -79.000000)">
            <g id="netsrouting" sketch:type="MSLayerGroup" transform="translate(79.000000, 79.000000)">
                <g id="routing" transform="translate(11.000000, 30.000000)" sketch:type="MSShapeGroup">
                    <g id="route" transform="translate(3.185185, -0.400000)">
                        <path d="M0.318829572,11.834375 C0.318829572,11.834375 13.8060981,6.3921875 13.8060981,11.9375 C13.8060981,17.4828125 28.6822193,8.571875 28.6822193,8.571875" id="Path-95" stroke="#EEEFF1" stroke-width="3.2"></path>
                        <polygon id="Triangle-1" fill="#EEEFF1" transform="translate(32.155129, 7.179127) rotate(-298.000000) translate(-32.155129, -7.179127) " points="32.1551288 1.17912699 37.3310547 13.179127 26.9792028 13.179127 "></polygon>
                    </g>
                    <path d="M1.59730591,17.2 C0.715138217,17.2 0,17.9201409 0,18.7936136 L0,24.4063864 C0,25.2865149 0.717301453,26 1.59730591,26 L3.97676816,26 C4.85893586,26 5.57407407,25.2798591 5.57407407,24.4063864 L5.57407407,18.7936136 C5.57407407,17.9134851 4.85677262,17.2 3.97676816,17.2 L1.59730591,17.2 Z M8.76397258,17.2 C7.88180488,17.2 7.16666667,17.9201409 7.16666667,18.7936136 L7.16666667,24.4063864 C7.16666667,25.2865149 7.88396812,26 8.76397258,26 L11.1434348,26 C12.0256025,26 12.7407407,25.2798591 12.7407407,24.4063864 L12.7407407,18.7936136 C12.7407407,17.9134851 12.0234393,17.2 11.1434348,17.2 L8.76397258,17.2 Z M15.9306392,17.2 C15.0484716,17.2 14.3333333,17.9201409 14.3333333,18.7936136 L14.3333333,24.4063864 C14.3333333,25.2865149 15.0506348,26 15.9306392,26 L18.3101015,26 C19.1922692,26 19.9074074,25.2798591 19.9074074,24.4063864 L19.9074074,18.7936136 C19.9074074,17.9134851 19.190106,17.2 18.3101015,17.2 L15.9306392,17.2 Z M23.0973059,17.2 C22.2151382,17.2 21.5,17.9201409 21.5,18.7936136 L21.5,24.4063864 C21.5,25.2865149 22.2173015,26 23.0973059,26 L25.4767682,26 C26.3589359,26 27.0740741,25.2798591 27.0740741,24.4063864 L27.0740741,18.7936136 C27.0740741,17.9134851 26.3567726,17.2 25.4767682,17.2 L23.0973059,17.2 Z M30.2639726,17.2 C29.3818049,17.2 28.6666667,17.9201409 28.6666667,18.7936136 L28.6666667,24.4063864 C28.6666667,25.2865149 29.3839681,26 30.2639726,26 L32.6434348,26 C33.5256025,26 34.2407407,25.2798591 34.2407407,24.4063864 L34.2407407,18.7936136 C34.2407407,17.9134851 33.5234393,17.2 32.6434348,17.2 L30.2639726,17.2 Z M37.4306392,17.2 C36.5484716,17.2 35.8333333,17.9201409 35.8333333,18.7936136 L35.8333333,24.4063864 C35.8333333,25.2865149 36.5506348,26 37.4306392,26 L39.8101015,26 C40.6922692,26 41.4074074,25.2798591 41.4074074,24.4063864 L41.4074074,18.7936136 C41.4074074,17.9134851 40.690106,17.2 39.8101015,17.2 L37.4306392,17.2 Z" id="Rectangle-32" fill-opacity="0.2" fill="#D8D8D8"></path>
                </g>
                <g id="network-3" transform="translate(17.858407, 7.780822)">
                    <g id="h2" transform="translate(0.000000, 14.081213)"></g>
                    <g id="h3" transform="translate(11.172969, 14.081213)"></g>
                    <g id="h4" transform="translate(22.345937, 14.081213)"></g>
                    <g id="h1" transform="translate(10.091714, 0.000000)"></g>
                    <g id="wire" transform="translate(3.964602, 7.943249)"></g>
                    <path d="M9.19499276,19.0840157 C9.19499276,19.6570127 8.71888013,20.123137 8.13103781,20.123137 L1.06395495,20.123137 C0.476112631,20.123137 0,19.6573738 0,19.0840157 L0,15.0214051 C0,14.4473249 0.476112631,13.9819227 1.06395495,13.9819227 L8.13103781,13.9819227 C8.71888013,13.9819227 9.19499276,14.4473249 9.19499276,15.0214051 L9.19499276,19.0840157 L9.19499276,19.0840157 Z" id="path3045" opacity="0.792910448" fill="#FFFFFF" sketch:type="MSShapeGroup"></path>
                    <path d="M20.4328367,19.0840157 C20.4328367,19.6570127 19.9567241,20.123137 19.3688817,20.123137 L12.3021593,20.123137 C11.714317,20.123137 11.2382043,19.6573738 11.2382043,19.0840157 L11.2382043,15.0214051 C11.2382043,14.4473249 11.714317,13.9819227 12.3021593,13.9819227 L19.3688817,13.9819227 C19.9567241,13.9819227 20.4328367,14.4473249 20.4328367,15.0214051 L20.4328367,19.0840157 L20.4328367,19.0840157 Z" id="path3047" opacity="0.595557369" fill="#FFFFFF" sketch:type="MSShapeGroup"></path>
                    <path d="M31.6714014,19.0840157 C31.6714014,19.6570127 31.1952888,20.123137 30.6074465,20.123137 L23.5403636,20.123137 C22.9525213,20.123137 22.4767691,19.6573738 22.4767691,19.0840157 L22.4767691,15.0214051 C22.4767691,14.4473249 22.9525213,13.9819227 23.5403636,13.9819227 L30.6070861,13.9819227 C31.1949284,13.9819227 31.671041,14.4473249 31.671041,15.0214051 L31.671041,19.0840157 L31.6714014,19.0840157 Z" id="path3049" opacity="0.400478078" fill="#FFFFFF" sketch:type="MSShapeGroup"></path>
                    <path d="M20.6811649,5.92385812 C20.6811649,6.59072994 20.1419791,7.1312319 19.4766468,7.1312319 L11.4735575,7.1312319 C10.8082253,7.1312319 10.2690394,6.59072994 10.2690394,5.92385812 L10.2690394,1.20737378 C10.2697603,0.540501957 10.8085857,0 11.4735575,0 L19.4766468,0 C20.1419791,0 20.6811649,0.540501957 20.6811649,1.20737378 L20.6811649,5.92385812 L20.6811649,5.92385812 Z" id="path3051" opacity="0.813257929" fill="#FFFFFF" sketch:type="MSShapeGroup"></path>
                    <path d="M16.3763282,8.03062427 L15.2950732,8.03062427 L15.2950732,10.013909 L4.05686887,10.013909 L4.05686887,13.353684 L5.13812389,13.353684 L5.13812389,11.0970793 L15.2950732,11.0970793 L15.2950732,13.353684 L16.3763282,13.353684 L16.3763282,11.0970793 L26.533638,11.0970793 L26.533638,13.353684 L27.614893,13.353684 L27.614893,10.013909 L16.3763282,10.013909 L16.3763282,8.03062427 Z" id="polygon3053" opacity="0.492362407" fill="#FFFFFF" sketch:type="MSShapeGroup"></path>
                </g>
            </g>
        </g>
    </g>
</svg>