<?xml version="1.0" encoding="UTF-8" standalone="no"?>
<svg width="64px" height="64px" viewBox="0 0 64 64" version="1.1" xmlns="http://www.w3.org/2000/svg" xmlns:xlink="http://www.w3.org/1999/xlink" xmlns:sketch="http://www.bohemiancoding.com/sketch/ns">
    <!-- Generator: Sketch 3.0.3 (7891) - http://www.bohemiancoding.com/sketch -->
    <title>portsecurity</title>
    <desc>Created with Sketch.</desc>
    <defs></defs>
    <g id="Page-1" stroke="none" stroke-width="1" fill="none" fill-rule="evenodd" sketch:type="MSPage">
        <g id="Landscape" sketch:type="MSArtboardGroup" transform="translate(-298.000000, -79.000000)">
            <g id="portsecurity" sketch:type="MSLayerGroup" transform="translate(298.000000, 79.000000)">
                <g id="portsec" transform="translate(7.000000, 7.000000)" sketch:type="MSShapeGroup">
                    <g id="security-2">
                        <path d="M27.67284,46.0370968 C24.86052,45.5274194 22.9905,42.8408602 23.4981,40.0473118 C23.84586,38.1510753 25.19856,36.6586022 26.94816,36.0747312 L28.593,33.0274194 L26.18784,30.5258065 C25.97238,30.5145161 25.75206,30.4892473 25.53444,30.4483871 C24.1839,30.2064516 23.00238,29.45 22.21452,28.3145161 C21.4245,27.1844086 21.12534,25.8166667 21.37104,24.4623656 C21.82086,22.005914 23.96142,20.2247312 26.46108,20.2247312 C26.76672,20.2247312 27.0729,20.2510753 27.38556,20.3075269 C28.6902,20.5419355 29.84148,21.2763441 30.618,22.3102151 L34.04916,22.927957 L35.72478,19.8231183 C35.53254,19.1010753 35.49528,18.3365591 35.62974,17.5924731 C36.07902,15.1360215 38.21742,13.3548387 40.71762,13.3548387 C41.0211,13.3548387 41.32944,13.3827957 41.6421,13.4365591 C41.73228,13.4537634 41.81814,13.4908602 41.90832,13.511828 L41.90832,8.6811828 C41.90832,3.81182796 32.52744,-0.134946237 20.95416,-0.134946237 C9.38142,-0.134408602 0,3.81290323 0,8.68225806 L0,24.6037634 C0,32.9150538 8.77608,44.7 20.95416,49.7284946 C23.3523,48.7392473 25.61328,47.4768817 27.71064,46.0403226 C27.69876,46.038172 27.68688,46.0392473 27.67284,46.0370968 L27.67284,46.0370968 Z" id="path3000" fill-opacity="0.180000678" fill="#FFFFFF"></path>
                        <path d="M53.5788,28.477957 C53.20134,27.9344086 52.6311,27.5704301 51.97986,27.4526882 C50.98356,27.2704301 50.04072,27.7064516 49.5126,28.4397849 L42.9786,27.2612903 L42.06816,20.5784946 C42.6357,20.2209677 43.0461,19.6419355 43.17084,18.9526882 C43.2891,18.3010753 43.14546,17.6419355 42.7653,17.0989247 C42.38784,16.555914 41.81976,16.1913978 41.16636,16.0747312 C39.78774,15.8290323 38.51874,16.7446237 38.2752,18.0688172 C38.15478,18.7413978 38.32434,19.416129 38.71368,19.9451613 L35.49312,25.911828 L28.85976,24.7145161 C28.6119,23.8306452 27.87534,23.1172043 26.90658,22.9430108 C25.542,22.6983871 24.26112,23.6145161 24.01974,24.938172 C23.77404,26.2833333 24.6753,27.5736559 26.02152,27.8150538 C26.43624,27.8913978 26.83962,27.8553763 27.2214,27.7274194 L31.88754,32.5827957 L28.69722,38.4903226 C27.45306,38.4370968 26.36658,39.3091398 26.1441,40.5236559 C25.9011,41.8650538 26.79966,43.1564516 28.14804,43.4016129 C29.5245,43.6462366 30.7962,42.727957 31.03758,41.4064516 C31.06566,41.2607527 31.077,41.1166667 31.0743,40.9709677 L37.1493,38.0564516 L41.8689,42.9688172 C41.75496,43.1854839 41.6745,43.422043 41.62806,43.6704301 C41.5098,44.322043 41.65128,44.9795699 42.0336,45.5236559 C42.40836,46.0655914 42.9786,46.4306452 43.632,46.5478495 C43.78266,46.5752688 43.93116,46.5892473 44.07696,46.5892473 C45.28116,46.5892473 46.3104,45.7333333 46.52316,44.5548387 C46.64142,43.9043011 46.49778,43.2467742 46.11762,42.7026882 C45.82818,42.2876344 45.4275,41.9758065 44.96148,41.8005376 L44.00244,34.7672043 L50.05638,31.8655914 C50.35824,32.0962366 50.71248,32.2553763 51.0921,32.3247312 C51.24276,32.3526882 51.3891,32.3650538 51.5349,32.3650538 C52.73748,32.3650538 53.76618,31.5080645 53.97894,30.3306452 C54.0999,29.6784946 53.95842,29.0209677 53.5788,28.477957 L53.5788,28.477957 Z" id="path3002" fill-opacity="0.850000143" fill="#D8D8D8"></path>
                    </g>
                    <g id="ether-2" transform="translate(15.300000, 15.000000) rotate(-35.000000) translate(-15.300000, -15.000000) translate(2.700000, 6.363636)">
                        <g id="ether" transform="translate(-0.000000, 0.000000)">
                            <path d="M24.3192062,4.82369242 L25.167206,4.82369242 L25.1791548,11.8005033 L24.2953257,11.8005033 L24.2714281,14.6898896 L5.85432809,14.6898896 L5.85432809,1.86383314 L24.2714281,1.86383314 L24.3192005,4.82369242 L24.3192062,4.82369242 Z" id="2" fill-opacity="0.25" fill="#FFFFFF"></path>
                            <path d="M15.1295537,5.29007038 L12.1296213,6.19447177 L12.1296213,11.0101157 L15.1295537,11.8792807 L15.1295537,17.2234709 L2.5903883,17.2469618 L1.53353161,17.19998 L1.27482178,17.106016 L0.955563006,16.8828521 L0.696853306,16.5422334 L0.449152421,16.0136871 L0.295027574,15.4264135 L0.201451667,14.8978672 L0.140902596,14.1696479 L0.135398384,3.53999486 L0.124389961,3.10541249 L0.146407852,2.60035711 L0.228974814,2.01308326 L0.30053283,1.70770117 L0.454657677,1.23788215 L0.685845143,0.79155418 L0.994094968,0.392208085 L1.40692965,0.0868257933 L1.75371078,-0.0776108211 L2.66745157,-0.0306289194 L9.72967661,-0.0306289194 L15.129555,-0.0776108211 L15.129555,5.29007038 L15.1295537,5.29007038 Z" id="3" fill-opacity="0.9" fill="#FFFFFF"></path>
                            <path d="M6.65060368,10.848139 L10.8746019,10.848139 L10.8746019,6.16478067 L6.52440383,6.16478067 C6.52440383,6.16478067 4.41611599,6.2104719 4.46065736,8.48742174 C4.46065736,10.7643716 6.65060368,10.848139 6.65060368,10.848139 L6.65060368,10.848139 Z" id="4" fill-opacity="0.269587862" fill="#000000"></path>
                            <path id="16" stroke-opacity="0.1" stroke="#000000" d="M16.6394439,14.701635 L16.6394439,1.87557859"></path>
                            <path d="M21.5363391,4.03674557 L24.2594879,4.03674557 L24.2594879,3.23805355 L21.5363391,3.23805355 L21.5363391,4.03674557 L21.5363391,4.03674557 Z" id="17" fill-opacity="0.5" fill="#FFFFFF"></path>
                            <path d="M21.5363391,5.36398416 L24.2594879,5.36398416 L24.2594879,4.57703732 L21.5363391,4.57703732 L21.5363391,5.36398416 L21.5363391,5.36398416 Z" id="18" fill-opacity="0.5" fill="#FFFFFF"></path>
                            <path d="M21.5363391,6.69122248 L24.2594879,6.69122248 L24.2594879,5.90427591 L21.5363391,5.90427591 L21.5363391,6.69122248 L21.5363391,6.69122248 Z" id="19" fill-opacity="0.5" fill="#FFFFFF"></path>
                            <path d="M21.5363391,8.03020652 L24.2594879,8.03020652 L24.2594879,7.23151422 L21.5363391,7.23151422 L21.5363391,8.03020652 L21.5363391,8.03020652 Z" id="20" fill-opacity="0.5" fill="#FFFFFF"></path>
                            <path d="M21.5363391,9.35744484 L24.2594879,9.35744484 L24.2594879,8.55875282 L21.5363391,8.55875282 L21.5363391,9.35744484 L21.5363391,9.35744484 Z" id="21" fill-opacity="0.5" fill="#FFFFFF"></path>
                            <path d="M21.5363391,10.6964289 L24.2594879,10.6964289 L24.2594879,9.88599113 L21.5363391,9.88599113 L21.5363391,10.6964289 L21.5363391,10.6964289 Z" id="22" fill-opacity="0.5" fill="#FFFFFF"></path>
                            <path d="M21.5363391,12.0236672 L24.2594879,12.0236672 L24.2594879,11.2367206 L21.5363391,11.2367206 L21.5363391,12.0236672 L21.5363391,12.0236672 Z" id="23" fill-opacity="0.5" fill="#FFFFFF"></path>
                            <path d="M21.5363391,13.3509055 L24.2594879,13.3509055 L24.2594879,12.5522135 L21.5363391,12.5522135 L21.5363391,13.3509055 L21.5363391,13.3509055 Z" id="24" fill-opacity="0.5" fill="#FFFFFF"></path>
                        </g>
                    </g>
                </g>
            </g>
        </g>
    </g>
</svg>