<?xml version="1.0" encoding="UTF-8" standalone="no"?>
<svg width="64px" height="64px" viewBox="0 0 64 64" version="1.1" xmlns="http://www.w3.org/2000/svg" xmlns:xlink="http://www.w3.org/1999/xlink" xmlns:sketch="http://www.bohemiancoding.com/sketch/ns">
    <!-- Generator: Sketch 3.0.3 (7891) - http://www.bohemiancoding.com/sketch -->
    <title>redirections</title>
    <desc>Created with Sketch.</desc>
    <defs></defs>
    <g id="Page-1" stroke="none" stroke-width="1" fill="none" fill-rule="evenodd" sketch:type="MSPage">
        <g id="Landscape" sketch:type="MSArtboardGroup" transform="translate(-152.000000, -368.000000)">
            <g id="redirections" sketch:type="MSLayerGroup" transform="translate(152.000000, 368.000000)">
                <g id="redir" transform="translate(8.000000, 40.000000)" stroke="#FFFFFF" stroke-width="1.85185185" fill="#FFFFFF" stroke-linecap="square">
                    <path d="M-0.462962963,0.461538462 L24.2006655,0.461538462" id="Line" sketch:type="MSShapeGroup"></path>
                    <path id="Line-decoration-1" d="M23.537037,0.461538462 C19.757037,-0.588461538 16.517037,-1.48846154 12.737037,-2.53846154 C12.737037,-0.438461538 12.737037,1.36153846 12.737037,3.46153846 C16.517037,2.41153846 19.757037,1.51153846 23.537037,0.461538462 C23.537037,0.461538462 23.537037,0.461538462 23.537037,0.461538462 Z"></path>
                    <path d="M24.537037,10.6153846 L-0.126591435,10.6153846" id="Line-11" sketch:type="MSShapeGroup"></path>
                    <path id="Line-11-decoration-1" d="M0.537037037,10.6153846 C4.31703704,11.6653846 7.55703704,12.5653846 11.337037,13.6153846 C11.337037,11.5153846 11.337037,9.71538462 11.337037,7.61538462 C7.55703704,8.66538462 4.31703704,9.56538462 0.537037037,10.6153846 C0.537037037,10.6153846 0.537037037,10.6153846 0.537037037,10.6153846 Z"></path>
                </g>
                <g id="cellphone-2" transform="translate(40.000000, 22.000000)" fill="#FFFFFF" sketch:type="MSShapeGroup">
                    <path d="M12.75,0 L2.25,0 C1.0035,0 0,0.996382979 0,2.23404255 L0,32.7659574 C0,34.003617 1.0035,35 2.25,35 L15.75,35 C16.9965,35 18,34.003617 18,32.7659574 L18,2.23404255 C18,0.996382979 16.9965,0 15.75,0 L12.75,0 Z M2.625,2.23404255 L15.375,2.23404255 C15.7905,2.23404255 16.125,2.56617021 16.125,2.9787234 L16.125,16.3829787 C16.125,16.7955319 15.7905,17.1276596 15.375,17.1276596 L2.625,17.1276596 C2.2095,17.1276596 1.875,16.7955319 1.875,16.3829787 L1.875,2.9787234 C1.875,2.56617021 2.2095,2.23404255 2.625,2.23404255 L2.625,2.23404255 Z M2.625,18.6170213 L4.875,18.6170213 C5.2905,18.6170213 5.625,18.9491489 5.625,19.3617021 L5.625,21.5957447 C5.625,22.0082979 5.2905,22.3404255 4.875,22.3404255 L2.625,22.3404255 C2.2095,22.3404255 1.875,22.0082979 1.875,21.5957447 L1.875,19.3617021 C1.875,18.9491489 2.2095,18.6170213 2.625,18.6170213 L2.625,18.6170213 Z M7.875,18.6170213 L10.125,18.6170213 C10.5405,18.6170213 10.875,18.9491489 10.875,19.3617021 L10.875,21.5957447 C10.875,22.0082979 10.5405,22.3404255 10.125,22.3404255 L7.875,22.3404255 C7.4595,22.3404255 7.125,22.0082979 7.125,21.5957447 L7.125,19.3617021 C7.125,18.9491489 7.4595,18.6170213 7.875,18.6170213 L7.875,18.6170213 Z M13.125,18.6170213 L15.375,18.6170213 C15.7905,18.6170213 16.125,18.9491489 16.125,19.3617021 L16.125,21.5957447 C16.125,22.0082979 15.7905,22.3404255 15.375,22.3404255 L13.125,22.3404255 C12.7095,22.3404255 12.375,22.0082979 12.375,21.5957447 L12.375,19.3617021 C12.375,18.9491489 12.7095,18.6170213 13.125,18.6170213 L13.125,18.6170213 Z M2.625,23.8297872 L4.875,23.8297872 C5.2905,23.8297872 5.625,24.1619149 5.625,24.5744681 L5.625,26.8085106 C5.625,27.2210638 5.2905,27.5531915 4.875,27.5531915 L2.625,27.5531915 C2.2095,27.5531915 1.875,27.2210638 1.875,26.8085106 L1.875,24.5744681 C1.875,24.1619149 2.2095,23.8297872 2.625,23.8297872 L2.625,23.8297872 Z M7.875,23.8297872 L10.125,23.8297872 C10.5405,23.8297872 10.875,24.1619149 10.875,24.5744681 L10.875,26.8085106 C10.875,27.2210638 10.5405,27.5531915 10.125,27.5531915 L7.875,27.5531915 C7.4595,27.5531915 7.125,27.2210638 7.125,26.8085106 L7.125,24.5744681 C7.125,24.1619149 7.4595,23.8297872 7.875,23.8297872 L7.875,23.8297872 Z M13.125,23.8297872 L15.375,23.8297872 C15.7905,23.8297872 16.125,24.1619149 16.125,24.5744681 L16.125,26.8085106 C16.125,27.2210638 15.7905,27.5531915 15.375,27.5531915 L13.125,27.5531915 C12.7095,27.5531915 12.375,27.2210638 12.375,26.8085106 L12.375,24.5744681 C12.375,24.1619149 12.7095,23.8297872 13.125,23.8297872 L13.125,23.8297872 Z M2.625,29.0425532 L4.875,29.0425532 C5.2905,29.0425532 5.625,29.3746809 5.625,29.787234 L5.625,32.0212766 C5.625,32.4338298 5.2905,32.7659574 4.875,32.7659574 L2.625,32.7659574 C2.2095,32.7659574 1.875,32.4338298 1.875,32.0212766 L1.875,29.787234 C1.875,29.3746809 2.2095,29.0425532 2.625,29.0425532 L2.625,29.0425532 Z M7.875,29.0425532 L10.125,29.0425532 C10.5405,29.0425532 10.875,29.3746809 10.875,29.787234 L10.875,32.0212766 C10.875,32.4338298 10.5405,32.7659574 10.125,32.7659574 L7.875,32.7659574 C7.4595,32.7659574 7.125,32.4338298 7.125,32.0212766 L7.125,29.787234 C7.125,29.3746809 7.4595,29.0425532 7.875,29.0425532 L7.875,29.0425532 Z M13.125,29.0425532 L15.375,29.0425532 C15.7905,29.0425532 16.125,29.3746809 16.125,29.787234 L16.125,32.0212766 C16.125,32.4338298 15.7905,32.7659574 15.375,32.7659574 L13.125,32.7659574 C12.7095,32.7659574 12.375,32.4338298 12.375,32.0212766 L12.375,29.787234 C12.375,29.3746809 12.7095,29.0425532 13.125,29.0425532 L13.125,29.0425532 Z" id="cell"></path>
                </g>
                <g id="phone2-2" transform="translate(8.000000, 2.000000)" sketch:type="MSShapeGroup">
                    <g id="layer1" transform="translate(0.064622, 0.013264)">
                        <g id="g4217" transform="translate(0.081343, 0.275801)">
                            <rect id="rect3792-48" stroke="#FFFFFF" stroke-width="1.4" x="0" y="4.48157248" width="21.6816699" height="21.4685822"></rect>
                            <rect id="rect3792-48-7" stroke="#FFFFFF" stroke-width="0.530098514" fill="#FFFFFF" x="11.5980149" y="6.72235872" width="7.92059553" height="5.904359"></rect>
                            <rect id="rect3792-48-7-1" stroke="#FFFFFF" stroke-width="0.530098514" fill="#FFFFFF" x="11.5980149" y="14.004914" width="1.69727047" height="1.72260456"></rect>
                            <rect id="rect3792-48-7-1-7" stroke="#FFFFFF" stroke-width="0.530098514" fill="#FFFFFF" x="14.7096774" y="14.004914" width="1.69727047" height="1.72260456"></rect>
                            <rect id="rect3792-48-7-1-7-2" stroke="#FFFFFF" stroke-width="0.530098514" fill="#FFFFFF" x="17.82134" y="14.004914" width="1.69727047" height="1.72260456"></rect>
                            <rect id="rect3792-48-7-1-72" stroke="#FFFFFF" stroke-width="0.530098514" fill="#FFFFFF" x="11.5980149" y="17.0859951" width="1.69727047" height="1.72260456"></rect>
                            <rect id="rect3792-48-7-1-7-26" stroke="#FFFFFF" stroke-width="0.530098514" fill="#FFFFFF" x="14.7096774" y="17.0859951" width="1.69727047" height="1.72260456"></rect>
                            <rect id="rect3792-48-7-1-7-2-1" stroke="#FFFFFF" stroke-width="0.530098514" fill="#FFFFFF" x="17.82134" y="17.0859951" width="1.69727047" height="1.72260456"></rect>
                            <rect id="rect3792-48-7-1-72-0" stroke="#FFFFFF" stroke-width="0.530098514" fill="#FFFFFF" x="11.5980149" y="20.1670762" width="1.69727047" height="1.72260456"></rect>
                            <rect id="rect3792-48-7-1-7-26-6" stroke="#FFFFFF" stroke-width="0.530098514" fill="#FFFFFF" x="14.7096774" y="20.1670762" width="1.69727047" height="1.72260456"></rect>
                            <rect id="rect3792-48-7-1-7-2-1-1" stroke="#FFFFFF" stroke-width="0.530098514" fill="#FFFFFF" x="17.82134" y="20.1670762" width="1.69727047" height="1.72260456"></rect>
                            <rect id="rect4188" fill="#FFFFFF" x="2.68734491" y="1.4004914" width="7.12132895" height="21.5531537" rx="1.19697733"></rect>
                            <path id="path3986-0-5" stroke="#FFFFFF" stroke-width="1.4" d="M8.38344119,3.36702221 L8.38344119,-0.0197301229"></path>
                        </g>
                    </g>
                </g>
            </g>
        </g>
    </g>
</svg>