<?xml version="1.0" encoding="UTF-8" standalone="no"?>
<svg width="64px" height="64px" viewBox="0 0 64 64" version="1.1" xmlns="http://www.w3.org/2000/svg" xmlns:xlink="http://www.w3.org/1999/xlink" xmlns:sketch="http://www.bohemiancoding.com/sketch/ns">
    <!-- Generator: Sketch 3.0.3 (7891) - http://www.bohemiancoding.com/sketch -->
    <title>securefiles</title>
    <desc>Created with Sketch.</desc>
    <defs></defs>
    <g id="Page-1" stroke="none" stroke-width="1" fill="none" fill-rule="evenodd" sketch:type="MSPage">
        <g id="Landscape" sketch:type="MSArtboardGroup" transform="translate(-153.000000, -151.000000)" stroke="#000000" fill="#FFFFFF">
            <g id="securefiles" sketch:type="MSLayerGroup" transform="translate(153.000000, 151.000000)">
                <g id="secure_fs" transform="translate(10.000000, 13.000000)" sketch:type="MSShapeGroup">
                    <g id="folder" stroke-opacity="0.303498641" stroke-width="3.125" fill-opacity="0.520408741">
                        <g id="f">
                            <path d="M0.927407827,-0.271597935 C0.439361313,-0.271597935 0.0289814946,0.0339595387 0.0289814946,0.397345488 L0.0289814946,3.76364108 C0.0279140482,3.78089171 2.48689958e-14,3.78934508 2.48689958e-14,3.80679872 L2.48689958e-14,29.3561217 C2.48689958e-14,29.9664025 0.658418751,30.4566416 1.47805622,30.4566416 L36.0529792,30.4566416 C36.8726157,30.4566409 37.5310354,29.9664012 37.5310354,29.3561217 L37.5310354,3.80679872 C37.5310354,3.19651931 36.8726167,2.7062789 36.0529792,2.7062789 L22.4026952,2.7062789 L22.4026952,0.397345488 C22.4026952,0.0339602292 21.9923154,-0.271597935 21.5042689,-0.271597935 L0.927407827,-0.271597935 L0.927407827,-0.271597935 Z"></path>
                        </g>
                    </g>
                    <path d="M40.2025724,18.1626018 L27.1690654,18.1626018 L27.1690654,16.5609791 C27.1690654,12.9527494 30.0922984,10.0167185 33.687477,10.0167185 C37.2797539,10.0167185 40.2025724,12.9527494 40.2025724,16.5609791 L40.2025724,18.1626018 Z M35.2274388,27.8938752 L36.0448828,34.532202 L31.2927639,34.532202 L32.144199,27.893459 C30.9130586,27.3115805 30.0595509,26.0575032 30.0595509,24.6007258 C30.0595509,22.5891242 31.6824177,20.9587821 33.6862334,20.9587821 C35.6900491,20.9587821 37.313745,22.5891242 37.313745,24.6007258 C37.313745,26.0583357 36.4573356,27.3124129 35.2274388,27.8938752 L35.2274388,27.8938752 Z M45.1719026,18.1626018 L43.9494673,18.1626018 L43.9494673,16.5609791 C43.9494673,10.8778821 39.3465775,6.25531915 33.687477,6.25531915 C28.0263039,6.25531915 23.422585,10.8778821 23.422585,16.5609791 L23.422585,18.1626018 L22.2005642,18.1626018 C21.3507872,18.1626018 20.6610169,18.854363 20.6610169,19.7084508 L20.6610169,35.9856497 C20.6610169,36.8393213 21.3507872,37.5319149 22.2005642,37.5319149 L45.1719026,37.5319149 C46.0212651,37.5319149 46.7118644,36.8393213 46.7118644,35.9856497 L46.7118644,19.7084508 C46.7118644,18.854363 46.0212651,18.1626018 45.1719026,18.1626018 L45.1719026,18.1626018 Z" id="Fill-44" stroke-opacity="0.127377717" transform="translate(33.686441, 21.893617) rotate(28.000000) translate(-33.686441, -21.893617) "></path>
                </g>
            </g>
        </g>
    </g>
</svg>