<?xml version="1.0" encoding="UTF-8" standalone="no"?>
<svg width="64px" height="64px" viewBox="0 0 64 64" version="1.1" xmlns="http://www.w3.org/2000/svg" xmlns:xlink="http://www.w3.org/1999/xlink" xmlns:sketch="http://www.bohemiancoding.com/sketch/ns">
    <!-- Generator: Sketch 3.0.3 (7891) - http://www.bohemiancoding.com/sketch -->
    <title>timeversions</title>
    <desc>Created with Sketch.</desc>
    <defs></defs>
    <g id="Page-1" stroke="none" stroke-width="1" fill="none" fill-rule="evenodd" sketch:type="MSPage">
        <g id="Landscape" sketch:type="MSArtboardGroup" transform="translate(-729.000000, -223.000000)">
            <g id="timeversions" sketch:type="MSLayerGroup" transform="translate(729.000000, 223.000000)" stroke="#000000" stroke-opacity="0.303498641" stroke-width="3.125" fill="#FFFFFF" fill-opacity="0.520408741">
                <g id="folder-2" transform="translate(8.000000, 12.000000)" sketch:type="MSShapeGroup">
                    <g id="folder">
                        <g id="f">
                            <path d="M1.23384079,-0.366505057 C0.58453454,-0.366505057 0.0385575246,0.0458263523 0.0385575246,0.536193807 L0.0385575246,5.07880698 C0.0371373738,5.10208566 3.55271368e-14,5.11349298 3.55271368e-14,5.13704561 L3.55271368e-14,39.6143183 C3.55271368e-14,40.4378555 0.875972669,41.0994036 1.96643375,41.0994036 L47.9655604,41.0994036 C49.0560203,41.0994026 49.9319942,40.4378537 49.9319942,39.6143183 L49.9319942,5.13704561 C49.9319942,4.3135103 49.0560215,3.65196039 47.9655604,3.65196039 L29.8049664,3.65196039 L29.8049664,0.536193807 C29.8049664,0.0458272841 29.2589894,-0.366505057 28.6096831,-0.366505057 L1.23384079,-0.366505057 L1.23384079,-0.366505057 Z"></path>
                        </g>
                    </g>
                </g>
            </g>
            <g id="eye-2" sketch:type="MSLayerGroup" transform="translate(742.000000, 248.000000)" stroke="#FFFFFF" stroke-width="3.2">
                <ellipse id="Oval-17" stroke-opacity="0.791610054" sketch:type="MSShapeGroup" cx="19" cy="9" rx="19" ry="9"></ellipse>
                <ellipse id="Oval-18" stroke-opacity="0.297129755" sketch:type="MSShapeGroup" cx="19" cy="9" rx="6.11864407" ry="5.78571429"></ellipse>
            </g>
        </g>
    </g>
</svg>