<?xml version="1.0" encoding="UTF-8" standalone="no"?>
<svg width="64px" height="64px" viewBox="0 0 64 64" version="1.1" xmlns="http://www.w3.org/2000/svg" xmlns:xlink="http://www.w3.org/1999/xlink" xmlns:sketch="http://www.bohemiancoding.com/sketch/ns">
    <!-- Generator: Sketch 3.0.3 (7891) - http://www.bohemiancoding.com/sketch -->
    <title>vm</title>
    <desc>Created with Sketch.</desc>
    <defs></defs>
    <g id="Page-1" stroke="none" stroke-width="1" fill="none" fill-rule="evenodd" sketch:type="MSPage">
        <g id="Landscape" sketch:type="MSArtboardGroup" transform="translate(-79.000000, -296.000000)">
            <g id="vm" sketch:type="MSLayerGroup" transform="translate(79.000000, 296.000000)">
                <g id="VM" transform="translate(3.000000, 6.000000)" sketch:type="MSShapeGroup">
                    <g id="Computer-2" transform="translate(11.225806, 9.464286)" stroke="#FFFFFF" stroke-width="0.6" fill="#FFFFFF" stroke-opacity="0.6">
                        <rect id="Rectangle-52" fill-opacity="0.6" x="0" y="0" width="35.5483871" height="29.0203871" rx="2.4"></rect>
                        <rect id="Rectangle-53" fill-opacity="0.9" x="3.83760997" y="3.88250812" width="27.8731681" height="21.9668217" rx="2.4"></rect>
                        <path d="M13.3203884,28.6717821 C13.3203884,28.6717821 23.1767499,28.6977844 23.1767499,28.6977844 C23.1767499,28.6977845 21.4686028,31.6822322 27.0052866,34.0998756 C32.5419704,36.517519 2.61113697,36.9115448 9.06343432,34.0998755 C15.5157317,31.2882061 13.3203884,28.6717821 13.3203884,28.6717821 Z" id="Path-146" fill-opacity="0.6"></path>
                    </g>
                    <rect id="Rectangle-49" stroke="#FFFFFF" x="0" y="0" width="58" height="53" rx="4"></rect>
                    <path d="M20.7216797,20.4697266 L22.9912109,27.1894531 L25.2675781,20.421875 C25.3860683,20.0664045 25.4749346,19.8191739 25.5341797,19.6801758 C25.5934248,19.5411777 25.6914056,19.4158534 25.828125,19.3041992 C25.9648444,19.192545 26.1516915,19.1367188 26.3886719,19.1367188 C26.5618498,19.1367188 26.7224927,19.1800126 26.8706055,19.2666016 C27.0187182,19.3531905 27.134928,19.468261 27.2192383,19.6118164 C27.3035486,19.7553718 27.3457031,19.9000644 27.3457031,20.0458984 C27.3457031,20.1461594 27.3320314,20.254394 27.3046875,20.3706055 C27.2773436,20.486817 27.2431643,20.6007481 27.2021484,20.7124023 C27.1611326,20.8240565 27.1201174,20.939127 27.0791016,21.0576172 L24.6523438,27.6064453 C24.5657548,27.8570976 24.4791671,28.0952137 24.3925781,28.3208008 C24.3059892,28.5463878 24.2057297,28.7446281 24.0917969,28.9155273 C23.977864,29.0864266 23.8263356,29.226562 23.637207,29.3359375 C23.4480785,29.445313 23.2167982,29.5 22.9433594,29.5 C22.6699205,29.5 22.4386403,29.4464524 22.2495117,29.3393555 C22.0603832,29.2322586 21.9077154,29.090984 21.7915039,28.9155273 C21.6752924,28.7400707 21.5738937,28.5406912 21.4873047,28.3173828 C21.4007157,28.0940744 21.314128,27.8570976 21.2275391,27.6064453 L18.8417969,21.1123047 C18.800781,20.9938145 18.7586265,20.8776047 18.715332,20.7636719 C18.6720375,20.649739 18.6355796,20.5266934 18.605957,20.3945312 C18.5763345,20.2623691 18.5615234,20.1507166 18.5615234,20.0595703 C18.5615234,19.8271473 18.654947,19.6152353 18.8417969,19.4238281 C19.0286468,19.2324209 19.2633449,19.1367188 19.5458984,19.1367188 C19.8922543,19.1367188 20.1372063,19.2426747 20.2807617,19.4545898 C20.4243171,19.666505 20.5712883,20.0048805 20.7216797,20.4697266 L20.7216797,20.4697266 Z M32.2539062,27.8183594 L30.6474609,21.4335938 L30.6474609,28.3515625 C30.6474609,28.7343769 30.5620126,29.0214834 30.3911133,29.2128906 C30.220214,29.4042978 29.993491,29.5 29.7109375,29.5 C29.4374986,29.5 29.2141936,29.4054371 29.0410156,29.2163086 C28.8678377,29.02718 28.78125,28.7389342 28.78125,28.3515625 L28.78125,20.421875 C28.78125,19.9843728 28.8951812,19.6892911 29.1230469,19.5366211 C29.3509126,19.3839511 29.6585267,19.3076172 30.0458984,19.3076172 L30.6748047,19.3076172 C31.0530618,19.3076172 31.3276359,19.3417965 31.4985352,19.4101562 C31.6694344,19.478516 31.795898,19.6015616 31.8779297,19.7792969 C31.9599613,19.9570321 32.0533849,20.2464173 32.1582031,20.6474609 L33.6142578,26.1367188 L35.0703125,20.6474609 C35.1751307,20.2464173 35.2685543,19.9570321 35.3505859,19.7792969 C35.4326176,19.6015616 35.5590812,19.478516 35.7299805,19.4101562 C35.9008798,19.3417965 36.1754538,19.3076172 36.5537109,19.3076172 L37.1826172,19.3076172 C37.5699889,19.3076172 37.877603,19.3839511 38.1054688,19.5366211 C38.3333345,19.6892911 38.4472656,19.9843728 38.4472656,20.421875 L38.4472656,28.3515625 C38.4472656,28.7343769 38.3618173,29.0214834 38.190918,29.2128906 C38.0200187,29.4042978 37.7910171,29.5 37.5039062,29.5 C37.2350247,29.5 37.0139983,29.4042978 36.8408203,29.2128906 C36.6676424,29.0214834 36.5810547,28.7343769 36.5810547,28.3515625 L36.5810547,21.4335938 L34.9746094,27.8183594 C34.8697911,28.233075 34.7843428,28.5372712 34.7182617,28.730957 C34.6521807,28.9246429 34.5302743,29.1012362 34.3525391,29.2607422 C34.1748038,29.4202482 33.9287125,29.5 33.6142578,29.5 C33.3772775,29.5 33.1767586,29.448731 33.0126953,29.3461914 C32.848632,29.2436518 32.7210291,29.112631 32.6298828,28.953125 C32.5387365,28.793619 32.4669599,28.6170257 32.4145508,28.4233398 C32.3621417,28.229654 32.308594,28.0279958 32.2539062,27.8183594 L32.2539062,27.8183594 Z" fill-opacity="0.329766757" fill="#000000"></path>
                </g>
            </g>
        </g>
    </g>
</svg>