<?xml version="1.0" encoding="UTF-8" standalone="no"?>
<svg width="64px" height="64px" viewBox="0 0 64 64" version="1.1" xmlns="http://www.w3.org/2000/svg" xmlns:xlink="http://www.w3.org/1999/xlink" xmlns:sketch="http://www.bohemiancoding.com/sketch/ns">
    <!-- Generator: Sketch 3.0.3 (7891) - http://www.bohemiancoding.com/sketch -->
    <title>voip</title>
    <desc>Created with Sketch.</desc>
    <defs></defs>
    <g id="Page-1" stroke="none" stroke-width="1" fill="none" fill-rule="evenodd" sketch:type="MSPage">
        <g id="Landscape" sketch:type="MSArtboardGroup" transform="translate(-6.000000, -367.000000)">
            <g id="accesscontrol" sketch:type="MSLayerGroup" transform="translate(3.000000, 429.000000)">
                <g id="ac" transform="translate(38.000000, 36.000000) rotate(20.000000) translate(-38.000000, -36.000000) translate(7.000000, 9.000000)"></g>
            </g>
            <g id="voip" sketch:type="MSLayerGroup" transform="translate(6.000000, 367.000000)" fill="#FFFFFF">
                <g id="phone" transform="translate(7.000000, 7.000000)" sketch:type="MSShapeGroup">
                    <g id="g2823">
                        <g>
                            <path d="M52.3991079,26.0036381 C52.3991079,40.5979209 40.5681042,52.4289258 25.9738215,52.4289258 C11.3795375,52.4289258 -0.45146619,40.5979209 -0.45146619,26.0036381 C-0.45146619,11.4093554 11.3795375,-0.421649149 25.9738215,-0.421649149 C40.5681042,-0.421649149 52.3991079,11.4093554 52.3991079,26.0036381 L52.3991079,26.0036381 Z" id="path2813" fill-opacity="0.401296422"></path>
                            <path d="M34.3060677,43.3897159 C35.9593451,42.8745042 37.7640186,42.1750636 38.3715242,41.8140704 C38.7796992,41.571514 38.8372345,41.4897443 38.6960052,41.3529423 C37.6727287,40.3617538 30.474128,34.0546921 30.4107804,34.0938433 C30.3643449,34.1225413 30.246833,34.5721238 30.1496423,35.0929154 C29.9577985,36.1209007 29.7770512,36.3561347 29.1792508,36.3558438 C28.6870323,36.3555275 28.3624358,36.0798348 27.8906048,35.2610497 C27.6849211,34.9041201 27.3523872,34.4016905 27.1516399,34.1445384 C26.9508942,33.887388 26.5451953,33.2449134 26.250089,32.7168168 C25.9549828,32.1887218 25.4363558,31.3185917 25.0975842,30.7831965 C24.3209734,29.5558348 23.417269,28.0595445 23.0754252,27.4350445 C22.9306937,27.1706397 22.5735996,26.6317232 22.2818818,26.2374513 C21.9901656,25.8431794 21.6182418,25.2591114 21.4553854,24.9395224 C21.2925259,24.6199335 20.8256739,23.8619947 20.4179337,23.2552132 C20.0101951,22.6484317 19.5202535,21.8433933 19.329175,21.4662422 C19.138098,21.0890895 18.7872069,20.475819 18.5494161,20.1034161 C18.0026476,19.2471338 17.3660534,17.9745889 17.2560552,17.5180003 C17.1889997,17.2396591 17.2454614,17.0976218 17.5294078,16.8304152 C17.9122685,16.4701177 17.9374421,16.4702236 19.1555161,16.8372142 C19.5675033,16.9613416 19.9312873,17.0361969 19.963924,17.0035617 C20.0226119,16.9448722 17.2350827,6.14096444 17.1355786,6.04146042 C17.0625227,5.96840447 13.7988,8.70956939 13.7988,8.84398385 C13.7988,8.90492811 13.5147366,9.23744619 13.1675469,9.5829124 C12.8203572,9.9283786 12.3276312,10.5421725 12.0725995,10.946899 C11.6705673,11.5849116 11.5898158,11.8524345 11.4653405,12.9586888 C11.0702591,16.4699121 11.9964366,21.6605969 13.7541575,25.7861739 C14.700411,28.0071401 15.2689141,29.1204479 15.9409817,30.0686526 C16.2448302,30.4973448 16.6537073,31.1693317 16.8495973,31.5619544 C17.9020273,33.6713366 21.2187758,37.5170845 23.5332629,39.3116196 C25.1304439,40.549991 28.5196965,42.7647242 29.3030319,43.081924 C31.5939376,44.0095799 32.1977623,44.0467261 34.3060677,43.3897143 L34.3060677,43.3897159 Z M40.1487646,39.4094587 C40.6453692,38.1889576 40.6592723,38.1176773 40.440914,37.9116695 C40.2563894,37.7375868 34.4407083,32.6736021 33.6381143,31.9881563 C33.4505491,31.8279689 33.2619957,31.8871802 32.0953173,32.4726476 C30.9760264,33.0343344 30.7946119,33.1670001 30.9461725,33.3129966 C31.4998269,33.8463268 39.558345,40.7599454 39.5897437,40.7285483 C39.6104237,40.7078714 39.8619847,40.1142768 40.1487646,39.4094587 L40.1487646,39.4094587 Z M22.2730605,16.0684333 C22.8233993,15.6493135 23.2720647,15.2988729 23.2700914,15.2896737 C23.1208678,14.5939125 20.9459876,6.08787697 20.9074642,6.04935199 C20.8328429,5.97473228 18.0566632,5.58542523 18.0003976,5.64169083 C17.9651915,5.67689696 18.727322,8.62345463 20.8196671,16.5416051 C20.9679025,17.1025772 20.8757446,17.1325813 22.2730605,16.0684333 L22.2730605,16.0684333 Z" id="path2232"></path>
                        </g>
                    </g>
                </g>
            </g>
        </g>
    </g>
</svg>