<?xml version="1.0" encoding="UTF-8" standalone="no"?>
<svg width="64px" height="64px" viewBox="0 0 64 64" version="1.1" xmlns="http://www.w3.org/2000/svg" xmlns:xlink="http://www.w3.org/1999/xlink" xmlns:sketch="http://www.bohemiancoding.com/sketch/ns">
    <!-- Generator: Sketch 3.0.3 (7891) - http://www.bohemiancoding.com/sketch -->
    <title>vpn</title>
    <desc>Created with Sketch.</desc>
    <defs></defs>
    <g id="Page-1" stroke="none" stroke-width="1" fill="none" fill-rule="evenodd" sketch:type="MSPage">
        <g id="Landscape" sketch:type="MSArtboardGroup" transform="translate(-225.000000, -79.000000)">
            <g id="vpn" sketch:type="MSLayerGroup" transform="translate(225.000000, 79.000000)">
                <g id="VPN" transform="translate(3.000000, 14.000000)" sketch:type="MSShapeGroup">
                    <ellipse id="Badge" stroke-opacity="0.8" stroke="#FFFFFE" stroke-width="2.16750073" cx="29" cy="18" rx="29" ry="18"></ellipse>
                    <path d="M40.7720459,11.8340242 L46.8361328,21.1324936 L46.8361328,11.7479273 C46.8361328,11.1380709 46.9653429,10.6806855 47.2237671,10.3757573 C47.4821912,10.0708292 47.8308816,9.91836735 48.2698486,9.91836735 C48.7229759,9.91836735 49.0805163,10.0708292 49.3424805,10.3757573 C49.6044447,10.6806855 49.7354248,11.1380709 49.7354248,11.7479273 L49.7354248,24.1566486 C49.7354248,25.5413813 49.1690242,26.2337372 48.0362061,26.2337372 C47.7530015,26.2337372 47.4981212,26.1924829 47.2715576,26.1099729 C47.044994,26.0274629 46.8325938,25.8965251 46.6343506,25.7171556 C46.4361074,25.5377861 46.2520272,25.3279269 46.0821045,25.0875717 C45.9121818,24.8472166 45.7422616,24.601484 45.5723389,24.3503667 L39.6569336,15.1595185 L39.6569336,24.4041773 C39.6569336,25.0068589 39.5188735,25.4624506 39.242749,25.7709662 C38.9666246,26.0794818 38.6126242,26.2337372 38.1807373,26.2337372 C37.7346902,26.2337372 37.3771498,26.0776881 37.1081055,25.7655851 C36.8390612,25.4534822 36.704541,24.9996841 36.704541,24.4041773 L36.704541,12.2322226 C36.704541,11.7156384 36.7611811,11.3102693 36.8744629,11.0161033 C37.008985,10.6932382 37.2320053,10.4295689 37.5435303,10.2250877 C37.8550553,10.0206064 38.1913556,9.91836735 38.5524414,9.91836735 C38.8356459,9.91836735 39.0781362,9.96500272 39.2799194,10.0582749 C39.4817027,10.151547 39.6587029,10.2771038 39.8109253,10.434949 C39.9631477,10.5927942 40.1189079,10.7972723 40.2782104,11.0483897 C40.437513,11.299507 40.6021232,11.5613826 40.7720459,11.8340242 L40.7720459,11.8340242 Z" fill-opacity="0.4" fill="#FFFFFF"></path>
                    <path d="M29.7515839,19.6206628 L26.9294014,19.6206628 L26.9294014,24.1194925 C26.9294014,24.7627019 26.7841434,25.2505219 26.4936232,25.5829672 C26.203103,25.9154125 25.8364996,26.0816327 25.3938021,26.0816327 C24.9303532,26.0816327 24.5568327,25.9172192 24.2732297,25.5883875 C23.9896266,25.2595557 23.8478271,24.7771559 23.8478271,24.1411736 L23.8478271,11.8913481 C23.8478271,11.1830951 24.0034607,10.6772076 24.3147323,10.3736706 C24.626004,10.0701336 25.1205727,9.91836735 25.7984533,9.91836735 L29.7515839,9.91836735 C30.9205819,9.91836735 31.8197978,10.0123179 32.4492583,10.2002217 C33.0718016,10.3808985 33.6096019,10.6808175 34.0626751,11.0999877 C34.5157483,11.5191578 34.8598713,12.0322722 35.0950543,12.6393463 C35.3302374,13.2464203 35.4478271,13.9293684 35.4478271,14.6882109 C35.4478271,16.307075 34.9705511,17.533852 34.0159846,18.3685788 C33.0614181,19.2033056 31.6399654,19.6206628 29.7515839,19.6206628 Z M28.9785964,12.8571429 L26.7478271,12.8571429 L26.7478271,17.2653061 L28.9785964,17.2653061 C29.7593695,17.2653061 30.411863,17.1931494 30.9360964,17.0488338 C31.4603298,16.9045182 31.8600053,16.668369 32.1351348,16.340379 C32.4102644,16.012389 32.5478271,15.5827286 32.5478271,15.0513848 C32.5478271,14.4150843 32.3359062,13.8968679 31.9120579,13.4967201 C31.4361581,13.0703331 30.4583474,12.8571429 28.9785964,12.8571429 Z" id="Path" fill-opacity="0.6" fill="#FFFFFF"></path>
                    <path d="M11.285298,11.9974153 L14.8442863,22.4779495 L18.4139945,11.9227828 C18.599806,11.3683673 18.7391626,10.9827699 18.8320684,10.7659792 C18.9249742,10.5491885 19.0786237,10.3537244 19.2930217,10.1795811 C19.5074197,10.0054377 19.8004258,9.91836735 20.1720489,9.91836735 C20.4436197,9.91836735 20.6955335,9.98589131 20.927798,10.1209413 C21.1600624,10.2559912 21.342298,10.4354628 21.47451,10.6593614 C21.6067221,10.88326 21.6728271,11.1089321 21.6728271,11.3363847 C21.6728271,11.4927583 21.6513877,11.6615682 21.6085081,11.8428194 C21.5656285,12.0240707 21.5120298,12.2017653 21.4477104,12.3759087 C21.383391,12.550052 21.3190726,12.7295236 21.2547532,12.9143288 L17.4492085,23.1283183 C17.3134231,23.5192524 17.1776398,23.8906342 17.0418544,24.2424748 C16.906069,24.5943155 16.7488462,24.9035041 16.5701812,25.1700501 C16.3915163,25.436596 16.1538954,25.6551604 15.8573116,25.8257498 C15.5607277,25.9963392 15.1980433,26.0816327 14.7692474,26.0816327 C14.3404515,26.0816327 13.977767,25.9981162 13.6811832,25.8310807 C13.3845993,25.6640453 13.1451919,25.4437039 12.9629536,25.1700501 C12.7807153,24.8963962 12.6217059,24.5854306 12.4859205,24.2371439 C12.3501352,23.8888572 12.2143518,23.5192524 12.0785664,23.1283183 L8.33734077,12.9996231 C8.27302138,12.8148179 8.20691633,12.6335694 8.13902365,12.4558721 C8.07113096,12.2781748 8.01395903,12.0862646 7.96750614,11.8801357 C7.92105325,11.6740068 7.89782715,11.4998661 7.89782715,11.3577083 C7.89782715,10.9952058 8.04433022,10.6646938 8.33734077,10.3661623 C8.63035131,10.0676308 8.99839562,9.91836735 9.44148474,9.91836735 C9.98462623,9.91836735 10.3687501,10.0836234 10.593868,10.4141403 C10.8189859,10.7446573 11.0494602,11.2724104 11.285298,11.9974153 L11.285298,11.9974153 Z" id="Path" fill-opacity="0.8" fill="#FFFFFF"></path>
                </g>
            </g>
        </g>
    </g>
</svg>