<?xml version="1.0" encoding="UTF-8" standalone="no"?>
<svg width="64px" height="64px" viewBox="0 0 64 64" version="1.1" xmlns="http://www.w3.org/2000/svg" xmlns:xlink="http://www.w3.org/1999/xlink" xmlns:sketch="http://www.bohemiancoding.com/sketch/ns">
    <!-- Generator: Sketch 3.0.3 (7891) - http://www.bohemiancoding.com/sketch -->
    <title>webdomain</title>
    <desc>Created with Sketch.</desc>
    <defs></defs>
    <g id="Page-1" stroke="none" stroke-width="1" fill="none" fill-rule="evenodd" sketch:type="MSPage">
        <g id="Landscape" sketch:type="MSArtboardGroup" transform="translate(-441.000000, -223.000000)" fill="#FFFFFF">
            <g id="webdomain" sketch:type="MSLayerGroup" transform="translate(441.000000, 223.000000)">
                <path d="M3.16441523,35.4461922 L3.76620709,38.6216217 L4.31390529,35.670034 C4.37250703,35.3611655 4.41589422,35.1503399 4.44406813,35.0375509 C4.47224205,34.9247618 4.52520822,34.8171801 4.60296823,34.7148023 C4.68072824,34.6124246 4.78722405,34.5612365 4.92245885,34.5612365 C5.05994756,34.5612365 5.16757031,34.6124246 5.24533032,34.7148023 C5.32309033,34.8171801 5.37774691,34.9282322 5.40930169,35.0479621 C5.44085648,35.167692 5.48480713,35.3750472 5.54115496,35.670034 L6.08885317,38.6216217 L6.69740672,35.4461922 C6.73797716,35.2171437 6.77065842,35.0514331 6.79545146,34.9490553 C6.82024451,34.8466776 6.86194128,34.7564477 6.92054303,34.678363 C6.97914478,34.6002782 7.06366526,34.5612365 7.17410701,34.5612365 C7.28454877,34.5612365 7.38033865,34.6202329 7.46147953,34.7382276 C7.54262041,34.8562223 7.58319024,34.9950375 7.58319024,35.1546774 C7.58319024,35.3004355 7.5482551,35.5208047 7.47838379,35.8157914 L6.72445355,39.2202682 C6.65909006,39.5083141 6.60837777,39.7165369 6.57231516,39.8449429 C6.53625255,39.9733489 6.47934209,40.0878714 6.40158208,40.1885139 C6.32382207,40.2891565 6.21732626,40.339477 6.08209146,40.339477 C5.94234883,40.339477 5.83247221,40.2856861 5.75245828,40.1781027 C5.67244436,40.0705193 5.61328002,39.9386448 5.57496349,39.7824754 C5.53664697,39.626306 5.4949502,39.4232887 5.44987193,39.1734176 L4.92245885,36.4040267 L4.41195003,39.1734176 C4.34433263,39.5586356 4.27108154,39.8492799 4.19219458,40.0453593 C4.11330761,40.2414387 3.97469402,40.339477 3.77634964,40.339477 C3.67492354,40.339477 3.58871265,40.3091111 3.51771438,40.2483786 C3.44671611,40.187646 3.38755177,40.1008865 3.34021959,39.9880975 C3.29288741,39.8753084 3.25119064,39.7416988 3.21512803,39.5872646 C3.17906542,39.4328304 3.15089192,39.3104995 3.1306067,39.2202682 L2.38343817,35.8157914 C2.30905903,35.4965116 2.27187001,35.2761425 2.27187001,35.1546774 C2.27187001,35.0019784 2.31131291,34.8648984 2.39019987,34.7434332 C2.46908684,34.6219681 2.56600366,34.5612365 2.68095324,34.5612365 C2.83421935,34.5612365 2.9378978,34.6280413 2.99199172,34.7616529 C3.04608564,34.8952646 3.10355957,35.123442 3.16441523,35.4461922 L3.16441523,35.4461922 Z M8.79353565,35.4461922 L9.3953275,38.6216217 L9.9430257,35.670034 C10.0016274,35.3611655 10.0450146,35.1503399 10.0731885,35.0375509 C10.1013625,34.9247618 10.1543286,34.8171801 10.2320886,34.7148023 C10.3098487,34.6124246 10.4163445,34.5612365 10.5515793,34.5612365 C10.689068,34.5612365 10.7966907,34.6124246 10.8744507,34.7148023 C10.9522107,34.8171801 11.0068673,34.9282322 11.0384221,35.0479621 C11.0699769,35.167692 11.1139275,35.3750472 11.1702754,35.670034 L11.7179736,38.6216217 L12.3265271,35.4461922 C12.3670976,35.2171437 12.3997788,35.0514331 12.4245719,34.9490553 C12.4493649,34.8466776 12.4910617,34.7564477 12.5496634,34.678363 C12.6082652,34.6002782 12.6927857,34.5612365 12.8032274,34.5612365 C12.9136692,34.5612365 13.0094591,34.6202329 13.0905999,34.7382276 C13.1717408,34.8562223 13.2123107,34.9950375 13.2123107,35.1546774 C13.2123107,35.3004355 13.1773755,35.5208047 13.1075042,35.8157914 L12.353574,39.2202682 C12.2882105,39.5083141 12.2374982,39.7165369 12.2014356,39.8449429 C12.165373,39.9733489 12.1084625,40.0878714 12.0307025,40.1885139 C11.9529425,40.2891565 11.8464467,40.339477 11.7112119,40.339477 C11.5714692,40.339477 11.4615926,40.2856861 11.3815787,40.1781027 C11.3015648,40.0705193 11.2424004,39.9386448 11.2040839,39.7824754 C11.1657674,39.626306 11.1240706,39.4232887 11.0789923,39.1734176 L10.5515793,36.4040267 L10.0410704,39.1734176 C9.97345304,39.5586356 9.90020196,39.8492799 9.82131499,40.0453593 C9.74242802,40.2414387 9.60381443,40.339477 9.40547006,40.339477 C9.30404396,40.339477 9.21783307,40.3091111 9.1468348,40.2483786 C9.07583653,40.187646 9.01667219,40.1008865 8.96934001,39.9880975 C8.92200783,39.8753084 8.88031106,39.7416988 8.84424844,39.5872646 C8.80818583,39.4328304 8.78001234,39.3104995 8.75972712,39.2202682 L8.01255858,35.8157914 C7.93817944,35.4965116 7.90099043,35.2761425 7.90099043,35.1546774 C7.90099043,35.0019784 7.94043332,34.8648984 8.01932029,34.7434332 C8.09820725,34.6219681 8.19512407,34.5612365 8.31007365,34.5612365 C8.46333976,34.5612365 8.56701822,34.6280413 8.62111214,34.7616529 C8.67520606,34.8952646 8.73267999,35.123442 8.79353565,35.4461922 L8.79353565,35.4461922 Z M14.4226561,35.4461922 L15.0244479,38.6216217 L15.5721461,35.670034 C15.6307479,35.3611655 15.674135,35.1503399 15.702309,35.0375509 C15.7304829,34.9247618 15.783449,34.8171801 15.8612091,34.7148023 C15.9389691,34.6124246 16.0454649,34.5612365 16.1806997,34.5612365 C16.3181884,34.5612365 16.4258111,34.6124246 16.5035711,34.7148023 C16.5813312,34.8171801 16.6359877,34.9282322 16.6675425,35.0479621 C16.6990973,35.167692 16.743048,35.3750472 16.7993958,35.670034 L17.347094,38.6216217 L17.9556476,35.4461922 C17.996218,35.2171437 18.0288992,35.0514331 18.0536923,34.9490553 C18.0784853,34.8466776 18.1201821,34.7564477 18.1787839,34.678363 C18.2373856,34.6002782 18.3219061,34.5612365 18.4323478,34.5612365 C18.5427896,34.5612365 18.6385795,34.6202329 18.7197204,34.7382276 C18.8008612,34.8562223 18.8414311,34.9950375 18.8414311,35.1546774 C18.8414311,35.3004355 18.8064959,35.5208047 18.7366246,35.8157914 L17.9826944,39.2202682 C17.9173309,39.5083141 17.8666186,39.7165369 17.830556,39.8449429 C17.7944934,39.9733489 17.7375829,40.0878714 17.6598229,40.1885139 C17.5820629,40.2891565 17.4755671,40.339477 17.3403323,40.339477 C17.2005897,40.339477 17.090713,40.2856861 17.0106991,40.1781027 C16.9306852,40.0705193 16.8715209,39.9386448 16.8332043,39.7824754 C16.7948878,39.626306 16.753191,39.4232887 16.7081128,39.1734176 L16.1806997,36.4040267 L15.6701909,39.1734176 C15.6025735,39.5586356 15.5293224,39.8492799 15.4504354,40.0453593 C15.3715484,40.2414387 15.2329348,40.339477 15.0345905,40.339477 C14.9331644,40.339477 14.8469535,40.3091111 14.7759552,40.2483786 C14.7049569,40.187646 14.6457926,40.1008865 14.5984604,39.9880975 C14.5511282,39.8753084 14.5094315,39.7416988 14.4733689,39.5872646 C14.4373062,39.4328304 14.4091328,39.3104995 14.3888475,39.2202682 L13.641679,35.8157914 C13.5672999,35.4965116 13.5301108,35.2761425 13.5301108,35.1546774 C13.5301108,35.0019784 13.5695537,34.8648984 13.6484407,34.7434332 C13.7273277,34.6219681 13.8242445,34.5612365 13.9391941,34.5612365 C14.0924602,34.5612365 14.1961386,34.6280413 14.2502326,34.7616529 C14.3043265,34.8952646 14.3618004,35.123442 14.4226561,35.4461922 L14.4226561,35.4461922 Z M20.0889659,40.339477 C19.9492232,40.339477 19.8286407,40.2700694 19.7272146,40.1312521 C19.6257885,39.9924348 19.5750762,39.7980935 19.5750762,39.5482224 C19.5750762,39.3365261 19.6235346,39.1543311 19.7204529,39.0016321 C19.8173711,38.8489331 19.9368268,38.7725847 20.0788233,38.7725847 C20.2208198,38.7725847 20.3419659,38.8480655 20.442265,38.9990293 C20.5425642,39.1499931 20.592713,39.3330556 20.592713,39.5482224 C20.592713,39.7946231 20.5425642,39.9880968 20.442265,40.1286493 C20.3419659,40.2692018 20.2242007,40.339477 20.0889659,40.339477 L20.0889659,40.339477 Z M24.7139729,37.5544692 L24.7139729,39.44411 C24.7139729,39.7425671 24.6700223,39.9664066 24.5821196,40.1156352 C24.494217,40.2648638 24.3781422,40.339477 24.2338918,40.339477 C24.0941491,40.339477 23.9808917,40.2648638 23.894116,40.1156352 C23.8073404,39.9664066 23.7639532,39.7425671 23.7639532,39.44411 L23.7639532,37.1796644 C23.7639532,36.8222099 23.7560646,36.5445795 23.7402872,36.3467648 C23.7245098,36.1489502 23.6816861,35.9867099 23.6118148,35.8600392 C23.5419435,35.7333684 23.4315034,35.670034 23.2804912,35.670034 C22.9784668,35.670034 22.7795619,35.8296714 22.6837706,36.1489512 C22.5879793,36.4682309 22.5400844,36.9263211 22.5400844,37.5232354 L22.5400844,39.44411 C22.5400844,39.7390967 22.4966972,39.9620686 22.4099215,40.1130324 C22.3231459,40.2639962 22.2087615,40.339477 22.0667649,40.339477 C21.9270223,40.339477 21.8126379,40.2639962 21.7236083,40.1130324 C21.6345788,39.9620686 21.5900646,39.7390967 21.5900646,39.44411 L21.5900646,35.3785191 C21.5900646,35.1112959 21.630071,34.9082786 21.7100849,34.7694614 C21.7900988,34.6306441 21.8954677,34.5612365 22.0261947,34.5612365 C22.1524138,34.5612365 22.2577827,34.6263061 22.3423045,34.7564473 C22.4268262,34.8865885 22.4690864,35.0661807 22.4690864,35.2952292 L22.4690864,35.4305754 C22.6291143,35.1355886 22.8004091,34.9186899 22.9829761,34.7798726 C23.1655431,34.6410553 23.3683923,34.5716477 23.5915297,34.5716477 C23.8236827,34.5716477 24.0231511,34.6427905 24.1899407,34.7850782 C24.3567303,34.9273659 24.4942169,35.1425295 24.6024048,35.4305754 C24.7579248,35.1390591 24.9247119,34.9230279 25.102771,34.7824754 C25.2808302,34.6419229 25.4780446,34.5716477 25.6944203,34.5716477 C25.9468586,34.5716477 26.164358,34.6479961 26.346925,34.8006951 C26.5294919,34.9533941 26.6658516,35.172028 26.7560082,35.4566035 C26.8348951,35.7134154 26.874338,36.1177147 26.874338,36.6695134 L26.874338,39.44411 C26.874338,39.7425671 26.8303874,39.9664066 26.7424848,40.1156352 C26.6545821,40.2648638 26.5385074,40.339477 26.3942569,40.339477 C26.2545143,40.339477 26.1401299,40.2639962 26.0511003,40.1130324 C25.9620707,39.9620686 25.9175566,39.7390967 25.9175566,39.44411 L25.9175566,37.0547294 C25.9175566,36.7493314 25.9091046,36.5046696 25.8922002,36.3207367 C25.8752959,36.1368038 25.8296548,35.9823719 25.7552757,35.8574364 C25.6808965,35.7325008 25.5682025,35.670034 25.4171904,35.670034 C25.295479,35.670034 25.1799677,35.72556 25.0706529,35.8366139 C24.9613381,35.9476677 24.8762542,36.096894 24.8153985,36.2842974 C24.7477811,36.5237572 24.7139729,36.9471435 24.7139729,37.5544692 L24.7139729,37.5544692 Z M28.6222391,40.5164681 L28.7067604,40.1989252 L27.5707938,35.7949689 C27.5009225,35.5416274 27.4659873,35.3576972 27.4659873,35.243173 C27.4659873,35.1217078 27.4862722,35.0089205 27.5268427,34.9048075 C27.5674131,34.8006946 27.6231966,34.7174054 27.6941949,34.6549377 C27.7651932,34.5924699 27.8390077,34.5612365 27.9156408,34.5612365 C28.0486217,34.5612365 28.1489193,34.6263061 28.2165367,34.7564473 C28.2841541,34.8865885 28.3438819,35.0731214 28.3957219,35.3160517 L29.176699,38.8142297 L29.9171058,35.5607159 C29.9757076,35.2969631 30.0286737,35.0904755 30.0760059,34.9412469 C30.1233381,34.7920183 30.1734869,34.6913773 30.2264539,34.6393208 C30.2794209,34.5872643 30.3543623,34.5612365 30.4512806,34.5612365 C30.5211519,34.5612365 30.5882048,34.5898671 30.6524414,34.6471292 C30.7166779,34.7043914 30.7662633,34.7816073 30.8011989,34.8787794 C30.8361346,34.9759515 30.8536021,35.0783277 30.8536021,35.1859111 C30.8445865,35.2518493 30.8299363,35.3455496 30.809651,35.4670147 C30.7893658,35.5884798 30.7645732,35.7116783 30.7352723,35.8366139 L29.5316886,40.6882536 C29.4280086,41.1151168 29.326584,41.4500085 29.2274118,41.6929387 C29.1282396,41.935869 28.9969511,42.1224019 28.8335424,42.2525431 C28.6701337,42.3826843 28.449817,42.4477539 28.1725856,42.4477539 C27.902116,42.4477539 27.6992669,42.402639 27.5640321,42.3124077 C27.4287973,42.2221765 27.3611809,42.0573334 27.3611809,41.8178736 C27.3611809,41.6547633 27.3932987,41.5289621 27.4575352,41.440466 C27.5217717,41.35197 27.6169981,41.3077227 27.7432173,41.3077227 C27.7928034,41.3077227 27.8412618,41.3181338 27.888594,41.3389564 C27.9471957,41.359779 27.997908,41.3701901 28.0407324,41.3701901 C28.1466663,41.3701901 28.2300598,41.3458975 28.2909155,41.2973114 C28.3517711,41.2487254 28.4064277,41.1645687 28.4548869,41.0448388 C28.503346,40.9251089 28.5591295,40.7489871 28.6222391,40.5164681 L28.6222391,40.5164681 Z M34.0518892,39.5273999 L34.0518892,39.3868481 C33.9279239,39.6054853 33.805651,39.7833423 33.6850666,39.9204244 C33.5644822,40.0575065 33.4337572,40.1616179 33.2928877,40.2327617 C33.1520181,40.3039056 32.9981908,40.339477 32.8314012,40.339477 C32.6105177,40.339477 32.4059781,40.2674666 32.2177764,40.1234437 C32.0295746,39.9794207 31.8667318,39.7738007 31.7292431,39.5065774 C31.5917544,39.2393542 31.4875124,38.9252848 31.4165142,38.5643598 C31.3455159,38.2034349 31.3100173,37.8130172 31.3100173,37.3930949 C31.3100173,36.5046643 31.4508848,35.8123235 31.7326239,35.3160517 C32.0143631,34.8197799 32.3851263,34.5716477 32.8449246,34.5716477 C33.1108864,34.5716477 33.3351474,34.6419229 33.5177144,34.7824754 C33.7002814,34.9230279 33.8783378,35.1390591 34.0518892,35.4305754 L34.0518892,33.3327097 C34.0518892,33.0411934 34.0896417,32.8208242 34.1651478,32.6715957 C34.2406538,32.5223671 34.3482766,32.4477539 34.4880192,32.4477539 C34.6277618,32.4477539 34.7353846,32.5162939 34.8108907,32.653376 C34.8863968,32.790458 34.9241493,32.9926077 34.9241493,33.2598309 L34.9241493,39.5273999 C34.9241493,39.7980936 34.8835794,40.0011109 34.8024386,40.1364577 C34.7212977,40.2718046 34.6164923,40.339477 34.4880192,40.339477 C34.3618001,40.339477 34.2575581,40.2692018 34.1752903,40.1286493 C34.0930225,39.9880968 34.0518892,39.7876823 34.0518892,39.5273999 L34.0518892,39.5273999 Z M32.2363711,37.4399455 C32.2363711,37.8251634 32.2752505,38.1531143 32.3530105,38.423808 C32.4307705,38.6945017 32.5372663,38.8983866 32.6725011,39.0354686 C32.8077359,39.1725507 32.955365,39.2410907 33.1153929,39.2410907 C33.2776746,39.2410907 33.4258672,39.1760211 33.559975,39.0458799 C33.6940829,38.9157387 33.8011422,38.7161918 33.8811561,38.4472333 C33.96117,38.1782749 34.0011764,37.8425156 34.0011764,37.4399455 C34.0011764,37.0616684 33.96117,36.7363203 33.8811561,36.4638913 C33.8011422,36.1914624 33.6929559,35.9832396 33.5565942,35.8392167 C33.4202324,35.6951938 33.2709129,35.6231834 33.1086312,35.6231834 C32.9395877,35.6231834 32.7885777,35.6969289 32.6555968,35.8444223 C32.522616,35.9919157 32.419501,36.2036089 32.3462488,36.4795082 C32.2729966,36.7554076 32.2363711,37.0755501 32.2363711,37.4399455 L32.2363711,37.4399455 Z M39.3057349,37.4503567 C39.3057349,37.8737494 39.2629112,38.2641672 39.1772625,38.6216217 C39.0916138,38.9790762 38.9676504,39.2862048 38.8053686,39.5430168 C38.6430869,39.7998288 38.4492532,39.9967728 38.2238619,40.1338549 C37.9984706,40.270937 37.7449091,40.339477 37.46317,40.339477 C37.1836847,40.339477 36.9323771,40.2700694 36.7092397,40.1312521 C36.4861023,39.9924348 36.2928321,39.7937555 36.1294234,39.5352084 C35.9660147,39.2766612 35.8420513,38.9712677 35.7575296,38.6190189 C35.6730078,38.26677 35.6307476,37.8772199 35.6307476,37.4503567 C35.6307476,37.0200231 35.6735713,36.626135 35.75922,36.2686805 C35.8448687,35.911226 35.9677051,35.6058326 36.127733,35.352491 C36.2877608,35.0991495 36.4815945,34.9039406 36.7092397,34.7668585 C36.936885,34.6297765 37.1881925,34.5612365 37.46317,34.5612365 C37.7426552,34.5612365 37.9962167,34.6306441 38.2238619,34.7694614 C38.4515071,34.9082786 38.6464677,35.1060903 38.8087495,35.3629023 C38.9710312,35.6197142 39.0944312,35.9251077 39.1789529,36.2790918 C39.2634747,36.6330758 39.3057349,37.0234936 39.3057349,37.4503567 L39.3057349,37.4503567 Z M38.3793811,37.4503567 C38.3793811,36.8707946 38.2965511,36.4196452 38.1308884,36.096895 C37.9652258,35.7741448 37.7426552,35.6127721 37.46317,35.6127721 C37.2828569,35.6127721 37.1239584,35.6847825 36.9864697,35.8288054 C36.848981,35.9728284 36.7430486,36.1853891 36.6686695,36.4664941 C36.5942903,36.7475991 36.5571013,37.0755501 36.5571013,37.4503567 C36.5571013,37.8216929 36.5937269,38.1461735 36.666979,38.423808 C36.7402312,38.7014426 36.8450366,38.9140034 36.9813984,39.0614967 C37.1177601,39.2089901 37.2783491,39.2827357 37.46317,39.2827357 C37.7426552,39.2827357 37.9652258,39.1204954 38.1308884,38.79601 C38.2965511,38.4715246 38.3793811,38.022978 38.3793811,37.4503567 L38.3793811,37.4503567 Z M43.1024329,37.5544692 L43.1024329,39.44411 C43.1024329,39.7425671 43.0584823,39.9664066 42.9705797,40.1156352 C42.882677,40.2648638 42.7666022,40.339477 42.6223518,40.339477 C42.4826092,40.339477 42.3693517,40.2648638 42.282576,40.1156352 C42.1958004,39.9664066 42.1524132,39.7425671 42.1524132,39.44411 L42.1524132,37.1796644 C42.1524132,36.8222099 42.1445246,36.5445795 42.1287472,36.3467648 C42.1129698,36.1489502 42.0701461,35.9867099 42.0002748,35.8600392 C41.9304035,35.7333684 41.8199634,35.670034 41.6689512,35.670034 C41.3669268,35.670034 41.168022,35.8296714 41.0722306,36.1489512 C40.9764393,36.4682309 40.9285444,36.9263211 40.9285444,37.5232354 L40.9285444,39.44411 C40.9285444,39.7390967 40.8851572,39.9620686 40.7983815,40.1130324 C40.7116059,40.2639962 40.5972215,40.339477 40.4552249,40.339477 C40.3154823,40.339477 40.2010979,40.2639962 40.1120684,40.1130324 C40.0230388,39.9620686 39.9785247,39.7390967 39.9785247,39.44411 L39.9785247,35.3785191 C39.9785247,35.1112959 40.018531,34.9082786 40.0985449,34.7694614 C40.1785589,34.6306441 40.2839277,34.5612365 40.4146547,34.5612365 C40.5408739,34.5612365 40.6462427,34.6263061 40.7307645,34.7564473 C40.8152862,34.8865885 40.8575465,35.0661807 40.8575465,35.2952292 L40.8575465,35.4305754 C41.0175743,35.1355886 41.1888692,34.9186899 41.3714361,34.7798726 C41.5540031,34.6410553 41.7568523,34.5716477 41.9799897,34.5716477 C42.2121428,34.5716477 42.4116111,34.6427905 42.5784007,34.7850782 C42.7451903,34.9273659 42.8826769,35.1425295 42.9908648,35.4305754 C43.1463848,35.1390591 43.3131719,34.9230279 43.491231,34.7824754 C43.6692902,34.6419229 43.8665046,34.5716477 44.0828803,34.5716477 C44.3353186,34.5716477 44.552818,34.6479961 44.735385,34.8006951 C44.917952,34.9533941 45.0543117,35.172028 45.1444682,35.4566035 C45.2233552,35.7134154 45.2627981,36.1177147 45.2627981,36.6695134 L45.2627981,39.44411 C45.2627981,39.7425671 45.2188474,39.9664066 45.1309448,40.1156352 C45.0430422,40.2648638 44.9269674,40.339477 44.7827169,40.339477 C44.6429743,40.339477 44.5285899,40.2639962 44.4395603,40.1130324 C44.3505308,39.9620686 44.3060166,39.7390967 44.3060166,39.44411 L44.3060166,37.0547294 C44.3060166,36.7493314 44.2975646,36.5046696 44.2806602,36.3207367 C44.2637559,36.1368038 44.2181148,35.9823719 44.1437357,35.8574364 C44.0693565,35.7325008 43.9566626,35.670034 43.8056504,35.670034 C43.6839391,35.670034 43.5684277,35.72556 43.4591129,35.8366139 C43.3497981,35.9476677 43.2647142,36.096894 43.2038585,36.2842974 C43.1362411,36.5237572 43.1024329,36.9471435 43.1024329,37.5544692 L43.1024329,37.5544692 Z M46.7706585,40.339477 C46.6309159,40.339477 46.5103334,40.2700694 46.4089073,40.1312521 C46.3074812,39.9924348 46.2567689,39.7980935 46.2567689,39.5482224 C46.2567689,39.3365261 46.3052273,39.1543311 46.4021456,39.0016321 C46.4990638,38.8489331 46.6185194,38.7725847 46.760516,38.7725847 C46.9025125,38.7725847 47.0236585,38.8480655 47.1239577,38.9990293 C47.2242568,39.1499931 47.2744057,39.3330556 47.2744057,39.5482224 C47.2744057,39.7946231 47.2242568,39.9880968 47.1239577,40.1286493 C47.0236585,40.2692018 46.9058933,40.339477 46.7706585,40.339477 L46.7706585,40.339477 Z M51.6357062,38.5799767 C51.6357062,38.7569687 51.6013345,38.9461045 51.5325901,39.1473895 C51.4638458,39.3486746 51.3590404,39.5404131 51.2181708,39.7226108 C51.0773012,39.9048084 50.8998082,40.051432 50.6856864,40.1624858 C50.4715647,40.2735396 50.2303996,40.3290657 49.9621839,40.3290657 C49.3919438,40.3290657 48.9468026,40.0731252 48.6267469,39.5612365 C48.3066912,39.0493477 48.1466658,38.3630801 48.1466658,37.5024129 C48.1466658,36.9193804 48.2199168,36.4040289 48.3664212,35.9563432 C48.5129256,35.5086574 48.7247902,35.162487 49.0020216,34.9178216 C49.2792529,34.6731561 49.6105732,34.5508252 49.9959924,34.5508252 C50.2349072,34.5508252 50.454097,34.6046161 50.6535683,34.7121995 C50.8530397,34.8197829 51.0220806,34.9585981 51.1606963,35.1286493 C51.299312,35.2987004 51.4052443,35.4800278 51.4784965,35.6726368 C51.5517487,35.8652458 51.5883742,36.0448379 51.5883742,36.2114187 C51.5883742,36.3814698 51.5472409,36.5254906 51.4649731,36.6434853 C51.3827052,36.76148 51.2829711,36.8204764 51.1657676,36.8204764 C51.0891345,36.8204764 51.0254624,36.7901106 50.9747494,36.7293781 C50.9240363,36.6686455 50.8671259,36.5706073 50.8040163,36.4352604 C50.6913206,36.1715076 50.5735554,35.9736959 50.4507171,35.8418195 C50.3278789,35.7099431 50.1717977,35.6440059 49.982469,35.6440059 C49.7097455,35.6440059 49.4899922,35.8079813 49.3232026,36.1359371 C49.156413,36.463893 49.0730195,36.9124396 49.0730195,37.4815904 C49.0730195,37.7488137 49.0944314,37.9943431 49.1372557,38.218186 C49.1800801,38.4420288 49.2420618,38.6328997 49.3232026,38.7908044 C49.4043435,38.9487091 49.5023873,39.0684372 49.6173369,39.1499923 C49.7322864,39.2315475 49.8585037,39.2723244 49.9959924,39.2723244 C50.1808133,39.2723244 50.3391483,39.2063872 50.4710023,39.0745108 C50.6028562,38.9426344 50.7194945,38.7413523 50.8209206,38.4706586 C50.8772684,38.3110188 50.9381231,38.1860851 51.0034866,38.0958539 C51.0688501,38.0056226 51.1488628,37.9605077 51.2435272,37.9605077 C51.3562229,37.9605077 51.4497589,38.0264449 51.524138,38.1583213 C51.5985171,38.2901977 51.6357062,38.4307481 51.6357062,38.5799767 L51.6357062,38.5799767 Z M55.8955811,37.4503567 C55.8955811,37.8737494 55.8527574,38.2641672 55.7671086,38.6216217 C55.6814599,38.9790762 55.5574966,39.2862048 55.3952148,39.5430168 C55.232933,39.7998288 55.0390994,39.9967728 54.8137081,40.1338549 C54.5883167,40.270937 54.3347553,40.339477 54.0530161,40.339477 C53.7735309,40.339477 53.5222233,40.2700694 53.2990859,40.1312521 C53.0759485,39.9924348 52.8826783,39.7937555 52.7192696,39.5352084 C52.5558609,39.2766612 52.4318975,38.9712677 52.3473757,38.6190189 C52.262854,38.26677 52.2205937,37.8772199 52.2205937,37.4503567 C52.2205937,37.0200231 52.2634175,36.626135 52.3490662,36.2686805 C52.4347149,35.911226 52.5575513,35.6058326 52.7175791,35.352491 C52.877607,35.0991495 53.0714406,34.9039406 53.2990859,34.7668585 C53.5267311,34.6297765 53.7780387,34.5612365 54.0530161,34.5612365 C54.3325014,34.5612365 54.5860628,34.6306441 54.8137081,34.7694614 C55.0413533,34.9082786 55.2363139,35.1060903 55.3985957,35.3629023 C55.5608774,35.6197142 55.6842773,35.9251077 55.7687991,36.2790918 C55.8533208,36.6330758 55.8955811,37.0234936 55.8955811,37.4503567 L55.8955811,37.4503567 Z M54.9692273,37.4503567 C54.9692273,36.8707946 54.8863972,36.4196452 54.7207346,36.096895 C54.555072,35.7741448 54.3325014,35.6127721 54.0530161,35.6127721 C53.8727031,35.6127721 53.7138045,35.6847825 53.5763158,35.8288054 C53.4388271,35.9728284 53.3328948,36.1853891 53.2585156,36.4664941 C53.1841365,36.7475991 53.1469475,37.0755501 53.1469475,37.4503567 C53.1469475,37.8216929 53.183573,38.1461735 53.2568252,38.423808 C53.3300774,38.7014426 53.4348828,38.9140034 53.5712446,39.0614967 C53.7076063,39.2089901 53.8681952,39.2827357 54.0530161,39.2827357 C54.3325014,39.2827357 54.555072,39.1204954 54.7207346,38.79601 C54.8863972,38.4715246 54.9692273,38.022978 54.9692273,37.4503567 L54.9692273,37.4503567 Z M59.6922791,37.5544692 L59.6922791,39.44411 C59.6922791,39.7425671 59.6483284,39.9664066 59.5604258,40.1156352 C59.4725232,40.2648638 59.3564484,40.339477 59.212198,40.339477 C59.0724553,40.339477 58.9591979,40.2648638 58.8724222,40.1156352 C58.7856466,39.9664066 58.7422594,39.7425671 58.7422594,39.44411 L58.7422594,37.1796644 C58.7422594,36.8222099 58.7343708,36.5445795 58.7185934,36.3467648 C58.702816,36.1489502 58.6599923,35.9867099 58.590121,35.8600392 C58.5202497,35.7333684 58.4098096,35.670034 58.2587974,35.670034 C57.956773,35.670034 57.7578681,35.8296714 57.6620768,36.1489512 C57.5662855,36.4682309 57.5183906,36.9263211 57.5183906,37.5232354 L57.5183906,39.44411 C57.5183906,39.7390967 57.4750034,39.9620686 57.3882277,40.1130324 C57.301452,40.2639962 57.1870677,40.339477 57.0450711,40.339477 C56.9053285,40.339477 56.7909441,40.2639962 56.7019145,40.1130324 C56.612885,39.9620686 56.5683708,39.7390967 56.5683708,39.44411 L56.5683708,35.3785191 C56.5683708,35.1112959 56.6083772,34.9082786 56.6883911,34.7694614 C56.768405,34.6306441 56.8737739,34.5612365 57.0045009,34.5612365 C57.13072,34.5612365 57.2360889,34.6263061 57.3206106,34.7564473 C57.4051324,34.8865885 57.4473926,35.0661807 57.4473926,35.2952292 L57.4473926,35.4305754 C57.6074205,35.1355886 57.7787153,34.9186899 57.9612823,34.7798726 C58.1438493,34.6410553 58.3466984,34.5716477 58.5698359,34.5716477 C58.8019889,34.5716477 59.0014573,34.6427905 59.1682469,34.7850782 C59.3350365,34.9273659 59.4725231,35.1425295 59.5807109,35.4305754 C59.736231,35.1390591 59.9030181,34.9230279 60.0810772,34.7824754 C60.2591364,34.6419229 60.4563508,34.5716477 60.6727265,34.5716477 C60.9251648,34.5716477 61.1426642,34.6479961 61.3252311,34.8006951 C61.5077981,34.9533941 61.6441578,35.172028 61.7343144,35.4566035 C61.8132013,35.7134154 61.8526442,36.1177147 61.8526442,36.6695134 L61.8526442,39.44411 C61.8526442,39.7425671 61.8086936,39.9664066 61.720791,40.1156352 C61.6328883,40.2648638 61.5168135,40.339477 61.3725631,40.339477 C61.2328205,40.339477 61.1184361,40.2639962 61.0294065,40.1130324 C60.9403769,39.9620686 60.8958628,39.7390967 60.8958628,39.44411 L60.8958628,37.0547294 C60.8958628,36.7493314 60.8874108,36.5046696 60.8705064,36.3207367 C60.8536021,36.1368038 60.807961,35.9823719 60.7335819,35.8574364 C60.6592027,35.7325008 60.5465087,35.670034 60.3954965,35.670034 C60.2737852,35.670034 60.1582739,35.72556 60.0489591,35.8366139 C59.9396443,35.9476677 59.8545604,36.096894 59.7937047,36.2842974 C59.7260873,36.5237572 59.6922791,36.9471435 59.6922791,37.5544692 L59.6922791,37.5544692 Z" id="www.mydom.com" fill-opacity="0.4" sketch:type="MSShapeGroup" transform="translate(32.271870, 37.447754) rotate(-10.000000) translate(-32.271870, -37.447754) "></path>
                <path d="M3.95309657,53.9984383 L4.55488842,57.1738678 L5.10258662,54.2222801 C5.16118837,53.9134116 5.20457555,53.702586 5.23274946,53.589797 C5.26092338,53.4770079 5.31388955,53.3694262 5.39164956,53.2670484 C5.46940957,53.1646707 5.57590538,53.1134826 5.71114018,53.1134826 C5.84862889,53.1134826 5.95625164,53.1646707 6.03401165,53.2670484 C6.11177166,53.3694262 6.16642824,53.4804783 6.19798303,53.6002082 C6.22953781,53.7199381 6.27348846,53.9272933 6.3298363,54.2222801 L6.8775345,57.1738678 L7.48608806,53.9984383 C7.5266585,53.7693898 7.55933975,53.6036792 7.5841328,53.5013014 C7.60892584,53.3989237 7.65062262,53.3086938 7.70922436,53.2306091 C7.76782611,53.1525243 7.85234659,53.1134826 7.96278834,53.1134826 C8.0732301,53.1134826 8.16901998,53.172479 8.25016086,53.2904737 C8.33130174,53.4084684 8.37187157,53.5472836 8.37187157,53.7069235 C8.37187157,53.8526816 8.33693644,54.0730508 8.26706512,54.3680375 L7.51313488,57.7725143 C7.4477714,58.0605602 7.39705911,58.268783 7.36099649,58.397189 C7.32493388,58.525595 7.26802342,58.6401175 7.19026341,58.74076 C7.1125034,58.8414026 7.00600759,58.8917231 6.87077279,58.8917231 C6.73103017,58.8917231 6.62115354,58.8379322 6.54113962,58.7303488 C6.46112569,58.6227654 6.40196135,58.4908909 6.36364483,58.3347215 C6.3253283,58.1785521 6.28363153,57.9755348 6.23855326,57.7256637 L5.71114018,54.9562728 L5.20063136,57.7256637 C5.13301396,58.1108817 5.05976288,58.401526 4.98087591,58.5976054 C4.90198894,58.7936848 4.76337535,58.8917231 4.56503098,58.8917231 C4.46360488,58.8917231 4.37739398,58.8613572 4.30639571,58.8006247 C4.23539744,58.7398921 4.17623311,58.6531326 4.12890093,58.5403436 C4.08156875,58.4275545 4.03987198,58.2939449 4.00380936,58.1395107 C3.96774675,57.9850764 3.93957325,57.8627455 3.91928803,57.7725143 L3.1721195,54.3680375 C3.09774036,54.0487577 3.06055135,53.8283886 3.06055135,53.7069235 C3.06055135,53.5542245 3.09999424,53.4171445 3.17888121,53.2956793 C3.25776817,53.1742142 3.35468499,53.1134826 3.46963457,53.1134826 C3.62290068,53.1134826 3.72657914,53.1802874 3.78067306,53.313899 C3.83476698,53.4475106 3.89224091,53.6756881 3.95309657,53.9984383 L3.95309657,53.9984383 Z M9.58221698,53.9984383 L10.1840088,57.1738678 L10.731707,54.2222801 C10.7903088,53.9134116 10.833696,53.702586 10.8618699,53.589797 C10.8900438,53.4770079 10.94301,53.3694262 11.02077,53.2670484 C11.09853,53.1646707 11.2050258,53.1134826 11.3402606,53.1134826 C11.4777493,53.1134826 11.5853721,53.1646707 11.6631321,53.2670484 C11.7408921,53.3694262 11.7955487,53.4804783 11.8271034,53.6002082 C11.8586582,53.7199381 11.9026089,53.9272933 11.9589567,54.2222801 L12.5066549,57.1738678 L13.1152085,53.9984383 C13.1557789,53.7693898 13.1884602,53.6036792 13.2132532,53.5013014 C13.2380463,53.3989237 13.279743,53.3086938 13.3383448,53.2306091 C13.3969465,53.1525243 13.481467,53.1134826 13.5919088,53.1134826 C13.7023505,53.1134826 13.7981404,53.172479 13.8792813,53.2904737 C13.9604222,53.4084684 14.000992,53.5472836 14.000992,53.7069235 C14.000992,53.8526816 13.9660569,54.0730508 13.8961855,54.3680375 L13.1422553,57.7725143 C13.0768918,58.0605602 13.0261795,58.268783 12.9901169,58.397189 C12.9540543,58.525595 12.8971438,58.6401175 12.8193838,58.74076 C12.7416238,58.8414026 12.635128,58.8917231 12.4998932,58.8917231 C12.3601506,58.8917231 12.250274,58.8379322 12.17026,58.7303488 C12.0902461,58.6227654 12.0310818,58.4908909 11.9927652,58.3347215 C11.9544487,58.1785521 11.9127519,57.9755348 11.8676737,57.7256637 L11.3402606,54.9562728 L10.8297518,57.7256637 C10.7621344,58.1108817 10.6888833,58.401526 10.6099963,58.5976054 C10.5311094,58.7936848 10.3924958,58.8917231 10.1941514,58.8917231 C10.0927253,58.8917231 10.0065144,58.8613572 9.93551613,58.8006247 C9.86451786,58.7398921 9.80535352,58.6531326 9.75802134,58.5403436 C9.71068916,58.4275545 9.66899239,58.2939449 9.63292978,58.1395107 C9.59686716,57.9850764 9.56869367,57.8627455 9.54840845,57.7725143 L8.80123991,54.3680375 C8.72686077,54.0487577 8.68967176,53.8283886 8.68967176,53.7069235 C8.68967176,53.5542245 8.72911465,53.4171445 8.80800162,53.2956793 C8.88688859,53.1742142 8.98380541,53.1134826 9.09875499,53.1134826 C9.25202109,53.1134826 9.35569955,53.1802874 9.40979347,53.313899 C9.46388739,53.4475106 9.52136132,53.6756881 9.58221698,53.9984383 L9.58221698,53.9984383 Z M15.2113374,53.9984383 L15.8131292,57.1738678 L16.3608274,54.2222801 C16.4194292,53.9134116 16.4628164,53.702586 16.4909903,53.589797 C16.5191642,53.4770079 16.5721304,53.3694262 16.6498904,53.2670484 C16.7276504,53.1646707 16.8341462,53.1134826 16.969381,53.1134826 C17.1068697,53.1134826 17.2144925,53.1646707 17.2922525,53.2670484 C17.3700125,53.3694262 17.4246691,53.4804783 17.4562239,53.6002082 C17.4877786,53.7199381 17.5317293,53.9272933 17.5880771,54.2222801 L18.1357753,57.1738678 L18.7443289,53.9984383 C18.7848993,53.7693898 18.8175806,53.6036792 18.8423736,53.5013014 C18.8671667,53.3989237 18.9088634,53.3086938 18.9674652,53.2306091 C19.0260669,53.1525243 19.1105874,53.1134826 19.2210292,53.1134826 C19.3314709,53.1134826 19.4272608,53.172479 19.5084017,53.2904737 C19.5895426,53.4084684 19.6301124,53.5472836 19.6301124,53.7069235 C19.6301124,53.8526816 19.5951773,54.0730508 19.525306,54.3680375 L18.7713757,57.7725143 C18.7060122,58.0605602 18.6552999,58.268783 18.6192373,58.397189 C18.5831747,58.525595 18.5262643,58.6401175 18.4485042,58.74076 C18.3707442,58.8414026 18.2642484,58.8917231 18.1290136,58.8917231 C17.989271,58.8917231 17.8793944,58.8379322 17.7993804,58.7303488 C17.7193665,58.6227654 17.6602022,58.4908909 17.6218857,58.3347215 C17.5835691,58.1785521 17.5418724,57.9755348 17.4967941,57.7256637 L16.969381,54.9562728 L16.4588722,57.7256637 C16.3912548,58.1108817 16.3180037,58.401526 16.2391167,58.5976054 C16.1602298,58.7936848 16.0216162,58.8917231 15.8232718,58.8917231 C15.7218457,58.8917231 15.6356348,58.8613572 15.5646365,58.8006247 C15.4936383,58.7398921 15.4344739,58.6531326 15.3871418,58.5403436 C15.3398096,58.4275545 15.2981128,58.2939449 15.2620502,58.1395107 C15.2259876,57.9850764 15.1978141,57.8627455 15.1775289,57.7725143 L14.4303603,54.3680375 C14.3559812,54.0487577 14.3187922,53.8283886 14.3187922,53.7069235 C14.3187922,53.5542245 14.3582351,53.4171445 14.437122,53.2956793 C14.516009,53.1742142 14.6129258,53.1134826 14.7278754,53.1134826 C14.8811415,53.1134826 14.98482,53.1802874 15.0389139,53.313899 C15.0930078,53.4475106 15.1504817,53.6756881 15.2113374,53.9984383 L15.2113374,53.9984383 Z M20.8776472,58.8917231 C20.7379046,58.8917231 20.617322,58.8223155 20.5158959,58.6834982 C20.4144698,58.5446809 20.3637575,58.3503396 20.3637575,58.1004685 C20.3637575,57.8887721 20.4122159,57.7065772 20.5091342,57.5538782 C20.6060525,57.4011792 20.7255081,57.3248308 20.8675046,57.3248308 C21.0095012,57.3248308 21.1306472,57.4003116 21.2309463,57.5512754 C21.3312455,57.7022392 21.3813943,57.8853017 21.3813943,58.1004685 C21.3813943,58.3468692 21.3312455,58.5403429 21.2309463,58.6808954 C21.1306472,58.8214479 21.012882,58.8917231 20.8776472,58.8917231 L20.8776472,58.8917231 Z M25.5026542,56.1067153 L25.5026542,57.9963561 C25.5026542,58.2948132 25.4587036,58.5186527 25.370801,58.6678813 C25.2828983,58.8171099 25.1668236,58.8917231 25.0225731,58.8917231 C24.8828305,58.8917231 24.769573,58.8171099 24.6827974,58.6678813 C24.5960217,58.5186527 24.5526345,58.2948132 24.5526345,57.9963561 L24.5526345,55.7319105 C24.5526345,55.374456 24.5447459,55.0968256 24.5289685,54.8990109 C24.5131912,54.7011963 24.4703674,54.538956 24.4004961,54.4122853 C24.3306248,54.2856145 24.2201847,54.2222801 24.0691725,54.2222801 C23.7671481,54.2222801 23.5682433,54.3819175 23.4724519,54.7011973 C23.3766606,55.020477 23.3287657,55.4785672 23.3287657,56.0754815 L23.3287657,57.9963561 C23.3287657,58.2913428 23.2853785,58.5143147 23.1986028,58.6652785 C23.1118272,58.8162423 22.9974428,58.8917231 22.8554463,58.8917231 C22.7157036,58.8917231 22.6013192,58.8162423 22.5122897,58.6652785 C22.4232601,58.5143147 22.378746,58.2913428 22.378746,57.9963561 L22.378746,53.9307652 C22.378746,53.663542 22.4187523,53.4605247 22.4987663,53.3217074 C22.5787802,53.1828902 22.684149,53.1134826 22.814876,53.1134826 C22.9410952,53.1134826 23.046464,53.1785522 23.1309858,53.3086934 C23.2155075,53.4388346 23.2577678,53.6184268 23.2577678,53.8474753 L23.2577678,53.9828214 C23.4177956,53.6878347 23.5890905,53.470936 23.7716574,53.3321187 C23.9542244,53.1933014 24.1570736,53.1238938 24.380211,53.1238938 C24.6123641,53.1238938 24.8118324,53.1950366 24.978622,53.3373243 C25.1454116,53.479612 25.2828982,53.6947756 25.3910861,53.9828214 C25.5466061,53.6913052 25.7133932,53.475274 25.8914523,53.3347215 C26.0695115,53.194169 26.266726,53.1238938 26.4831016,53.1238938 C26.7355399,53.1238938 26.9530393,53.2002422 27.1356063,53.3529412 C27.3181733,53.5056402 27.454533,53.7242741 27.5446895,54.0088496 C27.6235765,54.2656615 27.6630194,54.6699608 27.6630194,55.2217595 L27.6630194,57.9963561 C27.6630194,58.2948132 27.6190687,58.5186527 27.5311661,58.6678813 C27.4432635,58.8171099 27.3271887,58.8917231 27.1829382,58.8917231 C27.0431956,58.8917231 26.9288112,58.8162423 26.8397816,58.6652785 C26.7507521,58.5143147 26.7062379,58.2913428 26.7062379,57.9963561 L26.7062379,55.6069755 C26.7062379,55.3015775 26.6977859,55.0569157 26.6808815,54.8729828 C26.6639772,54.6890499 26.6183361,54.534618 26.543957,54.4096825 C26.4695779,54.2847469 26.3568839,54.2222801 26.2058717,54.2222801 C26.0841604,54.2222801 25.968649,54.2778061 25.8593342,54.38886 C25.7500194,54.4999138 25.6649355,54.6491401 25.6040798,54.8365435 C25.5364624,55.0760033 25.5026542,55.4993896 25.5026542,56.1067153 L25.5026542,56.1067153 Z M29.4109204,59.0687142 L29.4954418,58.7511713 L28.3594751,54.347215 C28.2896038,54.0938735 28.2546687,53.9099433 28.2546687,53.7954191 C28.2546687,53.6739539 28.2749536,53.5611666 28.315524,53.4570536 C28.3560945,53.3529407 28.411878,53.2696515 28.4828762,53.2071838 C28.5538745,53.144716 28.6276891,53.1134826 28.7043221,53.1134826 C28.837303,53.1134826 28.9376007,53.1785522 29.0052181,53.3086934 C29.0728355,53.4388346 29.1325633,53.6253675 29.1844033,53.8682978 L29.9653803,57.3664758 L30.7057872,54.112962 C30.7643889,53.8492092 30.8173551,53.6427216 30.8646873,53.493493 C30.9120194,53.3442644 30.9621683,53.2436234 31.0151352,53.1915669 C31.0681022,53.1395104 31.1430437,53.1134826 31.239962,53.1134826 C31.3098333,53.1134826 31.3768862,53.1421132 31.4411227,53.1993753 C31.5053592,53.2566375 31.5549446,53.3338534 31.5898802,53.4310255 C31.6248159,53.5281976 31.6422835,53.6305738 31.6422835,53.7381572 C31.6332678,53.8040954 31.6186176,53.8977957 31.5983324,54.0192608 C31.5780472,54.1407259 31.5532545,54.2639244 31.5239536,54.38886 L30.3203699,59.2404997 C30.2166899,59.6673629 30.1152653,60.0022546 30.0160931,60.2451848 C29.9169209,60.488115 29.7856325,60.674648 29.6222237,60.8047892 C29.458815,60.9349304 29.2384983,61 28.961267,61 C28.6907974,61 28.4879482,60.9548851 28.3527134,60.8646538 C28.2174786,60.7744226 28.1498622,60.6095795 28.1498622,60.3701197 C28.1498622,60.2070094 28.18198,60.0812081 28.2462165,59.9927121 C28.3104531,59.9042161 28.4056795,59.8599688 28.5318986,59.8599688 C28.5814847,59.8599688 28.6299431,59.8703799 28.6772753,59.8912025 C28.735877,59.9120251 28.7865893,59.9224362 28.8294137,59.9224362 C28.9353476,59.9224362 29.0187412,59.8981436 29.0795968,59.8495575 C29.1404525,59.8009715 29.1951091,59.7168148 29.2435682,59.5970849 C29.2920273,59.4773549 29.3478108,59.3012332 29.4109204,59.0687142 L29.4109204,59.0687142 Z M34.8405705,58.079646 L34.8405705,57.9390942 C34.7166053,58.1577314 34.5943323,58.3355884 34.4737479,58.4726705 C34.3531636,58.6097526 34.2224386,58.713864 34.081569,58.7850078 C33.9406994,58.8561517 33.7868721,58.8917231 33.6200825,58.8917231 C33.399199,58.8917231 33.1946595,58.8197127 33.0064577,58.6756897 C32.8182559,58.5316668 32.6554131,58.3260468 32.5179244,58.0588235 C32.3804357,57.7916003 32.2761938,57.4775309 32.2051955,57.1166059 C32.1341972,56.755681 32.0986986,56.3652632 32.0986986,55.945341 C32.0986986,55.0569104 32.2395661,54.3645695 32.5213053,53.8682978 C32.8030444,53.372026 33.1738076,53.1238938 33.6336059,53.1238938 C33.8995677,53.1238938 34.1238287,53.194169 34.3063957,53.3347215 C34.4889627,53.475274 34.6670192,53.6913052 34.8405705,53.9828214 L34.8405705,51.8849558 C34.8405705,51.5934395 34.878323,51.3730703 34.9538291,51.2238417 C35.0293352,51.0746132 35.1369579,51 35.2767006,51 C35.4164432,51 35.5240659,51.06854 35.599572,51.2056221 C35.6750781,51.3427041 35.7128306,51.5448538 35.7128306,51.812077 L35.7128306,58.079646 C35.7128306,58.3503397 35.6722608,58.5533569 35.5911199,58.6887038 C35.509979,58.8240507 35.4051736,58.8917231 35.2767006,58.8917231 C35.1504814,58.8917231 35.0462395,58.8214479 34.9639716,58.6808954 C34.8817038,58.5403429 34.8405705,58.3399284 34.8405705,58.079646 L34.8405705,58.079646 Z M33.0250524,55.9921916 C33.0250524,56.3774095 33.0639318,56.7053604 33.1416918,56.9760541 C33.2194518,57.2467478 33.3259476,57.4506327 33.4611824,57.5877147 C33.5964172,57.7247968 33.7440463,57.7933368 33.9040742,57.7933368 C34.066356,57.7933368 34.2145485,57.7282672 34.3486564,57.598126 C34.4827642,57.4679848 34.5898235,57.2684379 34.6698374,56.9994794 C34.7498513,56.730521 34.7898577,56.3947617 34.7898577,55.9921916 C34.7898577,55.6139145 34.7498513,55.2885663 34.6698374,55.0161374 C34.5898235,54.7437085 34.4816373,54.5354857 34.3452755,54.3914628 C34.2089138,54.2474398 34.0595942,54.1754295 33.8973125,54.1754295 C33.728269,54.1754295 33.5772591,54.249175 33.4442782,54.3966684 C33.3112973,54.5441618 33.2081823,54.7558549 33.1349301,55.0317543 C33.0616779,55.3076536 33.0250524,55.6277962 33.0250524,55.9921916 L33.0250524,55.9921916 Z M40.0944162,56.0026028 C40.0944162,56.4259955 40.0515925,56.8164133 39.9659438,57.1738678 C39.8802951,57.5313223 39.7563317,57.8384509 39.59405,58.0952629 C39.4317682,58.3520749 39.2379346,58.5490189 39.0125432,58.686101 C38.7871519,58.8231831 38.5335905,58.8917231 38.2518513,58.8917231 C37.972366,58.8917231 37.7210585,58.8223155 37.497921,58.6834982 C37.2747836,58.5446809 37.0815135,58.3460016 36.9181047,58.0874545 C36.754696,57.8289073 36.6307326,57.5235138 36.5462109,57.171265 C36.4616891,56.8190161 36.4194289,56.429466 36.4194289,56.0026028 C36.4194289,55.5722692 36.4622526,55.1783811 36.5479013,54.8209266 C36.63355,54.4634721 36.7563865,54.1580787 36.9164143,53.9047371 C37.0764422,53.6513956 37.2702758,53.4561867 37.497921,53.3191046 C37.7255663,53.1820226 37.9768739,53.1134826 38.2518513,53.1134826 C38.5313365,53.1134826 38.784898,53.1828902 39.0125432,53.3217074 C39.2401885,53.4605247 39.4351491,53.6583364 39.5974308,53.9151484 C39.7597126,54.1719603 39.8831125,54.4773538 39.9676342,54.8313378 C40.052156,55.1853219 40.0944162,55.5757397 40.0944162,56.0026028 L40.0944162,56.0026028 Z M39.1680625,56.0026028 C39.1680625,55.4230407 39.0852324,54.9718913 38.9195698,54.6491411 C38.7539071,54.3263909 38.5313365,54.1650182 38.2518513,54.1650182 C38.0715382,54.1650182 37.9126397,54.2370286 37.775151,54.3810515 C37.6376623,54.5250745 37.5317299,54.7376352 37.4573508,55.0187402 C37.3829717,55.2998452 37.3457827,55.6277961 37.3457827,56.0026028 C37.3457827,56.373939 37.3824082,56.6984196 37.4556604,56.9760541 C37.5289126,57.2536887 37.633718,57.4662495 37.7700797,57.6137428 C37.9064415,57.7612362 38.0670304,57.8349818 38.2518513,57.8349818 C38.5313365,57.8349818 38.7539071,57.6727415 38.9195698,57.3482561 C39.0852324,57.0237707 39.1680625,56.5752241 39.1680625,56.0026028 L39.1680625,56.0026028 Z M43.8911143,56.1067153 L43.8911143,57.9963561 C43.8911143,58.2948132 43.8471636,58.5186527 43.759261,58.6678813 C43.6713584,58.8171099 43.5552836,58.8917231 43.4110331,58.8917231 C43.2712905,58.8917231 43.158033,58.8171099 43.0712574,58.6678813 C42.9844817,58.5186527 42.9410945,58.2948132 42.9410945,57.9963561 L42.9410945,55.7319105 C42.9410945,55.374456 42.933206,55.0968256 42.9174286,54.8990109 C42.9016512,54.7011963 42.8588275,54.538956 42.7889561,54.4122853 C42.7190848,54.2856145 42.6086447,54.2222801 42.4576325,54.2222801 C42.1556082,54.2222801 41.9567033,54.3819175 41.860912,54.7011973 C41.7651207,55.020477 41.7172257,55.4785672 41.7172257,56.0754815 L41.7172257,57.9963561 C41.7172257,58.2913428 41.6738385,58.5143147 41.5870629,58.6652785 C41.5002872,58.8162423 41.3859028,58.8917231 41.2439063,58.8917231 C41.1041637,58.8917231 40.9897793,58.8162423 40.9007497,58.6652785 C40.8117201,58.5143147 40.767206,58.2913428 40.767206,57.9963561 L40.767206,53.9307652 C40.767206,53.663542 40.8072124,53.4605247 40.8872263,53.3217074 C40.9672402,53.1828902 41.0726091,53.1134826 41.203336,53.1134826 C41.3295552,53.1134826 41.4349241,53.1785522 41.5194458,53.3086934 C41.6039676,53.4388346 41.6462278,53.6184268 41.6462278,53.8474753 L41.6462278,53.9828214 C41.8062556,53.6878347 41.9775505,53.470936 42.1601175,53.3321187 C42.3426845,53.1933014 42.5455336,53.1238938 42.768671,53.1238938 C43.0008241,53.1238938 43.2002924,53.1950366 43.367082,53.3373243 C43.5338716,53.479612 43.6713583,53.6947756 43.7795461,53.9828214 C43.9350661,53.6913052 44.1018532,53.475274 44.2799124,53.3347215 C44.4579715,53.194169 44.655186,53.1238938 44.8715617,53.1238938 C45.124,53.1238938 45.3414993,53.2002422 45.5240663,53.3529412 C45.7066333,53.5056402 45.842993,53.7242741 45.9331495,54.0088496 C46.0120365,54.2656615 46.0514794,54.6699608 46.0514794,55.2217595 L46.0514794,57.9963561 C46.0514794,58.2948132 46.0075287,58.5186527 45.9196261,58.6678813 C45.8317235,58.8171099 45.7156487,58.8917231 45.5713983,58.8917231 C45.4316556,58.8917231 45.3172712,58.8162423 45.2282417,58.6652785 C45.1392121,58.5143147 45.094698,58.2913428 45.094698,57.9963561 L45.094698,55.6069755 C45.094698,55.3015775 45.0862459,55.0569157 45.0693416,54.8729828 C45.0524372,54.6890499 45.0067962,54.534618 44.932417,54.4096825 C44.8580379,54.2847469 44.7453439,54.2222801 44.5943317,54.2222801 C44.4726204,54.2222801 44.3571091,54.2778061 44.2477943,54.38886 C44.1384795,54.4999138 44.0533955,54.6491401 43.9925399,54.8365435 C43.9249225,55.0760033 43.8911143,55.4993896 43.8911143,56.1067153 L43.8911143,56.1067153 Z M47.5593399,58.8917231 C47.4195972,58.8917231 47.2990147,58.8223155 47.1975886,58.6834982 C47.0961625,58.5446809 47.0454502,58.3503396 47.0454502,58.1004685 C47.0454502,57.8887721 47.0939086,57.7065772 47.1908269,57.5538782 C47.2877452,57.4011792 47.4072008,57.3248308 47.5491973,57.3248308 C47.6911939,57.3248308 47.8123399,57.4003116 47.912639,57.5512754 C48.0129382,57.7022392 48.063087,57.8853017 48.063087,58.1004685 C48.063087,58.3468692 48.0129382,58.5403429 47.912639,58.6808954 C47.8123399,58.8214479 47.6945747,58.8917231 47.5593399,58.8917231 L47.5593399,58.8917231 Z M52.4243875,57.1322228 C52.4243875,57.3092148 52.3900158,57.4983505 52.3212715,57.6996356 C52.2525271,57.9009207 52.1477217,58.0926592 52.0068521,58.2748568 C51.8659825,58.4570545 51.6884895,58.6036781 51.4743678,58.7147319 C51.260246,58.8257857 51.0190809,58.8813118 50.7508652,58.8813118 C50.1806251,58.8813118 49.7354839,58.6253713 49.4154282,58.1134826 C49.0953725,57.6015938 48.9353471,56.9153262 48.9353471,56.054659 C48.9353471,55.4716264 49.0085982,54.956275 49.1551025,54.5085893 C49.3016069,54.0609035 49.5134716,53.7147331 49.7907029,53.4700677 C50.0679343,53.2254022 50.3992546,53.1030713 50.7846737,53.1030713 C51.0235885,53.1030713 51.2427783,53.1568622 51.4422497,53.2644456 C51.641721,53.372029 51.810762,53.5108442 51.9493776,53.6808954 C52.0879933,53.8509465 52.1939256,54.0322739 52.2671778,54.2248829 C52.34043,54.4174919 52.3770555,54.597084 52.3770555,54.7636648 C52.3770555,54.9337159 52.3359222,55.0777367 52.2536544,55.1957314 C52.1713866,55.3137261 52.0716524,55.3727225 51.9544489,55.3727225 C51.8778159,55.3727225 51.8141438,55.3423567 51.7634307,55.2816242 C51.7127177,55.2208916 51.6558072,55.1228534 51.5926976,54.9875065 C51.480002,54.7237537 51.3622368,54.525942 51.2393985,54.3940656 C51.1165602,54.2621892 50.960479,54.196252 50.7711503,54.196252 C50.4984268,54.196252 50.2786736,54.3602274 50.111884,54.6881832 C49.9450944,55.0161391 49.8617008,55.4646857 49.8617008,56.0338365 C49.8617008,56.3010598 49.8831127,56.5465892 49.925937,56.7704321 C49.9687614,56.9942749 50.0307431,57.1851458 50.111884,57.3430505 C50.1930248,57.5009552 50.2910686,57.6206833 50.4060182,57.7022384 C50.5209678,57.7837936 50.647185,57.8245705 50.7846737,57.8245705 C50.9694946,57.8245705 51.1278297,57.7586333 51.2596836,57.6267569 C51.3915375,57.4948805 51.5081758,57.2935984 51.6096019,57.0229047 C51.6659497,56.8632649 51.7268045,56.7383312 51.792168,56.6480999 C51.8575314,56.5578687 51.9375442,56.5127538 52.0322085,56.5127538 C52.1449042,56.5127538 52.2384402,56.578691 52.3128193,56.7105674 C52.3871985,56.8424438 52.4243875,56.9829942 52.4243875,57.1322228 L52.4243875,57.1322228 Z M56.6842624,56.0026028 C56.6842624,56.4259955 56.6414387,56.8164133 56.55579,57.1738678 C56.4701413,57.5313223 56.3461779,57.8384509 56.1838961,58.0952629 C56.0216144,58.3520749 55.8277807,58.5490189 55.6023894,58.686101 C55.3769981,58.8231831 55.1234366,58.8917231 54.8416975,58.8917231 C54.5622122,58.8917231 54.3109046,58.8223155 54.0877672,58.6834982 C53.8646298,58.5446809 53.6713596,58.3460016 53.5079509,58.0874545 C53.3445422,57.8289073 53.2205788,57.5235138 53.1360571,57.171265 C53.0515353,56.8190161 53.0092751,56.429466 53.0092751,56.0026028 C53.0092751,55.5722692 53.0520988,55.1783811 53.1377475,54.8209266 C53.2233962,54.4634721 53.3462326,54.1580787 53.5062605,53.9047371 C53.6662883,53.6513956 53.860122,53.4561867 54.0877672,53.3191046 C54.3154125,53.1820226 54.56672,53.1134826 54.8416975,53.1134826 C55.1211827,53.1134826 55.3747442,53.1828902 55.6023894,53.3217074 C55.8300347,53.4605247 56.0249952,53.6583364 56.187277,53.9151484 C56.3495588,54.1719603 56.4729587,54.4773538 56.5574804,54.8313378 C56.6420022,55.1853219 56.6842624,55.5757397 56.6842624,56.0026028 L56.6842624,56.0026028 Z M55.7579086,56.0026028 C55.7579086,55.4230407 55.6750786,54.9718913 55.5094159,54.6491411 C55.3437533,54.3263909 55.1211827,54.1650182 54.8416975,54.1650182 C54.6613844,54.1650182 54.5024859,54.2370286 54.3649972,54.3810515 C54.2275085,54.5250745 54.1215761,54.7376352 54.047197,55.0187402 C53.9728178,55.2998452 53.9356288,55.6277961 53.9356288,56.0026028 C53.9356288,56.373939 53.9722544,56.6984196 54.0455066,56.9760541 C54.1187587,57.2536887 54.2235641,57.4662495 54.3599259,57.6137428 C54.4962876,57.7612362 54.6568766,57.8349818 54.8416975,57.8349818 C55.1211827,57.8349818 55.3437533,57.6727415 55.5094159,57.3482561 C55.6750786,57.0237707 55.7579086,56.5752241 55.7579086,56.0026028 L55.7579086,56.0026028 Z M60.4809604,56.1067153 L60.4809604,57.9963561 C60.4809604,58.2948132 60.4370098,58.5186527 60.3491072,58.6678813 C60.2612045,58.8171099 60.1451297,58.8917231 60.0008793,58.8917231 C59.8611367,58.8917231 59.7478792,58.8171099 59.6611036,58.6678813 C59.5743279,58.5186527 59.5309407,58.2948132 59.5309407,57.9963561 L59.5309407,55.7319105 C59.5309407,55.374456 59.5230521,55.0968256 59.5072747,54.8990109 C59.4914973,54.7011963 59.4486736,54.538956 59.3788023,54.4122853 C59.308931,54.2856145 59.1984909,54.2222801 59.0474787,54.2222801 C58.7454543,54.2222801 58.5465495,54.3819175 58.4507581,54.7011973 C58.3549668,55.020477 58.3070719,55.4785672 58.3070719,56.0754815 L58.3070719,57.9963561 C58.3070719,58.2913428 58.2636847,58.5143147 58.176909,58.6652785 C58.0901334,58.8162423 57.975749,58.8917231 57.8337525,58.8917231 C57.6940098,58.8917231 57.5796254,58.8162423 57.4905959,58.6652785 C57.4015663,58.5143147 57.3570522,58.2913428 57.3570522,57.9963561 L57.3570522,53.9307652 C57.3570522,53.663542 57.3970585,53.4605247 57.4770724,53.3217074 C57.5570864,53.1828902 57.6624552,53.1134826 57.7931822,53.1134826 C57.9194014,53.1134826 58.0247702,53.1785522 58.109292,53.3086934 C58.1938137,53.4388346 58.236074,53.6184268 58.236074,53.8474753 L58.236074,53.9828214 C58.3961018,53.6878347 58.5673967,53.470936 58.7499636,53.3321187 C58.9325306,53.1933014 59.1353798,53.1238938 59.3585172,53.1238938 C59.5906703,53.1238938 59.7901386,53.1950366 59.9569282,53.3373243 C60.1237178,53.479612 60.2612044,53.6947756 60.3693923,53.9828214 C60.5249123,53.6913052 60.6916994,53.475274 60.8697585,53.3347215 C61.0478177,53.194169 61.2450321,53.1238938 61.4614078,53.1238938 C61.7138461,53.1238938 61.9313455,53.2002422 62.1139125,53.3529412 C62.2964795,53.5056402 62.4328392,53.7242741 62.5229957,54.0088496 C62.6018827,54.2656615 62.6413256,54.6699608 62.6413256,55.2217595 L62.6413256,57.9963561 C62.6413256,58.2948132 62.5973749,58.5186527 62.5094723,58.6678813 C62.4215697,58.8171099 62.3054949,58.8917231 62.1612444,58.8917231 C62.0215018,58.8917231 61.9071174,58.8162423 61.8180878,58.6652785 C61.7290583,58.5143147 61.6845441,58.2913428 61.6845441,57.9963561 L61.6845441,55.6069755 C61.6845441,55.3015775 61.6760921,55.0569157 61.6591877,54.8729828 C61.6422834,54.6890499 61.5966423,54.534618 61.5222632,54.4096825 C61.447884,54.2847469 61.3351901,54.2222801 61.1841779,54.2222801 C61.0624666,54.2222801 60.9469552,54.2778061 60.8376404,54.38886 C60.7283256,54.4999138 60.6432417,54.6491401 60.582386,54.8365435 C60.5147686,55.0760033 60.4809604,55.4993896 60.4809604,56.1067153 L60.4809604,56.1067153 Z" id="www.mydom.com-2" fill-opacity="0.8" sketch:type="MSShapeGroup"></path>
                <path d="M3.83616662,46.6749105 L4.43795847,49.85034 L4.98565668,46.8987523 C5.04425842,46.5898838 5.0876456,46.3790582 5.11581952,46.2662692 C5.14399344,46.1534801 5.19695961,46.0458984 5.27471962,45.9435206 C5.35247963,45.8411429 5.45897543,45.7899548 5.59421023,45.7899548 C5.73169895,45.7899548 5.8393217,45.8411429 5.91708171,45.9435206 C5.99484172,46.0458984 6.04949829,46.1569505 6.08105308,46.2766804 C6.11260787,46.3964103 6.15655852,46.6037655 6.21290635,46.8987523 L6.76060455,49.85034 L7.36915811,46.6749105 C7.40972855,46.445862 7.44240981,46.2801513 7.46720285,46.1777736 C7.4919959,46.0753959 7.53369267,45.985166 7.59229442,45.9070813 C7.65089616,45.8289965 7.73541665,45.7899548 7.8458584,45.7899548 C7.95630015,45.7899548 8.05209003,45.8489512 8.13323091,45.9669459 C8.21437179,46.0849406 8.25494163,46.2237558 8.25494163,46.3833957 C8.25494163,46.5291538 8.22000649,46.749523 8.15013518,47.0445097 L7.39620494,50.4489865 C7.33084145,50.7370324 7.28012916,50.9452552 7.24406655,51.0736612 C7.20800393,51.2020671 7.15109348,51.3165897 7.07333347,51.4172322 C6.99557346,51.5178747 6.88907765,51.5681953 6.75384285,51.5681953 C6.61410022,51.5681953 6.50422359,51.5144044 6.42420967,51.406821 C6.34419575,51.2992376 6.28503141,51.1673631 6.24671488,51.0111937 C6.20839836,50.8550243 6.16670159,50.652007 6.12162332,50.4021359 L5.59421023,47.632745 L5.08370142,50.4021359 C5.01608402,50.7873539 4.94283293,51.0779982 4.86394596,51.2740776 C4.785059,51.470157 4.64644541,51.5681953 4.44810103,51.5681953 C4.34667493,51.5681953 4.26046404,51.5378294 4.18946577,51.4770969 C4.1184675,51.4163643 4.05930316,51.3296048 4.01197098,51.2168158 C3.9646388,51.1040267 3.92294203,50.9704171 3.88687942,50.8159829 C3.8508168,50.6615486 3.82264331,50.5392177 3.80235809,50.4489865 L3.05518956,47.0445097 C2.98081041,46.7252299 2.9436214,46.5048608 2.9436214,46.3833957 C2.9436214,46.2306967 2.98306429,46.0936167 3.06195126,45.9721515 C3.14083823,45.8506864 3.23775505,45.7899548 3.35270463,45.7899548 C3.50597073,45.7899548 3.60964919,45.8567596 3.66374311,45.9903712 C3.71783703,46.1239828 3.77531096,46.3521603 3.83616662,46.6749105 L3.83616662,46.6749105 Z M9.46528704,46.6749105 L10.0670789,49.85034 L10.6147771,46.8987523 C10.6733788,46.5898838 10.716766,46.3790582 10.7449399,46.2662692 C10.7731139,46.1534801 10.82608,46.0458984 10.90384,45.9435206 C10.9816,45.8411429 11.0880958,45.7899548 11.2233306,45.7899548 C11.3608194,45.7899548 11.4684421,45.8411429 11.5462021,45.9435206 C11.6239621,46.0458984 11.6786187,46.1569505 11.7101735,46.2766804 C11.7417283,46.3964103 11.7856789,46.6037655 11.8420268,46.8987523 L12.389725,49.85034 L12.9982785,46.6749105 C13.038849,46.445862 13.0715302,46.2801513 13.0963233,46.1777736 C13.1211163,46.0753959 13.1628131,45.985166 13.2214148,45.9070813 C13.2800166,45.8289965 13.3645371,45.7899548 13.4749788,45.7899548 C13.5854206,45.7899548 13.6812104,45.8489512 13.7623513,45.9669459 C13.8434922,46.0849406 13.884062,46.2237558 13.884062,46.3833957 C13.884062,46.5291538 13.8491269,46.749523 13.7792556,47.0445097 L13.0253254,50.4489865 C12.9599619,50.7370324 12.9092496,50.9452552 12.873187,51.0736612 C12.8371243,51.2020671 12.7802139,51.3165897 12.7024539,51.4172322 C12.6246939,51.5178747 12.5181981,51.5681953 12.3829633,51.5681953 C12.2432206,51.5681953 12.133344,51.5144044 12.0533301,51.406821 C11.9733162,51.2992376 11.9141518,51.1673631 11.8758353,51.0111937 C11.8375188,50.8550243 11.795822,50.652007 11.7507437,50.4021359 L11.2233306,47.632745 L10.7128218,50.4021359 C10.6452044,50.7873539 10.5719533,51.0779982 10.4930664,51.2740776 C10.4141794,51.470157 10.2755658,51.5681953 10.0772214,51.5681953 C9.97579535,51.5681953 9.88958446,51.5378294 9.81858619,51.4770969 C9.74758792,51.4163643 9.68842358,51.3296048 9.6410914,51.2168158 C9.59375922,51.1040267 9.55206245,50.9704171 9.51599983,50.8159829 C9.47993722,50.6615486 9.45176373,50.5392177 9.43147851,50.4489865 L8.68430997,47.0445097 C8.60993083,46.7252299 8.57274182,46.5048608 8.57274182,46.3833957 C8.57274182,46.2306967 8.61218471,46.0936167 8.69107168,45.9721515 C8.76995864,45.8506864 8.86687546,45.7899548 8.98182504,45.7899548 C9.13509115,45.7899548 9.23876961,45.8567596 9.29286353,45.9903712 C9.34695745,46.1239828 9.40443138,46.3521603 9.46528704,46.6749105 L9.46528704,46.6749105 Z M15.0944075,46.6749105 L15.6961993,49.85034 L16.2438975,46.8987523 C16.3024993,46.5898838 16.3458864,46.3790582 16.3740604,46.2662692 C16.4022343,46.1534801 16.4552004,46.0458984 16.5329604,45.9435206 C16.6107205,45.8411429 16.7172163,45.7899548 16.8524511,45.7899548 C16.9899398,45.7899548 17.0975625,45.8411429 17.1753225,45.9435206 C17.2530825,46.0458984 17.3077391,46.1569505 17.3392939,46.2766804 C17.3708487,46.3964103 17.4147993,46.6037655 17.4711472,46.8987523 L18.0188454,49.85034 L18.6273989,46.6749105 C18.6679694,46.445862 18.7006506,46.2801513 18.7254437,46.1777736 C18.7502367,46.0753959 18.7919335,45.985166 18.8505352,45.9070813 C18.909137,45.8289965 18.9936575,45.7899548 19.1040992,45.7899548 C19.214541,45.7899548 19.3103309,45.8489512 19.3914717,45.9669459 C19.4726126,46.0849406 19.5131825,46.2237558 19.5131825,46.3833957 C19.5131825,46.5291538 19.4782473,46.749523 19.408376,47.0445097 L18.6544458,50.4489865 C18.5890823,50.7370324 18.53837,50.9452552 18.5023074,51.0736612 C18.4662448,51.2020671 18.4093343,51.3165897 18.3315743,51.4172322 C18.2538143,51.5178747 18.1473185,51.5681953 18.0120837,51.5681953 C17.8723411,51.5681953 17.7624644,51.5144044 17.6824505,51.406821 C17.6024366,51.2992376 17.5432722,51.1673631 17.5049557,51.0111937 C17.4666392,50.8550243 17.4249424,50.652007 17.3798641,50.4021359 L16.8524511,47.632745 L16.3419422,50.4021359 C16.2743248,50.7873539 16.2010738,51.0779982 16.1221868,51.2740776 C16.0432998,51.470157 15.9046862,51.5681953 15.7063419,51.5681953 C15.6049158,51.5681953 15.5187049,51.5378294 15.4477066,51.4770969 C15.3767083,51.4163643 15.317544,51.3296048 15.2702118,51.2168158 C15.2228796,51.1040267 15.1811829,50.9704171 15.1451202,50.8159829 C15.1090576,50.6615486 15.0808841,50.5392177 15.0605989,50.4489865 L14.3134304,47.0445097 C14.2390512,46.7252299 14.2018622,46.5048608 14.2018622,46.3833957 C14.2018622,46.2306967 14.2413051,46.0936167 14.3201921,45.9721515 C14.3990791,45.8506864 14.4959959,45.7899548 14.6109455,45.7899548 C14.7642116,45.7899548 14.86789,45.8567596 14.9219839,45.9903712 C14.9760779,46.1239828 15.0335518,46.3521603 15.0944075,46.6749105 L15.0944075,46.6749105 Z M20.7607172,51.5681953 C20.6209746,51.5681953 20.5003921,51.4987877 20.398966,51.3599704 C20.2975399,51.2211531 20.2468276,51.0268118 20.2468276,50.7769407 C20.2468276,50.5652443 20.295286,50.3830494 20.3922043,50.2303504 C20.4891225,50.0776514 20.6085782,50.001303 20.7505747,50.001303 C20.8925712,50.001303 21.0137173,50.0767838 21.1140164,50.2277476 C21.2143155,50.3787114 21.2644644,50.5617739 21.2644644,50.7769407 C21.2644644,51.0233414 21.2143155,51.2168151 21.1140164,51.3573676 C21.0137173,51.4979201 20.8959521,51.5681953 20.7607172,51.5681953 L20.7607172,51.5681953 Z M25.3857243,48.7831874 L25.3857243,50.6728283 C25.3857243,50.9712854 25.3417736,51.1951249 25.253871,51.3443535 C25.1659684,51.4935821 25.0498936,51.5681953 24.9056432,51.5681953 C24.7659005,51.5681953 24.6526431,51.4935821 24.5658674,51.3443535 C24.4790918,51.1951249 24.4357046,50.9712854 24.4357046,50.6728283 L24.4357046,48.4083827 C24.4357046,48.0509282 24.427816,47.7732978 24.4120386,47.5754831 C24.3962612,47.3776685 24.3534375,47.2154282 24.2835662,47.0887575 C24.2136949,46.9620867 24.1032548,46.8987523 23.9522426,46.8987523 C23.6502182,46.8987523 23.4513133,47.0583897 23.355522,47.3776695 C23.2597307,47.6969492 23.2118357,48.1550394 23.2118357,48.7519537 L23.2118357,50.6728283 C23.2118357,50.967815 23.1684486,51.1907869 23.0816729,51.3417507 C22.9948972,51.4927145 22.8805129,51.5681953 22.7385163,51.5681953 C22.5987737,51.5681953 22.4843893,51.4927145 22.3953597,51.3417507 C22.3063301,51.1907869 22.261816,50.967815 22.261816,50.6728283 L22.261816,46.6072374 C22.261816,46.3400142 22.3018224,46.1369969 22.3818363,45.9981796 C22.4618502,45.8593624 22.5672191,45.7899548 22.6979461,45.7899548 C22.8241652,45.7899548 22.9295341,45.8550244 23.0140558,45.9851656 C23.0985776,46.1153068 23.1408378,46.294899 23.1408378,46.5239475 L23.1408378,46.6592936 C23.3008657,46.3643069 23.4721605,46.1474082 23.6547275,46.0085909 C23.8372945,45.8697736 24.0401436,45.800366 24.2632811,45.800366 C24.4954341,45.800366 24.6949025,45.8715088 24.8616921,46.0137965 C25.0284816,46.1560842 25.1659683,46.3712478 25.2741561,46.6592936 C25.4296762,46.3677774 25.5964632,46.1517462 25.7745224,46.0111937 C25.9525816,45.8706412 26.149796,45.800366 26.3661717,45.800366 C26.61861,45.800366 26.8361094,45.8767144 27.0186763,46.0294134 C27.2012433,46.1821124 27.337603,46.4007463 27.4277596,46.6853218 C27.5066465,46.9421337 27.5460894,47.346433 27.5460894,47.8982317 L27.5460894,50.6728283 C27.5460894,50.9712854 27.5021388,51.1951249 27.4142362,51.3443535 C27.3263335,51.4935821 27.2102587,51.5681953 27.0660083,51.5681953 C26.9262657,51.5681953 26.8118813,51.4927145 26.7228517,51.3417507 C26.6338221,51.1907869 26.589308,50.967815 26.589308,50.6728283 L26.589308,48.2834477 C26.589308,47.9780497 26.5808559,47.7333879 26.5639516,47.549455 C26.5470472,47.3655221 26.5014062,47.2110902 26.427027,47.0861547 C26.3526479,46.9612191 26.2399539,46.8987523 26.0889417,46.8987523 C25.9672304,46.8987523 25.8517191,46.9542783 25.7424043,47.0653322 C25.6330895,47.176386 25.5480055,47.3256123 25.4871499,47.5130157 C25.4195325,47.7524755 25.3857243,48.1758618 25.3857243,48.7831874 L25.3857243,48.7831874 Z M29.2939905,51.7451864 L29.3785118,51.4276435 L28.2425452,47.0236872 C28.1726739,46.7703456 28.1377387,46.5864155 28.1377387,46.4718912 C28.1377387,46.3504261 28.1580236,46.2376388 28.1985941,46.1335258 C28.2391645,46.0294129 28.294948,45.9461237 28.3659463,45.883656 C28.4369446,45.8211882 28.5107591,45.7899548 28.5873922,45.7899548 C28.7203731,45.7899548 28.8206707,45.8550244 28.8882881,45.9851656 C28.9559055,46.1153068 29.0156333,46.3018397 29.0674733,46.54477 L29.8484504,50.042948 L30.5888572,46.7894342 C30.647459,46.5256814 30.7004251,46.3191937 30.7477573,46.1699652 C30.7950895,46.0207366 30.8452383,45.9200956 30.8982053,45.8680391 C30.9511722,45.8159826 31.0261137,45.7899548 31.123032,45.7899548 C31.1929033,45.7899548 31.2599562,45.8185854 31.3241928,45.8758475 C31.3884293,45.9331097 31.4380146,46.0103256 31.4729503,46.1074977 C31.507886,46.2046698 31.5253535,46.307046 31.5253535,46.4146294 C31.5163379,46.4805676 31.5016877,46.5742679 31.4814024,46.695733 C31.4611172,46.8171981 31.4363245,46.9403966 31.4070237,47.0653322 L30.20344,51.9169719 C30.09976,52.3438351 29.9983354,52.6787268 29.8991632,52.921657 C29.799991,53.1645872 29.6687025,53.3511202 29.5052938,53.4812614 C29.3418851,53.6114026 29.1215684,53.6764722 28.844337,53.6764722 C28.5738674,53.6764722 28.3710183,53.6313573 28.2357835,53.541126 C28.1005487,53.4508948 28.0329323,53.2860517 28.0329323,53.0465919 C28.0329323,52.8834816 28.0650501,52.7576803 28.1292866,52.6691843 C28.1935231,52.5806883 28.2887495,52.536441 28.4149687,52.536441 C28.4645548,52.536441 28.5130132,52.5468521 28.5603454,52.5676747 C28.6189471,52.5884973 28.6696594,52.5989084 28.7124837,52.5989084 C28.8184177,52.5989084 28.9018112,52.5746158 28.9626669,52.5260297 C29.0235225,52.4774437 29.0781791,52.393287 29.1266383,52.273557 C29.1750974,52.1538271 29.2308809,51.9777054 29.2939905,51.7451864 L29.2939905,51.7451864 Z M34.7236406,50.7561182 L34.7236406,50.6155664 C34.5996753,50.8342036 34.4774024,51.0120606 34.356818,51.1491427 C34.2362336,51.2862247 34.1055086,51.3903361 33.964639,51.46148 C33.8237695,51.5326239 33.6699422,51.5681953 33.5031526,51.5681953 C33.2822691,51.5681953 33.0777295,51.4961849 32.8895278,51.3521619 C32.701326,51.208139 32.5384832,51.002519 32.4009945,50.7352957 C32.2635058,50.4680725 32.1592638,50.1540031 32.0882656,49.7930781 C32.0172673,49.4321532 31.9817687,49.0417354 31.9817687,48.6218132 C31.9817687,47.7333826 32.1226362,47.0410417 32.4043753,46.54477 C32.6861145,46.0484982 33.0568777,45.800366 33.516676,45.800366 C33.7826378,45.800366 34.0068988,45.8706412 34.1894658,46.0111937 C34.3720328,46.1517462 34.5500892,46.3677774 34.7236406,46.6592936 L34.7236406,44.5614279 C34.7236406,44.2699117 34.761393,44.0495425 34.8368991,43.9003139 C34.9124052,43.7510854 35.020028,43.6764722 35.1597706,43.6764722 C35.2995132,43.6764722 35.407136,43.7450122 35.4826421,43.8820943 C35.5581482,44.0191763 35.5959007,44.221326 35.5959007,44.4885492 L35.5959007,50.7561182 C35.5959007,51.0268119 35.5553308,51.2298291 35.4741899,51.365176 C35.3930491,51.5005228 35.2882437,51.5681953 35.1597706,51.5681953 C35.0335515,51.5681953 34.9293095,51.4979201 34.8470417,51.3573676 C34.7647739,51.2168151 34.7236406,51.0164006 34.7236406,50.7561182 L34.7236406,50.7561182 Z M32.9081224,48.6686638 C32.9081224,49.0538817 32.9470019,49.3818326 33.0247619,49.6525263 C33.1025219,49.92322 33.2090177,50.1271049 33.3442525,50.2641869 C33.4794873,50.401269 33.6271164,50.469809 33.7871443,50.469809 C33.949426,50.469809 34.0976186,50.4047394 34.2317264,50.2745982 C34.3658343,50.144457 34.4728936,49.9449101 34.5529075,49.6759516 C34.6329214,49.4069931 34.6729278,49.0712339 34.6729278,48.6686638 C34.6729278,48.2903867 34.6329214,47.9650385 34.5529075,47.6926096 C34.4728936,47.4201807 34.3647073,47.2119579 34.2283456,47.067935 C34.0919838,46.923912 33.9426643,46.8519017 33.7803825,46.8519017 C33.611339,46.8519017 33.4603291,46.9256472 33.3273482,47.0731406 C33.1943673,47.220634 33.0912524,47.4323271 33.0180002,47.7082265 C32.944748,47.9841258 32.9081224,48.3042684 32.9081224,48.6686638 L32.9081224,48.6686638 Z M39.9774863,48.679075 C39.9774863,49.1024677 39.9346626,49.4928855 39.8490139,49.85034 C39.7633652,50.2077945 39.6394018,50.5149231 39.47712,50.7717351 C39.3148383,51.0285471 39.1210046,51.2254911 38.8956133,51.3625732 C38.670222,51.4996553 38.4166605,51.5681953 38.1349213,51.5681953 C37.8554361,51.5681953 37.6041285,51.4987877 37.3809911,51.3599704 C37.1578537,51.2211531 36.9645835,51.0224738 36.8011748,50.7639266 C36.6377661,50.5053795 36.5138027,50.199986 36.429281,49.8477372 C36.3447592,49.4954883 36.302499,49.1059382 36.302499,48.679075 C36.302499,48.2487414 36.3453227,47.8548533 36.4309714,47.4973988 C36.5166201,47.1399443 36.6394565,46.8345509 36.7994844,46.5812093 C36.9595122,46.3278678 37.1533459,46.1326589 37.3809911,45.9955768 C37.6086363,45.8584948 37.8599439,45.7899548 38.1349213,45.7899548 C38.4144066,45.7899548 38.667968,45.8593624 38.8956133,45.9981796 C39.1232585,46.1369969 39.3182191,46.3348086 39.4805009,46.5916206 C39.6427826,46.8484325 39.7661825,47.153826 39.8507043,47.50781 C39.935226,47.8617941 39.9774863,48.2522119 39.9774863,48.679075 L39.9774863,48.679075 Z M39.0511325,48.679075 C39.0511325,48.0995129 38.9683025,47.6483635 38.8026398,47.3256133 C38.6369772,47.0028631 38.4144066,46.8414904 38.1349213,46.8414904 C37.9546083,46.8414904 37.7957098,46.9135008 37.6582211,47.0575237 C37.5207323,47.2015467 37.4148,47.4141074 37.3404209,47.6952124 C37.2660417,47.9763174 37.2288527,48.3042683 37.2288527,48.679075 C37.2288527,49.0504112 37.2654783,49.3748918 37.3387304,49.6525263 C37.4119826,49.9301609 37.516788,50.1427217 37.6531498,50.290215 C37.7895115,50.4377084 37.9501004,50.511454 38.1349213,50.511454 C38.4144066,50.511454 38.6369772,50.3492137 38.8026398,50.0247283 C38.9683025,49.7002429 39.0511325,49.2516963 39.0511325,48.679075 L39.0511325,48.679075 Z M43.7741843,48.7831874 L43.7741843,50.6728283 C43.7741843,50.9712854 43.7302337,51.1951249 43.642331,51.3443535 C43.5544284,51.4935821 43.4383536,51.5681953 43.2941032,51.5681953 C43.1543605,51.5681953 43.0411031,51.4935821 42.9543274,51.3443535 C42.8675518,51.1951249 42.8241646,50.9712854 42.8241646,50.6728283 L42.8241646,48.4083827 C42.8241646,48.0509282 42.816276,47.7732978 42.8004986,47.5754831 C42.7847212,47.3776685 42.7418975,47.2154282 42.6720262,47.0887575 C42.6021549,46.9620867 42.4917148,46.8987523 42.3407026,46.8987523 C42.0386782,46.8987523 41.8397733,47.0583897 41.743982,47.3776695 C41.6481907,47.6969492 41.6002958,48.1550394 41.6002958,48.7519537 L41.6002958,50.6728283 C41.6002958,50.967815 41.5569086,51.1907869 41.4701329,51.3417507 C41.3833573,51.4927145 41.2689729,51.5681953 41.1269763,51.5681953 C40.9872337,51.5681953 40.8728493,51.4927145 40.7838197,51.3417507 C40.6947902,51.1907869 40.650276,50.967815 40.650276,50.6728283 L40.650276,46.6072374 C40.650276,46.3400142 40.6902824,46.1369969 40.7702963,45.9981796 C40.8503103,45.8593624 40.9556791,45.7899548 41.0864061,45.7899548 C41.2126252,45.7899548 41.3179941,45.8550244 41.4025159,45.9851656 C41.4870376,46.1153068 41.5292979,46.294899 41.5292979,46.5239475 L41.5292979,46.6592936 C41.6893257,46.3643069 41.8606205,46.1474082 42.0431875,46.0085909 C42.2257545,45.8697736 42.4286037,45.800366 42.6517411,45.800366 C42.8838942,45.800366 43.0833625,45.8715088 43.2501521,46.0137965 C43.4169417,46.1560842 43.5544283,46.3712478 43.6626162,46.6592936 C43.8181362,46.3677774 43.9849233,46.1517462 44.1629824,46.0111937 C44.3410416,45.8706412 44.538256,45.800366 44.7546317,45.800366 C45.00707,45.800366 45.2245694,45.8767144 45.4071364,46.0294134 C45.5897033,46.1821124 45.7260631,46.4007463 45.8162196,46.6853218 C45.8951066,46.9421337 45.9345494,47.346433 45.9345494,47.8982317 L45.9345494,50.6728283 C45.9345494,50.9712854 45.8905988,51.1951249 45.8026962,51.3443535 C45.7147936,51.4935821 45.5987188,51.5681953 45.4544683,51.5681953 C45.3147257,51.5681953 45.2003413,51.4927145 45.1113117,51.3417507 C45.0222821,51.1907869 44.977768,50.967815 44.977768,50.6728283 L44.977768,48.2834477 C44.977768,47.9780497 44.969316,47.7333879 44.9524116,47.549455 C44.9355073,47.3655221 44.8898662,47.2110902 44.8154871,47.0861547 C44.7411079,46.9612191 44.628414,46.8987523 44.4774018,46.8987523 C44.3556904,46.8987523 44.2401791,46.9542783 44.1308643,47.0653322 C44.0215495,47.176386 43.9364656,47.3256123 43.8756099,47.5130157 C43.8079925,47.7524755 43.7741843,48.1758618 43.7741843,48.7831874 L43.7741843,48.7831874 Z M47.4424099,51.5681953 C47.3026673,51.5681953 47.1820847,51.4987877 47.0806586,51.3599704 C46.9792325,51.2211531 46.9285203,51.0268118 46.9285203,50.7769407 C46.9285203,50.5652443 46.9769787,50.3830494 47.0738969,50.2303504 C47.1708152,50.0776514 47.2902708,50.001303 47.4322674,50.001303 C47.5742639,50.001303 47.6954099,50.0767838 47.7957091,50.2277476 C47.8960082,50.3787114 47.946157,50.5617739 47.946157,50.7769407 C47.946157,51.0233414 47.8960082,51.2168151 47.7957091,51.3573676 C47.6954099,51.4979201 47.5776447,51.5681953 47.4424099,51.5681953 L47.4424099,51.5681953 Z M52.3074575,49.808695 C52.3074575,49.985687 52.2730859,50.1748227 52.2043415,50.3761078 C52.1355972,50.5773929 52.0307918,50.7691314 51.8899222,50.951329 C51.7490526,51.1335267 51.5715596,51.2801503 51.3574378,51.3912041 C51.1433161,51.5022579 50.9021509,51.557784 50.6339353,51.557784 C50.0636952,51.557784 49.618554,51.3018435 49.2984983,50.7899548 C48.9784426,50.278066 48.8184171,49.5917984 48.8184171,48.7311312 C48.8184171,48.1480986 48.8916682,47.6327472 49.0381726,47.1850615 C49.184677,46.7373757 49.3965416,46.3912053 49.673773,46.1465399 C49.9510043,45.9018744 50.2823246,45.7795435 50.6677438,45.7795435 C50.9066586,45.7795435 51.1258484,45.8333344 51.3253197,45.9409178 C51.524791,46.0485012 51.693832,46.1873164 51.8324477,46.3573676 C51.9710634,46.5274187 52.0769957,46.7087461 52.1502479,46.9013551 C52.2235001,47.093964 52.2601256,47.2735562 52.2601256,47.440137 C52.2601256,47.6101881 52.2189923,47.7542089 52.1367245,47.8722036 C52.0544566,47.9901983 51.9547225,48.0491947 51.837519,48.0491947 C51.7608859,48.0491947 51.6972138,48.0188289 51.6465008,47.9580964 C51.5957877,47.8973638 51.5388773,47.7993256 51.4757677,47.6639787 C51.363072,47.4002259 51.2453068,47.2024142 51.1224685,47.0705378 C50.9996303,46.9386614 50.8435491,46.8727241 50.6542204,46.8727241 C50.3814969,46.8727241 50.1617436,47.0366996 49.994954,47.3646554 C49.8281644,47.6926113 49.7447709,48.1411579 49.7447709,48.7103087 C49.7447709,48.977532 49.7661827,49.2230614 49.8090071,49.4469043 C49.8518315,49.6707471 49.9138131,49.861618 49.994954,50.0195227 C50.0760949,50.1774274 50.1741387,50.2971555 50.2890882,50.3787106 C50.4040378,50.4602658 50.5302551,50.5010427 50.6677438,50.5010427 C50.8525647,50.5010427 51.0108997,50.4351055 51.1427537,50.3032291 C51.2746076,50.1713527 51.3912458,49.9700706 51.4926719,49.6993769 C51.5490198,49.5397371 51.6098745,49.4148034 51.675238,49.3245721 C51.7406015,49.2343409 51.8206142,49.189226 51.9152786,49.189226 C52.0279743,49.189226 52.1215103,49.2551632 52.1958894,49.3870396 C52.2702685,49.518916 52.3074575,49.6594664 52.3074575,49.808695 L52.3074575,49.808695 Z M56.5673325,48.679075 C56.5673325,49.1024677 56.5245087,49.4928855 56.43886,49.85034 C56.3532113,50.2077945 56.229248,50.5149231 56.0669662,50.7717351 C55.9046844,51.0285471 55.7108508,51.2254911 55.4854595,51.3625732 C55.2600681,51.4996553 55.0065067,51.5681953 54.7247675,51.5681953 C54.4452823,51.5681953 54.1939747,51.4987877 53.9708373,51.3599704 C53.7476998,51.2211531 53.5544297,51.0224738 53.391021,50.7639266 C53.2276122,50.5053795 53.1036489,50.199986 53.0191271,49.8477372 C52.9346054,49.4954883 52.8923451,49.1059382 52.8923451,48.679075 C52.8923451,48.2487414 52.9351688,47.8548533 53.0208175,47.4973988 C53.1064663,47.1399443 53.2293027,46.8345509 53.3893305,46.5812093 C53.5493584,46.3278678 53.743192,46.1326589 53.9708373,45.9955768 C54.1984825,45.8584948 54.4497901,45.7899548 54.7247675,45.7899548 C55.0042528,45.7899548 55.2578142,45.8593624 55.4854595,45.9981796 C55.7131047,46.1369969 55.9080653,46.3348086 56.070347,46.5916206 C56.2326288,46.8484325 56.3560287,47.153826 56.4405505,47.50781 C56.5250722,47.8617941 56.5673325,48.2522119 56.5673325,48.679075 L56.5673325,48.679075 Z M55.6409787,48.679075 C55.6409787,48.0995129 55.5581486,47.6483635 55.392486,47.3256133 C55.2268234,47.0028631 55.0042528,46.8414904 54.7247675,46.8414904 C54.5444544,46.8414904 54.3855559,46.9135008 54.2480672,47.0575237 C54.1105785,47.2015467 54.0046462,47.4141074 53.930267,47.6952124 C53.8558879,47.9763174 53.8186989,48.3042683 53.8186989,48.679075 C53.8186989,49.0504112 53.8553244,49.3748918 53.9285766,49.6525263 C54.0018288,49.9301609 54.1066342,50.1427217 54.2429959,50.290215 C54.3793577,50.4377084 54.5399466,50.511454 54.7247675,50.511454 C55.0042528,50.511454 55.2268234,50.3492137 55.392486,50.0247283 C55.5581486,49.7002429 55.6409787,49.2516963 55.6409787,48.679075 L55.6409787,48.679075 Z M60.3640305,48.7831874 L60.3640305,50.6728283 C60.3640305,50.9712854 60.3200798,51.1951249 60.2321772,51.3443535 C60.1442746,51.4935821 60.0281998,51.5681953 59.8839493,51.5681953 C59.7442067,51.5681953 59.6309493,51.4935821 59.5441736,51.3443535 C59.4573979,51.1951249 59.4140108,50.9712854 59.4140108,50.6728283 L59.4140108,48.4083827 C59.4140108,48.0509282 59.4061222,47.7732978 59.3903448,47.5754831 C59.3745674,47.3776685 59.3317437,47.2154282 59.2618724,47.0887575 C59.1920011,46.9620867 59.081561,46.8987523 58.9305488,46.8987523 C58.6285244,46.8987523 58.4296195,47.0583897 58.3338282,47.3776695 C58.2380369,47.6969492 58.1901419,48.1550394 58.1901419,48.7519537 L58.1901419,50.6728283 C58.1901419,50.967815 58.1467548,51.1907869 58.0599791,51.3417507 C57.9732034,51.4927145 57.858819,51.5681953 57.7168225,51.5681953 C57.5770799,51.5681953 57.4626955,51.4927145 57.3736659,51.3417507 C57.2846363,51.1907869 57.2401222,50.967815 57.2401222,50.6728283 L57.2401222,46.6072374 C57.2401222,46.3400142 57.2801286,46.1369969 57.3601425,45.9981796 C57.4401564,45.8593624 57.5455253,45.7899548 57.6762523,45.7899548 C57.8024714,45.7899548 57.9078403,45.8550244 57.992362,45.9851656 C58.0768838,46.1153068 58.119144,46.294899 58.119144,46.5239475 L58.119144,46.6592936 C58.2791719,46.3643069 58.4504667,46.1474082 58.6330337,46.0085909 C58.8156007,45.8697736 59.0184498,45.800366 59.2415873,45.800366 C59.4737403,45.800366 59.6732087,45.8715088 59.8399983,46.0137965 C60.0067878,46.1560842 60.1442745,46.3712478 60.2524623,46.6592936 C60.4079824,46.3677774 60.5747694,46.1517462 60.7528286,46.0111937 C60.9308877,45.8706412 61.1281022,45.800366 61.3444779,45.800366 C61.5969162,45.800366 61.8144156,45.8767144 61.9969825,46.0294134 C62.1795495,46.1821124 62.3159092,46.4007463 62.4060658,46.6853218 C62.4849527,46.9421337 62.5243956,47.346433 62.5243956,47.8982317 L62.5243956,50.6728283 C62.5243956,50.9712854 62.480445,51.1951249 62.3925423,51.3443535 C62.3046397,51.4935821 62.1885649,51.5681953 62.0443145,51.5681953 C61.9045719,51.5681953 61.7901875,51.4927145 61.7011579,51.3417507 C61.6121283,51.1907869 61.5676142,50.967815 61.5676142,50.6728283 L61.5676142,48.2834477 C61.5676142,47.9780497 61.5591621,47.7333879 61.5422578,47.549455 C61.5253534,47.3655221 61.4797124,47.2110902 61.4053332,47.0861547 C61.3309541,46.9612191 61.2182601,46.8987523 61.0672479,46.8987523 C60.9455366,46.8987523 60.8300253,46.9542783 60.7207105,47.0653322 C60.6113957,47.176386 60.5263117,47.3256123 60.4654561,47.5130157 C60.3978387,47.7524755 60.3640305,48.1758618 60.3640305,48.7831874 L60.3640305,48.7831874 Z" id="www.mydom.com-3" fill-opacity="0.6" sketch:type="MSShapeGroup" transform="translate(32.943621, 48.676472) rotate(10.000000) translate(-32.943621, -48.676472) "></path>
                <path d="M18.2025825,23.0234375 L16.531033,16.7285156 L14.8383247,23.0234375 C14.7066689,23.5008704 14.6020512,23.8434234 14.5244683,24.0511068 C14.4468855,24.2587901 14.3117052,24.4449862 14.1189236,24.6097005 C13.926142,24.7744149 13.6698873,24.8567708 13.3501519,24.8567708 C13.0915424,24.8567708 12.8787805,24.8078347 12.7118598,24.7099609 C12.5449391,24.6120872 12.4097589,24.4736337 12.3063151,24.2945964 C12.2028713,24.115559 12.1182367,23.9031045 12.0524089,23.6572266 C11.986581,23.4113486 11.927807,23.1833778 11.8760851,22.9733073 L10.1551649,15.9049479 C10.0517211,15.4943556 10,15.1816417 10,14.9667969 C10,14.6946601 10.0940384,14.4654957 10.2821181,14.2792969 C10.4701977,14.093098 10.7029428,14 10.9803602,14 C11.3612215,14 11.6174762,14.1241307 11.7491319,14.3723958 C11.8807877,14.620661 11.9959847,14.9811174 12.0947266,15.453776 L13.4488932,21.5839844 L14.9652778,15.8476562 C15.0781256,15.4084179 15.1792169,15.0742199 15.2685547,14.8450521 C15.3578925,14.6158843 15.5036521,14.4177526 15.7058377,14.250651 C15.9080233,14.0835495 16.1830856,14 16.531033,14 C16.8836823,14 17.1575692,14.0871302 17.3527018,14.2613932 C17.5478345,14.4356563 17.6830147,14.625433 17.7582465,14.8307292 C17.8334784,15.0360253 17.9345697,15.3749976 18.0615234,15.8476562 L19.5920139,21.5839844 L20.9461806,15.453776 C21.0120084,15.133896 21.0743089,14.8832474 21.1330838,14.7018229 C21.1918587,14.5203984 21.2929499,14.3580736 21.4363607,14.2148437 C21.5797714,14.0716139 21.7878314,14 22.0605469,14 C22.3332624,14 22.5648319,14.0919045 22.7552626,14.2757161 C22.9456932,14.4595278 23.0409071,14.6898858 23.0409071,14.9667969 C23.0409071,15.1625444 22.989186,15.4752583 22.8857422,15.9049479 L21.164822,22.9733073 C21.0472723,23.4507402 20.9497074,23.8004546 20.8721246,24.0224609 C20.7945417,24.2444673 20.6628879,24.4390183 20.4771593,24.6061198 C20.2914306,24.7732213 20.0292986,24.8567708 19.6907552,24.8567708 C19.3710198,24.8567708 19.1147651,24.7756085 18.9219835,24.6132812 C18.7292019,24.450954 18.5951971,24.2683387 18.5199653,24.0654297 C18.4447334,23.8625207 18.3389402,23.5151934 18.2025825,23.0234375 L18.2025825,23.0234375 Z" id="W-2" fill-opacity="0.799999833" sketch:type="MSShapeGroup"></path>
                <path d="M32.1768524,23.1424802 L30.5105462,16.7645119 L28.8231476,23.1424802 C28.6919049,23.6262117 28.5876153,23.9732839 28.5102758,24.1837071 C28.4329363,24.3941303 28.2981802,24.5827828 28.1060032,24.7496702 C27.9138263,24.9165576 27.6583755,25 27.3396431,25 C27.0818448,25 26.8697502,24.9504183 26.7033532,24.8512533 C26.5369561,24.7520883 26.4021999,24.6118083 26.2990806,24.430409 C26.1959613,24.2490096 26.1115922,24.0337523 26.0459708,23.7846306 C25.9803494,23.5355089 25.9217598,23.3045305 25.8702001,23.0916887 L24.1546782,15.9300792 C24.0515589,15.51407 24,15.1972306 24,14.9795515 C24,14.7038245 24.0937434,14.4716368 24.2812331,14.2829815 C24.4687228,14.0943262 24.7007378,14 24.977285,14 C25.3569516,14 25.6124024,14.1257683 25.7436452,14.3773087 C25.874888,14.6288491 25.9897237,14.9940609 26.0881558,15.4729551 L27.4380746,21.6840369 L28.9497025,15.8720317 C29.0621963,15.4269987 29.1629705,15.0883917 29.2520281,14.8562005 C29.3410857,14.6240094 29.486388,14.4232638 29.6879394,14.2539578 C29.8894908,14.0846517 30.1636904,14 30.5105462,14 C30.8620894,14 31.1351171,14.0882797 31.3296376,14.2648417 C31.5241582,14.4414037 31.6589144,14.6336841 31.7339102,14.8416887 C31.8089061,15.0496932 31.9096803,15.3931374 32.0362358,15.8720317 L33.5619254,21.6840369 L34.9118442,15.4729551 C34.9774656,15.148855 35.0395706,14.8948998 35.0981612,14.7110818 C35.1567517,14.5272638 35.2575259,14.3627976 35.4004867,14.2176781 C35.5434476,14.0725586 35.750855,14 36.022715,14 C36.294575,14 36.5254182,14.0931169 36.7152515,14.2793536 C36.9050848,14.4655902 37,14.6989872 37,14.9795515 C37,15.1778814 36.9484411,15.4947208 36.8453218,15.9300792 L35.1297999,23.0916887 C35.0126188,23.5754202 34.91536,23.9297482 34.8380206,24.1546834 C34.7606811,24.3796185 34.6294403,24.5767362 34.4442942,24.7460422 C34.2591482,24.9153483 33.9978384,25 33.6603569,25 C33.3416245,25 33.0861737,24.9177669 32.8939968,24.7532982 C32.7018198,24.5888294 32.5682355,24.4038049 32.4932396,24.198219 C32.4182437,23.9926331 32.3127824,23.6407237 32.1768524,23.1424802 L32.1768524,23.1424802 Z" id="Path-2" fill-opacity="0.6" sketch:type="MSShapeGroup"></path>
                <path d="M45.1768524,23.1424802 L43.5105462,16.7645119 L41.8231476,23.1424802 C41.6919049,23.6262117 41.5876153,23.9732839 41.5102758,24.1837071 C41.4329363,24.3941303 41.2981802,24.5827828 41.1060032,24.7496702 C40.9138263,24.9165576 40.6583755,25 40.3396431,25 C40.0818448,25 39.8697502,24.9504183 39.7033532,24.8512533 C39.5369561,24.7520883 39.4021999,24.6118083 39.2990806,24.430409 C39.1959613,24.2490096 39.1115922,24.0337523 39.0459708,23.7846306 C38.9803494,23.5355089 38.9217598,23.3045305 38.8702001,23.0916887 L37.1546782,15.9300792 C37.0515589,15.51407 37,15.1972306 37,14.9795515 C37,14.7038245 37.0937434,14.4716368 37.2812331,14.2829815 C37.4687228,14.0943262 37.7007378,14 37.977285,14 C38.3569516,14 38.6124024,14.1257683 38.7436452,14.3773087 C38.874888,14.6288491 38.9897237,14.9940609 39.0881558,15.4729551 L40.4380746,21.6840369 L41.9497025,15.8720317 C42.0621963,15.4269987 42.1629705,15.0883917 42.2520281,14.8562005 C42.3410857,14.6240094 42.486388,14.4232638 42.6879394,14.2539578 C42.8894908,14.0846517 43.1636904,14 43.5105462,14 C43.8620894,14 44.1351171,14.0882797 44.3296376,14.2648417 C44.5241582,14.4414037 44.6589144,14.6336841 44.7339102,14.8416887 C44.8089061,15.0496932 44.9096803,15.3931374 45.0362358,15.8720317 L46.5619254,21.6840369 L47.9118442,15.4729551 C47.9774656,15.148855 48.0395706,14.8948998 48.0981612,14.7110818 C48.1567517,14.5272638 48.2575259,14.3627976 48.4004867,14.2176781 C48.5434476,14.0725586 48.750855,14 49.022715,14 C49.294575,14 49.5254182,14.0931169 49.7152515,14.2793536 C49.9050848,14.4655902 50,14.6989872 50,14.9795515 C50,15.1778814 49.9484411,15.4947208 49.8453218,15.9300792 L48.1297999,23.0916887 C48.0126188,23.5754202 47.91536,23.9297482 47.8380206,24.1546834 C47.7606811,24.3796185 47.6294403,24.5767362 47.4442942,24.7460422 C47.2591482,24.9153483 46.9978384,25 46.6603569,25 C46.3416245,25 46.0861737,24.9177669 45.8939968,24.7532982 C45.7018198,24.5888294 45.5682355,24.4038049 45.4932396,24.198219 C45.4182437,23.9926331 45.3127824,23.6407237 45.1768524,23.1424802 L45.1768524,23.1424802 Z" id="Path-3" fill-opacity="0.4" sketch:type="MSShapeGroup"></path>
            </g>
        </g>
    </g>
</svg>