<?xml version="1.0" encoding="UTF-8" standalone="no"?>
<svg width="64px" height="64px" viewBox="0 0 64 64" version="1.1" xmlns="http://www.w3.org/2000/svg" xmlns:xlink="http://www.w3.org/1999/xlink" xmlns:sketch="http://www.bohemiancoding.com/sketch/ns">
    <!-- Generator: Sketch 3.0.3 (7891) - http://www.bohemiancoding.com/sketch -->
    <title>webserver</title>
    <desc>Created with Sketch.</desc>
    <defs></defs>
    <g id="Page-1" stroke="none" stroke-width="1" fill="none" fill-rule="evenodd" sketch:type="MSPage">
        <g id="Landscape" sketch:type="MSArtboardGroup" transform="translate(-369.000000, -223.000000)" fill="#FFFFFF">
            <g id="webserver" sketch:type="MSLayerGroup" transform="translate(369.000000, 223.000000)">
                <g id="cog" transform="translate(31.602324, 46.033470) rotate(22.000000) translate(-31.602324, -46.033470) translate(18.099205, 32.530351)" stroke="#000000" stroke-opacity="0.199643342" stroke-width="1.81818182" sketch:type="MSShapeGroup" fill-opacity="0.332314312">
                    <g id="cw" transform="translate(-0.136334, -0.163468)">
                        <path d="M13.6394532,0.163468015 C12.7147731,0.163468015 11.8114212,0.260417709 10.9388294,0.437750153 L10.9388294,2.52651397 C9.76579996,2.80969868 8.67037293,3.26399359 7.66854278,3.87682593 L6.19163915,2.39992223 C5.43457328,2.90160496 4.74266671,3.49022012 4.10287543,4.13000941 C3.46308415,4.76979887 2.8744697,5.46170746 2.37278832,6.21877333 L3.84969195,7.69567696 C3.23685965,8.69750576 2.78256747,9.79293211 2.49938006,10.9659636 L0.410616344,10.9659636 C0.233286635,11.8385537 0.136334241,12.7419043 0.136334241,13.6665877 C0.136334241,14.5912712 0.233286635,15.4946217 0.410616344,16.3672115 L2.49938006,16.3672115 C2.78256747,17.540243 3.23685965,18.6356697 3.84969195,19.6374985 L2.37278832,21.1144021 C2.8744697,21.871468 3.46308415,22.5633766 4.10287543,23.2031658 C4.74266671,23.8429551 5.43457328,24.4315705 6.19163915,24.9332533 L7.66854278,23.4563493 C8.67037293,24.0691816 9.76579996,24.5234768 10.9388294,24.8066615 L10.9388294,26.8954252 C11.8114212,27.0727576 12.7147664,27.1697073 13.6394532,27.1697073 C14.5641333,27.1697073 15.4674852,27.0727576 16.340077,26.8954252 L16.340077,24.8066615 C17.5131064,24.5234768 18.6085335,24.0691816 19.6103636,23.4563493 L21.0872672,24.9332533 C21.8443331,24.4315705 22.5362397,23.8429551 23.176031,23.2031658 C23.8158222,22.5633766 24.4044367,21.871468 24.9061181,21.1144021 L23.4292144,19.6374985 C24.0420467,18.6356697 24.4963389,17.540243 24.7795263,16.3672115 L26.86829,16.3672115 C27.0456198,15.4946217 27.1425721,14.5912712 27.1425721,13.6665877 C27.1425721,12.7419043 27.0456198,11.8385537 26.86829,10.9659636 L24.7795263,10.9659636 C24.4963389,9.79293211 24.0420467,8.69750576 23.4292144,7.69567696 L24.9061181,6.21877333 C24.4044367,5.46170746 23.8158222,4.76979887 23.176031,4.13000941 C22.5362397,3.49022012 21.8443331,2.90160496 21.0872672,2.39992223 L19.6103636,3.87682593 C18.6085335,3.26399359 17.5131064,2.80969868 16.340077,2.52651397 L16.340077,0.437750153 C15.4674852,0.260417709 14.5641333,0.163468015 13.6394532,0.163468015 L13.6394532,0.163468015 Z M13.6394532,6.9150279 C17.366314,6.9150279 20.3910127,9.93972654 20.3910127,13.6665877 C20.3910127,17.3934485 17.366314,20.4181475 13.6394532,20.4181475 C9.91259236,20.4181475 6.88789372,17.3934485 6.88789372,13.6665877 C6.88789372,9.93972654 9.91259236,6.9150279 13.6394532,6.9150279 L13.6394532,6.9150279 Z"></path>
                    </g>
                </g>
                <path d="M15.6992188,23.7441406 L13.3847656,15.1601562 L11.0410156,23.7441406 C10.858723,24.3951855 10.7138677,24.8623033 10.6064453,25.1455078 C10.4990229,25.4287124 10.3118503,25.6826161 10.0449219,25.9072266 C9.77799346,26.1318371 9.4231793,26.2441406 8.98046875,26.2441406 C8.62239404,26.2441406 8.32780063,26.1774095 8.09667969,26.0439453 C7.86555874,25.9104811 7.67838613,25.7216809 7.53515625,25.4775391 C7.39192637,25.2333972 7.27474004,24.9436866 7.18359375,24.6083984 C7.09244746,24.2731103 7.01106807,23.962241 6.93945312,23.6757812 L4.55664062,14.0371094 C4.41341074,13.4772107 4.34179688,13.0507827 4.34179688,12.7578125 C4.34179688,12.3867169 4.47200391,12.07422 4.73242188,11.8203125 C4.99283984,11.566405 5.31510225,11.4394531 5.69921875,11.4394531 C6.22656514,11.4394531 6.5813793,11.6087223 6.76367188,11.9472656 C6.94596445,12.285809 7.10546807,12.7773405 7.2421875,13.421875 L9.1171875,21.78125 L11.2167969,13.9589844 C11.3730477,13.360023 11.5130202,12.9042984 11.6367188,12.5917969 C11.7604173,12.2792953 11.9622382,12.0091157 12.2421875,11.78125 C12.5221368,11.5533843 12.9029924,11.4394531 13.3847656,11.4394531 C13.8730493,11.4394531 14.2522773,11.558267 14.5224609,11.7958984 C14.7926446,12.0335298 14.9798172,12.2923163 15.0839844,12.5722656 C15.1881516,12.8522149 15.3281241,13.3144499 15.5039062,13.9589844 L17.6230469,21.78125 L19.4980469,13.421875 C19.5891932,12.9856749 19.6754553,12.6438814 19.7568359,12.3964844 C19.8382166,12.1490873 19.9781891,11.9277354 20.1767578,11.7324219 C20.3753265,11.5371084 20.6634096,11.4394531 21.0410156,11.4394531 C21.4186217,11.4394531 21.7392565,11.5647774 22.0029297,11.8154297 C22.2666029,12.066082 22.3984375,12.3802064 22.3984375,12.7578125 C22.3984375,13.0247409 22.3268236,13.4511689 22.1835938,14.0371094 L19.8007812,23.6757812 C19.63802,24.3268262 19.5029302,24.8037094 19.3955078,25.1064453 C19.2880854,25.4091812 19.1057956,25.674478 18.8486328,25.9023438 C18.5914701,26.1302095 18.228518,26.2441406 17.7597656,26.2441406 C17.3170551,26.2441406 16.9622409,26.1334646 16.6953125,25.9121094 C16.4283841,25.6907541 16.2428391,25.4417332 16.1386719,25.1650391 C16.0345047,24.888345 15.8880218,24.4147169 15.6992188,23.7441406 L15.6992188,23.7441406 Z" id="W" fill-opacity="0.799999833" sketch:type="MSShapeGroup"></path>
                <path d="M34.6635924,23.9064716 L32.3563994,15.209242 L30.0200013,23.9064716 C29.8382806,24.5661055 29.6938796,25.0393857 29.5867942,25.3263265 C29.4797087,25.6132672 29.2931232,25.8705206 29.0270321,26.0980943 C28.760941,26.325668 28.4072399,26.4394531 27.965918,26.4394531 C27.6089665,26.4394531 27.3152972,26.3718417 27.0849013,26.2366167 C26.8545053,26.1013918 26.6679198,25.9101008 26.5251392,25.6627381 C26.3823586,25.4153754 26.2655399,25.1218427 26.1746795,24.7821312 C26.0838191,24.4424198 26.002695,24.1274493 25.9313047,23.8372104 L23.5559667,14.0713792 C23.4131861,13.5040941 23.3417969,13.0720404 23.3417969,12.7752051 C23.3417969,12.3992138 23.4715955,12.0825943 23.7311966,11.825337 C23.9907976,11.5680798 24.3120492,11.4394531 24.6949607,11.4394531 C25.2206529,11.4394531 25.5743541,11.6109554 25.7560749,11.953965 C25.9377956,12.2969746 26.0967989,12.7949908 26.2330895,13.4480283 L28.1022079,21.9176853 L30.1952312,13.9922236 C30.3509918,13.3853604 30.4905253,12.9236236 30.6138358,12.6069993 C30.7371463,12.290375 30.9383341,12.0166311 31.2174053,11.7857592 C31.4964765,11.5548873 31.8761374,11.4394531 32.3563994,11.4394531 C32.8431514,11.4394531 33.2211898,11.5598345 33.4905259,11.8006009 C33.759862,12.0413673 33.9464475,12.3035678 34.050288,12.5872104 C34.1541284,12.870853 34.2936619,13.339186 34.4688926,13.9922236 L36.5813858,21.9176853 L38.4505043,13.4480283 C38.5413647,13.0060736 38.6273562,12.659771 38.7084816,12.4091101 C38.7896069,12.1584492 38.9291404,11.9341771 39.1270862,11.7362869 C39.325032,11.5383967 39.6122114,11.4394531 39.988633,11.4394531 C40.3650546,11.4394531 40.6846836,11.5664307 40.9475297,11.8203898 C41.2103758,12.0743489 41.3417969,12.3926174 41.3417969,12.7752051 C41.3417969,13.045655 41.2704076,13.4777087 41.1276271,14.0713792 L38.752289,23.8372104 C38.5900384,24.4968443 38.4553723,24.9800189 38.3482869,25.2867486 C38.2412014,25.5934784 38.0594834,25.8622752 37.8031273,26.0931471 C37.5467713,26.3240189 37.1849577,26.4394531 36.7176757,26.4394531 C36.2763539,26.4394531 35.9226527,26.327317 35.6565616,26.1030415 C35.3904705,25.878766 35.2055075,25.6264598 35.1016671,25.3461154 C34.9978266,25.065771 34.8518032,24.5858945 34.6635924,23.9064716 L34.6635924,23.9064716 Z" id="Path" fill-opacity="0.6" sketch:type="MSShapeGroup"></path>
                <path d="M53.6635924,23.9064716 L51.3563994,15.209242 L49.0200013,23.9064716 C48.8382806,24.5661055 48.6938796,25.0393857 48.5867942,25.3263265 C48.4797087,25.6132672 48.2931232,25.8705206 48.0270321,26.0980943 C47.760941,26.325668 47.4072399,26.4394531 46.965918,26.4394531 C46.6089665,26.4394531 46.3152972,26.3718417 46.0849013,26.2366167 C45.8545053,26.1013918 45.6679198,25.9101008 45.5251392,25.6627381 C45.3823586,25.4153754 45.2655399,25.1218427 45.1746795,24.7821312 C45.0838191,24.4424198 45.002695,24.1274493 44.9313047,23.8372104 L42.5559667,14.0713792 C42.4131861,13.5040941 42.3417969,13.0720404 42.3417969,12.7752051 C42.3417969,12.3992138 42.4715955,12.0825943 42.7311966,11.825337 C42.9907976,11.5680798 43.3120492,11.4394531 43.6949607,11.4394531 C44.2206529,11.4394531 44.5743541,11.6109554 44.7560749,11.953965 C44.9377956,12.2969746 45.0967989,12.7949908 45.2330895,13.4480283 L47.1022079,21.9176853 L49.1952312,13.9922236 C49.3509918,13.3853604 49.4905253,12.9236236 49.6138358,12.6069993 C49.7371463,12.290375 49.9383341,12.0166311 50.2174053,11.7857592 C50.4964765,11.5548873 50.8761374,11.4394531 51.3563994,11.4394531 C51.8431514,11.4394531 52.2211898,11.5598345 52.4905259,11.8006009 C52.759862,12.0413673 52.9464475,12.3035678 53.050288,12.5872104 C53.1541284,12.870853 53.2936619,13.339186 53.4688926,13.9922236 L55.5813858,21.9176853 L57.4505043,13.4480283 C57.5413647,13.0060736 57.6273562,12.659771 57.7084816,12.4091101 C57.7896069,12.1584492 57.9291404,11.9341771 58.1270862,11.7362869 C58.325032,11.5383967 58.6122114,11.4394531 58.988633,11.4394531 C59.3650546,11.4394531 59.6846836,11.5664307 59.9475297,11.8203898 C60.2103758,12.0743489 60.3417969,12.3926174 60.3417969,12.7752051 C60.3417969,13.045655 60.2704076,13.4777087 60.1276271,14.0713792 L57.752289,23.8372104 C57.5900384,24.4968443 57.4553723,24.9800189 57.3482869,25.2867486 C57.2412014,25.5934784 57.0594834,25.8622752 56.8031273,26.0931471 C56.5467713,26.3240189 56.1849577,26.4394531 55.7176757,26.4394531 C55.2763539,26.4394531 54.9226527,26.327317 54.6565616,26.1030415 C54.3904705,25.878766 54.2055075,25.6264598 54.1016671,25.3461154 C53.9978266,25.065771 53.8518032,24.5858945 53.6635924,23.9064716 L53.6635924,23.9064716 Z" id="Path" fill-opacity="0.4" sketch:type="MSShapeGroup"></path>
            </g>
        </g>
    </g>
</svg>