<?xml version="1.0" encoding="UTF-8" standalone="no"?>
<svg width="24px" height="24px" viewBox="0 0 24 24" version="1.1" xmlns="http://www.w3.org/2000/svg" xmlns:xlink="http://www.w3.org/1999/xlink" xmlns:sketch="http://www.bohemiancoding.com/sketch/ns">
    <!-- Generator: Sketch 3.0.3 (7891) - http://www.bohemiancoding.com/sketch -->
    <title>wf_step_manu</title>
    <desc>Created with Sketch.</desc>
    <defs></defs>
    <g id="Page-1" stroke="none" stroke-width="1" fill="none" fill-rule="evenodd" sketch:type="MSPage">
        <g id="Landscape" sketch:type="MSArtboardGroup" transform="translate(-562.000000, -395.000000)">
            <g id="WF_step_manu" sketch:type="MSLayerGroup" transform="translate(574.000000, 407.000000) scale(-1, 1) translate(-574.000000, -407.000000) translate(562.000000, 395.000000)">
                <g id="Rectangle-7-+-Rectangle-8-+-Rectangle-9" transform="translate(13.808036, 15.816964)" sketch:type="MSShapeGroup">
                    <rect id="Rectangle-7" stroke="#417505" stroke-width="1.20535714" opacity="0.7" x="0" y="0" width="9.44196429" height="7.43303571" rx="1.60714286"></rect>
                    <rect id="Rectangle-8" fill="#417505" x="2.20982143" y="1.80803571" width="5.02232143" height="1.40625" rx="1.60714286"></rect>
                    <rect id="Rectangle-9" fill="#417505" x="2.20982143" y="4.01785714" width="5.02232143" height="1.40625" rx="1.60714286"></rect>
                </g>
                <g id="Rectangle-7-+-Rectangle-8-+-Rectangle-9" transform="translate(0.750000, 11.598214)" sketch:type="MSShapeGroup">
                    <rect id="Rectangle-7" stroke="#417505" stroke-width="1.20535714" x="0" y="0" width="9.44196429" height="7.43303571" rx="1.60714286"></rect>
                    <rect id="Rectangle-8" fill="#417505" x="2.20982143" y="1.80803571" width="5.02232143" height="1.40625" rx="1.60714286"></rect>
                    <rect id="Rectangle-9" fill="#417505" x="2.20982143" y="4.01785714" width="5.02232143" height="1.40625" rx="1.60714286"></rect>
                </g>
                <g id="Rectangle-7-+-Rectangle-8-+-Rectangle-9" transform="translate(13.757812, 0.750000)" sketch:type="MSShapeGroup">
                    <rect id="Rectangle-7" stroke="#417505" stroke-width="1.20535714" x="0.0502232143" y="0" width="9.44196429" height="7.43303571" rx="1.60714286"></rect>
                    <rect id="Rectangle-8" fill="#417505" x="2.26004464" y="1.80803571" width="5.02232143" height="1.40625" rx="1.60714286"></rect>
                    <rect id="Rectangle-9" fill="#417505" x="2.26004464" y="4.01785714" width="5.02232143" height="1.40625" rx="1.60714286"></rect>
                </g>
                <path d="M9.99107143,12 L9.99107143,7.98214286 L14.0089286,9.99107143 L9.99107143,12 Z" id="Triangle-1" opacity="0.4" fill="#417505" sketch:type="MSShapeGroup" transform="translate(12.000000, 9.991071) scale(-1, 1) rotate(45.000000) translate(-12.000000, -9.991071) "></path>
                <path d="M16.4196429,14.6116071 L16.4196429,10.59375 L20.4375,12.6026786 L16.4196429,14.6116071 Z" id="Triangle-2" opacity="0.7" fill="#417505" sketch:type="MSShapeGroup" transform="translate(18.428571, 12.602679) rotate(90.000000) translate(-18.428571, -12.602679) "></path>
                <g id="user" transform="translate(8.000000, 4.000000)" stroke="#FFFFFF" stroke-opacity="0.3" stroke-width="0.5" fill="#F6A623" sketch:type="MSShapeGroup">
                    <path d="M8.4869265,3.81489189 C8.4869265,5.92174324 6.72529492,7.62978378 4.55345281,7.62978378 C2.38137387,7.62978378 0.620689655,5.92151351 0.620689655,3.81489189 C0.620689655,1.70827027 2.38161071,0 4.55345281,0 C6.72553176,-0.00022972973 8.4869265,1.70781081 8.4869265,3.81489189 L8.4869265,3.81489189 Z" id="path3-2"></path>
                    <path d="M8.86192105,11.636861 C8.86192105,9.72137452 6.79523684,8.19642857 4.36215789,8.19642857 C1.92907895,8.19642857 8.8817842e-16,9.77513127 8.8817842e-16,11.6913069 L8.8817842e-16,16.9024961 L8.88678947,16.9024961 L8.86192105,11.636861 Z" id="path5-2"></path>
                </g>
            </g>
        </g>
    </g>
</svg>