<?xml version="1.0" encoding="UTF-8" standalone="no"?>
<svg width="64px" height="64px" viewBox="0 0 64 64" version="1.1" xmlns="http://www.w3.org/2000/svg" xmlns:xlink="http://www.w3.org/1999/xlink" xmlns:sketch="http://www.bohemiancoding.com/sketch/ns">
    <!-- Generator: Sketch 3.0.2 (7799) - http://www.bohemiancoding.com/sketch -->
    <title>wf</title>
    <description>Created with Sketch.</description>
    <defs></defs>
    <g id="Page-1" stroke="none" stroke-width="1" fill="none" fill-rule="evenodd" sketch:type="MSPage">
        <g id="WF" sketch:type="MSLayerGroup" transform="translate(32.000000, 32.000000) scale(-1, 1) translate(-32.000000, -32.000000) ">
            <g id="Rectangle-7-+-Rectangle-8-+-Rectangle-9" transform="translate(36.821429, 42.178571)" sketch:type="MSShapeGroup">
                <rect id="Rectangle-7" stroke="#FFFFFF" stroke-width="3.21428571" opacity="0.7" x="0" y="0" width="25.1785714" height="19.8214286" rx="4.28571429"></rect>
                <rect id="Rectangle-8" fill-opacity="0.7" fill="#FFFFFF" x="5.89285714" y="4.82142857" width="13.3928571" height="3.75" rx="4.28571429"></rect>
                <rect id="Rectangle-9" fill-opacity="0.7" fill="#FFFFFF" x="5.89285714" y="10.7142857" width="13.3928571" height="3.75" rx="4.28571429"></rect>
            </g>
            <g id="Rectangle-7-+-Rectangle-8-+-Rectangle-9" transform="translate(2.000000, 30.928571)" sketch:type="MSShapeGroup">
                <rect id="Rectangle-7" stroke="#FFFFFF" stroke-width="3.21428571" x="0" y="0" width="25.1785714" height="19.8214286" rx="4.28571429"></rect>
                <rect id="Rectangle-8" fill="#FFFFFF" x="5.89285714" y="4.82142857" width="13.3928571" height="3.75" rx="4.28571429"></rect>
                <rect id="Rectangle-9" fill="#FFFFFF" x="5.89285714" y="10.7142857" width="13.3928571" height="3.75" rx="4.28571429"></rect>
            </g>
            <g id="Rectangle-7-+-Rectangle-8-+-Rectangle-9" transform="translate(36.687500, 2.000000)" sketch:type="MSShapeGroup">
                <rect id="Rectangle-7" stroke="#FFFFFF" stroke-width="3.21428571" x="0.133928571" y="0" width="25.1785714" height="19.8214286" rx="4.28571429"></rect>
                <rect id="Rectangle-8" fill="#FFFFFF" x="6.02678571" y="4.82142857" width="13.3928571" height="3.75" rx="4.28571429"></rect>
                <rect id="Rectangle-9" fill="#FFFFFF" x="6.02678571" y="10.7142857" width="13.3928571" height="3.75" rx="4.28571429"></rect>
            </g>
            <path d="M26.6428571,32 L26.6428571,21.2857143 L37.3571429,26.6428571 L26.6428571,32 Z" id="Triangle-1" opacity="0.4" fill="#FFFFFF" sketch:type="MSShapeGroup" transform="translate(32.000000, 26.642857) scale(-1, 1) rotate(45.000000) translate(-32.000000, -26.642857) "></path>
            <path d="M43.7857143,38.9642857 L43.7857143,28.25 L54.5,33.6071429 L43.7857143,38.9642857 Z" id="Triangle-2" fill-opacity="0.700000286" fill="#FFFFFF" sketch:type="MSShapeGroup" transform="translate(49.142857, 33.607143) rotate(90.000000) translate(-49.142857, -33.607143) "></path>
        </g>
    </g>
</svg>