<?xml version="1.0" encoding="utf-8"?>
<!-- Generator: Adobe Illustrator 16.0.0, SVG Export Plug-In . SVG Version: 6.00 Build 0)  -->
<!DOCTYPE svg PUBLIC "-//W3C//DTD SVG 1.1//EN" "http://www.w3.org/Graphics/SVG/1.1/DTD/svg11.dtd">
<svg version="1.1" id="Layer_1" xmlns="http://www.w3.org/2000/svg" xmlns:xlink="http://www.w3.org/1999/xlink" x="0px" y="0px"
	 width="342px" height="121px" viewBox="0 0 342 121" enable-background="new 0 0 342 121" xml:space="preserve">
<g>
	<path fill="#FFFFFF" d="M73.153,44.457c-0.423,0-0.893-0.086-1.411-0.259c-0.519-0.174-0.97-0.432-1.354-0.778h-1.152
		c-0.654,0-1.421,0-2.304,0c-0.884,0-1.882,0.021-2.995,0.058c-1.536,0.078-3.216,0.136-5.04,0.173
		c-1.824,0.039-3.754,0.058-5.789,0.058c-0.538,0-1.065-0.009-1.584-0.028c-0.518-0.019-1.027-0.029-1.526-0.029
		c0.038,1.345,0.086,2.67,0.144,3.975c0.058,1.306,0.144,2.592,0.259,3.859c1.037-0.038,2.256-0.115,3.658-0.23
		c1.401-0.115,2.823-0.23,4.262-0.346c1.44-0.115,2.823-0.239,4.147-0.374c1.325-0.135,2.428-0.26,3.312-0.375
		c0.345-0.076,0.681-0.162,1.008-0.259c0.326-0.096,0.643-0.201,0.951-0.317h-0.058c0.383-0.268,0.825-0.402,1.325-0.402
		c0.422,0,0.778,0.086,1.065,0.259c0.289,0.173,0.566,0.394,0.835,0.663c0.23,0.23,0.403,0.518,0.518,0.863
		c0.115,0.346,0.173,0.691,0.173,1.037c0,0.423-0.086,0.816-0.26,1.181c-0.172,0.365-0.471,0.7-0.893,1.008
		c-0.538,0.423-1.152,0.711-1.843,0.864c-0.691,0.153-1.421,0.308-2.188,0.461c-0.96,0.153-2.083,0.297-3.37,0.432
		c-1.287,0.135-2.649,0.26-4.09,0.374c-1.44,0.116-2.88,0.222-4.32,0.317s-2.794,0.163-4.061,0.201v1.095
		c0.038,1.114,0.087,2.382,0.144,3.802c0.058,1.421,0.125,2.88,0.202,4.377c0.077,1.498,0.144,2.967,0.202,4.406
		c0.058,1.44,0.124,2.755,0.202,3.946v0.288c0,0.806-0.27,1.401-0.807,1.785c-0.538,0.384-1.133,0.576-1.785,0.576
		c-0.654,0-1.277-0.212-1.873-0.634c-0.596-0.423-0.893-1.056-0.893-1.9c-0.039-0.884-0.077-1.767-0.115-2.649
		c-0.039-0.884-0.096-1.805-0.172-2.765c-0.154-2.151-0.289-4.292-0.404-6.423c-0.115-2.131-0.172-4.041-0.172-5.731
		c-0.423-0.076-0.922-0.211-1.498-0.403c-0.5-0.23-0.874-0.547-1.123-0.95c-0.25-0.403-0.394-0.835-0.432-1.296v-0.173
		c0-0.346,0.115-0.71,0.346-1.095c0.23-0.383,0.556-0.671,0.979-0.863c0.307-0.076,0.595-0.163,0.864-0.26
		c0.269-0.095,0.499-0.182,0.691-0.259c-0.039-1.074-0.087-2.333-0.144-3.772c-0.058-1.44-0.125-2.871-0.202-4.292h-1.901
		c-0.346,0.308-0.845,0.461-1.498,0.461c-0.384,0-0.806-0.058-1.267-0.173c-0.921-0.307-1.613-0.758-2.074-1.354
		c-0.461-0.595-0.711-1.219-0.749-1.872c0-0.691,0.268-1.296,0.806-1.813c0.538-0.52,1.325-0.778,2.362-0.778h0.46
		c1.305,0.115,2.784,0.201,4.436,0.259c1.65,0.059,3.398,0.087,5.241,0.087c2.15,0,4.32-0.02,6.509-0.058
		c2.188-0.038,4.281-0.096,6.278-0.173c1.459-0.038,2.832-0.067,4.119-0.087c1.286-0.019,2.409-0.028,3.37-0.028
		c0.883,0,1.728,0.106,2.535,0.317c0.806,0.211,1.401,0.527,1.786,0.949c0.613,0.73,0.921,1.498,0.921,2.305
		c0,0.308-0.029,0.586-0.086,0.835c-0.058,0.251-0.183,0.489-0.375,0.72C74.882,43.978,74.113,44.38,73.153,44.457z"/>
	<path fill="#FFFFFF" d="M95.243,70.204c-0.365,0.5-1.008,0.807-1.93,0.922c-0.576,0.077-1.334,0.259-2.275,0.547
		c-0.941,0.288-1.93,0.644-2.966,1.066c-0.96,0.345-1.911,0.681-2.851,1.008c-0.941,0.325-1.795,0.585-2.563,0.777
		c-1.229,0.307-2.285,0.461-3.168,0.461c-1.536,0-2.746-0.395-3.629-1.181c-0.883-0.788-1.575-2.046-2.073-3.772
		c-0.115-0.423-0.202-0.912-0.259-1.47c-0.058-0.556-0.087-1.123-0.087-1.699c0-0.422,0.009-0.796,0.029-1.123
		c0.019-0.325,0.048-0.624,0.086-0.893c0.077-0.883,0.202-1.747,0.375-2.593c0.173-0.844,0.375-1.65,0.605-2.418
		c-0.154-0.153-0.23-0.403-0.23-0.75c0-0.152,0.009-0.277,0.029-0.374c0.019-0.095,0.047-0.201,0.086-0.317
		c0.191-0.422,0.451-0.921,0.777-1.496c0.326-0.577,0.643-1.018,0.951-1.325c0.537-0.423,1.152-0.634,1.843-0.634
		c0.384,0,0.787,0.077,1.21,0.23c0.537,0.192,0.959,0.471,1.267,0.835c0.307,0.365,0.461,0.759,0.461,1.181
		c0,0.346-0.058,0.654-0.173,0.922c-0.423,0.769-0.835,1.795-1.238,3.081c-0.403,1.288-0.644,2.545-0.72,3.772v0.922
		c0,1.037,0.077,1.844,0.23,2.42c0.23,0.807,0.71,1.209,1.44,1.209c0.153,0,0.307,0,0.461,0c0.153,0,0.345-0.037,0.576-0.114
		c0.538-0.077,1.171-0.25,1.901-0.519c0.729-0.269,1.478-0.557,2.247-0.864c1.305-0.538,2.621-1.037,3.946-1.498
		c1.324-0.461,2.448-0.691,3.369-0.691h0.115c0.883,0,1.545,0.27,1.987,0.808c0.441,0.537,0.681,1.151,0.72,1.843v0.114
		C95.79,69.168,95.608,69.705,95.243,70.204z M86.459,46.127c0,0.577-0.125,1.152-0.374,1.729c-0.25,0.576-0.644,1.057-1.181,1.439
		c-0.769,0.5-1.517,0.749-2.247,0.749c-0.46,0-0.941-0.086-1.439-0.259c-0.5-0.173-0.96-0.47-1.383-0.894
		c-0.73-0.806-1.094-1.707-1.094-2.707c0-0.537,0.134-1.084,0.403-1.641s0.691-1.047,1.268-1.469
		c0.614-0.461,1.363-0.691,2.246-0.691c0.807,0,1.556,0.23,2.247,0.691h0.058C85.96,43.844,86.459,44.86,86.459,46.127z"/>
	<path fill="#FFFFFF" d="M111.918,62.485c-0.193,0-0.403-0.019-0.634-0.058c-0.23-0.037-0.441-0.134-0.633-0.287h0.057
		c-0.538-0.23-0.941-0.347-1.209-0.347c-0.078,0-0.193,0-0.346,0c-0.115,0-0.211,0.021-0.288,0.059
		c-0.538,0.077-1.19,0.23-1.958,0.461c-0.769,0.23-1.565,0.527-2.39,0.893c-0.826,0.365-1.67,0.777-2.535,1.238
		c-0.864,0.461-1.661,0.922-2.391,1.382c-1.114,0.691-1.881,1.383-2.304,2.074c-0.308,0.499-0.5,0.95-0.576,1.354
		c-0.078,0.403-0.154,0.855-0.23,1.354V70.55c-0.078,0.846-0.366,1.469-0.864,1.872c-0.5,0.403-1.075,0.604-1.728,0.604
		c-0.653,0-1.238-0.221-1.757-0.662c-0.518-0.441-0.797-1.104-0.835-1.987c-0.039-0.384-0.058-0.768-0.058-1.152
		c0-0.422,0-0.864,0-1.324v-2.649c0-0.883,0.019-1.719,0.058-2.506c0.038-0.787,0.095-1.487,0.173-2.103
		c-0.308-0.192-0.461-0.498-0.461-0.922c0-0.268,0.096-0.537,0.288-0.806c0.345-0.576,0.652-1.21,0.921-1.901v0.058
		c0.192-0.537,0.49-0.911,0.893-1.123c0.403-0.211,0.835-0.316,1.296-0.316c0.076,0,0.21,0.02,0.403,0.057
		c0.191,0.039,0.403,0.059,0.634,0.059c0.422,0.153,0.806,0.413,1.152,0.777c0.345,0.365,0.518,0.816,0.518,1.354
		c0,0.077-0.01,0.154-0.029,0.23c-0.02,0.077-0.029,0.154-0.029,0.23c-0.115,0.423-0.211,0.979-0.288,1.67
		c-0.077,0.691-0.135,1.325-0.172,1.901c0.076-0.038,0.134-0.066,0.172-0.087c0.038-0.019,0.096-0.066,0.173-0.144
		c0.077-0.077,0.173-0.135,0.288-0.173c0.807-0.576,1.747-1.143,2.822-1.699c1.075-0.557,2.179-1.057,3.312-1.498
		c1.132-0.441,2.246-0.815,3.34-1.123c1.095-0.307,2.083-0.479,2.966-0.518h0.23c0.768,0,1.459,0.114,2.074,0.345
		c0.614,0.23,1.074,0.461,1.382,0.691c0.653,0.499,0.98,1.133,0.98,1.901c0,0.652-0.173,1.229-0.519,1.728h0.058
		C113.376,62.103,112.724,62.485,111.918,62.485z"/>
	<path fill="#FFFFFF" d="M171.073,70.492c-0.424,0.346-0.903,0.538-1.441,0.576c-0.191,0-0.364-0.038-0.518-0.115
		c0.076,0.077,0.066,0.096-0.029,0.058c-0.096-0.037-0.221-0.076-0.373-0.115c-0.27,0.078-0.635,0.164-1.096,0.259
		c-0.461,0.097-0.959,0.202-1.497,0.317s-1.095,0.25-1.671,0.403c-0.575,0.153-1.133,0.308-1.67,0.461
		c-1.382,0.536-2.688,0.806-3.916,0.806c-1,0-1.939-0.172-2.822-0.519c-0.885-0.345-1.69-0.94-2.42-1.785
		c-0.922-1.036-1.642-2.247-2.16-3.629c-0.518-1.383-0.988-2.88-1.411-4.493c-0.192-0.575-0.403-0.863-0.634-0.863
		c-0.538,0-1.479,0.48-2.822,1.439c-0.27,0.154-0.653,0.452-1.152,0.893c-0.498,0.442-1.057,0.971-1.669,1.585
		c-0.615,0.614-1.238,1.267-1.873,1.958c-0.633,0.691-1.237,1.383-1.814,2.074c-0.308,0.422-0.701,0.748-1.18,0.979
		c-0.48,0.23-0.99,0.346-1.527,0.346c-0.538,0-1.057-0.125-1.555-0.375c-0.5-0.249-0.884-0.623-1.152-1.123
		c-0.308-0.576-0.567-1.181-0.778-1.814c-0.211-0.633-0.413-1.238-0.605-1.813h0.058c-0.192-0.538-0.385-1.057-0.577-1.556
		c-0.192-0.498-0.403-1.018-0.633-1.556v0.058c-0.116-0.191-0.25-0.288-0.403-0.288c-0.078,0-0.135,0.011-0.173,0.029
		c-0.038,0.021-0.096,0.028-0.172,0.028c-0.5,0.116-1.038,0.52-1.613,1.21c-0.423,0.614-0.902,1.21-1.44,1.786
		c-0.538,0.575-1.094,1.19-1.67,1.843c-0.461,0.461-0.884,0.941-1.267,1.439c-0.729,0.808-1.392,1.633-1.987,2.478
		s-1.086,1.574-1.469,2.188c-0.308,0.499-0.702,0.864-1.181,1.095c-0.48,0.23-0.932,0.346-1.354,0.346
		c-0.23,0-0.461-0.021-0.691-0.058c-0.23-0.039-0.441-0.116-0.633-0.23h0.058c-1.114-0.538-1.709-1.46-1.786-2.765
		c-0.078-1.037-0.125-2.169-0.144-3.398c-0.02-1.229-0.029-2.457-0.029-3.688c0-1.573,0.009-3.062,0.029-4.463
		c0.019-1.401,0.066-2.525,0.144-3.37c0.115-0.883,0.432-1.526,0.951-1.929c0.518-0.404,1.123-0.605,1.814-0.605h0.115
		c0.653,0,1.249,0.222,1.786,0.662c0.538,0.442,0.806,1.047,0.806,1.814v0.173c-0.077,1.076-0.134,2.198-0.173,3.37
		c-0.038,1.172-0.057,2.332-0.057,3.484v1.268c0.153-0.192,0.306-0.375,0.461-0.548c0.152-0.173,0.325-0.354,0.518-0.547
		c0.384-0.423,0.777-0.864,1.181-1.325s0.815-0.94,1.239-1.439l0.806-0.979c0.69-0.844,1.555-1.642,2.592-2.39
		c1.036-0.75,2.073-1.219,3.109-1.412c0.153-0.037,0.308-0.057,0.461-0.057c0.153,0,0.326,0,0.519,0
		c0.806,0,1.564,0.221,2.275,0.661c0.711,0.442,1.334,1.22,1.872,2.333c0.192,0.538,0.403,1.095,0.634,1.671
		c0.229,0.576,0.44,1.114,0.633,1.612c0.116,0.461,0.231,0.788,0.346,0.979c0.077,0.077,0.077,0.115,0,0.115l0.23-0.115
		c0.345-0.346,0.739-0.738,1.18-1.181c0.441-0.441,0.893-0.883,1.354-1.325c0.461-0.44,0.912-0.864,1.353-1.267
		c0.441-0.403,0.836-0.758,1.182-1.066c2.726-2.265,5.068-3.398,7.027-3.398h0.115c2.266,0,3.744,1.537,4.436,4.608
		c0.268,1.345,0.643,2.679,1.123,4.004c0.479,1.324,1.008,2.333,1.584,3.023c0.422,0.461,0.922,0.691,1.498,0.691
		c0.498,0,0.998-0.096,1.496-0.288c0.691-0.23,1.412-0.451,2.16-0.662c0.75-0.211,1.498-0.423,2.246-0.634
		c0.75-0.211,1.46-0.384,2.132-0.519s1.239-0.221,1.7-0.26h0.346c0.537,0,0.986,0.068,1.353,0.202
		c0.364,0.135,0.7,0.337,1.008,0.604v-0.057c0.538,0.46,0.808,1.018,0.808,1.67c0,0.499-0.174,0.979-0.52,1.439v-0.058
		C171.821,69.802,171.495,70.146,171.073,70.492z"/>
	<path fill="#FFFFFF" d="M190.081,59.146c0,1.728-0.52,3.533-1.556,5.414v-0.058c-0.461,0.96-1.036,1.958-1.728,2.995
		s-1.461,2.016-2.305,2.938c-1.307,1.46-2.736,2.736-4.291,3.831c-1.556,1.094-3.158,2.179-4.81,3.254h0.058
		c-0.461,0.307-0.96,0.461-1.498,0.461c-0.806,0-1.536-0.499-2.188-1.498c-0.192-0.384-0.288-0.748-0.288-1.095
		c0-0.96,0.365-1.708,1.094-2.246c1.729-1.113,3.273-2.149,4.637-3.109c1.363-0.961,2.545-2.055,3.543-3.284
		c0.652-0.729,1.258-1.526,1.814-2.391s0.988-1.622,1.297-2.274c0.422-0.845,0.633-1.498,0.633-1.959c0-0.23-0.058-0.461-0.174-0.69
		c-0.229-0.23-0.633-0.347-1.209-0.347c-0.076,0-0.172,0-0.287,0s-0.27,0.021-0.461,0.059c-0.885,0.077-1.969,0.326-3.255,0.748
		c-1.286,0.424-2.544,1.018-3.772,1.786c-0.615,0.384-1.181,0.816-1.699,1.296c-0.52,0.48-0.912,0.989-1.182,1.526
		c-0.076,0.154-0.125,0.269-0.144,0.346c-0.02,0.077-0.048,0.153-0.086,0.23l-0.173,0.461l0.057-0.058
		c-0.037,0.192-0.066,0.374-0.086,0.547s-0.028,0.316-0.028,0.432c0,0.27,0.009,0.519,0.028,0.749s0.049,0.461,0.086,0.691v0.519
		c-0.076,0.883-0.354,1.546-0.834,1.987s-1.047,0.662-1.699,0.662c-0.538,0-1.076-0.192-1.613-0.576
		c-0.538-0.383-0.902-1.017-1.094-1.901c-0.193-0.806-0.316-1.756-0.375-2.851c-0.058-1.095-0.086-2.255-0.086-3.485
		c0-1.766,0.066-3.647,0.201-5.645c0.135-1.996,0.307-3.945,0.519-5.847c0.21-1.9,0.45-3.686,0.72-5.356
		c0.269-1.67,0.519-3.082,0.749-4.233c0.114-0.614,0.23-1.171,0.347-1.67c0.113-0.499,0.363-0.979,0.748-1.44
		c0.498-0.844,1.285-1.268,2.361-1.268h0.23c0.652,0,1.209,0.193,1.67,0.576c0.461,0.385,0.691,0.902,0.691,1.555v0.347
		c-0.039,0.345-0.135,0.69-0.287,1.036c-0.155,0.346-0.289,0.653-0.404,0.922c-0.154,0.308-0.23,0.48-0.23,0.519l0.058-0.058
		c-0.153,0.999-0.327,2.131-0.519,3.398c-0.192,1.267-0.373,2.602-0.547,4.003c-0.172,1.402-0.336,2.852-0.489,4.349
		c-0.153,1.498-0.288,2.996-0.403,4.493c0.346-0.307,0.721-0.585,1.123-0.835c0.404-0.25,0.797-0.49,1.182-0.721
		c1.036-0.575,2.293-1.113,3.771-1.612s2.947-0.845,4.406-1.037h-0.057c0.307-0.076,0.595-0.115,0.863-0.115
		c0.307,0,0.614,0,0.922,0c1.113,0,2.064,0.173,2.852,0.519c0.786,0.346,1.449,0.788,1.986,1.324h0.059
		C189.696,56.419,190.081,57.647,190.081,59.146z"/>
	<path fill="#FFFFFF" d="M249.977,70.319c0.346,0.461,0.518,0.999,0.518,1.613c0,0.423-0.096,0.825-0.287,1.209
		c-0.193,0.384-0.559,0.729-1.096,1.037c-0.537,0.307-1.133,0.547-1.785,0.721c-0.653,0.172-1.345,0.258-2.074,0.258
		c-0.998,0-2.016-0.183-3.052-0.547c-1.038-0.365-2.055-0.95-3.054-1.757c-0.883-0.767-1.747-1.603-2.592-2.505
		c-0.846-0.902-1.689-1.872-2.534-2.909c-1.651,1.19-3.427,2.554-5.328,4.089c-1.899,1.536-3.753,3.072-5.558,4.609
		c-0.078,0.536-0.337,1.065-0.778,1.583c-0.442,0.519-0.989,0.874-1.642,1.065c-0.154,0.039-0.402,0.059-0.749,0.059
		c-0.883,0-1.583-0.289-2.102-0.864c-0.519-0.576-0.778-1.249-0.778-2.017c0-0.921,0.385-1.767,1.152-2.534
		c0.768-0.69,1.574-1.401,2.42-2.131c0.844-0.729,1.785-1.497,2.822-2.305c1.036-0.806,2.178-1.688,3.427-2.649
		c1.247-0.959,2.659-2.054,4.233-3.283c-0.115-0.152-0.222-0.297-0.316-0.432c-0.097-0.134-0.184-0.259-0.26-0.375
		c-0.309-0.537-0.586-1.026-0.834-1.469c-0.252-0.44-0.472-0.796-0.663-1.065c-0.845-0.076-1.46-0.403-1.844-0.979
		c-0.192-0.308-0.298-0.652-0.316-1.037c-0.02-0.384-0.028-0.749-0.028-1.095v-0.288c0.076-0.767,0.402-1.43,0.979-1.986
		s1.248-0.835,2.016-0.835c0.729,0,1.421,0.326,2.074,0.979c0.307,0.423,0.643,0.912,1.008,1.469s0.721,1.123,1.065,1.699
		c0.23,0.423,0.461,0.826,0.691,1.209c0.23,0.385,0.441,0.711,0.634,0.98c0.498-0.384,1.008-0.769,1.526-1.152
		s1.065-0.787,1.642-1.21c1.344-0.998,2.668-1.987,3.975-2.966c1.305-0.98,2.477-1.872,3.514-2.68h-0.059
		c0.269-0.229,0.538-0.383,0.807-0.46c0.27-0.076,0.52-0.115,0.748-0.115c0.424,0,0.797,0.115,1.124,0.346
		c0.327,0.229,0.624,0.499,0.894,0.807v-0.058c0.422,0.422,0.633,0.979,0.633,1.67c0,0.346-0.077,0.701-0.23,1.065
		c-0.154,0.366-0.441,0.721-0.863,1.065c-0.615,0.461-1.26,0.951-1.93,1.469c-0.672,0.52-1.393,1.047-2.16,1.585
		c-1.115,0.768-2.238,1.575-3.369,2.419c-1.134,0.845-2.256,1.709-3.371,2.592c0.73,0.999,1.441,1.882,2.132,2.649
		c0.691,0.769,1.362,1.402,2.017,1.9c0.959,0.769,1.9,1.152,2.822,1.152c0.23,0,0.461-0.019,0.691-0.058
		c0.23-0.037,0.439-0.115,0.633-0.23c0.576-0.268,1.074-0.403,1.498-0.403C248.901,69.225,249.553,69.591,249.977,70.319z"/>
	<path fill="#6F7A82" d="M210.402,75.706c0.63-0.981,0.102-2.683-3.908-2.845c-1.085-0.045-9.389-0.01-9.538-0.895
		c-0.227-1.335,1.129-5.955,1.129-5.955c0.564-3.016,1.102-5.895,1.499-8.02c0.196-1.062,3.295-0.723,9.269-0.444
		c0,0,3.586,0.121,3.954,0.608c0.369,0.488-0.054,3.799-0.282,4.895c-0.84,4.043-2.842,9.932-0.322,10.818
		c3.626,1.275,5.952-14.964,6.418-17.105c0.087-0.401,0.065-0.33,0.107-1.227c0.055-1.166-0.337-1.653-1.255-2.115
		c-0.946-0.475-2.676-0.394-3.703-0.44c-1.271-0.058-2.542-0.113-3.813-0.172c-2.195-0.101-4.33-0.467-6.651-0.597
		c-2.312-0.129-4.054-0.011-5.987,1.067c-1.868,1.042-2.092,2.774-2.459,4.711c-0.402,2.125-0.947,5.004-1.516,8.02l-0.856,4.548
		l-0.415,2.208c-0.083,0.439-0.246,0.931-0.247,1.381c-0.002,1.373,1.226,2.766,2.526,2.939
		C196.138,77.328,209.045,77.293,210.402,75.706"/>
	<g>
		<g>
			<defs>
				<polygon id="SVGID_1_" points="182.375,75.973 221.175,75.973 227.255,43.619 188.454,43.619 				"/>
			</defs>
			<clipPath id="SVGID_2_">
				<use xlink:href="#SVGID_1_"  overflow="visible"/>
			</clipPath>
		</g>
		<g>
			<defs>
				<polygon id="SVGID_3_" points="182.375,75.973 221.175,75.973 227.255,43.619 188.454,43.619 				"/>
			</defs>
			<clipPath id="SVGID_4_">
				<use xlink:href="#SVGID_3_"  overflow="visible"/>
			</clipPath>
			<path clip-path="url(#SVGID_4_)" fill="#FBB03C" d="M209.318,73.973c0.63-0.981,0.102-2.684-3.908-2.846
				c-1.085-0.044-9.389-0.01-9.538-0.894c-0.227-1.335,1.129-5.956,1.129-5.956c0.564-3.015,1.102-5.895,1.499-8.019
				c0.196-1.062,3.295-0.723,9.269-0.444c0,0,3.586,0.121,3.954,0.608c0.369,0.488-0.054,3.798-0.282,4.894
				c-0.84,4.043-2.842,9.932-0.322,10.818c3.626,1.275,5.952-14.964,6.418-17.105c0.087-0.401,0.065-0.33,0.107-1.227
				c0.055-1.166-0.337-1.653-1.255-2.115c-0.946-0.475-2.676-0.394-3.703-0.44c-1.271-0.058-2.542-0.113-3.813-0.172
				c-2.195-0.101-4.33-0.467-6.651-0.597c-2.312-0.129-4.054-0.011-5.987,1.067c-1.868,1.042-2.092,2.774-2.459,4.711
				c-0.402,2.125-0.947,5.004-1.516,8.019l-0.856,4.549l-0.415,2.207c-0.083,0.44-0.246,0.932-0.247,1.381
				c-0.002,1.373,1.226,2.766,2.526,2.94C195.054,75.594,207.961,75.559,209.318,73.973"/>
		</g>
		<g>
			<defs>
				<polygon id="SVGID_5_" points="182.375,75.973 221.175,75.973 227.255,43.619 188.454,43.619 				"/>
			</defs>
			<clipPath id="SVGID_6_">
				<use xlink:href="#SVGID_5_"  overflow="visible"/>
			</clipPath>
		</g>
	</g>
</g>
</svg>
