<?xml version="1.0" encoding="UTF-8" standalone="no"?>
<svg width="24px" height="24px" viewBox="0 0 24 24" version="1.1" xmlns="http://www.w3.org/2000/svg" xmlns:xlink="http://www.w3.org/1999/xlink" xmlns:sketch="http://www.bohemiancoding.com/sketch/ns">
    <!-- Generator: Sketch 3.1 (8751) - http://www.bohemiancoding.com/sketch -->
    <title>tfre_db_machine</title>
    <desc>Created with Sketch.</desc>
    <defs></defs>
    <g id="ADC" stroke="none" stroke-width="1" fill="none" fill-rule="evenodd" sketch:type="MSPage">
        <g id="adc_services" sketch:type="MSArtboardGroup" transform="translate(-24.000000, -112.000000)" stroke-opacity="0.600000024" stroke="#000000">
            <g id="tfre_db_machine" sketch:type="MSLayerGroup" transform="translate(24.000000, 112.000000)">
                <g id="data-5" transform="translate(5.000000, 12.000000)" sketch:type="MSShapeGroup">
                    <g id="data">
                        <path d="M0.134923379,1.16377657 L0.134923379,8.31772766 C0.133289962,8.32342817 0.132567852,8.32897875 0.132567852,8.33471369 C0.132567852,8.34044863 0.133289962,8.34741471 0.134923379,8.35311523 L0.134923379,8.36727025 L0.139634435,8.36727025 C0.323946746,8.71984686 3.61504021,9 7.64434549,9 C11.6723799,9 14.9628425,8.71969013 15.1490565,8.36727025 L15.1561231,8.36727025 L15.1561231,8.35311523 C15.1577565,8.34741471 15.1584787,8.34044863 15.1584787,8.33471369 C15.1584787,8.32897875 15.1577565,8.32342817 15.1561231,8.31772766 L15.1561231,1.16377657 C15.1555548,1.16426187 15.1543774,1.16470732 15.1537676,1.16519207 C15.0175344,1.52167003 11.7054176,1.80641484 7.64434549,1.80641484 C3.58327338,1.80641484 0.273511319,1.52167003 0.137278907,1.16519207 C0.136669108,1.16470732 0.135490967,1.16426187 0.134923379,1.16377657 L0.134923379,1.16377657 Z" id="path5588"></path>
                        <path d="M15.1590701,0.686890223 C15.1590701,1.06505772 11.7951409,1.37162305 7.64552384,1.37162305 C3.4959068,1.37162305 0.131977546,1.06505772 0.131977546,0.686890223 C0.131977506,0.442258742 1.56405133,0.21620993 3.88875066,0.0938941883 C6.21344999,-0.0284215533 9.07759768,-0.0284215533 11.402297,0.0938941883 C13.7269963,0.21620993 15.1590702,0.442258742 15.1590701,0.686890223 L15.1590701,0.686890223 Z" id="path5584"></path>
                    </g>
                </g>
                <g id="data-6" transform="translate(5.000000, 4.000000)" sketch:type="MSShapeGroup">
                    <g id="data">
                        <path d="M0.134923379,1.16377657 L0.134923379,8.31772766 C0.133289962,8.32342817 0.132567852,8.32897875 0.132567852,8.33471369 C0.132567852,8.34044863 0.133289962,8.34741471 0.134923379,8.35311523 L0.134923379,8.36727025 L0.139634435,8.36727025 C0.323946746,8.71984686 3.61504021,9 7.64434549,9 C11.6723799,9 14.9628425,8.71969013 15.1490565,8.36727025 L15.1561231,8.36727025 L15.1561231,8.35311523 C15.1577565,8.34741471 15.1584787,8.34044863 15.1584787,8.33471369 C15.1584787,8.32897875 15.1577565,8.32342817 15.1561231,8.31772766 L15.1561231,1.16377657 C15.1555548,1.16426187 15.1543774,1.16470732 15.1537676,1.16519207 C15.0175344,1.52167003 11.7054176,1.80641484 7.64434549,1.80641484 C3.58327338,1.80641484 0.273511319,1.52167003 0.137278907,1.16519207 C0.136669108,1.16470732 0.135490967,1.16426187 0.134923379,1.16377657 L0.134923379,1.16377657 Z" id="path5588"></path>
                        <path d="M15.1590701,0.686890223 C15.1590701,1.06505772 11.7951409,1.37162305 7.64552384,1.37162305 C3.4959068,1.37162305 0.131977546,1.06505772 0.131977546,0.686890223 C0.131977506,0.442258742 1.56405133,0.21620993 3.88875066,0.0938941883 C6.21344999,-0.0284215533 9.07759768,-0.0284215533 11.402297,0.0938941883 C13.7269963,0.21620993 15.1590702,0.442258742 15.1590701,0.686890223 L15.1590701,0.686890223 Z" id="path5584"></path>
                    </g>
                </g>
            </g>
        </g>
    </g>
</svg>