<?xml version="1.0" encoding="UTF-8" standalone="no"?>
<svg width="24px" height="24px" viewBox="0 0 24 24" version="1.1" xmlns="http://www.w3.org/2000/svg" xmlns:xlink="http://www.w3.org/1999/xlink" xmlns:sketch="http://www.bohemiancoding.com/sketch/ns">
    <!-- Generator: Sketch 3.1 (8751) - http://www.bohemiancoding.com/sketch -->
    <title>tfre_db_zone</title>
    <desc>Created with Sketch.</desc>
    <defs></defs>
    <g id="ADC" stroke="none" stroke-width="1" fill="none" fill-rule="evenodd" sketch:type="MSPage">
        <g id="adc_services" sketch:type="MSArtboardGroup" transform="translate(-25.000000, -87.000000)">
            <g id="tfre_db_zone" sketch:type="MSLayerGroup" transform="translate(25.000000, 87.000000)">
                <g id="cogwheel-2" transform="translate(12.000000, 12.000000) rotate(22.000000) translate(-12.000000, -12.000000) translate(2.909091, 2.909091)" stroke="#000000" stroke-opacity="0.199643342" stroke-width="1.81818182" sketch:type="MSShapeGroup" fill="#FFFFFF" fill-opacity="0.332314312">
                    <g id="cw" transform="translate(-0.091786, -0.110054)">
                        <path d="M9.18269545,0.110054045 C8.56015909,0.110054045 7.95198182,0.175324955 7.36451364,0.294713159 L7.36451364,1.70096323 C6.57477727,1.89161595 5.83728636,2.1974678 5.16280909,2.61005418 L4.16849091,1.61573595 C3.6588,1.95349141 3.19297727,2.3497737 2.76224091,2.78050873 C2.33150455,3.21124386 1.93522273,3.67706795 1.59746818,4.18675886 L2.59178636,5.18107705 C2.1792,5.85555341 1.87335,6.59304386 1.68269545,7.38278159 L0.276445455,7.38278159 C0.157059091,7.97024864 0.0917863636,8.578425 0.0917863636,9.20096364 C0.0917863636,9.82350227 0.157059091,10.4316786 0.276445455,11.0191455 L1.68269545,11.0191455 C1.87335,11.8088832 2.1792,12.5463739 2.59178636,13.2208502 L1.59746818,14.2151684 C1.93522273,14.7248593 2.33150455,15.1906834 2.76224091,15.6214184 C3.19297727,16.0521534 3.6588,16.4484359 4.16849091,16.7861914 L5.16280909,15.791873 C5.83728636,16.2044593 6.57477727,16.5103114 7.36451364,16.7009641 L7.36451364,18.1072141 C7.95198182,18.2266023 8.56015455,18.2918732 9.18269545,18.2918732 C9.80523182,18.2918732 10.4134091,18.2266023 11.0008773,18.1072141 L11.0008773,16.7009641 C11.7906136,16.5103114 12.5281045,16.2044593 13.2025818,15.791873 L14.1969,16.7861914 C14.7065909,16.4484359 15.1724136,16.0521534 15.60315,15.6214184 C16.0338864,15.1906834 16.4301682,14.7248593 16.7679227,14.2151684 L15.7736045,13.2208502 C16.1861909,12.5463739 16.4920409,11.8088832 16.6826955,11.0191455 L18.0889455,11.0191455 C18.2083318,10.4316786 18.2736045,9.82350227 18.2736045,9.20096364 C18.2736045,8.578425 18.2083318,7.97024864 18.0889455,7.38278159 L16.6826955,7.38278159 C16.4920409,6.59304386 16.1861909,5.85555341 15.7736045,5.18107705 L16.7679227,4.18675886 C16.4301682,3.67706795 16.0338864,3.21124386 15.60315,2.78050873 C15.1724136,2.3497737 14.7065909,1.95349141 14.1969,1.61573595 L13.2025818,2.61005418 C12.5281045,2.1974678 11.7906136,1.89161595 11.0008773,1.70096323 L11.0008773,0.294713159 C10.4134091,0.175324955 9.80523182,0.110054045 9.18269545,0.110054045 L9.18269545,0.110054045 Z M9.18269545,4.65550886 C11.6917864,4.65550886 13.72815,6.6918725 13.72815,9.20096364 C13.72815,11.7100545 11.6917864,13.7464184 9.18269545,13.7464184 C6.67360455,13.7464184 4.63724091,11.7100545 4.63724091,9.20096364 C4.63724091,6.6918725 6.67360455,4.65550886 9.18269545,4.65550886 L9.18269545,4.65550886 Z"></path>
                    </g>
                </g>
                <path d="M6.01281923,4.98925781 L18.4630475,4.98925781 L18.4630475,7.83474681 L10.4801398,16.1672709 L18.7543945,16.1672709 L18.7543945,19.2264144 L5.24560547,19.2264144 L5.24560547,16.2740981 L13.1411091,8.02897814 L6.01281923,8.02897814 L6.01281923,4.98925781 Z" id="Z-2" fill-opacity="0.590000391" fill="#000000" sketch:type="MSShapeGroup"></path>
            </g>
        </g>
    </g>
</svg>