<?xml version="1.0" encoding="UTF-8" standalone="no"?>
<svg width="25px" height="24px" viewBox="0 0 25 24" version="1.1" xmlns="http://www.w3.org/2000/svg" xmlns:xlink="http://www.w3.org/1999/xlink" xmlns:sketch="http://www.bohemiancoding.com/sketch/ns">
    <!-- Generator: Sketch 3.1 (8751) - http://www.bohemiancoding.com/sketch -->
    <title>tfre_db_datalink_ipmp</title>
    <desc>Created with Sketch.</desc>
    <defs></defs>
    <g id="ADC" stroke="none" stroke-width="1" fill="none" fill-rule="evenodd" sketch:type="MSPage">
        <g id="adc_services" sketch:type="MSArtboardGroup" transform="translate(-127.000000, -87.000000)">
            <g id="tfre_db_datalink_ipmp" sketch:type="MSLayerGroup" transform="translate(127.220703, 87.000000)">
                <g id="ether-2" transform="translate(5.000000, 11.000000)" sketch:type="MSShapeGroup">
                    <g id="ether">
                        <path d="M13.5106701,2.79266403 L13.9817811,2.79266403 L13.9884193,6.83187032 L13.4974031,6.83187032 L13.4841267,8.5046729 L3.25240449,8.5046729 L3.25240449,1.07906129 L13.4841267,1.07906129 L13.510667,2.79266403 L13.5106701,2.79266403 Z" id="2" fill-opacity="0.25" fill="#000000"></path>
                        <path d="M8.40530763,3.06267232 L6.73867849,3.58627313 L6.73867849,6.37427748 L8.40530763,6.87747829 L8.40530763,9.97148313 L1.43910461,9.98508313 L0.851962004,9.95788313 L0.70823432,9.90348297 L0.530868337,9.77428281 L0.387140726,9.57708248 L0.249529123,9.271082 L0.163904208,8.93108152 L0.111917593,8.62508103 L0.0782792201,8.20348039 L0.0752213246,2.04947071 L0.0691055337,1.79787039 L0.0813376955,1.5054699 L0.12720823,1.16546926 L0.166962683,0.988669097 L0.252587598,0.716668613 L0.38102508,0.45826821 L0.552274982,0.227067839 L0.781627581,0.0502675645 L0.974283767,-0.0449325806 L1.48191754,-0.0177325323 L5.4053759,-0.0177325323 L8.40530836,-0.0449325806 L8.40530836,3.06267232 L8.40530763,3.06267232 Z" id="3" opacity="0.697936101" fill="#000000"></path>
                        <path d="M3.69477982,6.28050153 L6.04144549,6.28050153 L6.04144549,3.56908355 L3.6246688,3.56908355 C3.6246688,3.56908355 2.45339777,3.59553636 2.47814298,4.91377048 C2.47814298,6.23200459 3.69477982,6.28050153 3.69477982,6.28050153 L3.69477982,6.28050153 Z" id="4" opacity="0.504897388" fill="#000000"></path>
                        <path id="16" stroke-opacity="0.600000024" stroke="#000000" d="M9.24413551,8.5114729 L9.24413551,1.08586129"></path>
                        <path id="17" opacity="0.5" fill-opacity="0.600000024" fill="#000000" d="M11.9646328,2.33706323 L13.4774933,2.33706323 L13.4774933,1.87466258 L11.9646328,1.87466258 L11.9646328,2.33706323 L11.9646328,2.33706323 Z"></path>
                        <path id="18" opacity="0.5" fill-opacity="0.600000024" fill="#000000" d="M11.9646328,3.10546452 L13.4774933,3.10546452 L13.4774933,2.64986371 L11.9646328,2.64986371 L11.9646328,3.10546452 L11.9646328,3.10546452 Z"></path>
                        <path id="19" opacity="0.5" fill-opacity="0.600000024" fill="#000000" d="M11.9646328,3.87386565 L13.4774933,3.87386565 L13.4774933,3.418265 L11.9646328,3.418265 L11.9646328,3.87386565 L11.9646328,3.87386565 Z"></path>
                        <path id="20" opacity="0.5" fill-opacity="0.600000024" fill="#000000" d="M11.9646328,4.64906694 L13.4774933,4.64906694 L13.4774933,4.18666613 L11.9646328,4.18666613 L11.9646328,4.64906694 L11.9646328,4.64906694 Z"></path>
                        <path id="21" opacity="0.5" fill-opacity="0.600000024" fill="#000000" d="M11.9646328,5.41746806 L13.4774933,5.41746806 L13.4774933,4.95506742 L11.9646328,4.95506742 L11.9646328,5.41746806 L11.9646328,5.41746806 Z"></path>
                        <path id="22" opacity="0.5" fill-opacity="0.600000024" fill="#000000" d="M11.9646328,6.19266935 L13.4774933,6.19266935 L13.4774933,5.72346855 L11.9646328,5.72346855 L11.9646328,6.19266935 L11.9646328,6.19266935 Z"></path>
                        <path id="23" opacity="0.5" fill-opacity="0.600000024" fill="#000000" d="M11.9646328,6.96107048 L13.4774933,6.96107048 L13.4774933,6.50546984 L11.9646328,6.50546984 L11.9646328,6.96107048 L11.9646328,6.96107048 Z"></path>
                        <path id="24" opacity="0.5" fill-opacity="0.600000024" fill="#000000" d="M11.9646328,7.72947161 L13.4774933,7.72947161 L13.4774933,7.26707097 L11.9646328,7.26707097 L11.9646328,7.72947161 L11.9646328,7.72947161 Z"></path>
                    </g>
                </g>
                <path d="M2.92871094,3 L6.42089844,3 L7.76855469,6.65075034 L9.11035156,3 L12.5908203,3 L12.5908203,9 L10.4228516,9 L10.4228516,4.42428377 L8.74121094,9 L6.77832031,9 L5.10253906,4.42428377 L5.10253906,9 L2.92871094,9 L2.92871094,3 Z M14.2724609,3 L18.6845703,3 C19.6455126,3 20.365232,3.15961641 20.84375,3.47885402 C21.322268,3.79809164 21.5615234,4.2523845 21.5615234,4.84174625 C21.5615234,5.44747915 21.3007839,5.92087142 20.7792969,6.26193724 C20.2578099,6.60300307 19.4619194,6.77353342 18.3916016,6.77353342 L16.9384766,6.77353342 L16.9384766,9 L14.2724609,9 L14.2724609,3 Z M16.9384766,5.5579809 L17.5888672,5.5579809 C18.1005885,5.5579809 18.4599599,5.49590785 18.6669922,5.37175989 C18.8740245,5.24761193 18.9775391,5.08867764 18.9775391,4.89495225 C18.9775391,4.70668392 18.8876962,4.5470675 18.7080078,4.41609823 C18.5283194,4.28512895 18.1904322,4.21964529 17.6943359,4.21964529 L16.9384766,4.21964529 L16.9384766,5.5579809 Z" id="MP" fill-opacity="0.600000024" fill="#000000" sketch:type="MSShapeGroup"></path>
            </g>
        </g>
    </g>
</svg>