<?xml version="1.0" encoding="UTF-8" standalone="no"?>
<svg width="24px" height="24px" viewBox="0 0 24 24" version="1.1" xmlns="http://www.w3.org/2000/svg" xmlns:xlink="http://www.w3.org/1999/xlink" xmlns:sketch="http://www.bohemiancoding.com/sketch/ns">
    <!-- Generator: Sketch 3.1.1 (8761) - http://www.bohemiancoding.com/sketch -->
    <title>tfre_db_zfs_spare</title>
    <desc>Created with Sketch.</desc>
    <defs></defs>
    <g id="ADC" stroke="none" stroke-width="1" fill="none" fill-rule="evenodd" sketch:type="MSPage">
        <g id="adc_services" sketch:type="MSArtboardGroup" transform="translate(-101.000000, -137.000000)">
            <g id="tfre_db_zfs_spare" sketch:type="MSLayerGroup" transform="translate(101.000000, 137.000000)">
                <g id="data-8" transform="translate(3.000000, 13.500000)" stroke-opacity="0.600000024" stroke="#000000" sketch:type="MSShapeGroup">
                    <g id="data">
                        <path d="M0.152913163,0.905159555 L0.152913163,6.46934373 C0.151061957,6.47377747 0.150243565,6.47809459 0.150243565,6.48255509 C0.150243565,6.4870156 0.151061957,6.49243367 0.152913163,6.4968674 L0.152913163,6.50787686 L0.158252359,6.50787686 C0.367139646,6.78210311 4.09704558,7 8.66359156,7 C13.2286972,7 16.9578881,6.78198122 17.1689308,6.50787686 L17.1769395,6.50787686 L17.1769395,6.4968674 C17.1787908,6.49243367 17.1796091,6.4870156 17.1796091,6.48255509 C17.1796091,6.47809459 17.1787908,6.47377747 17.1769395,6.46934373 L17.1769395,0.905159555 C17.1762954,0.905537013 17.1749611,0.905883467 17.1742699,0.906260502 C17.0198724,1.18352114 13.2661399,1.40498932 8.66359156,1.40498932 C4.06104316,1.40498932 0.309979495,1.18352114 0.155582761,0.906260502 C0.154891656,0.905883467 0.15355643,0.905537013 0.152913163,0.905159555 L0.152913163,0.905159555 Z" id="path5588"></path>
                        <path d="M17.1802795,0.534247951 C17.1802795,0.828378229 13.3678263,1.06681793 8.66492701,1.06681793 C3.96202771,1.06681793 0.149574552,0.828378229 0.149574552,0.534247951 C0.149574506,0.343979021 1.77259151,0.168163279 4.40725075,0.0730288131 C7.04190999,-0.0221056525 10.287944,-0.0221056525 12.9226033,0.0730288131 C15.5572625,0.168163279 17.1802795,0.343979021 17.1802795,0.534247951 L17.1802795,0.534247951 Z" id="path5584"></path>
                    </g>
                </g>
                <path d="M2.10351562,8.60253906 L2.94726562,8.52050781 C2.99804713,8.80371235 3.10107344,9.01171809 3.25634766,9.14453125 C3.41162187,9.27734441 3.62109243,9.34375 3.88476562,9.34375 C4.1640639,9.34375 4.37451101,9.28466856 4.51611328,9.16650391 C4.65771555,9.04833925 4.72851562,8.91015704 4.72851562,8.75195312 C4.72851562,8.65039012 4.69873077,8.5639652 4.63916016,8.49267578 C4.57958955,8.42138636 4.47558668,8.35937526 4.32714844,8.30664062 C4.22558543,8.2714842 3.99414243,8.20898482 3.6328125,8.11914062 C3.16796643,8.00390567 2.84179781,7.86230553 2.65429688,7.69433594 C2.39062368,7.45800663 2.25878906,7.16992357 2.25878906,6.83007812 C2.25878906,6.61132703 2.32080016,6.40673923 2.44482422,6.21630859 C2.56884828,6.02587795 2.74755743,5.88085987 2.98095703,5.78125 C3.21435664,5.68164013 3.4960921,5.63183594 3.82617188,5.63183594 C4.36523707,5.63183594 4.77099473,5.74999882 5.04345703,5.98632812 C5.31591933,6.22265743 5.45898431,6.53808396 5.47265625,6.93261719 L4.60546875,6.97070312 C4.56835919,6.7499989 4.48877014,6.59130908 4.36669922,6.49462891 C4.2446283,6.39794874 4.06152466,6.34960938 3.81738281,6.34960938 C3.56542843,6.34960938 3.36816478,6.40136667 3.22558594,6.50488281 C3.1337886,6.57128939 3.08789062,6.66015569 3.08789062,6.77148438 C3.08789062,6.87304738 3.13085895,6.95996058 3.21679688,7.03222656 C3.32617242,7.1240239 3.59179477,7.21972606 4.01367188,7.31933594 C4.43554898,7.41894581 4.74755758,7.52197212 4.94970703,7.62841797 C5.15185648,7.73486381 5.31005802,7.88037017 5.42431641,8.06494141 C5.53857479,8.24951264 5.59570312,8.47753771 5.59570312,8.74902344 C5.59570312,8.99511842 5.52734443,9.22558486 5.390625,9.44042969 C5.25390557,9.65527451 5.06054812,9.81494088 4.81054688,9.91943359 C4.56054563,10.0239263 4.2490253,10.0761719 3.87597656,10.0761719 C3.3330051,10.0761719 2.91601708,9.95068485 2.625,9.69970703 C2.33398292,9.44872921 2.16015653,9.08301021 2.10351562,8.60253906 L2.10351562,8.60253906 Z M6.32519531,10 L6.32519531,5.70507812 L7.71679688,5.70507812 C8.24414326,5.70507812 8.58788982,5.72656229 8.74804688,5.76953125 C8.99414186,5.8339847 9.20019448,5.97412001 9.36621094,6.18994141 C9.53222739,6.4057628 9.61523438,6.6845686 9.61523438,7.02636719 C9.61523438,7.29004038 9.56738329,7.51171785 9.47167969,7.69140625 C9.37597608,7.87109465 9.25439527,8.01220652 9.10693359,8.11474609 C8.95947192,8.21728567 8.80957107,8.28515608 8.65722656,8.31835938 C8.45019428,8.35937521 8.15039259,8.37988281 7.7578125,8.37988281 L7.19238281,8.37988281 L7.19238281,10 L6.32519531,10 Z M7.19238281,6.43164062 L7.19238281,7.65039062 L7.66699219,7.65039062 C8.00879077,7.65039062 8.23730411,7.62792991 8.35253906,7.58300781 C8.46777401,7.53808571 8.55810514,7.46777392 8.62353516,7.37207031 C8.68896517,7.27636671 8.72167969,7.1650397 8.72167969,7.03808594 C8.72167969,6.88183516 8.67578171,6.7529302 8.58398438,6.65136719 C8.49218704,6.54980418 8.37597727,6.48632825 8.23535156,6.4609375 C8.13183542,6.44140615 7.92382969,6.43164062 7.61132812,6.43164062 L7.19238281,6.43164062 Z M13.7548828,10 L12.8115234,10 L12.4365234,9.02441406 L10.7197266,9.02441406 L10.3652344,10 L9.4453125,10 L11.1181641,5.70507812 L12.0351562,5.70507812 L13.7548828,10 Z M12.1582031,8.30078125 L11.5664062,6.70703125 L10.9863281,8.30078125 L12.1582031,8.30078125 Z M14.2177734,10 L14.2177734,5.70507812 L16.0429688,5.70507812 C16.5019554,5.70507812 16.8354482,5.74365196 17.043457,5.82080078 C17.2514659,5.8979496 17.4179681,6.03515526 17.5429688,6.23242188 C17.6679694,6.42968849 17.7304688,6.65527217 17.7304688,6.90917969 C17.7304688,7.23144692 17.6357431,7.49755754 17.4462891,7.70751953 C17.256835,7.91748152 16.9736347,8.04980441 16.5966797,8.10449219 C16.7841806,8.21386773 16.9389642,8.33398372 17.0610352,8.46484375 C17.1831061,8.59570378 17.3476552,8.82812333 17.5546875,9.16210938 L18.0791016,10 L17.0419922,10 L16.4150391,9.06542969 C16.1923817,8.73144364 16.0400395,8.52099653 15.9580078,8.43408203 C15.8759762,8.34716753 15.789063,8.28759782 15.6972656,8.25537109 C15.6054683,8.22314437 15.4599619,8.20703125 15.2607422,8.20703125 L15.0849609,8.20703125 L15.0849609,10 L14.2177734,10 Z M15.0849609,7.52148438 L15.7265625,7.52148438 C16.1425802,7.52148438 16.4023432,7.50390643 16.5058594,7.46875 C16.6093755,7.43359357 16.6904294,7.3730473 16.7490234,7.28710938 C16.8076175,7.20117145 16.8369141,7.09375064 16.8369141,6.96484375 C16.8369141,6.82031178 16.7983402,6.70361373 16.7211914,6.61474609 C16.6440426,6.52587846 16.535157,6.46972668 16.3945312,6.44628906 C16.3242184,6.43652339 16.113283,6.43164062 15.7617188,6.43164062 L15.0849609,6.43164062 L15.0849609,7.52148438 Z M18.5478516,10 L18.5478516,5.70507812 L21.7324219,5.70507812 L21.7324219,6.43164062 L19.4150391,6.43164062 L19.4150391,7.38378906 L21.5712891,7.38378906 L21.5712891,8.10742188 L19.4150391,8.10742188 L19.4150391,9.27636719 L21.8144531,9.27636719 L21.8144531,10 L18.5478516,10 Z" id="SPARE" opacity="0.803171642" fill-opacity="0.600000024" fill="#000000" sketch:type="MSShapeGroup"></path>
            </g>
        </g>
    </g>
</svg>