<?xml version="1.0" encoding="UTF-8" standalone="no"?>
<svg width="24px" height="24px" viewBox="0 0 24 24" version="1.1" xmlns="http://www.w3.org/2000/svg" xmlns:xlink="http://www.w3.org/1999/xlink" xmlns:sketch="http://www.bohemiancoding.com/sketch/ns">
    <!-- Generator: Sketch 3.1.1 (8761) - http://www.bohemiancoding.com/sketch -->
    <title>tfre_db_zfs_unassigned</title>
    <desc>Created with Sketch.</desc>
    <defs></defs>
    <g id="ADC" stroke="none" stroke-width="1" fill="none" fill-rule="evenodd" sketch:type="MSPage">
        <g id="adc_services" sketch:type="MSArtboardGroup" transform="translate(-153.000000, -137.000000)">
            <g id="tfre_db_zfs_unassigned" sketch:type="MSLayerGroup" transform="translate(153.000000, 137.000000)">
                <g id="data-8" transform="translate(3.000000, 13.500000)" stroke-opacity="0.600000024" stroke="#000000" sketch:type="MSShapeGroup">
                    <g id="data">
                        <path d="M0.152913163,0.905159555 L0.152913163,6.46934373 C0.151061957,6.47377747 0.150243565,6.47809459 0.150243565,6.48255509 C0.150243565,6.4870156 0.151061957,6.49243367 0.152913163,6.4968674 L0.152913163,6.50787686 L0.158252359,6.50787686 C0.367139646,6.78210311 4.09704558,7 8.66359156,7 C13.2286972,7 16.9578881,6.78198122 17.1689308,6.50787686 L17.1769395,6.50787686 L17.1769395,6.4968674 C17.1787908,6.49243367 17.1796091,6.4870156 17.1796091,6.48255509 C17.1796091,6.47809459 17.1787908,6.47377747 17.1769395,6.46934373 L17.1769395,0.905159555 C17.1762954,0.905537013 17.1749611,0.905883467 17.1742699,0.906260502 C17.0198724,1.18352114 13.2661399,1.40498932 8.66359156,1.40498932 C4.06104316,1.40498932 0.309979495,1.18352114 0.155582761,0.906260502 C0.154891656,0.905883467 0.15355643,0.905537013 0.152913163,0.905159555 L0.152913163,0.905159555 Z" id="path5588"></path>
                        <path d="M17.1802795,0.534247951 C17.1802795,0.828378229 13.3678263,1.06681793 8.66492701,1.06681793 C3.96202771,1.06681793 0.149574552,0.828378229 0.149574552,0.534247951 C0.149574506,0.343979021 1.77259151,0.168163279 4.40725075,0.0730288131 C7.04190999,-0.0221056525 10.287944,-0.0221056525 12.9226033,0.0730288131 C15.5572625,0.168163279 17.1802795,0.343979021 17.1802795,0.534247951 L17.1802795,0.534247951 Z" id="path5584"></path>
                    </g>
                </g>
                <path d="M11.85794,9.87450216 L10.5216955,9.87450216 C10.518202,9.70119497 10.5164553,9.59563672 10.5164553,9.55782424 C10.5164553,9.1670953 10.5880703,8.84569405 10.7313025,8.59361087 C10.8745346,8.34152768 11.1609946,8.05793835 11.5906911,7.74283437 C12.0203876,7.42773038 12.2771536,7.22134037 12.3609968,7.12365813 C12.4902551,6.96925718 12.5548832,6.79910358 12.5548832,6.61319223 C12.5548832,6.35480697 12.4404739,6.13344974 12.2116518,5.94911391 C11.9828297,5.76477808 11.6745358,5.67261154 11.286761,5.67261154 C10.91296,5.67261154 10.6002993,5.76871682 10.3487697,5.96093025 C10.0972401,6.15314368 9.92431602,6.44618599 9.82999241,6.84006597 L8.47802734,6.68881681 C8.51645548,6.12478068 8.78282837,5.64582981 9.27715398,5.25194983 C9.7714796,4.85806985 10.4203814,4.66113281 11.2238789,4.66113281 C12.0692979,4.66113281 12.7417803,4.86043309 13.2413461,5.25903963 C13.7409119,5.65764617 13.9906911,6.12162983 13.9906911,6.65100452 C13.9906911,6.94405123 13.898989,7.22133857 13.7155819,7.48287488 C13.5321749,7.74441119 13.1400391,8.10047335 12.5391627,8.55107204 C12.2282441,8.78424899 12.035233,8.97173305 11.9601234,9.11352984 C11.8850139,9.25532663 11.8509531,9.50898154 11.85794,9.87450216 L11.85794,9.87450216 Z M10.5216955,11.6611328 L10.5216955,10.3329762 L11.9941845,10.3329762 L11.9941845,11.6611328 L10.5216955,11.6611328 Z" id="?" opacity="0.803171642" fill-opacity="0.600000024" fill="#000000" sketch:type="MSShapeGroup"></path>
            </g>
        </g>
    </g>
</svg>