<?xml version="1.0" encoding="UTF-8" standalone="no"?>
<svg width="24px" height="24px" viewBox="0 0 24 24" version="1.1" xmlns="http://www.w3.org/2000/svg" xmlns:xlink="http://www.w3.org/1999/xlink" xmlns:sketch="http://www.bohemiancoding.com/sketch/ns">
    <!-- Generator: Sketch 3.1 (8751) - http://www.bohemiancoding.com/sketch -->
    <title>tfre_db_zfs_pool</title>
    <desc>Created with Sketch.</desc>
    <defs></defs>
    <g id="ADC" stroke="none" stroke-width="1" fill="none" fill-rule="evenodd" sketch:type="MSPage">
        <g id="adc_services" sketch:type="MSArtboardGroup" transform="translate(-49.000000, -112.000000)">
            <g id="tfre_db_zfs_pool" sketch:type="MSLayerGroup" transform="translate(49.000000, 112.000000)">
                <path d="M2.20514152,4.12207031 L5.53414697,4.12207031 L5.53414697,5.55273438 L3.39963646,9.7421875 L5.61204882,9.7421875 L5.61204882,11.2802734 L2,11.2802734 L2,9.79589844 L4.11113996,5.65039062 L2.20514152,5.65039062 L2.20514152,4.12207031 Z M6.1365879,4.12207031 L8.09192418,4.12207031 C8.51778972,4.12207031 8.8367513,4.3124981 9.04881849,4.69335938 C9.26088568,5.07422065 9.36691768,5.61620742 9.36691768,6.31933594 C9.36691768,7.0419958 9.25136444,7.6067688 9.02025448,8.01367188 C8.78914452,8.42057495 8.43642581,8.62402344 7.96208777,8.62402344 L7.3180992,8.62402344 L7.3180992,11.2802734 L6.1365879,11.2802734 L6.1365879,4.12207031 Z M7.3180992,7.17382812 L7.60633602,7.17382812 C7.83311807,7.17382812 7.99238247,7.09977288 8.08413399,6.95166016 C8.17588551,6.80354744 8.22176058,6.61393345 8.22176058,6.3828125 C8.22176058,6.158202 8.18194448,5.96777422 8.10231109,5.81152344 C8.02267769,5.65527266 7.87293454,5.57714844 7.65307712,5.57714844 L7.3180992,5.57714844 L7.3180992,7.17382812 Z M9.83432875,7.70605469 C9.83432875,6.53742905 10.0074422,5.62760742 10.3536744,4.9765625 C10.6999065,4.32551758 11.1820276,4 11.8000519,4 C12.4336568,4 12.9218368,4.31982102 13.2646066,4.95947266 C13.6073764,5.59912429 13.7787588,6.49511143 13.7787588,7.64746094 C13.7787588,8.48405366 13.7038872,9.17008196 13.5541418,9.70556641 C13.4043964,10.2410509 13.1880045,10.6577134 12.9049598,10.9555664 C12.621915,11.2534195 12.2691963,11.4023438 11.846793,11.4023438 C11.4174652,11.4023438 11.0621498,11.2737643 10.7808361,11.0166016 C10.4995225,10.7594388 10.2714455,10.3525418 10.0965983,9.79589844 C9.92175105,9.23925503 9.83432875,8.54264741 9.83432875,7.70605469 L9.83432875,7.70605469 Z M11.0106466,7.71582031 C11.0106466,8.43848018 11.0820559,8.95768071 11.2248767,9.2734375 C11.3676974,9.58919429 11.5620173,9.74707031 11.8078421,9.74707031 C12.0605916,9.74707031 12.2562098,9.59244946 12.3947027,9.28320312 C12.5331955,8.97395679 12.6024409,8.41894932 12.6024409,7.61816406 C12.6024409,6.94433257 12.530166,6.45198723 12.3856141,6.14111328 C12.2410622,5.83023933 12.0450112,5.67480469 11.7974552,5.67480469 C11.5602862,5.67480469 11.3698614,5.83268071 11.226175,6.1484375 C11.0824887,6.46419429 11.0106466,6.98665 11.0106466,7.71582031 L11.0106466,7.71582031 Z M14.2643469,7.70605469 C14.2643469,6.53742905 14.4374604,5.62760742 14.7836925,4.9765625 C15.1299247,4.32551758 15.6120457,4 16.2300701,4 C16.8636749,4 17.3518549,4.31982102 17.6946248,4.95947266 C18.0373946,5.59912429 18.2087769,6.49511143 18.2087769,7.64746094 C18.2087769,8.48405366 18.1339054,9.17008196 17.98416,9.70556641 C17.8344146,10.2410509 17.6180227,10.6577134 17.3349779,10.9555664 C17.0519331,11.2534195 16.6992144,11.4023438 16.2768112,11.4023438 C15.8474834,11.4023438 15.4921679,11.2737643 15.2108543,11.0166016 C14.9295407,10.7594388 14.7014637,10.3525418 14.5266165,9.79589844 C14.3517692,9.23925503 14.2643469,8.54264741 14.2643469,7.70605469 L14.2643469,7.70605469 Z M15.4406648,7.71582031 C15.4406648,8.43848018 15.5120741,8.95768071 15.6548948,9.2734375 C15.7977156,9.58919429 15.9920355,9.74707031 16.2378603,9.74707031 C16.4906098,9.74707031 16.686228,9.59244946 16.8247209,9.28320312 C16.9632137,8.97395679 17.0324591,8.41894932 17.0324591,7.61816406 C17.0324591,6.94433257 16.9601842,6.45198723 16.8156323,6.14111328 C16.6710804,5.83023933 16.4750294,5.67480469 16.2274734,5.67480469 C15.9903044,5.67480469 15.7998795,5.83268071 15.6561932,6.1484375 C15.5125069,6.46419429 15.4406648,6.98665 15.4406648,7.71582031 L15.4406648,7.71582031 Z M18.8423786,4.12207031 L20.0186964,4.12207031 L20.0186964,9.51757812 L21.8545832,9.51757812 L21.8545832,11.2802734 L18.8423786,11.2802734 L18.8423786,4.12207031 Z" id="ZPOOL" fill-opacity="0.6" fill="#000000" sketch:type="MSShapeGroup"></path>
                <g id="data-7" transform="translate(3.000000, 14.000000)" stroke-opacity="0.600000024" stroke="#000000" sketch:type="MSShapeGroup">
                    <g id="data">
                        <path d="M0.152913163,0.905159555 L0.152913163,6.46934373 C0.151061957,6.47377747 0.150243565,6.47809459 0.150243565,6.48255509 C0.150243565,6.4870156 0.151061957,6.49243367 0.152913163,6.4968674 L0.152913163,6.50787686 L0.158252359,6.50787686 C0.367139646,6.78210311 4.09704558,7 8.66359156,7 C13.2286972,7 16.9578881,6.78198122 17.1689308,6.50787686 L17.1769395,6.50787686 L17.1769395,6.4968674 C17.1787908,6.49243367 17.1796091,6.4870156 17.1796091,6.48255509 C17.1796091,6.47809459 17.1787908,6.47377747 17.1769395,6.46934373 L17.1769395,0.905159555 C17.1762954,0.905537013 17.1749611,0.905883467 17.1742699,0.906260502 C17.0198724,1.18352114 13.2661399,1.40498932 8.66359156,1.40498932 C4.06104316,1.40498932 0.309979495,1.18352114 0.155582761,0.906260502 C0.154891656,0.905883467 0.15355643,0.905537013 0.152913163,0.905159555 L0.152913163,0.905159555 Z" id="path5588"></path>
                        <path d="M17.1802795,0.534247951 C17.1802795,0.828378229 13.3678263,1.06681793 8.66492701,1.06681793 C3.96202771,1.06681793 0.149574552,0.828378229 0.149574552,0.534247951 C0.149574506,0.343979021 1.77259151,0.168163279 4.40725075,0.0730288131 C7.04190999,-0.0221056525 10.287944,-0.0221056525 12.9226033,0.0730288131 C15.5572625,0.168163279 17.1802795,0.343979021 17.1802795,0.534247951 L17.1802795,0.534247951 Z" id="path5584"></path>
                    </g>
                </g>
            </g>
        </g>
    </g>
</svg>