<?xml version="1.0" encoding="UTF-8" standalone="no"?>
<svg width="24px" height="24px" viewBox="0 0 24 24" version="1.1" xmlns="http://www.w3.org/2000/svg" xmlns:xlink="http://www.w3.org/1999/xlink" xmlns:sketch="http://www.bohemiancoding.com/sketch/ns">
    <!-- Generator: Sketch 3.1 (8751) - http://www.bohemiancoding.com/sketch -->
    <title>tfre_db_datacenter</title>
    <desc>Created with Sketch.</desc>
    <defs></defs>
    <g id="ADC" stroke="none" stroke-width="1" fill="none" fill-rule="evenodd" sketch:type="MSPage">
        <g id="adc_services" sketch:type="MSArtboardGroup" transform="translate(-50.000000, -87.000000)">
            <g id="tfre_db_datacenter" sketch:type="MSLayerGroup" transform="translate(50.000000, 87.000000)">
                <g id="VMs" transform="translate(10.500000, 11.625000)" stroke="#000000" stroke-opacity="0.600000024" sketch:type="MSShapeGroup">
                    <g id="Computer-2-+-Rectangle-50">
                        <g id="Computer-2" transform="translate(1.254098, 1.056818)" stroke-width="0.5" fill="#FFFFFF">
                            <rect id="Rectangle-52" fill-opacity="0.6" x="0" y="0" width="3.97131148" height="3.24052693" rx="1.34400032"></rect>
                            <rect id="Rectangle-53" fill-opacity="0.9" x="0.428721125" y="0.43353564" width="3.11386933" height="2.45289895" rx="1.34400032"></rect>
                            <path d="M1.48809596,3.20160037 C1.48809596,3.20160037 2.58920588,3.20450388 2.58920588,3.20450389 C2.58920588,3.2045039 2.3983791,3.53775869 3.01691338,3.80772196 C3.63544765,4.07768523 0.291704886,4.12168365 1.01252753,3.80772194 C1.73335018,3.49376024 1.48809596,3.20160037 1.48809596,3.20160037 Z" id="Path-146" fill-opacity="0.6"></path>
                        </g>
                        <rect id="Rectangle-49" stroke-width="0.2" x="0" y="0" width="6.4795082" height="5.91818182" rx="2.24000053"></rect>
                    </g>
                    <g id="Computer-2-+-Rectangle-51" transform="translate(6.270492, 0.000000)">
                        <g id="Computer-2" transform="translate(1.254098, 1.056818)" stroke-width="0.5" fill="#FFFFFF">
                            <rect id="Rectangle-52" fill-opacity="0.6" x="0" y="0" width="3.97131148" height="3.24052693" rx="1.34400032"></rect>
                            <rect id="Rectangle-53" fill-opacity="0.9" x="0.428721125" y="0.43353564" width="3.11386933" height="2.45289895" rx="1.34400032"></rect>
                            <path d="M1.48809596,3.20160037 C1.48809596,3.20160037 2.58920588,3.20450388 2.58920588,3.20450389 C2.58920588,3.2045039 2.3983791,3.53775869 3.01691338,3.80772196 C3.63544765,4.07768523 0.291704886,4.12168365 1.01252753,3.80772194 C1.73335018,3.49376024 1.48809596,3.20160037 1.48809596,3.20160037 Z" id="Path-146" fill-opacity="0.6"></path>
                        </g>
                        <rect id="Rectangle-49" stroke-width="0.2" x="0" y="0" width="6.4795082" height="5.91818182" rx="2.24000053"></rect>
                    </g>
                    <g id="Computer-2-+-Rectangle-52" transform="translate(0.000000, 5.706818)">
                        <g id="Computer-2" transform="translate(1.254098, 1.056818)" stroke-width="0.5" fill="#FFFFFF">
                            <rect id="Rectangle-52" fill-opacity="0.6" x="0" y="0" width="3.97131148" height="3.24052693" rx="1.34400032"></rect>
                            <rect id="Rectangle-53" fill-opacity="0.9" x="0.428721125" y="0.43353564" width="3.11386933" height="2.45289895" rx="1.34400032"></rect>
                            <path d="M1.48809596,3.20160037 C1.48809596,3.20160037 2.58920588,3.20450388 2.58920588,3.20450389 C2.58920588,3.2045039 2.3983791,3.53775869 3.01691338,3.80772196 C3.63544765,4.07768523 0.291704886,4.12168365 1.01252753,3.80772194 C1.73335018,3.49376024 1.48809596,3.20160037 1.48809596,3.20160037 Z" id="Path-146" fill-opacity="0.6"></path>
                        </g>
                        <rect id="Rectangle-49" stroke-width="0.2" x="0" y="0" width="6.4795082" height="5.91818182" rx="2.24000053"></rect>
                    </g>
                    <g id="Computer-2-+-Rectangle-53" transform="translate(6.270492, 5.706818)">
                        <g id="Computer-2" transform="translate(1.254098, 1.056818)" stroke-width="0.5" fill="#FFFFFF">
                            <rect id="Rectangle-52" fill-opacity="0.6" x="0" y="0" width="3.97131148" height="3.24052693" rx="1.34400032"></rect>
                            <rect id="Rectangle-53" fill-opacity="0.9" x="0.428721125" y="0.43353564" width="3.11386933" height="2.45289895" rx="1.34400032"></rect>
                            <path d="M1.48809596,3.20160037 C1.48809596,3.20160037 2.58920588,3.20450388 2.58920588,3.20450389 C2.58920588,3.2045039 2.3983791,3.53775869 3.01691338,3.80772196 C3.63544765,4.07768523 0.291704886,4.12168365 1.01252753,3.80772194 C1.73335018,3.49376024 1.48809596,3.20160037 1.48809596,3.20160037 Z" id="Path-146" fill-opacity="0.6"></path>
                        </g>
                        <rect id="Rectangle-49" stroke-width="0.2" x="0" y="0" width="6.4795082" height="5.91818182" rx="2.24000053"></rect>
                    </g>
                </g>
                <g id="Computer-2-+-Rectangle-55" transform="translate(4.312500, 17.062500)" stroke="#000000" sketch:type="MSShapeGroup">
                    <g id="Computer-2" transform="translate(1.254098, 1.056818)" stroke-width="0.5" fill="#FFFFFF">
                        <rect id="Rectangle-52" stroke-opacity="0.600000024" fill-opacity="0.6" x="0" y="0" width="3.97131148" height="3.24052693" rx="1.34400032"></rect>
                        <rect id="Rectangle-53" stroke-opacity="0.600000024" fill-opacity="0.9" x="0.428721125" y="0.43353564" width="3.11386933" height="2.45289895" rx="1.34400032"></rect>
                        <path d="M1.48809596,3.20160037 C1.48809596,3.20160037 2.58920588,3.20450388 2.58920588,3.20450389 C2.58920588,3.2045039 2.3983791,3.53775869 3.01691338,3.80772196 C3.63544765,4.07768523 0.291704886,4.12168365 1.01252753,3.80772194 C1.73335018,3.49376024 1.48809596,3.20160037 1.48809596,3.20160037 Z" id="Path-146" stroke-opacity="0.6" fill-opacity="0.6"></path>
                    </g>
                    <rect id="Rectangle-49" stroke-opacity="0.9" stroke-width="0.2" x="0" y="0" width="6.4795082" height="5.91818182" rx="2.24000053"></rect>
                </g>
                <path d="M1.06640625,0.978515625 L5.66699219,0.978515625 C6.57389776,0.978515625 7.30647507,1.10156127 7.86474609,1.34765625 C8.42301711,1.59375123 8.88443828,1.9469378 9.24902344,2.40722656 C9.61360859,2.86751532 9.87792887,3.40299174 10.0419922,4.01367188 C10.2060555,4.62435201 10.2880859,5.27148096 10.2880859,5.95507812 C10.2880859,7.02604702 10.1661796,7.85660512 9.92236328,8.44677734 C9.67854696,9.03694957 9.34017144,9.53141077 8.90722656,9.93017578 C8.47428169,10.3289408 8.00944259,10.5944004 7.51269531,10.7265625 C6.83365546,10.9088551 6.21842724,11 5.66699219,11 L1.06640625,11 L1.06640625,0.978515625 Z M4.16308594,3.24804688 L4.16308594,8.72363281 L4.921875,8.72363281 C5.56901365,8.72363281 6.02929551,8.65185619 6.30273438,8.50830078 C6.57617324,8.36474538 6.79036381,8.11409684 6.9453125,7.75634766 C7.10026119,7.39859847 7.17773438,6.81868891 7.17773438,6.01660156 C7.17773438,4.95474729 7.00455902,4.22786654 6.65820312,3.8359375 C6.31184723,3.44400846 5.73763422,3.24804688 4.93554688,3.24804688 L4.16308594,3.24804688 Z M18.5869141,6.90527344 L21.3007812,7.72558594 C21.1184887,8.48665745 20.8313822,9.12239328 20.4394531,9.6328125 C20.0475241,10.1432317 19.5610381,10.528319 18.9799805,10.7880859 C18.3989229,11.0478529 17.6595097,11.1777344 16.7617188,11.1777344 C15.6725206,11.1777344 14.7827183,11.0193701 14.0922852,10.7026367 C13.401852,10.3859034 12.8059921,9.82878003 12.3046875,9.03125 C11.8033829,8.23371997 11.5527344,7.21289685 11.5527344,5.96875 C11.5527344,4.30988754 11.9936479,3.03499794 12.8754883,2.14404297 C13.7573286,1.25308799 15.0048747,0.807617188 16.6181641,0.807617188 C17.8805402,0.807617188 18.8728805,1.06282297 19.5952148,1.57324219 C20.3175492,2.08366141 20.8541649,2.86750773 21.2050781,3.92480469 L18.4707031,4.53320312 C18.3749995,4.22786306 18.2747401,4.004558 18.1699219,3.86328125 C17.9967439,3.6263009 17.784832,3.44401105 17.5341797,3.31640625 C17.2835274,3.18880145 17.0032568,3.125 16.6933594,3.125 C15.9915329,3.125 15.4537779,3.40754926 15.0800781,3.97265625 C14.7975246,4.39192918 14.65625,5.05045124 14.65625,5.94824219 C14.65625,7.06022691 14.8248681,7.82242632 15.1621094,8.23486328 C15.4993506,8.64730024 15.9733042,8.85351562 16.5839844,8.85351562 C17.1764353,8.85351562 17.6241847,8.68717614 17.9272461,8.35449219 C18.2303075,8.02180823 18.4501946,7.53874015 18.5869141,6.90527344 L18.5869141,6.90527344 Z" id="DC" fill-opacity="0.600000024" fill="#000000" sketch:type="MSShapeGroup"></path>
            </g>
        </g>
    </g>
</svg>