<?xml version="1.0" encoding="UTF-8" standalone="no"?>
<svg width="24px" height="24px" viewBox="0 0 24 24" version="1.1" xmlns="http://www.w3.org/2000/svg" xmlns:xlink="http://www.w3.org/1999/xlink" xmlns:sketch="http://www.bohemiancoding.com/sketch/ns">
    <!-- Generator: Sketch 3.1 (8751) - http://www.bohemiancoding.com/sketch -->
    <title>tfre_db_ipv6_hostnet</title>
    <desc>Created with Sketch.</desc>
    <defs></defs>
    <g id="ADC" stroke="none" stroke-width="1" fill="none" fill-rule="evenodd" sketch:type="MSPage">
        <g id="adc_services" sketch:type="MSArtboardGroup" transform="translate(-76.000000, -62.000000)">
            <g id="tfre_db_ipv6_hostnet" sketch:type="MSLayerGroup" transform="translate(76.000000, 62.000000)">
                <path d="M10.2399838,4.234375 L7.47142907,4.57617188 C7.39851203,4.18880015 7.2766057,3.91536538 7.10570641,3.75585938 C6.93480712,3.59635337 6.72403449,3.51660156 6.47338219,3.51660156 C6.02220806,3.51660156 5.67130011,3.74446387 5.42064782,4.20019531 C5.23835524,4.52832195 5.10391648,5.23013785 5.0173275,6.30566406 C5.35001146,5.96842279 5.69180491,5.71891357 6.04271813,5.55712891 C6.39363134,5.39534424 6.79922624,5.31445312 7.259515,5.31445312 C8.15274864,5.31445312 8.90811218,5.63346035 9.52562828,6.27148438 C10.1431444,6.9095084 10.4518978,7.71841958 10.4518978,8.69824219 C10.4518978,9.35905278 10.2958121,9.96288789 9.9836361,10.5097656 C9.67146006,11.0566434 9.23852168,11.4702134 8.68480797,11.7504883 C8.13109427,12.0307631 7.43725355,12.1708984 6.603265,12.1708984 C5.60065582,12.1708984 4.79630189,12.0000017 4.19017907,11.6582031 C3.58405624,11.3164045 3.09984885,10.7706743 2.73754235,10.0209961 C2.37523585,9.27131787 2.19408532,8.27897753 2.19408532,7.04394531 C2.19408532,5.23469147 2.57461536,3.90967217 3.33568688,3.06884766 C4.09675839,2.22802314 5.15176086,1.80761719 6.50072594,1.80761719 C7.29825597,1.80761719 7.92829524,1.89990142 8.39086266,2.08447266 C8.85343008,2.26904389 9.23737806,2.53906072 9.54271813,2.89453125 C9.8480582,3.25000178 10.0804777,3.69661189 10.2399838,4.234375 L10.2399838,4.234375 Z M5.11303063,8.69824219 C5.11303063,9.24056261 5.24974801,9.66552581 5.52318688,9.97314453 C5.79662574,10.2807633 6.13158333,10.4345703 6.52806969,10.4345703 C6.89265485,10.4345703 7.19799033,10.2955743 7.44408532,10.0175781 C7.6901803,9.73958194 7.81322594,9.32487255 7.81322594,8.7734375 C7.81322594,8.20833051 7.68562305,7.77767075 7.43041344,7.48144531 C7.17520383,7.18521987 6.85847523,7.03710938 6.48021813,7.03710938 C6.0928464,7.03710938 5.76814262,7.18066263 5.50609703,7.46777344 C5.24405145,7.75488425 5.11303063,8.1650364 5.11303063,8.69824219 L5.11303063,8.69824219 Z" id="6" fill-opacity="0.600000024" fill="#000000" sketch:type="MSShapeGroup"></path>
                <g id="network-4" transform="translate(5.500000, 10.000000)">
                    <g id="h2" transform="translate(0.000000, 7.744667)"></g>
                    <g id="h3" transform="translate(5.935640, 7.744667)"></g>
                    <g id="h4" transform="translate(11.871279, 7.744667)"></g>
                    <g id="h1" transform="translate(5.361223, 0.000000)"></g>
                    <g id="wire" transform="translate(2.106195, 4.368787)"></g>
                    <path d="M4.8848399,10.4962086 C4.8848399,10.811357 4.63190507,11.0677253 4.31961384,11.0677253 L0.565226066,11.0677253 C0.252934835,11.0677253 0,10.8115556 0,10.4962086 L0,8.2617728 C0,7.94602867 0.252934835,7.69005749 0.565226066,7.69005749 L4.31961384,7.69005749 C4.63190507,7.69005749 4.8848399,7.94602867 4.8848399,8.2617728 L4.8848399,10.4962086 L4.8848399,10.4962086 Z" id="path3045" opacity="0.792910448" fill-opacity="0.600000024" fill="#000000" sketch:type="MSShapeGroup"></path>
                    <path d="M10.8549445,10.4962086 C10.8549445,10.811357 10.6020097,11.0677253 10.2897184,11.0677253 L6.53552212,11.0677253 C6.22323089,11.0677253 5.97029606,10.8115556 5.97029606,10.4962086 L5.97029606,8.2617728 C5.97029606,7.94602867 6.22323089,7.69005749 6.53552212,7.69005749 L10.2897184,7.69005749 C10.6020097,7.69005749 10.8549445,7.94602867 10.8549445,8.2617728 L10.8549445,10.4962086 L10.8549445,10.4962086 Z" id="path3047" opacity="0.595557369" fill-opacity="0.600000024" fill="#000000" sketch:type="MSShapeGroup"></path>
                    <path d="M16.825432,10.4962086 C16.825432,10.811357 16.5724972,11.0677253 16.260206,11.0677253 L12.5058182,11.0677253 C12.193527,11.0677253 11.9407836,10.8115556 11.9407836,10.4962086 L11.9407836,8.2617728 C11.9407836,7.94602867 12.193527,7.69005749 12.5058182,7.69005749 L16.2600145,7.69005749 C16.5723057,7.69005749 16.8252405,7.94602867 16.8252405,8.2617728 L16.8252405,10.4962086 L16.825432,10.4962086 Z" id="path3049" opacity="0.400478078" fill-opacity="0.600000024" fill="#000000" sketch:type="MSShapeGroup"></path>
                    <path d="M10.9868689,3.25812197 C10.9868689,3.62490147 10.7004264,3.92217754 10.3469686,3.92217754 L6.09532743,3.92217754 C5.74186967,3.92217754 5.45542719,3.62490147 5.45542719,3.25812197 L5.45542719,0.664055577 C5.45581014,0.297276076 5.74206114,0 6.09532743,0 L10.3469686,0 C10.7004264,0 10.9868689,0.297276076 10.9868689,0.664055577 L10.9868689,3.25812197 L10.9868689,3.25812197 Z" id="path3051" opacity="0.813257929" fill-opacity="0.600000024" fill="#000000" sketch:type="MSShapeGroup"></path>
                    <path d="M8.69992438,4.41684335 L8.12550764,4.41684335 L8.12550764,5.50764995 L2.15521158,5.50764995 L2.15521158,7.34452617 L2.72962832,7.34452617 L2.72962832,6.10339359 L8.12550764,6.10339359 L8.12550764,7.34452617 L8.69992438,7.34452617 L8.69992438,6.10339359 L14.0959952,6.10339359 L14.0959952,7.34452617 L14.6704119,7.34452617 L14.6704119,5.50764995 L8.69992438,5.50764995 L8.69992438,4.41684335 Z" id="polygon3053" opacity="0.492362407" fill-opacity="0.600000024" fill="#000000" sketch:type="MSShapeGroup"></path>
                </g>
            </g>
        </g>
    </g>
</svg>