<?xml version="1.0" encoding="UTF-8" standalone="no"?>
<svg width="24px" height="24px" viewBox="0 0 24 24" version="1.1" xmlns="http://www.w3.org/2000/svg" xmlns:xlink="http://www.w3.org/1999/xlink" xmlns:sketch="http://www.bohemiancoding.com/sketch/ns">
    <!-- Generator: Sketch 3.1.1 (8761) - http://www.bohemiancoding.com/sketch -->
    <title>tfre_db_zfs_datastorage</title>
    <desc>Created with Sketch.</desc>
    <defs></defs>
    <g id="ADC" stroke="none" stroke-width="1" fill="none" fill-rule="evenodd" sketch:type="MSPage">
        <g id="adc_services" sketch:type="MSArtboardGroup" transform="translate(-24.000000, -137.000000)">
            <g id="tfre_db_zfs_datastorage" sketch:type="MSLayerGroup" transform="translate(24.000000, 137.000000)">
                <g id="data-8" transform="translate(3.000000, 13.500000)" stroke-opacity="0.600000024" stroke="#000000" sketch:type="MSShapeGroup">
                    <g id="data">
                        <path d="M0.152913163,0.905159555 L0.152913163,6.46934373 C0.151061957,6.47377747 0.150243565,6.47809459 0.150243565,6.48255509 C0.150243565,6.4870156 0.151061957,6.49243367 0.152913163,6.4968674 L0.152913163,6.50787686 L0.158252359,6.50787686 C0.367139646,6.78210311 4.09704558,7 8.66359156,7 C13.2286972,7 16.9578881,6.78198122 17.1689308,6.50787686 L17.1769395,6.50787686 L17.1769395,6.4968674 C17.1787908,6.49243367 17.1796091,6.4870156 17.1796091,6.48255509 C17.1796091,6.47809459 17.1787908,6.47377747 17.1769395,6.46934373 L17.1769395,0.905159555 C17.1762954,0.905537013 17.1749611,0.905883467 17.1742699,0.906260502 C17.0198724,1.18352114 13.2661399,1.40498932 8.66359156,1.40498932 C4.06104316,1.40498932 0.309979495,1.18352114 0.155582761,0.906260502 C0.154891656,0.905883467 0.15355643,0.905537013 0.152913163,0.905159555 L0.152913163,0.905159555 Z" id="path5588"></path>
                        <path d="M17.1802795,0.534247951 C17.1802795,0.828378229 13.3678263,1.06681793 8.66492701,1.06681793 C3.96202771,1.06681793 0.149574552,0.828378229 0.149574552,0.534247951 C0.149574506,0.343979021 1.77259151,0.168163279 4.40725075,0.0730288131 C7.04190999,-0.0221056525 10.287944,-0.0221056525 12.9226033,0.0730288131 C15.5572625,0.168163279 17.1802795,0.343979021 17.1802795,0.534247951 L17.1802795,0.534247951 Z" id="path5584"></path>
                    </g>
                </g>
                <path d="M1.56591797,10 L1.56591797,9.21777344 L3.82177734,6.43164062 L1.82080078,6.43164062 L1.82080078,5.70507812 L4.96435547,5.70507812 L4.96435547,6.37890625 L2.61181641,9.27636719 L5.05517578,9.27636719 L5.05517578,10 L1.56591797,10 Z M5.60595703,10 L5.60595703,5.70507812 L7.43115234,5.70507812 C7.89013901,5.70507812 8.22363177,5.74365196 8.43164062,5.82080078 C8.63964948,5.8979496 8.80615172,6.03515526 8.93115234,6.23242188 C9.05615297,6.42968849 9.11865234,6.65527217 9.11865234,6.90917969 C9.11865234,7.23144692 9.02392673,7.49755754 8.83447266,7.70751953 C8.64501858,7.91748152 8.36181829,8.04980441 7.98486328,8.10449219 C8.17236422,8.21386773 8.32714783,8.33398372 8.44921875,8.46484375 C8.57128967,8.59570378 8.73583881,8.82812333 8.94287109,9.16210938 L9.46728516,10 L8.43017578,10 L7.80322266,9.06542969 C7.58056529,8.73144364 7.42822307,8.52099653 7.34619141,8.43408203 C7.26415975,8.34716753 7.17724655,8.28759782 7.08544922,8.25537109 C6.99365188,8.22314437 6.84814553,8.20703125 6.64892578,8.20703125 L6.47314453,8.20703125 L6.47314453,10 L5.60595703,10 Z M6.47314453,7.52148438 L7.11474609,7.52148438 C7.5307638,7.52148438 7.79052683,7.50390643 7.89404297,7.46875 C7.99755911,7.43359357 8.07861299,7.3730473 8.13720703,7.28710938 C8.19580107,7.20117145 8.22509766,7.09375064 8.22509766,6.96484375 C8.22509766,6.82031178 8.18652382,6.70361373 8.109375,6.61474609 C8.03222618,6.52587846 7.92334055,6.46972668 7.78271484,6.44628906 C7.71240199,6.43652339 7.5014666,6.43164062 7.14990234,6.43164062 L6.47314453,6.43164062 L6.47314453,7.52148438 Z M9.76025391,7.87890625 C9.76025391,7.44140406 9.82568294,7.07422023 9.95654297,6.77734375 C10.0541997,6.55859266 10.1874992,6.36230556 10.3564453,6.18847656 C10.5253915,6.01464757 10.7104482,5.88574261 10.9116211,5.80175781 C11.1792006,5.688476 11.4877912,5.63183594 11.8374023,5.63183594 C12.470218,5.63183594 12.9765606,5.82812304 13.3564453,6.22070312 C13.73633,6.61328321 13.9262695,7.15917619 13.9262695,7.85839844 C13.9262695,8.55176128 13.7377949,9.09423632 13.3608398,9.48583984 C12.9838848,9.87744336 12.4799836,10.0732422 11.8491211,10.0732422 C11.210446,10.0732422 10.7026386,9.87841992 10.3256836,9.48876953 C9.94872858,9.09911915 9.76025391,8.56250342 9.76025391,7.87890625 L9.76025391,7.87890625 Z M10.6538086,7.84960938 C10.6538086,8.33593993 10.7661122,8.70458859 10.9907227,8.95556641 C11.2153332,9.20654422 11.5004866,9.33203125 11.8461914,9.33203125 C12.1918963,9.33203125 12.4755848,9.20752078 12.6972656,8.95849609 C12.9189464,8.70947141 13.0297852,8.33593999 13.0297852,7.83789062 C13.0297852,7.34570066 12.9218761,6.97851684 12.7060547,6.73632812 C12.4902333,6.49413941 12.2036151,6.37304688 11.8461914,6.37304688 C11.4887677,6.37304688 11.2006847,6.49560424 10.9819336,6.74072266 C10.7631825,6.98584107 10.6538086,7.35546628 10.6538086,7.84960938 L10.6538086,7.84960938 Z M14.4272461,7.87890625 C14.4272461,7.44140406 14.4926751,7.07422023 14.6235352,6.77734375 C14.7211919,6.55859266 14.8544913,6.36230556 15.0234375,6.18847656 C15.1923837,6.01464757 15.3774404,5.88574261 15.5786133,5.80175781 C15.8461927,5.688476 16.1547834,5.63183594 16.5043945,5.63183594 C17.1372102,5.63183594 17.6435528,5.82812304 18.0234375,6.22070312 C18.4033222,6.61328321 18.5932617,7.15917619 18.5932617,7.85839844 C18.5932617,8.55176128 18.404787,9.09423632 18.027832,9.48583984 C17.650877,9.87744336 17.1469758,10.0732422 16.5161133,10.0732422 C15.8774382,10.0732422 15.3696308,9.87841992 14.9926758,9.48876953 C14.6157208,9.09911915 14.4272461,8.56250342 14.4272461,7.87890625 L14.4272461,7.87890625 Z M15.3208008,7.84960938 C15.3208008,8.33593993 15.4331043,8.70458859 15.6577148,8.95556641 C15.8823253,9.20654422 16.1674787,9.33203125 16.5131836,9.33203125 C16.8588884,9.33203125 17.142577,9.20752078 17.3642578,8.95849609 C17.5859386,8.70947141 17.6967773,8.33593999 17.6967773,7.83789062 C17.6967773,7.34570066 17.5888683,6.97851684 17.3730469,6.73632812 C17.1572255,6.49413941 16.8706073,6.37304688 16.5131836,6.37304688 C16.1557599,6.37304688 15.8676769,6.49560424 15.6489258,6.74072266 C15.4301747,6.98584107 15.3208008,7.35546628 15.3208008,7.84960938 L15.3208008,7.84960938 Z M20.2368164,10 L20.2368164,6.43164062 L18.9624023,6.43164062 L18.9624023,5.70507812 L22.3754883,5.70507812 L22.3754883,6.43164062 L21.1040039,6.43164062 L21.1040039,10 L20.2368164,10 Z" id="ZROOT-2" opacity="0.803171642" fill-opacity="0.600000024" fill="#000000" sketch:type="MSShapeGroup"></path>
            </g>
        </g>
    </g>
</svg>