<?xml version="1.0" encoding="UTF-8" standalone="no"?>
<svg width="24px" height="24px" viewBox="0 0 24 24" version="1.1" xmlns="http://www.w3.org/2000/svg" xmlns:xlink="http://www.w3.org/1999/xlink" xmlns:sketch="http://www.bohemiancoding.com/sketch/ns">
    <!-- Generator: Sketch 3.1.1 (8761) - http://www.bohemiancoding.com/sketch -->
    <title>tfre_db_driveslot</title>
    <desc>Created with Sketch.</desc>
    <defs></defs>
    <g id="ADC" stroke="none" stroke-width="1" fill="none" fill-rule="evenodd" sketch:type="MSPage">
        <g id="adc_services" sketch:type="MSArtboardGroup" transform="translate(-127.000000, -162.000000)">
            <g id="tfre_db_driveslot" sketch:type="MSLayerGroup" transform="translate(127.000000, 162.000000)">
                <g id="data-8" transform="translate(3.000000, 12.500000)" sketch:type="MSShapeGroup">
                    <g id="data" stroke-opacity="0.600000024" stroke="#000000">
                        <path d="M0.152913163,0.905159555 L0.152913163,6.46934373 C0.151061957,6.47377747 0.150243565,6.47809459 0.150243565,6.48255509 C0.150243565,6.4870156 0.151061957,6.49243367 0.152913163,6.4968674 L0.152913163,6.50787686 L0.158252359,6.50787686 C0.367139646,6.78210311 4.09704558,7 8.66359156,7 C13.2286972,7 16.9578881,6.78198122 17.1689308,6.50787686 L17.1769395,6.50787686 L17.1769395,6.4968674 C17.1787908,6.49243367 17.1796091,6.4870156 17.1796091,6.48255509 C17.1796091,6.47809459 17.1787908,6.47377747 17.1769395,6.46934373 L17.1769395,0.905159555 C17.1762954,0.905537013 17.1749611,0.905883467 17.1742699,0.906260502 C17.0198724,1.18352114 13.2661399,1.40498932 8.66359156,1.40498932 C4.06104316,1.40498932 0.309979495,1.18352114 0.155582761,0.906260502 C0.154891656,0.905883467 0.15355643,0.905537013 0.152913163,0.905159555 L0.152913163,0.905159555 Z" id="path5588"></path>
                        <path d="M17.1802795,0.534247951 C17.1802795,0.828378229 13.3678263,1.06681793 8.66492701,1.06681793 C3.96202771,1.06681793 0.149574552,0.828378229 0.149574552,0.534247951 C0.149574506,0.343979021 1.77259151,0.168163279 4.40725075,0.0730288131 C7.04190999,-0.0221056525 10.287944,-0.0221056525 12.9226033,0.0730288131 C15.5572625,0.168163279 17.1802795,0.343979021 17.1802795,0.534247951 L17.1802795,0.534247951 Z" id="path5584"></path>
                    </g>
                    <circle id="Oval-49" stroke="#979797" fill="#D8D8D8" cx="11.5" cy="4" r="0.5"></circle>
                    <circle id="Oval-49" stroke="#979797" fill="#D8D8D8" cx="14.5" cy="4" r="0.5"></circle>
                </g>
                <rect id="Rectangle-210" stroke="#979797" sketch:type="MSShapeGroup" x="1" y="10" width="21" height="12"></rect>
                <path d="M4.21728516,6.60253906 L5.06103516,6.52050781 C5.11181666,6.80371235 5.21484297,7.01171809 5.37011719,7.14453125 C5.5253914,7.27734441 5.73486196,7.34375 5.99853516,7.34375 C6.27783343,7.34375 6.48828054,7.28466856 6.62988281,7.16650391 C6.77148508,7.04833925 6.84228516,6.91015704 6.84228516,6.75195312 C6.84228516,6.65039012 6.8125003,6.5639652 6.75292969,6.49267578 C6.69335908,6.42138636 6.58935621,6.35937526 6.44091797,6.30664062 C6.33935496,6.2714842 6.10791196,6.20898482 5.74658203,6.11914062 C5.28173596,6.00390567 4.95556734,5.86230553 4.76806641,5.69433594 C4.50439321,5.45800663 4.37255859,5.16992357 4.37255859,4.83007812 C4.37255859,4.61132703 4.43456969,4.40673923 4.55859375,4.21630859 C4.68261781,4.02587795 4.86132696,3.88085987 5.09472656,3.78125 C5.32812617,3.68164013 5.60986163,3.63183594 5.93994141,3.63183594 C6.4790066,3.63183594 6.88476426,3.74999882 7.15722656,3.98632812 C7.42968886,4.22265743 7.57275384,4.53808396 7.58642578,4.93261719 L6.71923828,4.97070312 C6.68212872,4.7499989 6.60253967,4.59130908 6.48046875,4.49462891 C6.35839783,4.39794874 6.17529419,4.34960938 5.93115234,4.34960938 C5.67919796,4.34960938 5.48193431,4.40136667 5.33935547,4.50488281 C5.24755813,4.57128939 5.20166016,4.66015569 5.20166016,4.77148438 C5.20166016,4.87304738 5.24462848,4.95996058 5.33056641,5.03222656 C5.43994195,5.1240239 5.7055643,5.21972606 6.12744141,5.31933594 C6.54931852,5.41894581 6.86132711,5.52197212 7.06347656,5.62841797 C7.26562601,5.73486381 7.42382755,5.88037017 7.53808594,6.06494141 C7.65234432,6.24951264 7.70947266,6.47753771 7.70947266,6.74902344 C7.70947266,6.99511842 7.64111396,7.22558486 7.50439453,7.44042969 C7.3676751,7.65527451 7.17431766,7.81494088 6.92431641,7.91943359 C6.67431516,8.0239263 6.36279483,8.07617188 5.98974609,8.07617188 C5.44677463,8.07617188 5.02978661,7.95068485 4.73876953,7.69970703 C4.44775245,7.44872921 4.27392606,7.08301021 4.21728516,6.60253906 L4.21728516,6.60253906 Z M8.46240234,8 L8.46240234,3.74023438 L9.32958984,3.74023438 L9.32958984,7.27636719 L11.4858398,7.27636719 L11.4858398,8 L8.46240234,8 Z M11.9282227,5.87890625 C11.9282227,5.44140406 11.9936517,5.07422023 12.1245117,4.77734375 C12.2221685,4.55859266 12.3554679,4.36230556 12.5244141,4.18847656 C12.6933602,4.01464757 12.878417,3.88574261 13.0795898,3.80175781 C13.3471693,3.688476 13.65576,3.63183594 14.0053711,3.63183594 C14.6381868,3.63183594 15.1445294,3.82812304 15.5244141,4.22070312 C15.9042988,4.61328321 16.0942383,5.15917619 16.0942383,5.85839844 C16.0942383,6.55176128 15.9057636,7.09423632 15.5288086,7.48583984 C15.1518536,7.87744336 14.6479524,8.07324219 14.0170898,8.07324219 C13.3784148,8.07324219 12.8706074,7.87841992 12.4936523,7.48876953 C12.1166973,7.09911915 11.9282227,6.56250342 11.9282227,5.87890625 L11.9282227,5.87890625 Z M12.8217773,5.84960938 C12.8217773,6.33593993 12.9340809,6.70458859 13.1586914,6.95556641 C13.3833019,7.20654422 13.6684553,7.33203125 14.0141602,7.33203125 C14.359865,7.33203125 14.6435536,7.20752078 14.8652344,6.95849609 C15.0869152,6.70947141 15.1977539,6.33593999 15.1977539,5.83789062 C15.1977539,5.34570066 15.0898448,4.97851684 14.8740234,4.73632812 C14.658202,4.49413941 14.3715838,4.37304688 14.0141602,4.37304688 C13.6567365,4.37304688 13.3686534,4.49560424 13.1499023,4.74072266 C12.9311512,4.98584107 12.8217773,5.35546628 12.8217773,5.84960938 L12.8217773,5.84960938 Z M17.737793,8 L17.737793,4.43164062 L16.4633789,4.43164062 L16.4633789,3.70507812 L19.8764648,3.70507812 L19.8764648,4.43164062 L18.6049805,4.43164062 L18.6049805,8 L17.737793,8 Z" id="SLOT" opacity="0.803171642" fill-opacity="0.600000024" fill="#000000" sketch:type="MSShapeGroup"></path>
            </g>
        </g>
    </g>
</svg>