<?xml version="1.0" encoding="UTF-8" standalone="no"?>
<svg width="24px" height="24px" viewBox="0 0 24 24" version="1.1" xmlns="http://www.w3.org/2000/svg" xmlns:xlink="http://www.w3.org/1999/xlink" xmlns:sketch="http://www.bohemiancoding.com/sketch/ns">
    <!-- Generator: Sketch 3.1.1 (8761) - http://www.bohemiancoding.com/sketch -->
    <title>tfre_db_sata_disk</title>
    <desc>Created with Sketch.</desc>
    <defs></defs>
    <g id="ADC" stroke="none" stroke-width="1" fill="none" fill-rule="evenodd" sketch:type="MSPage">
        <g id="adc_services" sketch:type="MSArtboardGroup" transform="translate(-75.000000, -162.000000)">
            <g id="tfre_db_sata_disk" sketch:type="MSLayerGroup" transform="translate(75.000000, 162.000000)">
                <g id="data-8" transform="translate(3.000000, 14.500000)" sketch:type="MSShapeGroup">
                    <g id="data" stroke-opacity="0.600000024" stroke="#000000">
                        <path d="M0.152913163,0.905159555 L0.152913163,6.46934373 C0.151061957,6.47377747 0.150243565,6.47809459 0.150243565,6.48255509 C0.150243565,6.4870156 0.151061957,6.49243367 0.152913163,6.4968674 L0.152913163,6.50787686 L0.158252359,6.50787686 C0.367139646,6.78210311 4.09704558,7 8.66359156,7 C13.2286972,7 16.9578881,6.78198122 17.1689308,6.50787686 L17.1769395,6.50787686 L17.1769395,6.4968674 C17.1787908,6.49243367 17.1796091,6.4870156 17.1796091,6.48255509 C17.1796091,6.47809459 17.1787908,6.47377747 17.1769395,6.46934373 L17.1769395,0.905159555 C17.1762954,0.905537013 17.1749611,0.905883467 17.1742699,0.906260502 C17.0198724,1.18352114 13.2661399,1.40498932 8.66359156,1.40498932 C4.06104316,1.40498932 0.309979495,1.18352114 0.155582761,0.906260502 C0.154891656,0.905883467 0.15355643,0.905537013 0.152913163,0.905159555 L0.152913163,0.905159555 Z" id="path5588"></path>
                        <path d="M17.1802795,0.534247951 C17.1802795,0.828378229 13.3678263,1.06681793 8.66492701,1.06681793 C3.96202771,1.06681793 0.149574552,0.828378229 0.149574552,0.534247951 C0.149574506,0.343979021 1.77259151,0.168163279 4.40725075,0.0730288131 C7.04190999,-0.0221056525 10.287944,-0.0221056525 12.9226033,0.0730288131 C15.5572625,0.168163279 17.1802795,0.343979021 17.1802795,0.534247951 L17.1802795,0.534247951 Z" id="path5584"></path>
                    </g>
                    <circle id="Oval-49" stroke="#979797" fill="#D8D8D8" cx="11.5" cy="4" r="0.5"></circle>
                    <circle id="Oval-49" stroke="#979797" fill="#D8D8D8" cx="14.5" cy="4" r="0.5"></circle>
                </g>
                <path d="M4.49560547,5.60253906 L5.33935547,5.52050781 C5.39013697,5.80371235 5.49316329,6.01171809 5.6484375,6.14453125 C5.80371171,6.27734441 6.01318228,6.34375 6.27685547,6.34375 C6.55615374,6.34375 6.76660085,6.28466856 6.90820312,6.16650391 C7.0498054,6.04833925 7.12060547,5.91015704 7.12060547,5.75195312 C7.12060547,5.65039012 7.09082061,5.5639652 7.03125,5.49267578 C6.97167939,5.42138636 6.86767652,5.35937526 6.71923828,5.30664062 C6.61767527,5.2714842 6.38623228,5.20898482 6.02490234,5.11914062 C5.56005627,5.00390567 5.23388766,4.86230553 5.04638672,4.69433594 C4.78271353,4.45800663 4.65087891,4.16992357 4.65087891,3.83007812 C4.65087891,3.61132703 4.71289,3.40673923 4.83691406,3.21630859 C4.96093812,3.02587795 5.13964727,2.88085987 5.37304688,2.78125 C5.60644648,2.68164013 5.88818194,2.63183594 6.21826172,2.63183594 C6.75732691,2.63183594 7.16308458,2.74999882 7.43554688,2.98632812 C7.70800917,3.22265743 7.85107415,3.53808396 7.86474609,3.93261719 L6.99755859,3.97070312 C6.96044903,3.7499989 6.88085999,3.59130908 6.75878906,3.49462891 C6.63671814,3.39794874 6.4536145,3.34960938 6.20947266,3.34960938 C5.95751827,3.34960938 5.76025462,3.40136667 5.61767578,3.50488281 C5.52587845,3.57128939 5.47998047,3.66015569 5.47998047,3.77148438 C5.47998047,3.87304738 5.52294879,3.95996058 5.60888672,4.03222656 C5.71826227,4.1240239 5.98388461,4.21972606 6.40576172,4.31933594 C6.82763883,4.41894581 7.13964743,4.52197212 7.34179688,4.62841797 C7.54394632,4.73486381 7.70214787,4.88037017 7.81640625,5.06494141 C7.93066463,5.24951264 7.98779297,5.47753771 7.98779297,5.74902344 C7.98779297,5.99511842 7.91943428,6.22558486 7.78271484,6.44042969 C7.64599541,6.65527451 7.45263797,6.81494088 7.20263672,6.91943359 C6.95263547,7.0239263 6.64111515,7.07617188 6.26806641,7.07617188 C5.72509494,7.07617188 5.30810692,6.95068485 5.01708984,6.69970703 C4.72607276,6.44872921 4.55224638,6.08301021 4.49560547,5.60253906 L4.49560547,5.60253906 Z M12.590332,7 L11.6469727,7 L11.2719727,6.02441406 L9.55517578,6.02441406 L9.20068359,7 L8.28076172,7 L9.95361328,2.70507812 L10.8706055,2.70507812 L12.590332,7 Z M10.9936523,5.30078125 L10.4018555,3.70703125 L9.82177734,5.30078125 L10.9936523,5.30078125 Z M13.5717773,7 L13.5717773,3.43164062 L12.2973633,3.43164062 L12.2973633,2.70507812 L15.7104492,2.70507812 L15.7104492,3.43164062 L14.4389648,3.43164062 L14.4389648,7 L13.5717773,7 Z M19.6977539,7 L18.7543945,7 L18.3793945,6.02441406 L16.6625977,6.02441406 L16.3081055,7 L15.3881836,7 L17.0610352,2.70507812 L17.9780273,2.70507812 L19.6977539,7 Z M18.1010742,5.30078125 L17.5092773,3.70703125 L16.9291992,5.30078125 L18.1010742,5.30078125 Z M5.26611328,7.70507812 L6.85107422,7.70507812 C7.20849788,7.70507812 7.48095609,7.7324216 7.66845703,7.78710938 C7.92041142,7.8613285 8.13622957,7.99316312 8.31591797,8.18261719 C8.49560637,8.37207126 8.63232375,8.60400253 8.72607422,8.87841797 C8.81982469,9.1528334 8.86669922,9.49120893 8.86669922,9.89355469 C8.86669922,10.2470721 8.82275435,10.5517565 8.73486328,10.8076172 C8.62744087,11.1201187 8.47412209,11.3730459 8.27490234,11.5664062 C8.12451097,11.7128914 7.921388,11.827148 7.66552734,11.9091797 C7.47412014,11.9697269 7.21826332,12 6.89794922,12 L5.26611328,12 L5.26611328,7.70507812 Z M6.13330078,8.43164062 L6.13330078,11.2763672 L6.78076172,11.2763672 C7.02295043,11.2763672 7.19775337,11.2626954 7.30517578,11.2353516 C7.44580148,11.2001951 7.56249954,11.1406254 7.65527344,11.0566406 C7.74804734,10.9726558 7.82373018,10.8344736 7.88232422,10.6420898 C7.94091826,10.4497061 7.97021484,10.1875017 7.97021484,9.85546875 C7.97021484,9.52343584 7.94091826,9.26855558 7.88232422,9.09082031 C7.82373018,8.91308505 7.74169975,8.77441456 7.63623047,8.67480469 C7.53076119,8.57519481 7.39697347,8.50781268 7.23486328,8.47265625 C7.11376893,8.44531236 6.87646661,8.43164062 6.52294922,8.43164062 L6.13330078,8.43164062 Z M9.57568359,12 L9.57568359,7.70507812 L10.4428711,7.70507812 L10.4428711,12 L9.57568359,12 Z M11.0493164,10.6025391 L11.8930664,10.5205078 C11.9438479,10.8037124 12.0468742,11.0117181 12.2021484,11.1445312 C12.3574227,11.2773444 12.5668932,11.34375 12.8305664,11.34375 C13.1098647,11.34375 13.3203118,11.2846686 13.4619141,11.1665039 C13.6035163,11.0483393 13.6743164,10.910157 13.6743164,10.7519531 C13.6743164,10.6503901 13.6445315,10.5639652 13.5849609,10.4926758 C13.5253903,10.4213864 13.4213875,10.3593753 13.2729492,10.3066406 C13.1713862,10.2714842 12.9399432,10.2089848 12.5786133,10.1191406 C12.1137672,10.0039057 11.7875986,9.86230553 11.6000977,9.69433594 C11.3364245,9.45800663 11.2045898,9.16992357 11.2045898,8.83007812 C11.2045898,8.61132703 11.2666009,8.40673923 11.390625,8.21630859 C11.5146491,8.02587795 11.6933582,7.88085987 11.9267578,7.78125 C12.1601574,7.68164013 12.4418929,7.63183594 12.7719727,7.63183594 C13.3110379,7.63183594 13.7167955,7.74999882 13.9892578,7.98632812 C14.2617201,8.22265743 14.4047851,8.53808396 14.418457,8.93261719 L13.5512695,8.97070312 C13.51416,8.7499989 13.4345709,8.59130908 13.3125,8.49462891 C13.1904291,8.39794874 13.0073254,8.34960938 12.7631836,8.34960938 C12.5112292,8.34960938 12.3139656,8.40136667 12.1713867,8.50488281 C12.0795894,8.57128939 12.0336914,8.66015569 12.0336914,8.77148438 C12.0336914,8.87304738 12.0766597,8.95996058 12.1625977,9.03222656 C12.2719732,9.1240239 12.5375955,9.21972606 12.9594727,9.31933594 C13.3813498,9.41894581 13.6933584,9.52197212 13.8955078,9.62841797 C14.0976573,9.73486381 14.2558588,9.88037017 14.3701172,10.0649414 C14.4843756,10.2495126 14.5415039,10.4775377 14.5415039,10.7490234 C14.5415039,10.9951184 14.4731452,11.2255849 14.3364258,11.4404297 C14.1997063,11.6552745 14.0063489,11.8149409 13.7563477,11.9194336 C13.5063464,12.0239263 13.1948261,12.0761719 12.8217773,12.0761719 C12.2788059,12.0761719 11.8618179,11.9506848 11.5708008,11.699707 C11.2797837,11.4487292 11.1059573,11.0830102 11.0493164,10.6025391 L11.0493164,10.6025391 Z M15.2827148,12 L15.2827148,7.70507812 L16.1499023,7.70507812 L16.1499023,9.61230469 L17.9018555,7.70507812 L19.0678711,7.70507812 L17.4506836,9.37792969 L19.1557617,12 L18.0336914,12 L16.8530273,9.984375 L16.1499023,10.7021484 L16.1499023,12 L15.2827148,12 Z" id="SATA" opacity="0.803171642" fill-opacity="0.600000024" fill="#000000" sketch:type="MSShapeGroup"></path>
            </g>
        </g>
    </g>
</svg>