<?xml version="1.0" encoding="UTF-8" standalone="no"?>
<svg width="24px" height="24px" viewBox="0 0 24 24" version="1.1" xmlns="http://www.w3.org/2000/svg" xmlns:xlink="http://www.w3.org/1999/xlink" xmlns:sketch="http://www.bohemiancoding.com/sketch/ns">
    <!-- Generator: Sketch 3.1.1 (8761) - http://www.bohemiancoding.com/sketch -->
    <title>tfre_db_zfs_log</title>
    <desc>Created with Sketch.</desc>
    <defs></defs>
    <g id="ADC" stroke="none" stroke-width="1" fill="none" fill-rule="evenodd" sketch:type="MSPage">
        <g id="adc_services" sketch:type="MSArtboardGroup" transform="translate(-75.000000, -137.000000)">
            <g id="tfre_db_zfs_log" sketch:type="MSLayerGroup" transform="translate(75.000000, 137.000000)">
                <g id="data-8" transform="translate(3.000000, 13.500000)" stroke-opacity="0.600000024" stroke="#000000" sketch:type="MSShapeGroup">
                    <g id="data">
                        <path d="M0.152913163,0.905159555 L0.152913163,6.46934373 C0.151061957,6.47377747 0.150243565,6.47809459 0.150243565,6.48255509 C0.150243565,6.4870156 0.151061957,6.49243367 0.152913163,6.4968674 L0.152913163,6.50787686 L0.158252359,6.50787686 C0.367139646,6.78210311 4.09704558,7 8.66359156,7 C13.2286972,7 16.9578881,6.78198122 17.1689308,6.50787686 L17.1769395,6.50787686 L17.1769395,6.4968674 C17.1787908,6.49243367 17.1796091,6.4870156 17.1796091,6.48255509 C17.1796091,6.47809459 17.1787908,6.47377747 17.1769395,6.46934373 L17.1769395,0.905159555 C17.1762954,0.905537013 17.1749611,0.905883467 17.1742699,0.906260502 C17.0198724,1.18352114 13.2661399,1.40498932 8.66359156,1.40498932 C4.06104316,1.40498932 0.309979495,1.18352114 0.155582761,0.906260502 C0.154891656,0.905883467 0.15355643,0.905537013 0.152913163,0.905159555 L0.152913163,0.905159555 Z" id="path5588"></path>
                        <path d="M17.1802795,0.534247951 C17.1802795,0.828378229 13.3678263,1.06681793 8.66492701,1.06681793 C3.96202771,1.06681793 0.149574552,0.828378229 0.149574552,0.534247951 C0.149574506,0.343979021 1.77259151,0.168163279 4.40725075,0.0730288131 C7.04190999,-0.0221056525 10.287944,-0.0221056525 12.9226033,0.0730288131 C15.5572625,0.168163279 17.1802795,0.343979021 17.1802795,0.534247951 L17.1802795,0.534247951 Z" id="path5584"></path>
                    </g>
                </g>
                <path d="M3.71630859,8.60253906 L4.56005859,8.52050781 C4.6108401,8.80371235 4.71386641,9.01171809 4.86914062,9.14453125 C5.02441484,9.27734441 5.2338854,9.34375 5.49755859,9.34375 C5.77685687,9.34375 5.98730398,9.28466856 6.12890625,9.16650391 C6.27050852,9.04833925 6.34130859,8.91015704 6.34130859,8.75195312 C6.34130859,8.65039012 6.31152374,8.5639652 6.25195312,8.49267578 C6.19238251,8.42138636 6.08837965,8.35937526 5.93994141,8.30664062 C5.8383784,8.2714842 5.6069354,8.20898482 5.24560547,8.11914062 C4.78075939,8.00390567 4.45459078,7.86230553 4.26708984,7.69433594 C4.00341665,7.45800663 3.87158203,7.16992357 3.87158203,6.83007812 C3.87158203,6.61132703 3.93359313,6.40673923 4.05761719,6.21630859 C4.18164125,6.02587795 4.3603504,5.88085987 4.59375,5.78125 C4.8271496,5.68164013 5.10888507,5.63183594 5.43896484,5.63183594 C5.97803004,5.63183594 6.3837877,5.74999882 6.65625,5.98632812 C6.9287123,6.22265743 7.07177728,6.53808396 7.08544922,6.93261719 L6.21826172,6.97070312 C6.18115216,6.7499989 6.10156311,6.59130908 5.97949219,6.49462891 C5.85742126,6.39794874 5.67431763,6.34960938 5.43017578,6.34960938 C5.1782214,6.34960938 4.98095774,6.40136667 4.83837891,6.50488281 C4.74658157,6.57128939 4.70068359,6.66015569 4.70068359,6.77148438 C4.70068359,6.87304738 4.74365191,6.95996058 4.82958984,7.03222656 C4.93896539,7.1240239 5.20458773,7.21972606 5.62646484,7.31933594 C6.04834195,7.41894581 6.36035055,7.52197212 6.5625,7.62841797 C6.76464945,7.73486381 6.92285099,7.88037017 7.03710938,8.06494141 C7.15136776,8.24951264 7.20849609,8.47753771 7.20849609,8.74902344 C7.20849609,8.99511842 7.1401374,9.22558486 7.00341797,9.44042969 C6.86669854,9.65527451 6.67334109,9.81494088 6.42333984,9.91943359 C6.17333859,10.0239263 5.86181827,10.0761719 5.48876953,10.0761719 C4.94579807,10.0761719 4.52881005,9.95068485 4.23779297,9.69970703 C3.94677589,9.44872921 3.7729495,9.08301021 3.71630859,8.60253906 L3.71630859,8.60253906 Z M7.96142578,10 L7.96142578,5.74023438 L8.82861328,5.74023438 L8.82861328,9.27636719 L10.9848633,9.27636719 L10.9848633,10 L7.96142578,10 Z M11.4272461,7.87890625 C11.4272461,7.44140406 11.4926751,7.07422023 11.6235352,6.77734375 C11.7211919,6.55859266 11.8544913,6.36230556 12.0234375,6.18847656 C12.1923837,6.01464757 12.3774404,5.88574261 12.5786133,5.80175781 C12.8461927,5.688476 13.1547834,5.63183594 13.5043945,5.63183594 C14.1372102,5.63183594 14.6435528,5.82812304 15.0234375,6.22070312 C15.4033222,6.61328321 15.5932617,7.15917619 15.5932617,7.85839844 C15.5932617,8.55176128 15.404787,9.09423632 15.027832,9.48583984 C14.650877,9.87744336 14.1469758,10.0732422 13.5161133,10.0732422 C12.8774382,10.0732422 12.3696308,9.87841992 11.9926758,9.48876953 C11.6157208,9.09911915 11.4272461,8.56250342 11.4272461,7.87890625 L11.4272461,7.87890625 Z M12.3208008,7.84960938 C12.3208008,8.33593993 12.4331043,8.70458859 12.6577148,8.95556641 C12.8823253,9.20654422 13.1674787,9.33203125 13.5131836,9.33203125 C13.8588884,9.33203125 14.142577,9.20752078 14.3642578,8.95849609 C14.5859386,8.70947141 14.6967773,8.33593999 14.6967773,7.83789062 C14.6967773,7.34570066 14.5888683,6.97851684 14.3730469,6.73632812 C14.1572255,6.49413941 13.8706073,6.37304688 13.5131836,6.37304688 C13.1557599,6.37304688 12.8676769,6.49560424 12.6489258,6.74072266 C12.4301747,6.98584107 12.3208008,7.35546628 12.3208008,7.84960938 L12.3208008,7.84960938 Z M18.2680664,8.42089844 L18.2680664,7.69726562 L20.137207,7.69726562 L20.137207,9.40820312 C19.9555655,9.58398525 19.6923845,9.73876886 19.3476562,9.87255859 C19.002928,10.0063483 18.6538104,10.0732422 18.300293,10.0732422 C17.851072,10.0732422 17.4594743,9.97900485 17.1254883,9.79052734 C16.7915022,9.60204984 16.5405282,9.33252128 16.3725586,8.98193359 C16.204589,8.6313459 16.1206055,8.25000206 16.1206055,7.83789062 C16.1206055,7.39062276 16.2143545,6.9931658 16.4018555,6.64550781 C16.5893564,6.29784982 16.8637677,6.03125093 17.2250977,5.84570312 C17.5004897,5.70312429 17.8432597,5.63183594 18.253418,5.63183594 C18.7866238,5.63183594 19.2031235,5.74365123 19.5029297,5.96728516 C19.8027359,6.19091909 19.995605,6.49999803 20.081543,6.89453125 L19.2202148,7.05566406 C19.1596677,6.84472551 19.0458993,6.67822327 18.8789062,6.55615234 C18.7119132,6.43408142 18.5034192,6.37304688 18.253418,6.37304688 C17.8745098,6.37304688 17.5732433,6.49316286 17.3496094,6.73339844 C17.1259754,6.97363401 17.0141602,7.33007576 17.0141602,7.80273438 C17.0141602,8.31250255 17.1274403,8.69482294 17.3540039,8.94970703 C17.5805675,9.20459112 17.8774396,9.33203125 18.2446289,9.33203125 C18.4262704,9.33203125 18.6083975,9.29638708 18.7910156,9.22509766 C18.9736337,9.15380824 19.1303704,9.06738332 19.2612305,8.96582031 L19.2612305,8.42089844 L18.2680664,8.42089844 Z" id="SLOG" opacity="0.803171642" fill-opacity="0.600000024" fill="#000000" sketch:type="MSShapeGroup"></path>
            </g>
        </g>
    </g>
</svg>