<?xml version="1.0" encoding="UTF-8" standalone="no"?>
<svg width="24px" height="24px" viewBox="0 0 24 24" version="1.1" xmlns="http://www.w3.org/2000/svg" xmlns:xlink="http://www.w3.org/1999/xlink" xmlns:sketch="http://www.bohemiancoding.com/sketch/ns">
    <!-- Generator: Sketch 3.1.1 (8761) - http://www.bohemiancoding.com/sketch -->
    <title>tfre_db_zfs_vdev</title>
    <desc>Created with Sketch.</desc>
    <defs></defs>
    <g id="ADC" stroke="none" stroke-width="1" fill="none" fill-rule="evenodd" sketch:type="MSPage">
        <g id="adc_services" sketch:type="MSArtboardGroup" transform="translate(-127.000000, -137.000000)">
            <g id="tfre_db_zfs_vdev" sketch:type="MSLayerGroup" transform="translate(127.000000, 137.000000)">
                <g id="data-8" transform="translate(3.000000, 13.500000)" stroke-opacity="0.600000024" stroke="#000000" sketch:type="MSShapeGroup">
                    <g id="data">
                        <path d="M0.152913163,0.905159555 L0.152913163,6.46934373 C0.151061957,6.47377747 0.150243565,6.47809459 0.150243565,6.48255509 C0.150243565,6.4870156 0.151061957,6.49243367 0.152913163,6.4968674 L0.152913163,6.50787686 L0.158252359,6.50787686 C0.367139646,6.78210311 4.09704558,7 8.66359156,7 C13.2286972,7 16.9578881,6.78198122 17.1689308,6.50787686 L17.1769395,6.50787686 L17.1769395,6.4968674 C17.1787908,6.49243367 17.1796091,6.4870156 17.1796091,6.48255509 C17.1796091,6.47809459 17.1787908,6.47377747 17.1769395,6.46934373 L17.1769395,0.905159555 C17.1762954,0.905537013 17.1749611,0.905883467 17.1742699,0.906260502 C17.0198724,1.18352114 13.2661399,1.40498932 8.66359156,1.40498932 C4.06104316,1.40498932 0.309979495,1.18352114 0.155582761,0.906260502 C0.154891656,0.905883467 0.15355643,0.905537013 0.152913163,0.905159555 L0.152913163,0.905159555 Z" id="path5588"></path>
                        <path d="M17.1802795,0.534247951 C17.1802795,0.828378229 13.3678263,1.06681793 8.66492701,1.06681793 C3.96202771,1.06681793 0.149574552,0.828378229 0.149574552,0.534247951 C0.149574506,0.343979021 1.77259151,0.168163279 4.40725075,0.0730288131 C7.04190999,-0.0221056525 10.287944,-0.0221056525 12.9226033,0.0730288131 C15.5572625,0.168163279 17.1802795,0.343979021 17.1802795,0.534247951 L17.1802795,0.534247951 Z" id="path5584"></path>
                    </g>
                </g>
                <path d="M4.36279297,10 L2.82763672,5.70507812 L3.76806641,5.70507812 L4.85498047,8.88378906 L5.90673828,5.70507812 L6.82666016,5.70507812 L5.28857422,10 L4.36279297,10 Z M7.26611328,5.70507812 L8.85107422,5.70507812 C9.20849788,5.70507812 9.48095609,5.7324216 9.66845703,5.78710938 C9.92041142,5.8613285 10.1362296,5.99316312 10.315918,6.18261719 C10.4956064,6.37207126 10.6323237,6.60400253 10.7260742,6.87841797 C10.8198247,7.1528334 10.8666992,7.49120893 10.8666992,7.89355469 C10.8666992,8.24707208 10.8227543,8.55175653 10.7348633,8.80761719 C10.6274409,9.12011875 10.4741221,9.37304591 10.2749023,9.56640625 C10.124511,9.71289136 9.921388,9.82714803 9.66552734,9.90917969 C9.47412014,9.96972687 9.21826332,10 8.89794922,10 L7.26611328,10 L7.26611328,5.70507812 Z M8.13330078,6.43164062 L8.13330078,9.27636719 L8.78076172,9.27636719 C9.02295043,9.27636719 9.19775337,9.26269545 9.30517578,9.23535156 C9.44580148,9.20019514 9.56249954,9.14062542 9.65527344,9.05664062 C9.74804734,8.97265583 9.82373018,8.83447362 9.88232422,8.64208984 C9.94091826,8.44970607 9.97021484,8.18750166 9.97021484,7.85546875 C9.97021484,7.52343584 9.94091826,7.26855558 9.88232422,7.09082031 C9.82373018,6.91308505 9.74169975,6.77441456 9.63623047,6.67480469 C9.53076119,6.57519481 9.39697347,6.50781268 9.23486328,6.47265625 C9.11376893,6.44531236 8.87646661,6.43164062 8.52294922,6.43164062 L8.13330078,6.43164062 Z M11.6020508,10 L11.6020508,5.70507812 L14.7866211,5.70507812 L14.7866211,6.43164062 L12.4692383,6.43164062 L12.4692383,7.38378906 L14.6254883,7.38378906 L14.6254883,8.10742188 L12.4692383,8.10742188 L12.4692383,9.27636719 L14.8686523,9.27636719 L14.8686523,10 L11.6020508,10 Z M16.699707,10 L15.1645508,5.70507812 L16.1049805,5.70507812 L17.1918945,8.88378906 L18.2436523,5.70507812 L19.1635742,5.70507812 L17.6254883,10 L16.699707,10 Z" id="VDEV" opacity="0.803171642" fill-opacity="0.600000024" fill="#000000" sketch:type="MSShapeGroup"></path>
            </g>
        </g>
    </g>
</svg>