<?xml version="1.0" encoding="UTF-8" standalone="no"?>
<svg width="24px" height="24px" viewBox="0 0 24 24" version="1.1" xmlns="http://www.w3.org/2000/svg" xmlns:xlink="http://www.w3.org/1999/xlink" xmlns:sketch="http://www.bohemiancoding.com/sketch/ns">
    <!-- Generator: Sketch 3.1.1 (8761) - http://www.bohemiancoding.com/sketch -->
    <title>tfre_db_machine</title>
    <desc>Created with Sketch.</desc>
    <defs></defs>
    <g id="ADC" stroke="none" stroke-width="1" fill="none" fill-rule="evenodd" sketch:type="MSPage">
        <g id="adc_services" sketch:type="MSArtboardGroup" transform="translate(-24.000000, -112.000000)">
            <g id="tfre_db_machine" sketch:type="MSLayerGroup" transform="translate(24.000000, 112.000000)">
                <g id="machine" transform="translate(1.000000, 0.000000)" sketch:type="MSShapeGroup">
                    <g id="datacenter-3" transform="translate(0.666667, 12.160000)" fill-opacity="0.600000024" fill="#000000">
                        <rect id="Rectangle-98" stroke-opacity="0.600000024" stroke="#000000" stroke-width="0.2" opacity="0.600391805" x="0" y="0" width="20.6666667" height="5.12" rx="1"></rect>
                        <rect id="Rectangle-99" opacity="0.631646455" x="1" y="0.96" width="4.33333333" height="1.28" rx="1"></rect>
                        <rect id="Rectangle-100" opacity="0.631646455" x="6" y="0.96" width="4.33333333" height="1.28" rx="1"></rect>
                        <rect id="Rectangle-101" opacity="0.631646455" x="11" y="0.96" width="4.33333333" height="1.28" rx="1"></rect>
                        <rect id="Rectangle-104" opacity="0.631646455" x="1" y="2.56" width="4.33333333" height="1.28" rx="1"></rect>
                        <rect id="Rectangle-102" opacity="0.631646455" x="6" y="2.56" width="4.33333333" height="1.28" rx="1"></rect>
                        <rect id="Rectangle-103" opacity="0.631646455" x="11" y="2.56" width="4.33333333" height="1.28" rx="1"></rect>
                        <ellipse id="Oval-22" cx="17" cy="1.6" rx="0.666666667" ry="0.64"></ellipse>
                        <ellipse id="Oval-23" cx="19" cy="1.6" rx="0.666666667" ry="0.64"></ellipse>
                    </g>
                    <g id="datacenter-4" transform="translate(0.666667, 17.600000)" fill-opacity="0.600000024" fill="#000000">
                        <rect id="Rectangle-98" stroke-opacity="0.600000024" stroke="#000000" stroke-width="0.2" opacity="0.600391805" x="0" y="0" width="20.6666667" height="5.12" rx="1"></rect>
                        <rect id="Rectangle-99" opacity="0.631646455" x="1" y="0.96" width="4.33333333" height="1.28" rx="1"></rect>
                        <rect id="Rectangle-100" opacity="0.631646455" x="6" y="0.96" width="4.33333333" height="1.28" rx="1"></rect>
                        <rect id="Rectangle-101" opacity="0.631646455" x="11" y="0.96" width="4.33333333" height="1.28" rx="1"></rect>
                        <rect id="Rectangle-104" opacity="0.631646455" x="1" y="2.56" width="4.33333333" height="1.28" rx="1"></rect>
                        <rect id="Rectangle-102" opacity="0.631646455" x="6" y="2.56" width="4.33333333" height="1.28" rx="1"></rect>
                        <rect id="Rectangle-103" opacity="0.631646455" x="11" y="2.56" width="4.33333333" height="1.28" rx="1"></rect>
                        <ellipse id="Oval-22" cx="17" cy="1.6" rx="0.666666667" ry="0.64"></ellipse>
                        <ellipse id="Oval-23" cx="19" cy="1.6" rx="0.666666667" ry="0.64"></ellipse>
                    </g>
                    <g id="datacenter-2" transform="translate(0.666667, 6.720000)" fill-opacity="0.600000024" fill="#000000">
                        <rect id="Rectangle-98" stroke-opacity="0.600000024" stroke="#000000" stroke-width="0.2" opacity="0.600391805" x="0" y="0" width="20.6666667" height="5.12" rx="1"></rect>
                        <rect id="Rectangle-99" opacity="0.631646455" x="1" y="0.96" width="4.33333333" height="1.28" rx="1"></rect>
                        <rect id="Rectangle-100" opacity="0.631646455" x="6" y="0.96" width="4.33333333" height="1.28" rx="1"></rect>
                        <rect id="Rectangle-101" opacity="0.631646455" x="11" y="0.96" width="4.33333333" height="1.28" rx="1"></rect>
                        <rect id="Rectangle-104" opacity="0.631646455" x="1" y="2.56" width="4.33333333" height="1.28" rx="1"></rect>
                        <rect id="Rectangle-102" opacity="0.631646455" x="6" y="2.56" width="4.33333333" height="1.28" rx="1"></rect>
                        <rect id="Rectangle-103" opacity="0.631646455" x="11" y="2.56" width="4.33333333" height="1.28" rx="1"></rect>
                        <ellipse id="Oval-22" cx="17" cy="1.6" rx="0.666666667" ry="0.64"></ellipse>
                        <ellipse id="Oval-23" cx="19" cy="1.6" rx="0.666666667" ry="0.64"></ellipse>
                    </g>
                    <g id="datacenter" transform="translate(0.666667, 1.280000)" fill-opacity="0.600000024" fill="#000000">
                        <rect id="Rectangle-98" stroke-opacity="0.600000024" stroke="#000000" stroke-width="0.2" opacity="0.600391805" x="0" y="0" width="20.6666667" height="5.12" rx="1"></rect>
                        <rect id="Rectangle-99" opacity="0.631646455" x="1" y="0.96" width="4.33333333" height="1.28" rx="1"></rect>
                        <rect id="Rectangle-100" opacity="0.631646455" x="6" y="0.96" width="4.33333333" height="1.28" rx="1"></rect>
                        <rect id="Rectangle-101" opacity="0.631646455" x="11" y="0.96" width="4.33333333" height="1.28" rx="1"></rect>
                        <rect id="Rectangle-104" opacity="0.631646455" x="1" y="2.56" width="4.33333333" height="1.28" rx="1"></rect>
                        <rect id="Rectangle-102" opacity="0.631646455" x="6" y="2.56" width="4.33333333" height="1.28" rx="1"></rect>
                        <rect id="Rectangle-103" opacity="0.631646455" x="11" y="2.56" width="4.33333333" height="1.28" rx="1"></rect>
                        <ellipse id="Oval-22" cx="17" cy="1.6" rx="0.666666667" ry="0.64"></ellipse>
                        <ellipse id="Oval-23" cx="19" cy="1.6" rx="0.666666667" ry="0.64"></ellipse>
                    </g>
                    <rect id="Rectangle-118" stroke="#000000" stroke-width="0.1" x="0" y="0" width="22" height="24" rx="1"></rect>
                </g>
            </g>
        </g>
    </g>
</svg>