<?xml version="1.0" encoding="UTF-8" standalone="no"?>
<svg width="24px" height="24px" viewBox="0 0 24 24" version="1.1" xmlns="http://www.w3.org/2000/svg" xmlns:xlink="http://www.w3.org/1999/xlink" xmlns:sketch="http://www.bohemiancoding.com/sketch/ns">
    <!-- Generator: Sketch 3.1.1 (8761) - http://www.bohemiancoding.com/sketch -->
    <title>tfre_db_sas_disk</title>
    <desc>Created with Sketch.</desc>
    <defs></defs>
    <g id="ADC" stroke="none" stroke-width="1" fill="none" fill-rule="evenodd" sketch:type="MSPage">
        <g id="adc_services" sketch:type="MSArtboardGroup" transform="translate(-49.000000, -162.000000)">
            <g id="tfre_db_sas_disk" sketch:type="MSLayerGroup" transform="translate(49.000000, 162.000000)">
                <g id="data-8" transform="translate(3.000000, 14.500000)" sketch:type="MSShapeGroup">
                    <g id="data" stroke-opacity="0.600000024" stroke="#000000">
                        <path d="M0.152913163,0.905159555 L0.152913163,6.46934373 C0.151061957,6.47377747 0.150243565,6.47809459 0.150243565,6.48255509 C0.150243565,6.4870156 0.151061957,6.49243367 0.152913163,6.4968674 L0.152913163,6.50787686 L0.158252359,6.50787686 C0.367139646,6.78210311 4.09704558,7 8.66359156,7 C13.2286972,7 16.9578881,6.78198122 17.1689308,6.50787686 L17.1769395,6.50787686 L17.1769395,6.4968674 C17.1787908,6.49243367 17.1796091,6.4870156 17.1796091,6.48255509 C17.1796091,6.47809459 17.1787908,6.47377747 17.1769395,6.46934373 L17.1769395,0.905159555 C17.1762954,0.905537013 17.1749611,0.905883467 17.1742699,0.906260502 C17.0198724,1.18352114 13.2661399,1.40498932 8.66359156,1.40498932 C4.06104316,1.40498932 0.309979495,1.18352114 0.155582761,0.906260502 C0.154891656,0.905883467 0.15355643,0.905537013 0.152913163,0.905159555 L0.152913163,0.905159555 Z" id="path5588"></path>
                        <path d="M17.1802795,0.534247951 C17.1802795,0.828378229 13.3678263,1.06681793 8.66492701,1.06681793 C3.96202771,1.06681793 0.149574552,0.828378229 0.149574552,0.534247951 C0.149574506,0.343979021 1.77259151,0.168163279 4.40725075,0.0730288131 C7.04190999,-0.0221056525 10.287944,-0.0221056525 12.9226033,0.0730288131 C15.5572625,0.168163279 17.1802795,0.343979021 17.1802795,0.534247951 L17.1802795,0.534247951 Z" id="path5584"></path>
                    </g>
                    <circle id="Oval-49" stroke="#979797" fill="#D8D8D8" cx="11.5" cy="4" r="0.5"></circle>
                    <circle id="Oval-49" stroke="#979797" fill="#D8D8D8" cx="14.5" cy="4" r="0.5"></circle>
                </g>
                <path d="M6.04833984,5.60253906 L6.89208984,5.52050781 C6.94287135,5.80371235 7.04589766,6.01171809 7.20117188,6.14453125 C7.35644609,6.27734441 7.56591665,6.34375 7.82958984,6.34375 C8.10888812,6.34375 8.31933523,6.28466856 8.4609375,6.16650391 C8.60253977,6.04833925 8.67333984,5.91015704 8.67333984,5.75195312 C8.67333984,5.65039012 8.64355499,5.5639652 8.58398438,5.49267578 C8.52441376,5.42138636 8.4204109,5.35937526 8.27197266,5.30664062 C8.17040965,5.2714842 7.93896665,5.20898482 7.57763672,5.11914062 C7.11279064,5.00390567 6.78662203,4.86230553 6.59912109,4.69433594 C6.3354479,4.45800663 6.20361328,4.16992357 6.20361328,3.83007812 C6.20361328,3.61132703 6.26562438,3.40673923 6.38964844,3.21630859 C6.5136725,3.02587795 6.69238165,2.88085987 6.92578125,2.78125 C7.15918085,2.68164013 7.44091632,2.63183594 7.77099609,2.63183594 C8.31006129,2.63183594 8.71581895,2.74999882 8.98828125,2.98632812 C9.26074355,3.22265743 9.40380853,3.53808396 9.41748047,3.93261719 L8.55029297,3.97070312 C8.51318341,3.7499989 8.43359436,3.59130908 8.31152344,3.49462891 C8.18945251,3.39794874 8.00634888,3.34960938 7.76220703,3.34960938 C7.51025265,3.34960938 7.31298899,3.40136667 7.17041016,3.50488281 C7.07861282,3.57128939 7.03271484,3.66015569 7.03271484,3.77148438 C7.03271484,3.87304738 7.07568316,3.95996058 7.16162109,4.03222656 C7.27099664,4.1240239 7.53661898,4.21972606 7.95849609,4.31933594 C8.3803732,4.41894581 8.6923818,4.52197212 8.89453125,4.62841797 C9.0966807,4.73486381 9.25488224,4.88037017 9.36914062,5.06494141 C9.48339901,5.24951264 9.54052734,5.47753771 9.54052734,5.74902344 C9.54052734,5.99511842 9.47216865,6.22558486 9.33544922,6.44042969 C9.19872979,6.65527451 9.00537234,6.81494088 8.75537109,6.91943359 C8.50536984,7.0239263 8.19384952,7.07617188 7.82080078,7.07617188 C7.27782932,7.07617188 6.8608413,6.95068485 6.56982422,6.69970703 C6.27880714,6.44872921 6.10498075,6.08301021 6.04833984,5.60253906 L6.04833984,5.60253906 Z M14.1430664,7 L13.199707,7 L12.824707,6.02441406 L11.1079102,6.02441406 L10.753418,7 L9.83349609,7 L11.5063477,2.70507812 L12.4233398,2.70507812 L14.1430664,7 Z M12.5463867,5.30078125 L11.9545898,3.70703125 L11.3745117,5.30078125 L12.5463867,5.30078125 Z M14.3833008,5.60253906 L15.2270508,5.52050781 C15.2778323,5.80371235 15.3808586,6.01171809 15.5361328,6.14453125 C15.691407,6.27734441 15.9008776,6.34375 16.1645508,6.34375 C16.4438491,6.34375 16.6542962,6.28466856 16.7958984,6.16650391 C16.9375007,6.04833925 17.0083008,5.91015704 17.0083008,5.75195312 C17.0083008,5.65039012 16.9785159,5.5639652 16.9189453,5.49267578 C16.8593747,5.42138636 16.7553718,5.35937526 16.6069336,5.30664062 C16.5053706,5.2714842 16.2739276,5.20898482 15.9125977,5.11914062 C15.4477516,5.00390567 15.121583,4.86230553 14.934082,4.69433594 C14.6704088,4.45800663 14.5385742,4.16992357 14.5385742,3.83007812 C14.5385742,3.61132703 14.6005853,3.40673923 14.7246094,3.21630859 C14.8486334,3.02587795 15.0273426,2.88085987 15.2607422,2.78125 C15.4941418,2.68164013 15.7758773,2.63183594 16.105957,2.63183594 C16.6450222,2.63183594 17.0507799,2.74999882 17.3232422,2.98632812 C17.5957045,3.22265743 17.7387695,3.53808396 17.7524414,3.93261719 L16.8852539,3.97070312 C16.8481443,3.7499989 16.7685553,3.59130908 16.6464844,3.49462891 C16.5244135,3.39794874 16.3413098,3.34960938 16.097168,3.34960938 C15.8452136,3.34960938 15.6479499,3.40136667 15.5053711,3.50488281 C15.4135738,3.57128939 15.3676758,3.66015569 15.3676758,3.77148438 C15.3676758,3.87304738 15.4106441,3.95996058 15.496582,4.03222656 C15.6059576,4.1240239 15.8715799,4.21972606 16.293457,4.31933594 C16.7153341,4.41894581 17.0273427,4.52197212 17.2294922,4.62841797 C17.4316416,4.73486381 17.5898432,4.88037017 17.7041016,5.06494141 C17.8183599,5.24951264 17.8754883,5.47753771 17.8754883,5.74902344 C17.8754883,5.99511842 17.8071296,6.22558486 17.6704102,6.44042969 C17.5336907,6.65527451 17.3403333,6.81494088 17.090332,6.91943359 C16.8403308,7.0239263 16.5288105,7.07617188 16.1557617,7.07617188 C15.6127903,7.07617188 15.1958022,6.95068485 14.9047852,6.69970703 C14.6137681,6.44872921 14.4399417,6.08301021 14.3833008,5.60253906 L14.3833008,5.60253906 Z M5.26611328,7.70507812 L6.85107422,7.70507812 C7.20849788,7.70507812 7.48095609,7.7324216 7.66845703,7.78710938 C7.92041142,7.8613285 8.13622957,7.99316312 8.31591797,8.18261719 C8.49560637,8.37207126 8.63232375,8.60400253 8.72607422,8.87841797 C8.81982469,9.1528334 8.86669922,9.49120893 8.86669922,9.89355469 C8.86669922,10.2470721 8.82275435,10.5517565 8.73486328,10.8076172 C8.62744087,11.1201187 8.47412209,11.3730459 8.27490234,11.5664062 C8.12451097,11.7128914 7.921388,11.827148 7.66552734,11.9091797 C7.47412014,11.9697269 7.21826332,12 6.89794922,12 L5.26611328,12 L5.26611328,7.70507812 Z M6.13330078,8.43164062 L6.13330078,11.2763672 L6.78076172,11.2763672 C7.02295043,11.2763672 7.19775337,11.2626954 7.30517578,11.2353516 C7.44580148,11.2001951 7.56249954,11.1406254 7.65527344,11.0566406 C7.74804734,10.9726558 7.82373018,10.8344736 7.88232422,10.6420898 C7.94091826,10.4497061 7.97021484,10.1875017 7.97021484,9.85546875 C7.97021484,9.52343584 7.94091826,9.26855558 7.88232422,9.09082031 C7.82373018,8.91308505 7.74169975,8.77441456 7.63623047,8.67480469 C7.53076119,8.57519481 7.39697347,8.50781268 7.23486328,8.47265625 C7.11376893,8.44531236 6.87646661,8.43164062 6.52294922,8.43164062 L6.13330078,8.43164062 Z M9.57568359,12 L9.57568359,7.70507812 L10.4428711,7.70507812 L10.4428711,12 L9.57568359,12 Z M11.0493164,10.6025391 L11.8930664,10.5205078 C11.9438479,10.8037124 12.0468742,11.0117181 12.2021484,11.1445312 C12.3574227,11.2773444 12.5668932,11.34375 12.8305664,11.34375 C13.1098647,11.34375 13.3203118,11.2846686 13.4619141,11.1665039 C13.6035163,11.0483393 13.6743164,10.910157 13.6743164,10.7519531 C13.6743164,10.6503901 13.6445315,10.5639652 13.5849609,10.4926758 C13.5253903,10.4213864 13.4213875,10.3593753 13.2729492,10.3066406 C13.1713862,10.2714842 12.9399432,10.2089848 12.5786133,10.1191406 C12.1137672,10.0039057 11.7875986,9.86230553 11.6000977,9.69433594 C11.3364245,9.45800663 11.2045898,9.16992357 11.2045898,8.83007812 C11.2045898,8.61132703 11.2666009,8.40673923 11.390625,8.21630859 C11.5146491,8.02587795 11.6933582,7.88085987 11.9267578,7.78125 C12.1601574,7.68164013 12.4418929,7.63183594 12.7719727,7.63183594 C13.3110379,7.63183594 13.7167955,7.74999882 13.9892578,7.98632812 C14.2617201,8.22265743 14.4047851,8.53808396 14.418457,8.93261719 L13.5512695,8.97070312 C13.51416,8.7499989 13.4345709,8.59130908 13.3125,8.49462891 C13.1904291,8.39794874 13.0073254,8.34960938 12.7631836,8.34960938 C12.5112292,8.34960938 12.3139656,8.40136667 12.1713867,8.50488281 C12.0795894,8.57128939 12.0336914,8.66015569 12.0336914,8.77148438 C12.0336914,8.87304738 12.0766597,8.95996058 12.1625977,9.03222656 C12.2719732,9.1240239 12.5375955,9.21972606 12.9594727,9.31933594 C13.3813498,9.41894581 13.6933584,9.52197212 13.8955078,9.62841797 C14.0976573,9.73486381 14.2558588,9.88037017 14.3701172,10.0649414 C14.4843756,10.2495126 14.5415039,10.4775377 14.5415039,10.7490234 C14.5415039,10.9951184 14.4731452,11.2255849 14.3364258,11.4404297 C14.1997063,11.6552745 14.0063489,11.8149409 13.7563477,11.9194336 C13.5063464,12.0239263 13.1948261,12.0761719 12.8217773,12.0761719 C12.2788059,12.0761719 11.8618179,11.9506848 11.5708008,11.699707 C11.2797837,11.4487292 11.1059573,11.0830102 11.0493164,10.6025391 L11.0493164,10.6025391 Z M15.2827148,12 L15.2827148,7.70507812 L16.1499023,7.70507812 L16.1499023,9.61230469 L17.9018555,7.70507812 L19.0678711,7.70507812 L17.4506836,9.37792969 L19.1557617,12 L18.0336914,12 L16.8530273,9.984375 L16.1499023,10.7021484 L16.1499023,12 L15.2827148,12 Z" id="SAS-2" opacity="0.803171642" fill-opacity="0.600000024" fill="#000000" sketch:type="MSShapeGroup"></path>
            </g>
        </g>
    </g>
</svg>