<?xml version="1.0" encoding="UTF-8" standalone="no"?>
<svg width="24px" height="24px" viewBox="0 0 24 24" version="1.1" xmlns="http://www.w3.org/2000/svg" xmlns:xlink="http://www.w3.org/1999/xlink" xmlns:sketch="http://www.bohemiancoding.com/sketch/ns">
    <!-- Generator: Sketch 3.1 (8751) - http://www.bohemiancoding.com/sketch -->
    <title>tfre_db_crypto_fileserver</title>
    <desc>Created with Sketch.</desc>
    <defs></defs>
    <g id="ADC" stroke="none" stroke-width="1" fill="none" fill-rule="evenodd" sketch:type="MSPage">
        <g id="adc_services" sketch:type="MSArtboardGroup" transform="translate(-127.000000, -112.000000)">
            <g id="tfre_db_crypto_fileserver" sketch:type="MSLayerGroup" transform="translate(127.000000, 112.000000)">
                <g id="folder-2" transform="translate(2.500000, 3.750000)" sketch:type="MSShapeGroup">
                    <g id="folder" stroke="#000000" stroke-opacity="0.303498641" stroke-width="2" fill="#000000" fill-opacity="0.600000024">
                        <g id="f">
                            <path d="M0.46032963,-0.140472321 C0.218082083,-0.140472321 0.0143853009,0.0175641071 0.0143853009,0.205509821 L0.0143853009,1.94658107 C0.0138554615,1.95550321 1.24344979e-14,1.95987536 1.24344979e-14,1.9689025 L1.24344979e-14,15.1831882 C1.24344979e-14,15.4988296 0.326813783,15.7523846 0.733650348,15.7523846 L17.8953143,15.7523846 C18.3021504,15.7523843 18.6289647,15.4988289 18.6289647,15.1831882 L18.6289647,1.9689025 C18.6289647,1.65326179 18.3021509,1.39970607 17.8953143,1.39970607 L11.1198376,1.39970607 L11.1198376,0.205509821 C11.1198376,0.0175644643 10.9161408,-0.140472321 10.6738933,-0.140472321 L0.46032963,-0.140472321 L0.46032963,-0.140472321 Z"></path>
                        </g>
                    </g>
                    <path d="M8.43071647,6.81473735 L17.1986721,6.81473735 L18.3538481,7.92557642 L9.35441865,7.86886435 L8.84478688,8.25611211 L17.9656872,8.28207667 L17.9565407,9.03692795 L16.7107029,10.4005798 L16.2187221,10.4005798 L15.7713501,9.55690244 L15.0675576,9.54562836 L14.6347878,10.4005798 L13.8313476,10.4005798 L13.0598395,8.93819429 L12.5211639,10.4005798 L11.5609509,10.4005798 L10.9826408,9.53093788 L9.90384534,9.53093788 L9.51584483,10.1595536 L8.35990344,10.15081 C7.72074535,11.7380925 6.24421185,12.8494479 4.52481962,12.8494479 C2.21999336,12.8494479 0.3515625,10.8524417 0.3515625,8.38900966 C0.3515625,5.92557765 2.21999336,3.92857143 4.52481962,3.92857143 C6.31115587,3.92857143 7.83535398,5.12815207 8.43071647,6.81473735 Z M2.56093392,9.43852454 C3.10324598,9.43852454 3.54287677,8.96864073 3.54287677,8.38900966 C3.54287677,7.8093786 3.10324598,7.33949479 2.56093392,7.33949479 C2.01862186,7.33949479 1.57899107,7.8093786 1.57899107,8.38900966 C1.57899107,8.96864073 2.01862186,9.43852454 2.56093392,9.43852454 Z" id="Oval-8" fill="#FFFFFF"></path>
                </g>
            </g>
        </g>
    </g>
</svg>