<?xml version="1.0" encoding="UTF-8" standalone="no"?>
<svg width="24px" height="24px" viewBox="0 0 24 24" version="1.1" xmlns="http://www.w3.org/2000/svg" xmlns:xlink="http://www.w3.org/1999/xlink" xmlns:sketch="http://www.bohemiancoding.com/sketch/ns">
    <!-- Generator: Sketch 3.1 (8751) - http://www.bohemiancoding.com/sketch -->
    <title>tfre_db_vmachine</title>
    <desc>Created with Sketch.</desc>
    <defs></defs>
    <g id="ADC" stroke="none" stroke-width="1" fill="none" fill-rule="evenodd" sketch:type="MSPage">
        <g id="adc_services" sketch:type="MSArtboardGroup" transform="translate(-101.000000, -112.000000)">
            <g id="tfre_db_vmachine" sketch:type="MSLayerGroup" transform="translate(101.000000, 112.000000)">
                <g id="VM" transform="translate(3.125000, 3.250000)" sketch:type="MSShapeGroup">
                    <g id="Computer-2" transform="translate(0.290323, -0.624313)" stroke="#000000" stroke-width="0.6" fill="#000000">
                        <rect id="Rectangle-52" opacity="0.597306437" x="0" y="0" width="18.4578164" height="15.0682779" rx="2.4"></rect>
                        <rect id="Rectangle-53" opacity="0.89400653" x="1.99260518" y="2.01591768" width="14.4726065" height="11.4058497" rx="2.4"></rect>
                        <path d="M6.91635551,14.8872715 C6.91635551,14.8872715 12.0340817,14.9007726 12.0340817,14.9007727 C12.0340817,14.9007727 11.1471591,16.4503898 14.0219757,17.7057046 C16.8967923,18.9610195 1.35578265,19.1656098 4.70601397,17.7057046 C8.05624529,16.2457993 6.91635551,14.8872715 6.91635551,14.8872715 Z" id="Path-146" stroke-opacity="0.600000024" opacity="0.604827425" fill-opacity="0.600000024"></path>
                    </g>
                    <path d="M5.22087215,5.09005033 L6.3992826,8.57913912 L7.58124249,5.06520433 C7.64276623,4.88063309 7.68890835,4.75226336 7.71967022,4.68009127 C7.75043209,4.60791919 7.80130674,4.54284697 7.87229567,4.48487267 C7.94328461,4.42689837 8.04030137,4.39791166 8.16334886,4.39791166 C8.25326818,4.39791166 8.33667893,4.42039115 8.41358361,4.46535081 C8.49048829,4.51031047 8.55082798,4.5700586 8.59460449,4.64459698 C8.638381,4.71913536 8.66026893,4.79426419 8.66026893,4.86998573 C8.66026893,4.92204428 8.65317014,4.97824301 8.63897236,5.03858361 C8.62477457,5.0989242 8.6070276,5.15808076 8.58573092,5.21605506 C8.56443424,5.27402936 8.54313788,5.33377749 8.5218412,5.39530123 L7.26179387,8.7956543 C7.21683421,8.92580068 7.17187522,9.04943789 7.12691556,9.16656964 C7.08195591,9.28370138 7.02989813,9.3866338 6.97074069,9.47536997 C6.91158324,9.56410614 6.83290501,9.63686871 6.73470365,9.69365986 C6.63650229,9.75045101 6.51641447,9.77884615 6.3744366,9.77884615 C6.23245873,9.77884615 6.11237091,9.75104257 6.01416955,9.69543457 C5.91596818,9.63982657 5.83669839,9.56647244 5.7763578,9.47536997 C5.7160172,9.3842675 5.66336786,9.28074352 5.6184082,9.16479492 C5.57344854,9.04884633 5.52848956,8.92580068 5.4835299,8.7956543 L4.24477915,5.42369666 C4.22348247,5.36217292 4.20159454,5.30183323 4.17911471,5.24267578 C4.15663488,5.18351833 4.13770478,5.11962925 4.12232384,5.05100661 C4.10694291,4.98238397 4.09925255,4.92441054 4.09925255,4.87708459 C4.09925255,4.75640339 4.14776093,4.64637219 4.24477915,4.54698768 C4.34179736,4.44760317 4.46365987,4.39791166 4.61037034,4.39791166 C4.79020898,4.39791166 4.91739559,4.45292726 4.99193397,4.56296011 C5.06647235,4.67299296 5.14278432,4.84868795 5.22087215,5.09005033 L5.22087215,5.09005033 Z M11.208759,8.9056866 L10.3746432,5.59051983 L10.3746432,9.18254207 C10.3746432,9.38131109 10.3302758,9.53038562 10.2415396,9.62977013 C10.1528034,9.72915464 10.0350819,9.77884615 9.88837139,9.77884615 C9.74639352,9.77884615 9.63044666,9.72974621 9.54052734,9.63154485 C9.45060802,9.53334348 9.40564904,9.38367739 9.40564904,9.18254207 L9.40564904,5.06520433 C9.40564904,4.83803973 9.4648056,4.68482424 9.58312049,4.60555326 C9.70143539,4.52628228 9.8611581,4.48664739 10.0622934,4.48664739 L10.3888409,4.48664739 C10.5852436,4.48664739 10.7278109,4.50439435 10.8165471,4.53988882 C10.9052833,4.57538329 10.9709471,4.63927238 11.0135404,4.73155799 C11.0561338,4.82384361 11.1046422,4.97410127 11.159067,5.18233549 L11.9150954,8.03252704 L12.6711238,5.18233549 C12.7255486,4.97410127 12.774057,4.82384361 12.8166504,4.73155799 C12.8592438,4.63927238 12.9249075,4.57538329 13.0136437,4.53988882 C13.1023799,4.50439435 13.2449472,4.48664739 13.4413499,4.48664739 L13.7678974,4.48664739 C13.9690327,4.48664739 14.1287554,4.52628228 14.2470703,4.60555326 C14.3653852,4.68482424 14.4245418,4.83803973 14.4245418,5.06520433 L14.4245418,9.18254207 C14.4245418,9.38131109 14.3801743,9.53038562 14.2914382,9.62977013 C14.202702,9.72915464 14.0837973,9.77884615 13.9347206,9.77884615 C13.795109,9.77884615 13.6803453,9.72915464 13.5904259,9.62977013 C13.5005066,9.53038562 13.4555476,9.38131109 13.4555476,9.18254207 L13.4555476,5.59051983 L12.6214318,8.9056866 C12.5670069,9.12101971 12.5226395,9.27896772 12.4883282,9.37953538 C12.4540169,9.48010304 12.3907194,9.57179571 12.2984337,9.65461614 C12.2061481,9.73743656 12.07837,9.77884615 11.9150954,9.77884615 C11.7920479,9.77884615 11.6879324,9.7522257 11.6027456,9.698984 C11.5175589,9.6457423 11.4513036,9.57771225 11.4039776,9.49489183 C11.3566517,9.4120714 11.319383,9.32037873 11.2921706,9.21981107 C11.2649582,9.11924341 11.2371546,9.0145363 11.208759,8.9056866 L11.208759,8.9056866 Z" opacity="0.642140858" fill="#FFFFFF"></path>
                </g>
            </g>
        </g>
    </g>
</svg>