<?xml version="1.0" encoding="UTF-8" standalone="no"?>
<svg width="24px" height="24px" viewBox="0 0 24 24" version="1.1" xmlns="http://www.w3.org/2000/svg" xmlns:xlink="http://www.w3.org/1999/xlink" xmlns:sketch="http://www.bohemiancoding.com/sketch/ns">
    <!-- Generator: Sketch 3.1.1 (8761) - http://www.bohemiancoding.com/sketch -->
    <title>tfre_db_enclosure</title>
    <desc>Created with Sketch.</desc>
    <defs></defs>
    <g id="ADC" stroke="none" stroke-width="1" fill="none" fill-rule="evenodd" sketch:type="MSPage">
        <g id="adc_services" sketch:type="MSArtboardGroup" transform="translate(-101.000000, -162.000000)">
            <g id="tfre_db_enclosure" sketch:type="MSLayerGroup" transform="translate(101.000000, 162.000000)">
                <g id="data-8" transform="translate(3.000000, 9.500000)" sketch:type="MSShapeGroup">
                    <g id="data" stroke-opacity="0.600000024" stroke="#000000">
                        <path d="M0.152913163,0.905159555 L0.152913163,6.46934373 C0.151061957,6.47377747 0.150243565,6.47809459 0.150243565,6.48255509 C0.150243565,6.4870156 0.151061957,6.49243367 0.152913163,6.4968674 L0.152913163,6.50787686 L0.158252359,6.50787686 C0.367139646,6.78210311 4.09704558,7 8.66359156,7 C13.2286972,7 16.9578881,6.78198122 17.1689308,6.50787686 L17.1769395,6.50787686 L17.1769395,6.4968674 C17.1787908,6.49243367 17.1796091,6.4870156 17.1796091,6.48255509 C17.1796091,6.47809459 17.1787908,6.47377747 17.1769395,6.46934373 L17.1769395,0.905159555 C17.1762954,0.905537013 17.1749611,0.905883467 17.1742699,0.906260502 C17.0198724,1.18352114 13.2661399,1.40498932 8.66359156,1.40498932 C4.06104316,1.40498932 0.309979495,1.18352114 0.155582761,0.906260502 C0.154891656,0.905883467 0.15355643,0.905537013 0.152913163,0.905159555 L0.152913163,0.905159555 Z" id="path5588"></path>
                        <path d="M17.1802795,0.534247951 C17.1802795,0.828378229 13.3678263,1.06681793 8.66492701,1.06681793 C3.96202771,1.06681793 0.149574552,0.828378229 0.149574552,0.534247951 C0.149574506,0.343979021 1.77259151,0.168163279 4.40725075,0.0730288131 C7.04190999,-0.0221056525 10.287944,-0.0221056525 12.9226033,0.0730288131 C15.5572625,0.168163279 17.1802795,0.343979021 17.1802795,0.534247951 L17.1802795,0.534247951 Z" id="path5584"></path>
                    </g>
                    <circle id="Oval-49" stroke="#979797" fill="#D8D8D8" cx="11.5" cy="4" r="0.5"></circle>
                    <circle id="Oval-49" stroke="#979797" fill="#D8D8D8" cx="14.5" cy="4" r="0.5"></circle>
                </g>
                <g id="data-8" transform="translate(3.000000, 15.500000)" sketch:type="MSShapeGroup">
                    <g id="data" stroke-opacity="0.600000024" stroke="#000000">
                        <path d="M0.152913163,0.905159555 L0.152913163,6.46934373 C0.151061957,6.47377747 0.150243565,6.47809459 0.150243565,6.48255509 C0.150243565,6.4870156 0.151061957,6.49243367 0.152913163,6.4968674 L0.152913163,6.50787686 L0.158252359,6.50787686 C0.367139646,6.78210311 4.09704558,7 8.66359156,7 C13.2286972,7 16.9578881,6.78198122 17.1689308,6.50787686 L17.1769395,6.50787686 L17.1769395,6.4968674 C17.1787908,6.49243367 17.1796091,6.4870156 17.1796091,6.48255509 C17.1796091,6.47809459 17.1787908,6.47377747 17.1769395,6.46934373 L17.1769395,0.905159555 C17.1762954,0.905537013 17.1749611,0.905883467 17.1742699,0.906260502 C17.0198724,1.18352114 13.2661399,1.40498932 8.66359156,1.40498932 C4.06104316,1.40498932 0.309979495,1.18352114 0.155582761,0.906260502 C0.154891656,0.905883467 0.15355643,0.905537013 0.152913163,0.905159555 L0.152913163,0.905159555 Z" id="path5588"></path>
                        <path d="M17.1802795,0.534247951 C17.1802795,0.828378229 13.3678263,1.06681793 8.66492701,1.06681793 C3.96202771,1.06681793 0.149574552,0.828378229 0.149574552,0.534247951 C0.149574506,0.343979021 1.77259151,0.168163279 4.40725075,0.0730288131 C7.04190999,-0.0221056525 10.287944,-0.0221056525 12.9226033,0.0730288131 C15.5572625,0.168163279 17.1802795,0.343979021 17.1802795,0.534247951 L17.1802795,0.534247951 Z" id="path5584"></path>
                    </g>
                    <circle id="Oval-49" stroke="#979797" fill="#D8D8D8" cx="11.5" cy="4" r="0.5"></circle>
                    <circle id="Oval-49" stroke="#979797" fill="#D8D8D8" cx="14.5" cy="4" r="0.5"></circle>
                </g>
                <path d="M4.27001953,8 L4.27001953,3.70507812 L7.45458984,3.70507812 L7.45458984,4.43164062 L5.13720703,4.43164062 L5.13720703,5.38378906 L7.29345703,5.38378906 L7.29345703,6.10742188 L5.13720703,6.10742188 L5.13720703,7.27636719 L7.53662109,7.27636719 L7.53662109,8 L4.27001953,8 Z M8.28076172,8 L8.28076172,3.70507812 L9.12451172,3.70507812 L10.8823242,6.57324219 L10.8823242,3.70507812 L11.6879883,3.70507812 L11.6879883,8 L10.8178711,8 L9.08642578,5.19921875 L9.08642578,8 L8.28076172,8 Z M15.3530273,6.42089844 L16.1938477,6.6875 C16.0649408,7.15625234 15.8505874,7.50439339 15.5507812,7.73193359 C15.2509751,7.95947379 14.8706078,8.07324219 14.409668,8.07324219 C13.8393526,8.07324219 13.3706073,7.87841992 13.003418,7.48876953 C12.6362286,7.09911915 12.4526367,6.56640963 12.4526367,5.890625 C12.4526367,5.17577768 12.6372052,4.62060745 13.0063477,4.22509766 C13.3754901,3.82958787 13.8608368,3.63183594 14.4624023,3.63183594 C14.9877956,3.63183594 15.4145491,3.78710782 15.7426758,4.09765625 C15.9379893,4.28125092 16.0844722,4.54492016 16.1821289,4.88867188 L15.3237305,5.09375 C15.272949,4.87109264 15.166993,4.69531314 15.0058594,4.56640625 C14.8447258,4.43749936 14.6489269,4.37304688 14.418457,4.37304688 C14.1000961,4.37304688 13.8417979,4.48730354 13.6435547,4.71582031 C13.4453115,4.94433708 13.3461914,5.31445057 13.3461914,5.82617188 C13.3461914,6.36914334 13.4438467,6.75585822 13.6391602,6.98632812 C13.8344736,7.21679803 14.0883773,7.33203125 14.4008789,7.33203125 C14.6313488,7.33203125 14.829589,7.25878979 14.9956055,7.11230469 C15.1616219,6.96581958 15.2807614,6.73535313 15.3530273,6.42089844 L15.3530273,6.42089844 Z M16.9614258,8 L16.9614258,3.74023438 L17.8286133,3.74023438 L17.8286133,7.27636719 L19.9848633,7.27636719 L19.9848633,8 L16.9614258,8 Z" id="ENCL" opacity="0.803171642" fill-opacity="0.600000024" fill="#000000" sketch:type="MSShapeGroup"></path>
            </g>
        </g>
    </g>
</svg>