<?xml version="1.0" encoding="UTF-8" standalone="no"?>
<svg width="24px" height="24px" viewBox="0 0 24 24" version="1.1" xmlns="http://www.w3.org/2000/svg" xmlns:xlink="http://www.w3.org/1999/xlink" xmlns:sketch="http://www.bohemiancoding.com/sketch/ns">
    <!-- Generator: Sketch 3.1 (8751) - http://www.bohemiancoding.com/sketch -->
    <title>tfre_db_ipv4_hostnet</title>
    <desc>Created with Sketch.</desc>
    <defs></defs>
    <g id="ADC" stroke="none" stroke-width="1" fill="none" fill-rule="evenodd" sketch:type="MSPage">
        <g id="adc_services" sketch:type="MSArtboardGroup" transform="translate(-102.000000, -62.000000)">
            <g id="tfre_db_ipv4_hostnet" sketch:type="MSLayerGroup" transform="translate(102.000000, 62.000000)">
                <g id="network-4" transform="translate(5.500000, 10.000000)">
                    <g id="h2" transform="translate(0.000000, 7.744667)"></g>
                    <g id="h3" transform="translate(5.935640, 7.744667)"></g>
                    <g id="h4" transform="translate(11.871279, 7.744667)"></g>
                    <g id="h1" transform="translate(5.361223, 0.000000)"></g>
                    <g id="wire" transform="translate(2.106195, 4.368787)"></g>
                    <path d="M4.8848399,10.4962086 C4.8848399,10.811357 4.63190507,11.0677253 4.31961384,11.0677253 L0.565226066,11.0677253 C0.252934835,11.0677253 0,10.8115556 0,10.4962086 L0,8.2617728 C0,7.94602867 0.252934835,7.69005749 0.565226066,7.69005749 L4.31961384,7.69005749 C4.63190507,7.69005749 4.8848399,7.94602867 4.8848399,8.2617728 L4.8848399,10.4962086 L4.8848399,10.4962086 Z" id="path3045" opacity="0.792910448" fill-opacity="0.600000024" fill="#000000" sketch:type="MSShapeGroup"></path>
                    <path d="M10.8549445,10.4962086 C10.8549445,10.811357 10.6020097,11.0677253 10.2897184,11.0677253 L6.53552212,11.0677253 C6.22323089,11.0677253 5.97029606,10.8115556 5.97029606,10.4962086 L5.97029606,8.2617728 C5.97029606,7.94602867 6.22323089,7.69005749 6.53552212,7.69005749 L10.2897184,7.69005749 C10.6020097,7.69005749 10.8549445,7.94602867 10.8549445,8.2617728 L10.8549445,10.4962086 L10.8549445,10.4962086 Z" id="path3047" opacity="0.595557369" fill-opacity="0.600000024" fill="#000000" sketch:type="MSShapeGroup"></path>
                    <path d="M16.825432,10.4962086 C16.825432,10.811357 16.5724972,11.0677253 16.260206,11.0677253 L12.5058182,11.0677253 C12.193527,11.0677253 11.9407836,10.8115556 11.9407836,10.4962086 L11.9407836,8.2617728 C11.9407836,7.94602867 12.193527,7.69005749 12.5058182,7.69005749 L16.2600145,7.69005749 C16.5723057,7.69005749 16.8252405,7.94602867 16.8252405,8.2617728 L16.8252405,10.4962086 L16.825432,10.4962086 Z" id="path3049" opacity="0.400478078" fill-opacity="0.600000024" fill="#000000" sketch:type="MSShapeGroup"></path>
                    <path d="M10.9868689,3.25812197 C10.9868689,3.62490147 10.7004264,3.92217754 10.3469686,3.92217754 L6.09532743,3.92217754 C5.74186967,3.92217754 5.45542719,3.62490147 5.45542719,3.25812197 L5.45542719,0.664055577 C5.45581014,0.297276076 5.74206114,0 6.09532743,0 L10.3469686,0 C10.7004264,0 10.9868689,0.297276076 10.9868689,0.664055577 L10.9868689,3.25812197 L10.9868689,3.25812197 Z" id="path3051" opacity="0.813257929" fill-opacity="0.600000024" fill="#000000" sketch:type="MSShapeGroup"></path>
                    <path d="M8.69992438,4.41684335 L8.12550764,4.41684335 L8.12550764,5.50764995 L2.15521158,5.50764995 L2.15521158,7.34452617 L2.72962832,7.34452617 L2.72962832,6.10339359 L8.12550764,6.10339359 L8.12550764,7.34452617 L8.69992438,7.34452617 L8.69992438,6.10339359 L14.0959952,6.10339359 L14.0959952,7.34452617 L14.6704119,7.34452617 L14.6704119,5.50764995 L8.69992438,5.50764995 L8.69992438,4.41684335 Z" id="polygon3053" opacity="0.492362407" fill-opacity="0.600000024" fill="#000000" sketch:type="MSShapeGroup"></path>
                </g>
                <path d="M6.69384766,10.1269531 L1.62158203,10.1269531 L1.62158203,7.83691406 L6.69384766,1.80761719 L9.12060547,1.80761719 L9.12060547,7.96679688 L10.378418,7.96679688 L10.378418,10.1269531 L9.12060547,10.1269531 L9.12060547,12 L6.69384766,12 L6.69384766,10.1269531 Z M6.69384766,7.96679688 L6.69384766,4.81542969 L4.01416016,7.96679688 L6.69384766,7.96679688 Z" id="-8" fill-opacity="0.600000024" fill="#000000" sketch:type="MSShapeGroup"></path>
            </g>
        </g>
    </g>
</svg>