<?xml version="1.0" encoding="UTF-8" standalone="no"?>
<svg width="24px" height="24px" viewBox="0 0 24 24" version="1.1" xmlns="http://www.w3.org/2000/svg" xmlns:xlink="http://www.w3.org/1999/xlink" xmlns:sketch="http://www.bohemiancoding.com/sketch/ns">
    <!-- Generator: Sketch 3.1.1 (8761) - http://www.bohemiancoding.com/sketch -->
    <title>tfre_db_zfs_blockdevice</title>
    <desc>Created with Sketch.</desc>
    <defs></defs>
    <g id="ADC" stroke="none" stroke-width="1" fill="none" fill-rule="evenodd" sketch:type="MSPage">
        <g id="adc_services" sketch:type="MSArtboardGroup" transform="translate(-49.000000, -137.000000)">
            <g id="tfre_db_zfs_blockdevice" sketch:type="MSLayerGroup" transform="translate(49.000000, 137.000000)">
                <g id="data-8" transform="translate(3.000000, 13.500000)" stroke-opacity="0.600000024" stroke="#000000" sketch:type="MSShapeGroup">
                    <g id="data">
                        <path d="M0.152913163,0.905159555 L0.152913163,6.46934373 C0.151061957,6.47377747 0.150243565,6.47809459 0.150243565,6.48255509 C0.150243565,6.4870156 0.151061957,6.49243367 0.152913163,6.4968674 L0.152913163,6.50787686 L0.158252359,6.50787686 C0.367139646,6.78210311 4.09704558,7 8.66359156,7 C13.2286972,7 16.9578881,6.78198122 17.1689308,6.50787686 L17.1769395,6.50787686 L17.1769395,6.4968674 C17.1787908,6.49243367 17.1796091,6.4870156 17.1796091,6.48255509 C17.1796091,6.47809459 17.1787908,6.47377747 17.1769395,6.46934373 L17.1769395,0.905159555 C17.1762954,0.905537013 17.1749611,0.905883467 17.1742699,0.906260502 C17.0198724,1.18352114 13.2661399,1.40498932 8.66359156,1.40498932 C4.06104316,1.40498932 0.309979495,1.18352114 0.155582761,0.906260502 C0.154891656,0.905883467 0.15355643,0.905537013 0.152913163,0.905159555 L0.152913163,0.905159555 Z" id="path5588"></path>
                        <path d="M17.1802795,0.534247951 C17.1802795,0.828378229 13.3678263,1.06681793 8.66492701,1.06681793 C3.96202771,1.06681793 0.149574552,0.828378229 0.149574552,0.534247951 C0.149574506,0.343979021 1.77259151,0.168163279 4.40725075,0.0730288131 C7.04190999,-0.0221056525 10.287944,-0.0221056525 12.9226033,0.0730288131 C15.5572625,0.168163279 17.1802795,0.343979021 17.1802795,0.534247951 L17.1802795,0.534247951 Z" id="path5584"></path>
                    </g>
                </g>
                <path d="M1.77392578,2.70507812 L3.49072266,2.70507812 C3.83056811,2.70507812 4.08398354,2.71923814 4.25097656,2.74755859 C4.41796958,2.77587905 4.56738215,2.83496049 4.69921875,2.92480469 C4.83105535,3.01464889 4.94091753,3.1342766 5.02880859,3.28369141 C5.11669966,3.43310622 5.16064453,3.60058501 5.16064453,3.78613281 C5.16064453,3.98730569 5.10644585,4.17187416 4.99804688,4.33984375 C4.8896479,4.50781334 4.74267671,4.63378864 4.55712891,4.71777344 C4.81884896,4.79394569 5.02001883,4.92382721 5.16064453,5.10742188 C5.30127023,5.29101654 5.37158203,5.5068347 5.37158203,5.75488281 C5.37158203,5.95019629 5.32617233,6.1401358 5.23535156,6.32470703 C5.1445308,6.50927827 5.0205086,6.65673773 4.86328125,6.76708984 C4.7060539,6.87744196 4.51220818,6.94531237 4.28173828,6.97070312 C4.13720631,6.9863282 3.78857698,6.99609373 3.23583984,7 L1.77392578,7 L1.77392578,2.70507812 Z M2.64111328,3.41992188 L2.64111328,4.41308594 L3.20947266,4.41308594 C3.54736497,4.41308594 3.75732381,4.40820317 3.83935547,4.3984375 C3.98779371,4.38085929 4.10449176,4.32959027 4.18945312,4.24462891 C4.27441449,4.15966754 4.31689453,4.04785226 4.31689453,3.90917969 C4.31689453,3.77636652 4.2802738,3.66845745 4.20703125,3.58544922 C4.1337887,3.50244099 4.02490307,3.45214853 3.88037109,3.43457031 C3.79443316,3.42480464 3.54736532,3.41992188 3.13916016,3.41992188 L2.64111328,3.41992188 Z M2.64111328,5.12792969 L2.64111328,6.27636719 L3.44384766,6.27636719 C3.75634922,6.27636719 3.95458942,6.26757821 4.03857422,6.25 C4.16748111,6.22656238 4.27246053,6.16943405 4.35351562,6.07861328 C4.43457072,5.98779251 4.47509766,5.8662117 4.47509766,5.71386719 C4.47509766,5.58496029 4.44384797,5.47558639 4.38134766,5.38574219 C4.31884734,5.29589799 4.22851622,5.23046896 4.11035156,5.18945312 C3.99218691,5.14843729 3.73584182,5.12792969 3.34130859,5.12792969 L2.64111328,5.12792969 Z M6.12744141,7 L6.12744141,2.74023438 L6.99462891,2.74023438 L6.99462891,6.27636719 L9.15087891,6.27636719 L9.15087891,7 L6.12744141,7 Z M9.59326172,4.87890625 C9.59326172,4.44140406 9.65869075,4.07422023 9.78955078,3.77734375 C9.88720752,3.55859266 10.020507,3.36230556 10.1894531,3.18847656 C10.3583993,3.01464757 10.543456,2.88574261 10.7446289,2.80175781 C11.0122084,2.688476 11.320799,2.63183594 11.6704102,2.63183594 C12.3032258,2.63183594 12.8095684,2.82812304 13.1894531,3.22070312 C13.5693378,3.61328321 13.7592773,4.15917619 13.7592773,4.85839844 C13.7592773,5.55176128 13.5708027,6.09423632 13.1938477,6.48583984 C12.8168926,6.87744336 12.3129914,7.07324219 11.6821289,7.07324219 C11.0434538,7.07324219 10.5356464,6.87841992 10.1586914,6.48876953 C9.7817364,6.09911915 9.59326172,5.56250342 9.59326172,4.87890625 L9.59326172,4.87890625 Z M10.4868164,4.84960938 C10.4868164,5.33593993 10.59912,5.70458859 10.8237305,5.95556641 C11.048341,6.20654422 11.3334944,6.33203125 11.6791992,6.33203125 C12.0249041,6.33203125 12.3085926,6.20752078 12.5302734,5.95849609 C12.7519542,5.70947141 12.862793,5.33593999 12.862793,4.83789062 C12.862793,4.34570066 12.7548839,3.97851684 12.5390625,3.73632812 C12.3232411,3.49413941 12.0366229,3.37304688 11.6791992,3.37304688 C11.3217756,3.37304688 11.0336925,3.49560424 10.8149414,3.74072266 C10.5961903,3.98584107 10.4868164,4.35546628 10.4868164,4.84960938 L10.4868164,4.84960938 Z M17.184082,5.42089844 L18.0249023,5.6875 C17.8959954,6.15625234 17.6816421,6.50439339 17.3818359,6.73193359 C17.0820298,6.95947379 16.7016625,7.07324219 16.2407227,7.07324219 C15.6704073,7.07324219 15.201662,6.87841992 14.8344727,6.48876953 C14.4672833,6.09911915 14.2836914,5.56640963 14.2836914,4.890625 C14.2836914,4.17577768 14.4682599,3.62060745 14.8374023,3.22509766 C15.2065448,2.82958787 15.6918915,2.63183594 16.293457,2.63183594 C16.8188503,2.63183594 17.2456038,2.78710782 17.5737305,3.09765625 C17.7690439,3.28125092 17.9155269,3.54492016 18.0131836,3.88867188 L17.1547852,4.09375 C17.1040037,3.87109264 16.9980477,3.69531314 16.8369141,3.56640625 C16.6757804,3.43749936 16.4799816,3.37304688 16.2495117,3.37304688 C15.9311508,3.37304688 15.6728526,3.48730354 15.4746094,3.71582031 C15.2763662,3.94433708 15.1772461,4.31445057 15.1772461,4.82617188 C15.1772461,5.36914334 15.2749014,5.75585822 15.4702148,5.98632812 C15.6655283,6.21679803 15.919432,6.33203125 16.2319336,6.33203125 C16.4624035,6.33203125 16.6606437,6.25878979 16.8266602,6.11230469 C16.9926766,5.96581958 17.111816,5.73535313 17.184082,5.42089844 L17.184082,5.42089844 Z M18.7807617,7 L18.7807617,2.70507812 L19.6479492,2.70507812 L19.6479492,4.61230469 L21.3999023,2.70507812 L22.565918,2.70507812 L20.9487305,4.37792969 L22.6538086,7 L21.5317383,7 L20.3510742,4.984375 L19.6479492,5.70214844 L19.6479492,7 L18.7807617,7 Z M6.26513672,7.70507812 L7.85009766,7.70507812 C8.20752132,7.70507812 8.47997953,7.7324216 8.66748047,7.78710938 C8.91943485,7.8613285 9.13525301,7.99316312 9.31494141,8.18261719 C9.4946298,8.37207126 9.63134719,8.60400253 9.72509766,8.87841797 C9.81884813,9.1528334 9.86572266,9.49120893 9.86572266,9.89355469 C9.86572266,10.2470721 9.82177778,10.5517565 9.73388672,10.8076172 C9.62646431,11.1201187 9.47314553,11.3730459 9.27392578,11.5664062 C9.1235344,11.7128914 8.92041144,11.827148 8.66455078,11.9091797 C8.47314357,11.9697269 8.21728676,12 7.89697266,12 L6.26513672,12 L6.26513672,7.70507812 Z M7.13232422,8.43164062 L7.13232422,11.2763672 L7.77978516,11.2763672 C8.02197387,11.2763672 8.19677681,11.2626954 8.30419922,11.2353516 C8.44482492,11.2001951 8.56152297,11.1406254 8.65429688,11.0566406 C8.74707078,10.9726558 8.82275361,10.8344736 8.88134766,10.6420898 C8.9399417,10.4497061 8.96923828,10.1875017 8.96923828,9.85546875 C8.96923828,9.52343584 8.9399417,9.26855558 8.88134766,9.09082031 C8.82275361,8.91308505 8.74072318,8.77441456 8.63525391,8.67480469 C8.52978463,8.57519481 8.3959969,8.50781268 8.23388672,8.47265625 C8.11279236,8.44531236 7.87549005,8.43164062 7.52197266,8.43164062 L7.13232422,8.43164062 Z M10.6010742,12 L10.6010742,7.70507812 L13.7856445,7.70507812 L13.7856445,8.43164062 L11.4682617,8.43164062 L11.4682617,9.38378906 L13.6245117,9.38378906 L13.6245117,10.1074219 L11.4682617,10.1074219 L11.4682617,11.2763672 L13.8676758,11.2763672 L13.8676758,12 L10.6010742,12 Z M15.6987305,12 L14.1635742,7.70507812 L15.1040039,7.70507812 L16.190918,10.8837891 L17.2426758,7.70507812 L18.1625977,7.70507812 L16.6245117,12 L15.6987305,12 Z" id="BLOCKDEV" opacity="0.803171642" fill-opacity="0.600000024" fill="#000000" sketch:type="MSShapeGroup"></path>
            </g>
        </g>
    </g>
</svg>