<?xml version="1.0" encoding="UTF-8" standalone="no"?>
<svg width="24px" height="24px" viewBox="0 0 24 24" version="1.1" xmlns="http://www.w3.org/2000/svg" xmlns:xlink="http://www.w3.org/1999/xlink" xmlns:sketch="http://www.bohemiancoding.com/sketch/ns">
    <!-- Generator: Sketch 3.1.1 (8761) - http://www.bohemiancoding.com/sketch -->
    <title>tfre_db_zfs_disksparecontainer</title>
    <desc>Created with Sketch.</desc>
    <defs></defs>
    <g id="ADC" stroke="none" stroke-width="1" fill="none" fill-rule="evenodd" sketch:type="MSPage">
        <g id="adc_services" sketch:type="MSArtboardGroup" transform="translate(-153.000000, -162.000000)">
            <g id="tfre_db_zfs_disksparecontainer" sketch:type="MSLayerGroup" transform="translate(153.000000, 162.000000)">
                <g id="data-8" transform="translate(3.000000, 14.500000)" sketch:type="MSShapeGroup" stroke="#F62323">
                    <g id="data">
                        <path d="M0.152913163,0.905159555 L0.152913163,6.46934373 C0.151061957,6.47377747 0.150243565,6.47809459 0.150243565,6.48255509 C0.150243565,6.4870156 0.151061957,6.49243367 0.152913163,6.4968674 L0.152913163,6.50787686 L0.158252359,6.50787686 C0.367139646,6.78210311 4.09704558,7 8.66359156,7 C13.2286972,7 16.9578881,6.78198122 17.1689308,6.50787686 L17.1769395,6.50787686 L17.1769395,6.4968674 C17.1787908,6.49243367 17.1796091,6.4870156 17.1796091,6.48255509 C17.1796091,6.47809459 17.1787908,6.47377747 17.1769395,6.46934373 L17.1769395,0.905159555 C17.1762954,0.905537013 17.1749611,0.905883467 17.1742699,0.906260502 C17.0198724,1.18352114 13.2661399,1.40498932 8.66359156,1.40498932 C4.06104316,1.40498932 0.309979495,1.18352114 0.155582761,0.906260502 C0.154891656,0.905883467 0.15355643,0.905537013 0.152913163,0.905159555 L0.152913163,0.905159555 Z" id="path5588"></path>
                        <path d="M17.1802795,0.534247951 C17.1802795,0.828378229 13.3678263,1.06681793 8.66492701,1.06681793 C3.96202771,1.06681793 0.149574552,0.828378229 0.149574552,0.534247951 C0.149574506,0.343979021 1.77259151,0.168163279 4.40725075,0.0730288131 C7.04190999,-0.0221056525 10.287944,-0.0221056525 12.9226033,0.0730288131 C15.5572625,0.168163279 17.1802795,0.343979021 17.1802795,0.534247951 L17.1802795,0.534247951 Z" id="path5584"></path>
                    </g>
                </g>
                <path d="M5.30859375,7 L4.36523438,7 L3.99023438,6.02441406 L2.2734375,6.02441406 L1.91894531,7 L0.999023438,7 L2.671875,2.70507812 L3.58886719,2.70507812 L5.30859375,7 Z M3.71191406,5.30078125 L3.12011719,3.70703125 L2.54003906,5.30078125 L3.71191406,5.30078125 Z M8.51660156,5.42089844 L9.35742188,5.6875 C9.22851498,6.15625234 9.01416166,6.50439339 8.71435547,6.73193359 C8.41454928,6.95947379 8.03418199,7.07324219 7.57324219,7.07324219 C7.00292684,7.07324219 6.53418152,6.87841992 6.16699219,6.48876953 C5.79980285,6.09911915 5.61621094,5.56640963 5.61621094,4.890625 C5.61621094,4.17577768 5.8007794,3.62060745 6.16992188,3.22509766 C6.53906435,2.82958787 7.02441105,2.63183594 7.62597656,2.63183594 C8.15136981,2.63183594 8.57812336,2.78710782 8.90625,3.09765625 C9.10156348,3.28125092 9.24804639,3.54492016 9.34570312,3.88867188 L8.48730469,4.09375 C8.43652318,3.87109264 8.33056721,3.69531314 8.16943359,3.56640625 C8.00829998,3.43749936 7.81250115,3.37304688 7.58203125,3.37304688 C7.26367028,3.37304688 7.00537208,3.48730354 6.80712891,3.71582031 C6.60888573,3.94433708 6.50976562,4.31445057 6.50976562,4.82617188 C6.50976562,5.36914334 6.6074209,5.75585822 6.80273438,5.98632812 C6.99804785,6.21679803 7.25195156,6.33203125 7.56445312,6.33203125 C7.79492303,6.33203125 7.99316323,6.25878979 8.15917969,6.11230469 C8.32519614,5.96581958 8.44433558,5.73535313 8.51660156,5.42089844 L8.51660156,5.42089844 Z M11.0683594,7 L11.0683594,3.43164062 L9.79394531,3.43164062 L9.79394531,2.70507812 L13.2070312,2.70507812 L13.2070312,3.43164062 L11.9355469,3.43164062 L11.9355469,7 L11.0683594,7 Z M13.7402344,7 L13.7402344,2.70507812 L14.6074219,2.70507812 L14.6074219,7 L13.7402344,7 Z M16.5292969,7 L14.9941406,2.70507812 L15.9345703,2.70507812 L17.0214844,5.88378906 L18.0732422,2.70507812 L18.9931641,2.70507812 L17.4550781,7 L16.5292969,7 Z M19.4355469,7 L19.4355469,2.70507812 L22.6201172,2.70507812 L22.6201172,3.43164062 L20.3027344,3.43164062 L20.3027344,4.38378906 L22.4589844,4.38378906 L22.4589844,5.10742188 L20.3027344,5.10742188 L20.3027344,6.27636719 L22.7021484,6.27636719 L22.7021484,7 L19.4355469,7 Z M2.10351562,11.6025391 L2.94726562,11.5205078 C2.99804713,11.8037124 3.10107344,12.0117181 3.25634766,12.1445312 C3.41162187,12.2773444 3.62109243,12.34375 3.88476562,12.34375 C4.1640639,12.34375 4.37451101,12.2846686 4.51611328,12.1665039 C4.65771555,12.0483393 4.72851562,11.910157 4.72851562,11.7519531 C4.72851562,11.6503901 4.69873077,11.5639652 4.63916016,11.4926758 C4.57958955,11.4213864 4.47558668,11.3593753 4.32714844,11.3066406 C4.22558543,11.2714842 3.99414243,11.2089848 3.6328125,11.1191406 C3.16796643,11.0039057 2.84179781,10.8623055 2.65429688,10.6943359 C2.39062368,10.4580066 2.25878906,10.1699236 2.25878906,9.83007812 C2.25878906,9.61132703 2.32080016,9.40673923 2.44482422,9.21630859 C2.56884828,9.02587795 2.74755743,8.88085987 2.98095703,8.78125 C3.21435664,8.68164013 3.4960921,8.63183594 3.82617188,8.63183594 C4.36523707,8.63183594 4.77099473,8.74999882 5.04345703,8.98632812 C5.31591933,9.22265743 5.45898431,9.53808396 5.47265625,9.93261719 L4.60546875,9.97070312 C4.56835919,9.7499989 4.48877014,9.59130908 4.36669922,9.49462891 C4.2446283,9.39794874 4.06152466,9.34960938 3.81738281,9.34960938 C3.56542843,9.34960938 3.36816478,9.40136667 3.22558594,9.50488281 C3.1337886,9.57128939 3.08789062,9.66015569 3.08789062,9.77148438 C3.08789062,9.87304738 3.13085895,9.95996058 3.21679688,10.0322266 C3.32617242,10.1240239 3.59179477,10.2197261 4.01367188,10.3193359 C4.43554898,10.4189458 4.74755758,10.5219721 4.94970703,10.628418 C5.15185648,10.7348638 5.31005802,10.8803702 5.42431641,11.0649414 C5.53857479,11.2495126 5.59570312,11.4775377 5.59570312,11.7490234 C5.59570312,11.9951184 5.52734443,12.2255849 5.390625,12.4404297 C5.25390557,12.6552745 5.06054813,12.8149409 4.81054688,12.9194336 C4.56054562,13.0239263 4.2490253,13.0761719 3.87597656,13.0761719 C3.3330051,13.0761719 2.91601708,12.9506848 2.625,12.699707 C2.33398292,12.4487292 2.16015653,12.0830102 2.10351562,11.6025391 L2.10351562,11.6025391 Z M6.32519531,13 L6.32519531,8.70507812 L7.71679688,8.70507812 C8.24414326,8.70507812 8.58788982,8.72656229 8.74804688,8.76953125 C8.99414186,8.8339847 9.20019448,8.97412001 9.36621094,9.18994141 C9.53222739,9.4057628 9.61523438,9.6845686 9.61523438,10.0263672 C9.61523438,10.2900404 9.56738329,10.5117179 9.47167969,10.6914062 C9.37597608,10.8710946 9.25439527,11.0122065 9.10693359,11.1147461 C8.95947192,11.2172857 8.80957107,11.2851561 8.65722656,11.3183594 C8.45019428,11.3593752 8.15039259,11.3798828 7.7578125,11.3798828 L7.19238281,11.3798828 L7.19238281,13 L6.32519531,13 Z M7.19238281,9.43164062 L7.19238281,10.6503906 L7.66699219,10.6503906 C8.00879077,10.6503906 8.23730411,10.6279299 8.35253906,10.5830078 C8.46777401,10.5380857 8.55810514,10.4677739 8.62353516,10.3720703 C8.68896517,10.2763667 8.72167969,10.1650397 8.72167969,10.0380859 C8.72167969,9.88183516 8.67578171,9.7529302 8.58398438,9.65136719 C8.49218704,9.54980418 8.37597727,9.48632825 8.23535156,9.4609375 C8.13183542,9.44140615 7.92382969,9.43164062 7.61132813,9.43164062 L7.19238281,9.43164062 Z M13.7548828,13 L12.8115234,13 L12.4365234,12.0244141 L10.7197266,12.0244141 L10.3652344,13 L9.4453125,13 L11.1181641,8.70507812 L12.0351562,8.70507812 L13.7548828,13 Z M12.1582031,11.3007812 L11.5664062,9.70703125 L10.9863281,11.3007812 L12.1582031,11.3007812 Z M14.2177734,13 L14.2177734,8.70507812 L16.0429688,8.70507812 C16.5019554,8.70507812 16.8354482,8.74365196 17.043457,8.82080078 C17.2514659,8.8979496 17.4179681,9.03515526 17.5429688,9.23242188 C17.6679694,9.42968849 17.7304688,9.65527217 17.7304688,9.90917969 C17.7304688,10.2314469 17.6357431,10.4975575 17.4462891,10.7075195 C17.256835,10.9174815 16.9736347,11.0498044 16.5966797,11.1044922 C16.7841806,11.2138677 16.9389642,11.3339837 17.0610352,11.4648438 C17.1831061,11.5957038 17.3476552,11.8281233 17.5546875,12.1621094 L18.0791016,13 L17.0419922,13 L16.4150391,12.0654297 C16.1923817,11.7314436 16.0400395,11.5209965 15.9580078,11.434082 C15.8759762,11.3471675 15.789063,11.2875978 15.6972656,11.2553711 C15.6054683,11.2231444 15.4599619,11.2070312 15.2607422,11.2070312 L15.0849609,11.2070312 L15.0849609,13 L14.2177734,13 Z M15.0849609,10.5214844 L15.7265625,10.5214844 C16.1425802,10.5214844 16.4023432,10.5039064 16.5058594,10.46875 C16.6093755,10.4335936 16.6904294,10.3730473 16.7490234,10.2871094 C16.8076175,10.2011714 16.8369141,10.0937506 16.8369141,9.96484375 C16.8369141,9.82031178 16.7983402,9.70361373 16.7211914,9.61474609 C16.6440426,9.52587846 16.535157,9.46972668 16.3945312,9.44628906 C16.3242184,9.43652339 16.113283,9.43164062 15.7617188,9.43164062 L15.0849609,9.43164062 L15.0849609,10.5214844 Z M18.5478516,13 L18.5478516,8.70507812 L21.7324219,8.70507812 L21.7324219,9.43164062 L19.4150391,9.43164062 L19.4150391,10.3837891 L21.5712891,10.3837891 L21.5712891,11.1074219 L19.4150391,11.1074219 L19.4150391,12.2763672 L21.8144531,12.2763672 L21.8144531,13 L18.5478516,13 Z" id="ACTIVESPARE" opacity="0.803171642" fill="#F62323" sketch:type="MSShapeGroup"></path>
            </g>
        </g>
    </g>
</svg>