<?xml version="1.0" encoding="UTF-8" standalone="no"?>
<svg width="24px" height="24px" viewBox="0 0 24 24" version="1.1" xmlns="http://www.w3.org/2000/svg" xmlns:xlink="http://www.w3.org/1999/xlink" xmlns:sketch="http://www.bohemiancoding.com/sketch/ns">
    <!-- Generator: Sketch 3.1.1 (8761) - http://www.bohemiancoding.com/sketch -->
    <title>tfre_db_zfs_dataset</title>
    <desc>Created with Sketch.</desc>
    <defs></defs>
    <g id="ADC" stroke="none" stroke-width="1" fill="none" fill-rule="evenodd" sketch:type="MSPage">
        <g id="adc_services" sketch:type="MSArtboardGroup" transform="translate(-75.000000, -112.000000)">
            <g id="tfre_db_zfs_dataset" sketch:type="MSLayerGroup" transform="translate(75.000000, 112.000000)">
                <g id="data-7" transform="translate(2.000000, 14.000000)" stroke-opacity="0.59935462" stroke="#000000" sketch:type="MSShapeGroup">
                    <g id="data">
                        <path d="M0.161908055,0.905159555 L0.161908055,6.46934373 C0.159947955,6.47377747 0.159081422,6.47809459 0.159081422,6.48255509 C0.159081422,6.4870156 0.159947955,6.49243367 0.161908055,6.4968674 L0.161908055,6.50787686 L0.167561322,6.50787686 C0.388736095,6.78210311 4.33804826,7 9.17321459,7 C14.0068559,7 17.955411,6.78198122 18.1788679,6.50787686 L18.1873478,6.50787686 L18.1873478,6.4968674 C18.1893079,6.49243367 18.1901744,6.4870156 18.1901744,6.48255509 C18.1901744,6.47809459 18.1893079,6.47377747 18.1873478,6.46934373 L18.1873478,0.905159555 C18.1866657,0.905537013 18.1852529,0.905883467 18.1845211,0.906260502 C18.0210413,1.18352114 14.0465011,1.40498932 9.17321459,1.40498932 C4.29992806,1.40498932 0.328213583,1.18352114 0.164734688,0.906260502 C0.16400293,0.905883467 0.162589161,0.905537013 0.161908055,0.905159555 L0.161908055,0.905159555 Z" id="path5588"></path>
                        <path d="M18.1908842,0.534247951 C18.1908842,0.828378229 14.154169,1.06681793 9.1746286,1.06681793 C4.19508816,1.06681793 0.158373055,0.828378229 0.158373055,0.534247951 C0.158373007,0.343979021 1.8768616,0.168163279 4.66650079,0.0730288131 C7.45613998,-0.0221056525 10.8931172,-0.0221056525 13.6827564,0.0730288131 C16.4723956,0.168163279 18.1908842,0.343979021 18.1908842,0.534247951 L18.1908842,0.534247951 Z" id="path5584"></path>
                    </g>
                </g>
                <path d="M2.31481072,5.12142614 L7.42351118,5.12142614 L7.42351118,6.54454053 L4.14788576,10.7118857 L7.54305955,10.7118857 L7.54305955,12.2418551 L2,12.2418551 L2,10.7653132 L5.2397609,6.64168144 L2.31481072,6.64168144 L2.31481072,5.12142614 Z M8.37989816,5.12142614 L11.0617667,5.12142614 C11.5904388,5.12142614 12.0174879,5.20885209 12.3429267,5.38370661 C12.6683656,5.55856113 12.9373467,5.80950598 13.1498782,6.13654869 C13.3624097,6.4635914 13.5164928,6.84405617 13.6121319,7.27795442 C13.7077711,7.71185267 13.75559,8.1716484 13.75559,8.6573554 C13.75559,9.41829636 13.6845258,10.0084215 13.5423954,10.4277485 C13.400265,10.8470756 13.2030121,11.1983984 12.9506309,11.4817275 C12.6982498,11.7650565 12.4272762,11.9536699 12.137702,12.0475733 C11.7418621,12.1770951 11.3832206,12.2418551 11.0617667,12.2418551 L8.37989816,12.2418551 L8.37989816,5.12142614 Z M10.1850786,6.73396531 L10.1850786,10.6244589 L10.6274076,10.6244589 C11.004651,10.6244589 11.272968,10.5734604 11.4323666,10.471462 C11.5917652,10.3694635 11.7166256,10.1913736 11.8069515,9.93718693 C11.8972774,9.68300027 11.9424397,9.27096502 11.9424397,8.70106881 C11.9424397,7.94660394 11.8414887,7.43014325 11.6395838,7.15167124 C11.4376789,6.87319922 11.1029468,6.73396531 10.6353775,6.73396531 L10.1850786,6.73396531 Z M14.3891964,9.88618795 L16.106708,9.75504772 C16.143901,10.0950426 16.2196142,10.3540825 16.3338499,10.532175 C16.519815,10.8203612 16.7854754,10.9644521 17.1308391,10.9644521 C17.3885335,10.9644521 17.5871146,10.8907876 17.7265884,10.7434565 C17.8660622,10.5961254 17.9357981,10.425321 17.9357981,10.2310382 C17.9357981,10.0464695 17.869383,9.88133164 17.7365508,9.73561954 C17.6037186,9.58990744 17.2955526,9.45229252 16.8120434,9.32277065 C16.0203635,9.10582153 15.4558352,8.8176397 15.1184414,8.45821652 C14.778391,8.09879335 14.6083684,7.64061662 14.6083684,7.0836726 C14.6083684,6.71777333 14.6953722,6.37211703 14.8693823,6.04669334 C15.0433925,5.72126966 15.305068,5.46546781 15.6544166,5.27928013 C16.0037653,5.09309244 16.4826182,5 17.0909896,5 C17.8375065,5 18.4066839,5.1691854 18.7985389,5.50756127 C19.1903938,5.84593715 19.4235108,6.38425433 19.4978968,7.12252896 L17.796325,7.2439551 C17.7511621,6.92338849 17.6561885,6.69025262 17.5114014,6.54454053 C17.3666143,6.39882843 17.1667048,6.32597347 16.911667,6.32597347 C16.7017922,6.32597347 16.5437242,6.38020994 16.4374585,6.4886845 C16.3311927,6.59715906 16.2780607,6.72910748 16.2780607,6.88453372 C16.2780607,6.99786536 16.3218946,7.0998623 16.4095639,7.1905276 C16.4945765,7.28443095 16.6964784,7.3718569 17.0152756,7.45280807 C17.8042988,7.66004305 18.3694913,7.86970343 18.71087,8.08179548 C19.0522488,8.29388754 19.3006412,8.55697488 19.4560549,8.87106541 C19.6114686,9.18515593 19.6891742,9.53647872 19.6891742,9.92504432 C19.6891742,10.3816089 19.5855667,10.8025486 19.3783485,11.1878762 C19.1711302,11.5732037 18.8815604,11.8654331 18.5096303,12.0645729 C18.1377002,12.2637128 17.6688096,12.3632812 17.1029444,12.3632812 C16.1093597,12.3632812 15.4212992,12.1301454 15.0387425,11.6638667 C14.6561858,11.197588 14.4396726,10.6050343 14.3891964,9.88618795 L14.3891964,9.88618795 Z" id="ZDS" fill-opacity="0.6" fill="#000000" sketch:type="MSShapeGroup"></path>
            </g>
        </g>
    </g>
</svg>