<?xml version="1.0" encoding="UTF-8" standalone="no"?>
<svg width="24px" height="24px" viewBox="0 0 24 24" version="1.1" xmlns="http://www.w3.org/2000/svg" xmlns:xlink="http://www.w3.org/1999/xlink" xmlns:sketch="http://www.bohemiancoding.com/sketch/ns">
    <!-- Generator: Sketch 3.1 (8751) - http://www.bohemiancoding.com/sketch -->
    <title>tfre_db_ipv4_netroute</title>
    <desc>Created with Sketch.</desc>
    <defs></defs>
    <g id="ADC" stroke="none" stroke-width="1" fill="none" fill-rule="evenodd" sketch:type="MSPage">
        <g id="adc_services" sketch:type="MSArtboardGroup" transform="translate(-25.000000, -62.000000)">
            <g id="tfre_db_ipv4_netroute" sketch:type="MSLayerGroup" transform="translate(25.000000, 62.000000)">
                <g id="routing" transform="translate(3.125000, 10.250000)" sketch:type="MSShapeGroup">
                    <g id="route" transform="translate(1.343750, -0.180000)">
                        <path d="M0.134506226,5.32546875 C0.134506226,5.32546875 5.82444763,2.87648438 5.82444763,5.371875 C5.82444763,7.86726563 12.1003113,3.85734375 12.1003113,3.85734375" id="Path-95" stroke-opacity="0.600000024" stroke="#000000" stroke-width="1.20000005"></path>
                        <polygon id="Triangle-1" fill-opacity="0.600000024" fill="#000000" transform="translate(13.565445, 3.230607) rotate(-298.000000) translate(-13.565445, -3.230607) " points="13.5654449 0.530607146 15.7490387 5.93060715 11.3818512 5.93060715 "></polygon>
                    </g>
                    <path d="M1.17578125,7.74 C0.526415197,7.74 0,8.25770084 0,8.90671234 L0,10.5332877 C0,11.1776451 0.521887936,11.7 1.17578125,11.7 L1.17578125,11.7 C1.8251473,11.7 2.3515625,11.1822992 2.3515625,10.5332877 L2.3515625,8.90671234 C2.3515625,8.26235491 1.82967456,7.74 1.17578125,7.74 L1.17578125,7.74 Z M4.19921875,7.74 C3.5498527,7.74 3.0234375,8.25770084 3.0234375,8.90671234 L3.0234375,10.5332877 C3.0234375,11.1776451 3.54532544,11.7 4.19921875,11.7 L4.19921875,11.7 C4.8485848,11.7 5.375,11.1822992 5.375,10.5332877 L5.375,8.90671234 C5.375,8.26235491 4.85311206,7.74 4.19921875,7.74 L4.19921875,7.74 Z M7.22265625,7.74 C6.5732902,7.74 6.046875,8.25770084 6.046875,8.90671234 L6.046875,10.5332877 C6.046875,11.1776451 6.56876294,11.7 7.22265625,11.7 L7.22265625,11.7 C7.8720223,11.7 8.3984375,11.1822992 8.3984375,10.5332877 L8.3984375,8.90671234 C8.3984375,8.26235491 7.87654956,7.74 7.22265625,7.74 L7.22265625,7.74 Z M10.2460938,7.74 C9.5967277,7.74 9.0703125,8.25770084 9.0703125,8.90671234 L9.0703125,10.5332877 C9.0703125,11.1776451 9.59220044,11.7 10.2460938,11.7 L10.2460938,11.7 C10.8954598,11.7 11.421875,11.1822992 11.421875,10.5332877 L11.421875,8.90671234 C11.421875,8.26235491 10.8999871,7.74 10.2460938,7.74 L10.2460938,7.74 Z M13.2695312,7.74 C12.6201652,7.74 12.09375,8.25770084 12.09375,8.90671234 L12.09375,10.5332877 C12.09375,11.1776451 12.6156379,11.7 13.2695312,11.7 L13.2695312,11.7 C13.9188973,11.7 14.4453125,11.1822992 14.4453125,10.5332877 L14.4453125,8.90671234 C14.4453125,8.26235491 13.9234246,7.74 13.2695312,7.74 L13.2695312,7.74 Z M16.2929688,7.74 C15.6436027,7.74 15.1171875,8.25770084 15.1171875,8.90671234 L15.1171875,10.5332877 C15.1171875,11.1776451 15.6390754,11.7 16.2929688,11.7 L16.2929688,11.7 C16.9423348,11.7 17.46875,11.1822992 17.46875,10.5332877 L17.46875,8.90671234 C17.46875,8.26235491 16.9468621,7.74 16.2929688,7.74 L16.2929688,7.74 Z" id="Rectangle-32" fill-opacity="0.600000024" fill="#000000"></path>
                </g>
                <path d="M7.359375,10.1269531 L2.28710938,10.1269531 L2.28710938,7.83691406 L7.359375,1.80761719 L9.78613281,1.80761719 L9.78613281,7.96679688 L11.0439453,7.96679688 L11.0439453,10.1269531 L9.78613281,10.1269531 L9.78613281,12 L7.359375,12 L7.359375,10.1269531 Z M7.359375,7.96679688 L7.359375,4.81542969 L4.6796875,7.96679688 L7.359375,7.96679688 Z" id="4" fill-opacity="0.600000024" fill="#000000" sketch:type="MSShapeGroup"></path>
            </g>
        </g>
    </g>
</svg>