<?xml version="1.0" encoding="UTF-8" standalone="no"?>
<svg width="24px" height="24px" viewBox="0 0 24 24" version="1.1" xmlns="http://www.w3.org/2000/svg" xmlns:xlink="http://www.w3.org/1999/xlink" xmlns:sketch="http://www.bohemiancoding.com/sketch/ns">
    <!-- Generator: Sketch 3.1.1 (8761) - http://www.bohemiancoding.com/sketch -->
    <title>tfre_db_sas_expander</title>
    <desc>Created with Sketch.</desc>
    <defs></defs>
    <g id="ADC" stroke="none" stroke-width="1" fill="none" fill-rule="evenodd" sketch:type="MSPage">
        <g id="adc_services" sketch:type="MSArtboardGroup" transform="translate(-24.000000, -162.000000)">
            <g id="tfre_db_sas_expander" sketch:type="MSLayerGroup" transform="translate(24.000000, 162.000000)">
                <g id="data-8" transform="translate(12.000000, 14.500000)" stroke-opacity="0.600000024" stroke="#000000" sketch:type="MSShapeGroup">
                    <g id="data">
                        <path d="M0.0809540276,0.905159555 L0.0809540276,6.46934373 C0.0799739774,6.47377747 0.0795407111,6.47809459 0.0795407111,6.48255509 C0.0795407111,6.4870156 0.0799739774,6.49243367 0.0809540276,6.4968674 L0.0809540276,6.50787686 L0.0837806608,6.50787686 C0.194368048,6.78210311 2.16902413,7 4.58660729,7 C7.00342795,7 8.97770548,6.78198122 9.08943393,6.50787686 L9.09367388,6.50787686 L9.09367388,6.4968674 C9.09465393,6.49243367 9.09508719,6.4870156 9.09508719,6.48255509 C9.09508719,6.47809459 9.09465393,6.47377747 9.09367388,6.46934373 L9.09367388,0.905159555 C9.09333287,0.905537013 9.09262644,0.905883467 9.09226056,0.906260502 C9.01052066,1.18352114 7.02325056,1.40498932 4.58660729,1.40498932 C2.14996403,1.40498932 0.164106791,1.18352114 0.0823673442,0.906260502 C0.0820014648,0.905883467 0.0812945804,0.905537013 0.0809540276,0.905159555 L0.0809540276,0.905159555 Z" id="path5588"></path>
                        <path d="M9.09544208,0.534247951 C9.09544208,0.828378229 7.07708452,1.06681793 4.5873143,1.06681793 C2.09754408,1.06681793 0.0791865274,0.828378229 0.0791865274,0.534247951 C0.0791865034,0.343979021 0.938430798,0.168163279 2.33325039,0.0730288131 C3.72806999,-0.0221056525 5.44655861,-0.0221056525 6.84137821,0.0730288131 C8.2361978,0.168163279 9.0954421,0.343979021 9.09544208,0.534247951 L9.09544208,0.534247951 Z" id="path5584"></path>
                    </g>
                </g>
                <g id="data-8" transform="translate(2.000000, 14.500000)" stroke-opacity="0.600000024" stroke="#000000" sketch:type="MSShapeGroup">
                    <g id="data">
                        <path d="M0.0809540276,0.905159555 L0.0809540276,6.46934373 C0.0799739774,6.47377747 0.0795407111,6.47809459 0.0795407111,6.48255509 C0.0795407111,6.4870156 0.0799739774,6.49243367 0.0809540276,6.4968674 L0.0809540276,6.50787686 L0.0837806608,6.50787686 C0.194368048,6.78210311 2.16902413,7 4.58660729,7 C7.00342795,7 8.97770548,6.78198122 9.08943393,6.50787686 L9.09367388,6.50787686 L9.09367388,6.4968674 C9.09465393,6.49243367 9.09508719,6.4870156 9.09508719,6.48255509 C9.09508719,6.47809459 9.09465393,6.47377747 9.09367388,6.46934373 L9.09367388,0.905159555 C9.09333287,0.905537013 9.09262644,0.905883467 9.09226056,0.906260502 C9.01052066,1.18352114 7.02325056,1.40498932 4.58660729,1.40498932 C2.14996403,1.40498932 0.164106791,1.18352114 0.0823673442,0.906260502 C0.0820014648,0.905883467 0.0812945804,0.905537013 0.0809540276,0.905159555 L0.0809540276,0.905159555 Z" id="path5588"></path>
                        <path d="M9.09544208,0.534247951 C9.09544208,0.828378229 7.07708452,1.06681793 4.5873143,1.06681793 C2.09754408,1.06681793 0.0791865274,0.828378229 0.0791865274,0.534247951 C0.0791865034,0.343979021 0.938430798,0.168163279 2.33325039,0.0730288131 C3.72806999,-0.0221056525 5.44655861,-0.0221056525 6.84137821,0.0730288131 C8.2361978,0.168163279 9.0954421,0.343979021 9.09544208,0.534247951 L9.09544208,0.534247951 Z" id="path5584"></path>
                    </g>
                </g>
                <path d="M6.55151367,14.3322756 C6.55151367,8.43080425 16.4489746,8.68238146 16.4489746,14.3322756" id="Path-442" stroke="#757575" sketch:type="MSShapeGroup"></path>
                <path d="M2.04638672,6.60253906 L2.89013672,6.52050781 C2.94091822,6.80371235 3.04394454,7.01171809 3.19921875,7.14453125 C3.35449296,7.27734441 3.56396353,7.34375 3.82763672,7.34375 C4.10693499,7.34375 4.3173821,7.28466856 4.45898438,7.16650391 C4.60058665,7.04833925 4.67138672,6.91015704 4.67138672,6.75195312 C4.67138672,6.65039012 4.64160186,6.5639652 4.58203125,6.49267578 C4.52246064,6.42138636 4.41845777,6.35937526 4.27001953,6.30664062 C4.16845652,6.2714842 3.93701353,6.20898482 3.57568359,6.11914062 C3.11083752,6.00390567 2.78466891,5.86230553 2.59716797,5.69433594 C2.33349478,5.45800663 2.20166016,5.16992357 2.20166016,4.83007812 C2.20166016,4.61132703 2.26367125,4.40673923 2.38769531,4.21630859 C2.51171937,4.02587795 2.69042852,3.88085987 2.92382812,3.78125 C3.15722773,3.68164013 3.43896319,3.63183594 3.76904297,3.63183594 C4.30810816,3.63183594 4.71386583,3.74999882 4.98632812,3.98632812 C5.25879042,4.22265743 5.4018554,4.53808396 5.41552734,4.93261719 L4.54833984,4.97070312 C4.51123028,4.7499989 4.43164124,4.59130908 4.30957031,4.49462891 C4.18749939,4.39794874 4.00439575,4.34960938 3.76025391,4.34960938 C3.50829952,4.34960938 3.31103587,4.40136667 3.16845703,4.50488281 C3.0766597,4.57128939 3.03076172,4.66015569 3.03076172,4.77148438 C3.03076172,4.87304738 3.07373004,4.95996058 3.15966797,5.03222656 C3.26904352,5.1240239 3.53466586,5.21972606 3.95654297,5.31933594 C4.37842008,5.41894581 4.69042868,5.52197212 4.89257812,5.62841797 C5.09472757,5.73486381 5.25292912,5.88037017 5.3671875,6.06494141 C5.48144588,6.24951264 5.53857422,6.47753771 5.53857422,6.74902344 C5.53857422,6.99511842 5.47021553,7.22558486 5.33349609,7.44042969 C5.19677666,7.65527451 5.00341922,7.81494088 4.75341797,7.91943359 C4.50341672,8.0239263 4.1918964,8.07617188 3.81884766,8.07617188 C3.27587619,8.07617188 2.85888817,7.95068485 2.56787109,7.69970703 C2.27685401,7.44872921 2.10302763,7.08301021 2.04638672,6.60253906 L2.04638672,6.60253906 Z M10.1411133,8 L9.19775391,8 L8.82275391,7.02441406 L7.10595703,7.02441406 L6.75146484,8 L5.83154297,8 L7.50439453,3.70507812 L8.42138672,3.70507812 L10.1411133,8 Z M8.54443359,6.30078125 L7.95263672,4.70703125 L7.37255859,6.30078125 L8.54443359,6.30078125 Z M10.3813477,6.60253906 L11.2250977,6.52050781 C11.2758792,6.80371235 11.3789055,7.01171809 11.5341797,7.14453125 C11.6894539,7.27734441 11.8989245,7.34375 12.1625977,7.34375 C12.4418959,7.34375 12.652343,7.28466856 12.7939453,7.16650391 C12.9355476,7.04833925 13.0063477,6.91015704 13.0063477,6.75195312 C13.0063477,6.65039012 12.9765628,6.5639652 12.9169922,6.49267578 C12.8574216,6.42138636 12.7534187,6.35937526 12.6049805,6.30664062 C12.5034175,6.2714842 12.2719745,6.20898482 11.9106445,6.11914062 C11.4457985,6.00390567 11.1196298,5.86230553 10.9321289,5.69433594 C10.6684557,5.45800663 10.5366211,5.16992357 10.5366211,4.83007812 C10.5366211,4.61132703 10.5986322,4.40673923 10.7226562,4.21630859 C10.8466803,4.02587795 11.0253895,3.88085987 11.2587891,3.78125 C11.4921887,3.68164013 11.7739241,3.63183594 12.1040039,3.63183594 C12.6430691,3.63183594 13.0488268,3.74999882 13.3212891,3.98632812 C13.5937514,4.22265743 13.7368163,4.53808396 13.7504883,4.93261719 L12.8833008,4.97070312 C12.8461912,4.7499989 12.7666022,4.59130908 12.6445312,4.49462891 C12.5224603,4.39794874 12.3393567,4.34960938 12.0952148,4.34960938 C11.8432605,4.34960938 11.6459968,4.40136667 11.503418,4.50488281 C11.4116206,4.57128939 11.3657227,4.66015569 11.3657227,4.77148438 C11.3657227,4.87304738 11.408691,4.95996058 11.4946289,5.03222656 C11.6040045,5.1240239 11.8696268,5.21972606 12.2915039,5.31933594 C12.713381,5.41894581 13.0253896,5.52197212 13.2275391,5.62841797 C13.4296885,5.73486381 13.5878901,5.88037017 13.7021484,6.06494141 C13.8164068,6.24951264 13.8735352,6.47753771 13.8735352,6.74902344 C13.8735352,6.99511842 13.8051765,7.22558486 13.668457,7.44042969 C13.5317376,7.65527451 13.3383802,7.81494088 13.0883789,7.91943359 C12.8383777,8.0239263 12.5268573,8.07617188 12.1538086,8.07617188 C11.6108371,8.07617188 11.1938491,7.95068485 10.902832,7.69970703 C10.611815,7.44872921 10.4379886,7.08301021 10.3813477,6.60253906 L10.3813477,6.60253906 Z M14.1665039,8 L15.6342773,5.75878906 L14.3041992,3.70507812 L15.3178711,3.70507812 L16.1791992,5.08496094 L17.0229492,3.70507812 L18.027832,3.70507812 L16.6918945,5.79101562 L18.159668,8 L17.1137695,8 L16.1616211,6.51464844 L15.206543,8 L14.1665039,8 Z M18.6049805,8 L18.6049805,3.70507812 L19.996582,3.70507812 C20.5239284,3.70507812 20.867675,3.72656229 21.027832,3.76953125 C21.273927,3.8339847 21.4799796,3.97412001 21.6459961,4.18994141 C21.8120125,4.4057628 21.8950195,4.6845686 21.8950195,5.02636719 C21.8950195,5.29004038 21.8471684,5.51171785 21.7514648,5.69140625 C21.6557612,5.87109465 21.5341804,6.01220652 21.3867188,6.11474609 C21.2392571,6.21728567 21.0893562,6.28515608 20.9370117,6.31835938 C20.7299794,6.35937521 20.4301777,6.37988281 20.0375977,6.37988281 L19.472168,6.37988281 L19.472168,8 L18.6049805,8 Z M19.472168,4.43164062 L19.472168,5.65039062 L19.9467773,5.65039062 C20.2885759,5.65039062 20.5170893,5.62792991 20.6323242,5.58300781 C20.7475592,5.53808571 20.8378903,5.46777392 20.9033203,5.37207031 C20.9687503,5.27636671 21.0014648,5.1650397 21.0014648,5.03808594 C21.0014648,4.88183516 20.9555669,4.7529302 20.8637695,4.65136719 C20.7719722,4.54980418 20.6557624,4.48632825 20.5151367,4.4609375 C20.4116206,4.44140615 20.2036148,4.43164062 19.8911133,4.43164062 L19.472168,4.43164062 Z" id="SASXP" opacity="0.803171642" fill-opacity="0.600000024" fill="#000000" sketch:type="MSShapeGroup"></path>
            </g>
        </g>
    </g>
</svg>