<?xml version="1.0" encoding="UTF-8" standalone="no"?>
<svg width="24px" height="24px" viewBox="0 0 24 24" version="1.1" xmlns="http://www.w3.org/2000/svg" xmlns:xlink="http://www.w3.org/1999/xlink" xmlns:sketch="http://www.bohemiancoding.com/sketch/ns">
    <!-- Generator: Sketch 3.1 (8751) - http://www.bohemiancoding.com/sketch -->
    <title>tfre_db_virtual_fileserver</title>
    <desc>Created with Sketch.</desc>
    <defs></defs>
    <g id="ADC" stroke="none" stroke-width="1" fill="none" fill-rule="evenodd" sketch:type="MSPage">
        <g id="adc_services" sketch:type="MSArtboardGroup" transform="translate(-153.000000, -112.000000)" stroke="#000000" stroke-opacity="0.303498641" stroke-width="2" fill="#000000" fill-opacity="0.600000024">
            <g id="tfre_db_virtual_fileserver" sketch:type="MSLayerGroup" transform="translate(153.000000, 112.000000)">
                <g id="folder-2" transform="translate(2.625000, 4.875000)" sketch:type="MSShapeGroup">
                    <g id="folder">
                        <g id="f">
                            <path d="M0.462690295,-0.137439396 C0.219200453,-0.137439396 0.0144590717,0.0171848821 0.0144590717,0.201072678 L0.0144590717,1.90455262 C0.0139265152,1.91328212 1.24344979e-14,1.91755987 1.24344979e-14,1.92639211 L1.24344979e-14,14.8553694 C1.24344979e-14,15.1641958 0.328489751,15.4122763 0.737412657,15.4122763 L17.9870852,15.4122763 C18.3960076,15.412276 18.7244978,15.1641951 18.7244978,14.8553694 L18.7244978,1.92639211 C18.7244978,1.61756636 18.3960081,1.36948514 17.9870852,1.36948514 L11.1768624,1.36948514 L11.1768624,0.201072678 C11.1768624,0.0171852315 10.972121,-0.137439396 10.7286312,-0.137439396 L0.462690295,-0.137439396 L0.462690295,-0.137439396 Z"></path>
                        </g>
                    </g>
                </g>
            </g>
        </g>
    </g>
</svg>