<?xml version="1.0" encoding="UTF-8" standalone="no"?>
<svg width="64px" height="64px" viewBox="0 0 64 64" version="1.1" xmlns="http://www.w3.org/2000/svg" xmlns:xlink="http://www.w3.org/1999/xlink" xmlns:sketch="http://www.bohemiancoding.com/sketch/ns">
    <!-- Generator: Sketch 3.0.3 (7891) - http://www.bohemiancoding.com/sketch -->
    <title>services</title>
    <desc>Created with Sketch.</desc>
    <defs></defs>
    <g id="Page-1" stroke="none" stroke-width="1" fill="none" fill-rule="evenodd" sketch:type="MSPage">
        <g id="Landscape" sketch:type="MSArtboardGroup" transform="translate(-6.000000, -223.000000)" stroke="#000000" stroke-opacity="0.199643342" stroke-width="1.81818182" fill="#FFFFFF" fill-opacity="0.332314312">
            <g id="services" sketch:type="MSLayerGroup" transform="translate(5.000000, 222.000000)">
                <g id="cogwheel-2" transform="translate(33.000000, 33.000000) rotate(22.000000) translate(-33.000000, -33.000000) translate(8.000000, 8.000000)" sketch:type="MSShapeGroup">
                    <g id="cw" transform="translate(-0.252413, -0.302649)">
                        <path d="M25.2524125,0.302648625 C23.5404375,0.302648625 21.86795,0.482143625 20.2524125,0.810461188 L20.2524125,4.67764888 C18.0806375,5.20194388 16.0525375,6.04303644 14.197725,7.177649 L11.46335,4.44327388 C10.0617,5.37210138 8.7806875,6.46187769 7.5961625,7.646399 C6.4116375,8.83092063 5.3218625,10.1119369 4.3930375,11.5135869 L7.1274125,14.2479619 C5.9928,16.1027719 5.1517125,18.1308706 4.6274125,20.3026494 L0.760225,20.3026494 C0.4319125,21.9181838 0.2524125,23.5906688 0.2524125,25.30265 C0.2524125,27.0146313 0.4319125,28.6871163 0.760225,30.30265 L4.6274125,30.30265 C5.1517125,32.4744288 5.9928,34.5025281 7.1274125,36.3573381 L4.3930375,39.0917131 C5.3218625,40.4933631 6.4116375,41.7743794 7.5961625,42.9589006 C8.7806875,44.1434219 10.0617,45.2331988 11.46335,46.1620263 L14.197725,43.4276506 C16.0525375,44.5622631 18.0806375,45.4033563 20.2524125,45.9276513 L20.2524125,49.7948388 C21.86795,50.1231563 23.540425,50.3026513 25.2524125,50.3026513 C26.9643875,50.3026513 28.636875,50.1231563 30.2524125,49.7948388 L30.2524125,45.9276513 C32.4241875,45.4033563 34.4522875,44.5622631 36.3071,43.4276506 L39.041475,46.1620263 C40.443125,45.2331988 41.7241375,44.1434219 42.9086625,42.9589006 C44.0931875,41.7743794 45.1829625,40.4933631 46.1117875,39.0917131 L43.3774125,36.3573381 C44.512025,34.5025281 45.3531125,32.4744288 45.8774125,30.30265 L49.7446,30.30265 C50.0729125,28.6871163 50.2524125,27.0146313 50.2524125,25.30265 C50.2524125,23.5906688 50.0729125,21.9181838 49.7446,20.3026494 L45.8774125,20.3026494 C45.3531125,18.1308706 44.512025,16.1027719 43.3774125,14.2479619 L46.1117875,11.5135869 C45.1829625,10.1119369 44.0931875,8.83092063 42.9086625,7.646399 C41.7241375,6.46187769 40.443125,5.37210138 39.041475,4.44327388 L36.3071,7.177649 C34.4522875,6.04303644 32.4241875,5.20194388 30.2524125,4.67764888 L30.2524125,0.810461188 C28.636875,0.482143625 26.9643875,0.302648625 25.2524125,0.302648625 L25.2524125,0.302648625 Z M25.2524125,12.8026494 C32.1524125,12.8026494 37.7524125,18.4026494 37.7524125,25.30265 C37.7524125,32.20265 32.1524125,37.8026506 25.2524125,37.8026506 C18.3524125,37.8026506 12.7524125,32.20265 12.7524125,25.30265 C12.7524125,18.4026494 18.3524125,12.8026494 25.2524125,12.8026494 L25.2524125,12.8026494 Z"></path>
                    </g>
                </g>
            </g>
        </g>
    </g>
</svg>