<?xml version="1.0" encoding="UTF-8" standalone="no"?>
<!-- Created with Inkscape (http://www.inkscape.org/) -->

<svg
   xmlns:dc="http://purl.org/dc/elements/1.1/"
   xmlns:cc="http://creativecommons.org/ns#"
   xmlns:rdf="http://www.w3.org/1999/02/22-rdf-syntax-ns#"
   xmlns:svg="http://www.w3.org/2000/svg"
   xmlns="http://www.w3.org/2000/svg"
   version="1.1"
   width="100"
   height="100"
   viewBox="0 0 100 100"
   id="Calque_1"
   xml:space="preserve"><metadata
   id="metadata3008"><rdf:RDF><cc:Work
       rdf:about=""><dc:format>image/svg+xml</dc:format><dc:type
         rdf:resource="http://purl.org/dc/dcmitype/StillImage" /><dc:title></dc:title></cc:Work></rdf:RDF></metadata><defs
   id="defs3006"><filter
     x="0"
     y="0"
     width="1"
     height="1"
     color-interpolation-filters="sRGB"
     id="filter3172"><feColorMatrix
       result="fbSourceGraphic"
       values="1"
       type="saturate"
       id="feColorMatrix3174" /><feColorMatrix
       values="-1 0 0 0 1 0 -1 0 0 1 0 0 -1 0 1 0 0 0 1 0 "
       in="fbSourceGraphic"
       id="feColorMatrix3176" /></filter><filter
     x="0"
     y="0"
     width="1"
     height="1"
     color-interpolation-filters="sRGB"
     id="filter3178"><feColorMatrix
       result="fbSourceGraphic"
       values="1"
       type="saturate"
       id="feColorMatrix3180" /><feColorMatrix
       values="-1 0 0 0 1 0 -1 0 0 1 0 0 -1 0 1 0 0 0 1 0 "
       in="fbSourceGraphic"
       id="feColorMatrix3182" /></filter></defs>
<path
   d="m 51.246,89.629 c -5.208,-0.948 -8.671,-5.945 -7.731,-11.141 0.644,-3.527 3.149,-6.303 6.389,-7.389 l 3.046,-5.668 -4.454,-4.653 c -0.399,-0.021 -0.807,-0.068 -1.21,-0.144 -2.501,-0.45 -4.689,-1.857 -6.148,-3.969 -1.463,-2.102 -2.017,-4.646 -1.562,-7.165 0.833,-4.569 4.797,-7.882 9.426,-7.882 0.566,0 1.133,0.049 1.712,0.154 2.416,0.436 4.548,1.802 5.986,3.725 l 6.354,1.149 3.103,-5.775 c -0.356,-1.343 -0.425,-2.765 -0.176,-4.149 0.832,-4.569 4.792,-7.882 9.422,-7.882 0.562,0 1.133,0.052 1.712,0.152 0.167,0.032 0.326,0.101 0.493,0.14 0,-5.454 0,-8.985 0,-8.985 C 77.608,11.09 60.236,3.749 38.804,3.749 17.373,3.75 0,11.092 0,20.149 c 0,0 0,14.155 0,29.614 0,15.459 16.252,37.379 38.804,46.732 4.441,-1.84 8.628,-4.188 12.512,-6.86 -0.022,-0.004 -0.044,-0.002 -0.07,-0.006 z"
   id="path3000"
   style="filter:url(#filter3178)" />
<path
   d="m 99.22,56.969 c -0.699,-1.011 -1.755,-1.688 -2.961,-1.907 -1.845,-0.339 -3.591,0.472 -4.569,1.836 l -12.1,-2.192 -1.686,-12.43 c 1.051,-0.665 1.811,-1.742 2.042,-3.024 0.219,-1.212 -0.047,-2.438 -0.751,-3.448 -0.699,-1.01 -1.751,-1.688 -2.961,-1.905 -2.553,-0.457 -4.903,1.246 -5.354,3.709 -0.223,1.251 0.091,2.506 0.812,3.49 L 65.728,52.196 53.444,49.969 c -0.459,-1.644 -1.823,-2.971 -3.617,-3.295 -2.527,-0.455 -4.899,1.249 -5.346,3.711 -0.455,2.502 1.214,4.902 3.707,5.351 0.768,0.142 1.515,0.075 2.222,-0.163 l 8.641,9.031 -5.908,10.988 c -2.304,-0.099 -4.316,1.523 -4.728,3.782 -0.45,2.495 1.214,4.897 3.711,5.353 2.549,0.455 4.904,-1.253 5.351,-3.711 0.052,-0.271 0.073,-0.539 0.068,-0.81 l 11.25,-5.421 8.74,9.137 c -0.211,0.403 -0.36,0.843 -0.446,1.305 -0.219,1.212 0.043,2.435 0.751,3.447 0.694,1.008 1.75,1.687 2.96,1.905 0.279,0.051 0.554,0.077 0.824,0.077 2.23,0 4.136,-1.592 4.53,-3.784 0.219,-1.21 -0.047,-2.433 -0.751,-3.445 -0.536,-0.772 -1.278,-1.352 -2.141,-1.678 L 81.486,68.667 92.697,63.27 c 0.559,0.429 1.215,0.725 1.918,0.854 0.279,0.052 0.55,0.075 0.82,0.075 2.227,0 4.132,-1.594 4.526,-3.784 0.224,-1.213 -0.038,-2.436 -0.741,-3.446 z"
   id="path3002"
   style="filter:url(#filter3172)" />
</svg>