<?xml version="1.0" encoding="UTF-8" standalone="no"?>
<!-- Created with Inkscape (http://www.inkscape.org/) -->

<svg
   xmlns:dc="http://purl.org/dc/elements/1.1/"
   xmlns:cc="http://creativecommons.org/ns#"
   xmlns:rdf="http://www.w3.org/1999/02/22-rdf-syntax-ns#"
   xmlns:svg="http://www.w3.org/2000/svg"
   xmlns="http://www.w3.org/2000/svg"
   version="1.1"
   width="100"
   height="100"
   viewBox="0 0 100 100"
   id="Layer_1"
   xml:space="preserve"><metadata
   id="metadata11"><rdf:RDF><cc:Work
       rdf:about=""><dc:format>image/svg+xml</dc:format><dc:type
         rdf:resource="http://purl.org/dc/dcmitype/StillImage" /><dc:title></dc:title></cc:Work></rdf:RDF></metadata><defs
   id="defs9"><filter
     x="0"
     y="0"
     width="1"
     height="1"
     color-interpolation-filters="sRGB"
     id="filter2988"><feColorMatrix
       result="fbSourceGraphic"
       values="1"
       type="saturate"
       id="feColorMatrix2990" /><feColorMatrix
       values="-1 0 0 0 1 0 -1 0 0 1 0 0 -1 0 1 0 0 0 1 0 "
       in="fbSourceGraphic"
       id="feColorMatrix2992" /></filter></defs>
<g
   id="g3"
   style="filter:url(#filter2988)">
	<path
   d="M 74.152,88.662 H 53.963 c -1.363,0 -2.633,-0.694 -3.368,-1.842 -0.735,-1.148 -0.836,-2.59 -0.267,-3.828 0.454,-0.986 0.683,-2.024 0.683,-3.084 0,-4.075 -3.315,-7.391 -7.389,-7.391 -4.075,0 -7.39,3.315 -7.39,7.391 0,0.959 0.188,1.898 0.559,2.798 0.325,0.578 0.51,1.246 0.51,1.956 0,2.209 -1.791,4 -4,4 -0.006,-0.001 -0.013,-0.001 -0.02,0 h -19.34 c -2.209,0 -4,-1.791 -4,-4 V 64.684 c 0,-1.354 0.686,-2.617 1.822,-3.355 1.136,-0.736 2.569,-0.851 3.806,-0.298 0.956,0.426 1.964,0.642 2.995,0.642 4.075,0 7.39,-3.315 7.39,-7.39 0,-4.075 -3.315,-7.39 -7.39,-7.39 -1.034,0 -2.042,0.215 -2.997,0.64 -1.238,0.55 -2.67,0.437 -3.805,-0.3 -1.136,-0.738 -1.821,-2 -1.821,-3.354 v -19.78 c 0,-2.209 1.791,-4 4,-4 H 28.81 c -0.006,-0.185 -0.01,-0.37 -0.01,-0.556 0,-8.486 6.904,-15.389 15.39,-15.389 8.486,0 15.389,6.903 15.389,15.389 0,0.186 -0.003,0.371 -0.01,0.556 h 14.582 c 2.209,0 4,1.791 4,4 v 14.795 c 8.582,-0.121 15.598,6.833 15.598,15.389 0,8.556 -7.019,15.515 -15.598,15.389 v 14.991 c 0.001,2.208 -1.79,3.999 -3.999,3.999 z m -15.16,-8 h 11.16 V 64.858 c 0,-1.326 0.657,-2.566 1.756,-3.312 1.098,-0.743 2.492,-0.895 3.726,-0.404 0.88,0.352 1.797,0.529 2.726,0.529 4.075,0 7.391,-3.315 7.391,-7.39 0,-4.075 -3.315,-7.39 -7.391,-7.39 -0.93,0 -1.848,0.178 -2.729,0.528 -1.232,0.491 -2.627,0.338 -3.725,-0.406 -1.098,-0.745 -1.754,-1.984 -1.754,-3.311 V 28.099 H 54.627 c -1.35,0 -2.607,-0.68 -3.347,-1.81 -0.739,-1.129 -0.859,-2.555 -0.319,-3.791 0.411,-0.941 0.619,-1.936 0.619,-2.956 0,-4.074 -3.314,-7.389 -7.389,-7.389 -4.075,0 -7.39,3.315 -7.39,7.389 0,1.02 0.208,2.014 0.619,2.955 0.541,1.236 0.421,2.662 -0.318,3.792 -0.739,1.13 -1.998,1.81 -3.347,1.81 H 17.941 v 10.806 c 0.207,-0.008 0.415,-0.013 0.623,-0.013 8.486,0 15.39,6.904 15.39,15.39 0,8.486 -6.904,15.39 -15.39,15.39 -0.208,0 -0.416,-0.004 -0.623,-0.013 V 80.662 H 28.25 c -0.012,-0.251 -0.019,-0.502 -0.019,-0.754 0,-8.486 6.904,-15.391 15.39,-15.391 8.486,0 15.389,6.904 15.389,15.391 0.001,0.252 -0.006,0.504 -0.018,0.754 z"
   id="path5" />
</g>
</svg>