<?xml version="1.0" encoding="UTF-8" standalone="no"?>
<!-- Created with Inkscape (http://www.inkscape.org/) -->

<svg
   xmlns:dc="http://purl.org/dc/elements/1.1/"
   xmlns:cc="http://creativecommons.org/ns#"
   xmlns:rdf="http://www.w3.org/1999/02/22-rdf-syntax-ns#"
   xmlns:svg="http://www.w3.org/2000/svg"
   xmlns="http://www.w3.org/2000/svg"
   version="1.1"
   width="100"
   height="100"
   viewBox="0 0 100 100"
   id="svg2996"
   xml:space="preserve"><metadata
   id="metadata3126"><rdf:RDF><cc:Work
       rdf:about=""><dc:format>image/svg+xml</dc:format><dc:type
         rdf:resource="http://purl.org/dc/dcmitype/StillImage" /><dc:title></dc:title></cc:Work></rdf:RDF></metadata><defs
   id="defs3124">
	
	
	
	
	
	
	
	
	
	
	
	
	
	
	
	
	
	
	
	
	
	
	
	
	
	
	
<filter
   x="0"
   y="0"
   width="1"
   height="1"
   color-interpolation-filters="sRGB"
   id="filter3182"><feColorMatrix
     result="fbSourceGraphic"
     values="1"
     type="saturate"
     id="feColorMatrix3184" /><feColorMatrix
     values="-1 0 0 0 1 0 -1 0 0 1 0 0 -1 0 1 0 0 0 1 0 "
     in="fbSourceGraphic"
     id="feColorMatrix3186" /></filter></defs>

<g
   id="Your_Icon"
   style="filter:url(#filter3182)">
	<path
   d="M 0,4 V 94 H 30 V 4 H 0 z m 15,76 c -3.313,0 -6,-2.687 -6,-6 0,-3.313 2.687,-6 6,-6 3.313,0 6,2.687 6,6 0,3.313 -2.687,6 -6,6 z M 24,60 H 6 V 10 h 18 v 50 z"
   id="path3108" />
	<rect
   width="12"
   height="3"
   x="9"
   y="17"
   id="rect3110" />
	<rect
   width="12"
   height="3"
   x="9"
   y="28"
   id="rect3112" />
	<rect
   width="12"
   height="3"
   x="9"
   y="39"
   id="rect3114" />
	<rect
   width="12"
   height="3"
   x="9"
   y="50"
   id="rect3116" />
	<rect
   width="7.9990001"
   height="90"
   x="74"
   y="6"
   transform="matrix(0.9127,-0.4087,0.4087,0.9127,-14.0321,36.3344)"
   id="rect3118" />
	<path
   d="M 48.467,4.551 32.056,11.947 69.033,94 85.444,86.604 48.467,4.551 z m 6.11,45.123 -12.258,-27.377 7.301,-3.269 12.258,27.376 -7.301,3.27 z m 16.499,26.952 c -2.519,1.135 -5.479,0.014 -6.613,-2.504 -1.134,-2.518 -0.014,-5.479 2.504,-6.612 2.519,-1.135 5.479,-0.014 6.613,2.504 1.134,2.518 0.014,5.477 -2.504,6.612 z"
   id="path3120" />
</g>
</svg>