<?xml version="1.0" encoding="UTF-8" standalone="no"?>
<!-- Created with Inkscape (http://www.inkscape.org/) -->

<svg
   xmlns:dc="http://purl.org/dc/elements/1.1/"
   xmlns:cc="http://creativecommons.org/ns#"
   xmlns:rdf="http://www.w3.org/1999/02/22-rdf-syntax-ns#"
   xmlns:svg="http://www.w3.org/2000/svg"
   xmlns="http://www.w3.org/2000/svg"
   version="1.1"
   width="100"
   height="64"
   viewBox="0 0 100 64"
   id="Layer_1"
   xml:space="preserve"><metadata
   id="metadata11"><rdf:RDF><cc:Work
       rdf:about=""><dc:format>image/svg+xml</dc:format><dc:type
         rdf:resource="http://purl.org/dc/dcmitype/StillImage" /><dc:title></dc:title></cc:Work></rdf:RDF></metadata><defs
   id="defs9"><filter
     x="0"
     y="0"
     width="1"
     height="1"
     color-interpolation-filters="sRGB"
     id="filter2988"><feColorMatrix
       result="fbSourceGraphic"
       values="1"
       type="saturate"
       id="feColorMatrix2990" /><feColorMatrix
       values="-1 0 0 0 1 0 -1 0 0 1 0 0 -1 0 1 0 0 0 1 0 "
       in="fbSourceGraphic"
       id="feColorMatrix2992" /></filter><filter
     x="0"
     y="0"
     width="1"
     height="1"
     color-interpolation-filters="sRGB"
     id="filter2994"><feColorMatrix
       result="fbSourceGraphic"
       values="1"
       type="saturate"
       id="feColorMatrix2996" /><feColorMatrix
       values="-1 0 0 0 1 0 -1 0 0 1 0 0 -1 0 1 0 0 0 1 0 "
       in="fbSourceGraphic"
       id="feColorMatrix2998" /></filter></defs>
<path
   d="m 84.604,10 -13,-10 v 6 h -43 C 19.343,6 11.05,9.603 5.852,15.885 2.247,20.242 -1.579,27.919 0.674,39.748 L 0.679,39.747 C 1.029,41.599 2.65,43 4.604,43 c 2.209,0 4,-1.791 4,-4 0,-0.256 -0.029,-0.505 -0.075,-0.747 L 8.534,38.252 C 7.211,31.307 8.415,25.336 12.015,20.985 15.688,16.546 21.734,14 28.604,14 h 43 v 6 l 13,-10 z"
   id="path3"
   style="filter:url(#filter2988)" />
<path
   d="m 15.396,54 13,10 v -6 h 43 c 9.261,0 17.554,-3.603 22.752,-9.885 3.605,-4.357 7.431,-12.034 5.178,-23.863 l -0.005,0.001 C 98.971,22.401 97.35,21 95.396,21 c -2.209,0 -4,1.791 -4,4 0,0.256 0.029,0.505 0.075,0.747 l -0.005,0.001 c 1.323,6.945 0.119,12.916 -3.481,17.267 C 84.312,47.454 78.266,50 71.396,50 h -43 v -6 l -13,10 z"
   id="path5"
   style="filter:url(#filter2994)" />
</svg>