<?xml version="1.0" encoding="UTF-8" standalone="no"?>
<!-- Created with Inkscape (http://www.inkscape.org/) -->

<svg
   xmlns:dc="http://purl.org/dc/elements/1.1/"
   xmlns:cc="http://creativecommons.org/ns#"
   xmlns:rdf="http://www.w3.org/1999/02/22-rdf-syntax-ns#"
   xmlns:svg="http://www.w3.org/2000/svg"
   xmlns="http://www.w3.org/2000/svg"
   version="1.0"
   width="100"
   height="91.612999"
   viewBox="0 0 100 91.613"
   id="svg2"
   xml:space="preserve"
   style="overflow:visible"><metadata
   id="metadata14"><rdf:RDF><cc:Work
       rdf:about=""><dc:format>image/svg+xml</dc:format><dc:type
         rdf:resource="http://purl.org/dc/dcmitype/StillImage" /><dc:title></dc:title></cc:Work></rdf:RDF></metadata><defs
   id="defs12"><filter
     x="0"
     y="0"
     width="1"
     height="1"
     color-interpolation-filters="sRGB"
     id="filter2991"><feColorMatrix
       result="fbSourceGraphic"
       values="1"
       type="saturate"
       id="feColorMatrix2993" /><feColorMatrix
       values="-1 0 0 0 1 0 -1 0 0 1 0 0 -1 0 1 0 0 0 1 0 "
       in="fbSourceGraphic"
       id="feColorMatrix2995" /></filter><filter
     x="0"
     y="0"
     width="1"
     height="1"
     color-interpolation-filters="sRGB"
     id="filter2997"><feColorMatrix
       result="fbSourceGraphic"
       values="1"
       type="saturate"
       id="feColorMatrix2999" /><feColorMatrix
       values="-1 0 0 0 1 0 -1 0 0 1 0 0 -1 0 1 0 0 0 1 0 "
       in="fbSourceGraphic"
       id="feColorMatrix3001" /></filter><filter
     x="0"
     y="0"
     width="1"
     height="1"
     color-interpolation-filters="sRGB"
     id="filter3003"><feColorMatrix
       result="fbSourceGraphic"
       values="1"
       type="saturate"
       id="feColorMatrix3005" /><feColorMatrix
       values="-1 0 0 0 1 0 -1 0 0 1 0 0 -1 0 1 0 0 0 1 0 "
       in="fbSourceGraphic"
       id="feColorMatrix3007" /></filter></defs>
    <path
   d="M 97.256,49.829 H 62.6 c -1.521,0 -2.751,1.229 -2.751,2.747 0,0.775 0.323,1.468 0.838,1.969 l 24.408,24.411 0.015,-0.003 c 0.499,0.536 1.207,0.876 1.999,0.876 0.949,0 1.786,-0.483 2.281,-1.217 5.998,-6.958 9.857,-15.812 10.562,-25.54 0.031,-0.163 0.054,-0.328 0.054,-0.496 -0.006,-1.518 -1.232,-2.747 -2.75,-2.747 z"
   id="path4"
   style="filter:url(#filter2991)" />
    <path
   d="m 52.915,44.026 h 38.518 l 0.003,-0.002 c 0,0 0.003,0.002 0.009,0.002 1.518,0 2.745,-1.233 2.745,-2.749 l 0,0 C 92.829,19.103 75.085,1.365 52.915,0 l -0.01,0.008 c -1.51,0.006 -2.737,1.233 -2.737,2.747 v 38.521 c 0,1.517 1.228,2.75 2.747,2.75 z"
   id="path6"
   style="filter:url(#filter2997)" />
    <path
   d="m 73.305,76.706 -0.01,-0.004 c -0.004,-0.007 -0.007,-0.013 -0.01,-0.016 l -28.4,-28.401 v -0.01 c -0.48,-0.493 -0.772,-1.164 -0.772,-1.907 H 44.105 V 6.227 6.224 C 44.1,4.712 42.877,3.491 41.364,3.489 L 41.361,3.483 C 18.281,4.9 0,24.069 0,47.506 c 0,24.357 19.747,44.106 44.104,44.106 11.111,0 21.257,-4.106 29.013,-10.882 v -0.012 c 0.598,-0.503 0.977,-1.247 0.977,-2.085 0,-0.749 -0.3,-1.429 -0.789,-1.926 v -10e-4 z"
   id="path8"
   style="filter:url(#filter3003)" />
</svg>