<?xml version="1.0" encoding="UTF-8" standalone="no"?>
<svg width="64px" height="64px" viewBox="0 0 64 64" version="1.1" xmlns="http://www.w3.org/2000/svg" xmlns:xlink="http://www.w3.org/1999/xlink" xmlns:sketch="http://www.bohemiancoding.com/sketch/ns">
    <!-- Generator: Sketch 3.0.1 (7597) - http://www.bohemiancoding.com/sketch -->
    <title>accesscontrol</title>
    <description>Created with Sketch.</description>
    <defs></defs>
    <g id="Page-1" stroke="none" stroke-width="1" fill="none" fill-rule="evenodd" sketch:type="MSPage">
        <g id="accesscontrol" sketch:type="MSLayerGroup" transform="translate(-3.000000, -10.000000)" fill="#FFFFFF">
            <g id="ac" transform="translate(38.000000, 36.000000) rotate(20.000000) translate(-38.000000, -36.000000) translate(7.000000, 9.000000)" sketch:type="MSShapeGroup">
                <path d="M30.8119607,35.5909091 L57.070136,35.5909091 L60.5296443,38.7084695 L33.5782536,38.5493075 L32.0520141,39.6361151 L59.3671841,39.7089844 L59.3397926,41.827468 L55.6087713,45.6545455 L54.1353927,45.6545455 L52.7956082,43.286772 L50.6878983,43.2551314 L49.3918442,45.6545455 L46.9857103,45.6545455 L44.6752066,41.5503729 L43.0619868,45.6545455 L40.1863517,45.6545455 L38.4544351,43.2139027 L35.2236705,43.2139027 L34.0616909,44.9781072 L30.5998906,44.9535685 C28.6857471,49.4082634 24.2638411,52.5272727 19.1146245,52.5272727 C12.2121566,52.5272727 6.61660079,46.9226918 6.61660079,40.0090909 C6.61660079,33.09549 12.2121566,27.4909091 19.1146245,27.4909091 C24.4643243,27.4909091 29.0289757,30.8575219 30.8119607,35.5909091 Z M13.2332016,42.9545455 C14.8573117,42.9545455 16.173913,41.6358205 16.173913,40.0090909 C16.173913,38.3823613 14.8573117,37.0636364 13.2332016,37.0636364 C11.6090915,37.0636364 10.2924901,38.3823613 10.2924901,40.0090909 C10.2924901,41.6358205 11.6090915,42.9545455 13.2332016,42.9545455 Z" id="Oval-2"></path>
                <path d="M29.6364419,28.657777 L55.8946172,28.657777 L59.3541255,31.7753374 L32.4027348,31.6161754 L30.8764953,32.702983 L58.1916654,32.7758523 L58.1642738,34.8943359 L54.4332525,38.7214134 L52.9598739,38.7214134 L51.6200894,36.3536399 L49.5123795,36.3219993 L48.2163254,38.7214134 L45.8101915,38.7214134 L43.4996879,34.6172408 L41.8864681,38.7214134 L39.0108329,38.7214134 L37.2789163,36.2807706 L34.0481517,36.2807706 L32.8861722,38.0449751 L29.4243718,38.0204364 C27.5102283,42.4751313 23.0883223,45.5941406 17.9391057,45.5941406 C11.0366378,45.5941406 5.44108202,39.9895597 5.44108202,33.0759588 C5.44108202,26.1623579 11.0366378,20.557777 17.9391057,20.557777 C23.2888055,20.557777 27.853457,23.9243898 29.6364419,28.657777 Z M12.0576828,36.0214134 C13.6817929,36.0214134 14.9983943,34.7026884 14.9983943,33.0759588 C14.9983943,31.4492292 13.6817929,30.1305043 12.0576828,30.1305043 C10.4335727,30.1305043 9.11697134,31.4492292 9.11697134,33.0759588 C9.11697134,34.7026884 10.4335727,36.0214134 12.0576828,36.0214134 Z" id="Oval-3" fill-opacity="0.700000286" transform="translate(32.397604, 33.075959) rotate(-20.000000) translate(-32.397604, -33.075959) "></path>
                <path d="M26.0414413,22.5425071 L52.2996166,22.5425071 L55.7591249,25.6600675 L28.8077342,25.5009055 L27.2814947,26.5877131 L54.5966647,26.6605824 L54.5692732,28.7790661 L50.8382519,32.6061435 L49.3648733,32.6061435 L48.0250888,30.23837 L45.9173789,30.2067294 L44.6213248,32.6061435 L42.2151909,32.6061435 L39.9046872,28.5019709 L38.2914674,32.6061435 L35.4158323,32.6061435 L33.6839157,30.1655007 L30.4531511,30.1655007 L29.2911715,31.9297053 L25.8293712,31.9051665 C23.9152277,36.3598614 19.4933217,39.4788707 14.3441051,39.4788707 C7.44163721,39.4788707 1.8460814,33.8742898 1.8460814,26.9606889 C1.8460814,20.047088 7.44163721,14.4425071 14.3441051,14.4425071 C19.6938049,14.4425071 24.2584564,17.8091199 26.0414413,22.5425071 Z M8.46268219,29.9061435 C10.0867923,29.9061435 11.4033937,28.5874185 11.4033937,26.9606889 C11.4033937,25.3339593 10.0867923,24.0152344 8.46268219,24.0152344 C6.83857209,24.0152344 5.52197073,25.3339593 5.52197073,26.9606889 C5.52197073,28.5874185 6.83857209,29.9061435 8.46268219,29.9061435 Z" id="Oval-4" fill-opacity="0.400000572" transform="translate(28.802603, 26.960689) rotate(-40.000000) translate(-28.802603, -26.960689) "></path>
            </g>
        </g>
    </g>
</svg>