<?xml version="1.0" encoding="UTF-8" standalone="no"?>
<svg width="24px" height="24px" viewBox="0 0 24 24" version="1.1" xmlns="http://www.w3.org/2000/svg" xmlns:xlink="http://www.w3.org/1999/xlink" xmlns:sketch="http://www.bohemiancoding.com/sketch/ns">
    <!-- Generator: Sketch 3.1.1 (8761) - http://www.bohemiancoding.com/sketch -->
    <title>dlg_group_ico</title>
    <desc>Created with Sketch.</desc>
    <defs></defs>
    <g id="Accesscontrol" stroke="none" stroke-width="1" fill="none" fill-rule="evenodd" sketch:type="MSPage">
        <g id="AC" sketch:type="MSArtboardGroup" transform="translate(-28.000000, -197.000000)">
            <g id="dlg_group_ico" sketch:type="MSLayerGroup" transform="translate(28.000000, 197.000000)">
                <g id="Group2-+-Group-+-Triangle-1" transform="translate(2.000000, 1.000000)" sketch:type="MSShapeGroup">
                    <g id="Group2" transform="translate(3.000000, 11.478261)" fill="#417505">
                        <path d="M18.1756098,8.51127676 L16.430933,8.51127676 L16.430933,6.30215338 C16.430933,5.92192108 16.2688065,5.56957165 16.00835,5.26311018 C16.1617522,5.23222646 16.3193347,5.21034529 16.4856416,5.21034529 C17.416051,5.21034529 18.1756098,5.73286773 18.1756098,6.37442377 L18.1756098,8.51127676 L18.1756098,8.51127676 Z M16.4856416,3.39283241 C15.9165632,3.39283241 15.4545392,3.71054706 15.4545392,4.10065715 C15.4545392,4.4906422 15.9165632,4.80848189 16.4856416,4.80848189 C17.0525388,4.80848189 17.5143811,4.4906422 17.5143811,4.10065715 C17.5143811,3.71054706 17.0525388,3.39283241 16.4856416,3.39283241 L16.4856416,3.39283241 Z" id="path3053" fill-opacity="0.3"></path>
                        <path d="M1.69214927,5.21034529 C1.8584561,5.21034529 2.01403932,5.23222646 2.16707795,5.26311018 C1.90444039,5.56957165 1.74467678,5.92192108 1.74467678,6.30215338 L1.74467678,8.51127676 L0,8.51127676 L0,6.37442377 C0,5.73299277 0.759558732,5.21034529 1.69214927,5.21034529 L1.69214927,5.21034529 Z M1.69214927,3.39283241 C1.12307093,3.39283241 0.661046927,3.71054706 0.661046927,4.10065715 C0.661046927,4.4906422 1.12307093,4.80848189 1.69214927,4.80848189 C2.25904654,4.80848189 2.72107054,4.4906422 2.72107054,4.10065715 C2.72107054,3.71054706 2.25904654,3.39283241 1.69214927,3.39283241 L1.69214927,3.39283241 Z" id="path3057" fill-opacity="0.3"></path>
                        <path d="M15.8703972,9.33350879 L13.1976738,9.33350879 L13.1976738,5.97243534 C13.1976738,5.5101799 13.0202798,5.08018356 12.7334687,4.69469978 C12.9524848,4.65031225 13.1824062,4.61867833 13.4230513,4.61867833 C14.7714998,4.61867833 15.8703972,5.37389144 15.8703972,6.30227841 L15.8703972,9.33350879 L15.8703972,9.33350879 Z M13.4232331,2.10521906 C12.5784307,2.10521906 11.8932102,2.5781025 11.8932102,3.15939154 C11.8932102,3.73993036 12.5784307,4.21206359 13.4232331,4.21206359 C14.2682172,4.21206359 14.9556187,3.73993036 14.9556187,3.15939154 C14.955437,2.5781025 14.2682172,2.10521906 13.4232331,2.10521906 L13.4232331,2.10521906 Z" id="path3061" fill-opacity="0.6"></path>
                        <path d="M4.97575493,5.97243534 L4.97575493,9.33363382 L2.30503083,9.33363382 L2.30503083,6.30215338 C2.30503083,5.3737664 3.40174712,4.61855329 4.75237668,4.61855329 C4.99302176,4.61855329 5.22076215,4.65018722 5.43959649,4.69457474 C5.15314888,5.08018356 4.97575493,5.51005486 4.97575493,5.97243534 L4.97575493,5.97243534 Z M4.75237668,2.10521906 C3.90739259,2.10521906 3.21999102,2.5781025 3.21999102,3.15939154 C3.21999102,3.73993036 3.90721083,4.21206359 4.75237668,4.21206359 C5.59517971,4.21206359 6.28239951,3.73993036 6.28239951,3.15939154 C6.28239951,2.5781025 5.59517971,2.10521906 4.75237668,2.10521906 L4.75237668,2.10521906 Z" id="path3063" fill-opacity="0.6"></path>
                        <path d="M5.53610898,10.3064083 L12.6373197,10.3064083 L12.6373197,5.97243534 C12.6373197,4.62543023 11.0435005,3.52987108 9.08671434,3.52987108 C7.12756537,3.52987108 5.53610898,4.62543023 5.53610898,5.97243534 L5.53610898,10.3064083 L5.53610898,10.3064083 Z M9.08671434,-1.87350135e-14 C7.83895873,-1.87350135e-14 6.82330566,0.698697163 6.82330566,1.55706438 C6.82330566,2.41618181 7.83895873,3.11562919 9.08671434,3.11562919 C10.33447,3.11562919 11.3523041,2.41618181 11.3523041,1.55706438 C11.3523041,0.698697163 10.33447,-1.87350135e-14 9.08671434,-1.87350135e-14 L9.08671434,-1.87350135e-14 Z" id="path3065"></path>
                    </g>
                    <g id="Group" fill="#417505">
                        <path d="M18.1756098,8.51127676 L16.430933,8.51127676 L16.430933,6.30215338 C16.430933,5.92192108 16.2688065,5.56957165 16.00835,5.26311018 C16.1617522,5.23222646 16.3193347,5.21034529 16.4856416,5.21034529 C17.416051,5.21034529 18.1756098,5.73286773 18.1756098,6.37442377 L18.1756098,8.51127676 L18.1756098,8.51127676 Z M16.4856416,3.39283241 C15.9165632,3.39283241 15.4545392,3.71054706 15.4545392,4.10065715 C15.4545392,4.4906422 15.9165632,4.80848189 16.4856416,4.80848189 C17.0525388,4.80848189 17.5143811,4.4906422 17.5143811,4.10065715 C17.5143811,3.71054706 17.0525388,3.39283241 16.4856416,3.39283241 L16.4856416,3.39283241 Z" id="path3053" fill-opacity="0.3"></path>
                        <path d="M1.69214927,5.21034529 C1.8584561,5.21034529 2.01403932,5.23222646 2.16707795,5.26311018 C1.90444039,5.56957165 1.74467678,5.92192108 1.74467678,6.30215338 L1.74467678,8.51127676 L0,8.51127676 L0,6.37442377 C0,5.73299277 0.759558732,5.21034529 1.69214927,5.21034529 L1.69214927,5.21034529 Z M1.69214927,3.39283241 C1.12307093,3.39283241 0.661046927,3.71054706 0.661046927,4.10065715 C0.661046927,4.4906422 1.12307093,4.80848189 1.69214927,4.80848189 C2.25904654,4.80848189 2.72107054,4.4906422 2.72107054,4.10065715 C2.72107054,3.71054706 2.25904654,3.39283241 1.69214927,3.39283241 L1.69214927,3.39283241 Z" id="path3057" fill-opacity="0.3"></path>
                        <path d="M15.8703972,9.33350879 L13.1976738,9.33350879 L13.1976738,5.97243534 C13.1976738,5.5101799 13.0202798,5.08018356 12.7334687,4.69469978 C12.9524848,4.65031225 13.1824062,4.61867833 13.4230513,4.61867833 C14.7714998,4.61867833 15.8703972,5.37389144 15.8703972,6.30227841 L15.8703972,9.33350879 L15.8703972,9.33350879 Z M13.4232331,2.10521906 C12.5784307,2.10521906 11.8932102,2.5781025 11.8932102,3.15939154 C11.8932102,3.73993036 12.5784307,4.21206359 13.4232331,4.21206359 C14.2682172,4.21206359 14.9556187,3.73993036 14.9556187,3.15939154 C14.955437,2.5781025 14.2682172,2.10521906 13.4232331,2.10521906 L13.4232331,2.10521906 Z" id="path3061" fill-opacity="0.6"></path>
                        <path d="M4.97575493,5.97243534 L4.97575493,9.33363382 L2.30503083,9.33363382 L2.30503083,6.30215338 C2.30503083,5.3737664 3.40174712,4.61855329 4.75237668,4.61855329 C4.99302176,4.61855329 5.22076215,4.65018722 5.43959649,4.69457474 C5.15314888,5.08018356 4.97575493,5.51005486 4.97575493,5.97243534 L4.97575493,5.97243534 Z M4.75237668,2.10521906 C3.90739259,2.10521906 3.21999102,2.5781025 3.21999102,3.15939154 C3.21999102,3.73993036 3.90721083,4.21206359 4.75237668,4.21206359 C5.59517971,4.21206359 6.28239951,3.73993036 6.28239951,3.15939154 C6.28239951,2.5781025 5.59517971,2.10521906 4.75237668,2.10521906 L4.75237668,2.10521906 Z" id="path3063" fill-opacity="0.6"></path>
                        <path d="M5.53610898,10.3064083 L12.6373197,10.3064083 L12.6373197,5.97243534 C12.6373197,4.62543023 11.0435005,3.52987108 9.08671434,3.52987108 C7.12756537,3.52987108 5.53610898,4.62543023 5.53610898,5.97243534 L5.53610898,10.3064083 L5.53610898,10.3064083 Z M9.08671434,-1.87350135e-14 C7.83895873,-1.87350135e-14 6.82330566,0.698697163 6.82330566,1.55706438 C6.82330566,2.41618181 7.83895873,3.11562919 9.08671434,3.11562919 C10.33447,3.11562919 11.3523041,2.41618181 11.3523041,1.55706438 C11.3523041,0.698697163 10.33447,-1.87350135e-14 9.08671434,-1.87350135e-14 L9.08671434,-1.87350135e-14 Z" id="path3065"></path>
                    </g>
                    <polygon id="Triangle-1" stroke="#005DC9" opacity="0.600000381" fill="#005DC9" transform="translate(4.000000, 12.434783) scale(-1, 1) rotate(-90.000000) translate(-4.000000, -12.434783) " points="4 9.56521739 6 15.3043478 2 15.3043478 "></polygon>
                </g>
            </g>
        </g>
    </g>
</svg>