<?xml version="1.0" encoding="UTF-8" standalone="no"?>
<svg width="24px" height="24px" viewBox="0 0 24 24" version="1.1" xmlns="http://www.w3.org/2000/svg" xmlns:xlink="http://www.w3.org/1999/xlink" xmlns:sketch="http://www.bohemiancoding.com/sketch/ns">
    <!-- Generator: Sketch 3.0.1 (7597) - http://www.bohemiancoding.com/sketch -->
    <title>domain_ico</title>
    <description>Created with Sketch.</description>
    <defs></defs>
    <g id="Page-1" stroke="none" stroke-width="1" fill="none" fill-rule="evenodd" sketch:type="MSPage">
        <g id="domain_ico" sketch:type="MSLayerGroup">
            <path d="M1,23 L23,23 L23,7.47058824 L12,1.15881587 L1,7.47058824 L1,23 Z" id="home" stroke-opacity="0.399399909" stroke="#417505" stroke-width="1.20000248" fill="#417505" sketch:type="MSShapeGroup"></path>
            <g id="group" transform="translate(3.291667, 6.176471)" fill="#FFFFFF" sketch:type="MSShapeGroup">
                <path d="M17.1237805,11.1663096 L15.4800688,11.1663096 L15.4800688,8.26806575 C15.4800688,7.76922267 15.3273247,7.30696032 15.0819409,6.90490034 C15.2264656,6.86438267 15.3749288,6.83567581 15.5316114,6.83567581 C16.4081777,6.83567581 17.1237805,7.52119546 17.1237805,8.36288039 L17.1237805,11.1663096 L17.1237805,11.1663096 Z M15.5316114,4.45120259 C14.9954658,4.45120259 14.5601793,4.8680261 14.5601793,5.37982827 C14.5601793,5.89146641 14.9954658,6.30845395 15.5316114,6.30845395 C16.0657021,6.30845395 16.5008174,5.89146641 16.5008174,5.37982827 C16.5008174,4.8680261 16.0657021,4.45120259 15.5316114,4.45120259 L15.5316114,4.45120259 Z" id="path3053" fill-opacity="0.500000477"></path>
                <path d="M1.59422396,6.83567581 C1.75090655,6.83567581 1.89748612,6.86438267 2.04166835,6.90490034 C1.79422972,7.30696032 1.64371169,7.76922267 1.64371169,8.26806575 L1.64371169,11.1663096 L0,11.1663096 L0,8.36288039 C0,7.5213595 0.715602787,6.83567581 1.59422396,6.83567581 L1.59422396,6.83567581 Z M1.59422396,4.45120259 C1.0580784,4.45120259 0.622791896,4.8680261 0.622791896,5.37982827 C0.622791896,5.89146641 1.0580784,6.30845395 1.59422396,6.30845395 C2.12831468,6.30845395 2.56360118,5.89146641 2.56360118,5.37982827 C2.56360118,4.8680261 2.12831468,4.45120259 1.59422396,4.45120259 L1.59422396,4.45120259 Z" id="path3057" fill-opacity="0.500000477"></path>
                <path d="M14.9519714,12.2450311 L12.4339195,12.2450311 L12.4339195,7.83549449 C12.4339195,7.22904172 12.2667914,6.66491105 11.9965781,6.15917832 C12.2029197,6.10094442 12.4195355,6.05944251 12.6462544,6.05944251 C13.9166676,6.05944251 14.9519714,7.05023903 14.9519714,8.26822979 L14.9519714,12.2450311 L14.9519714,12.2450311 Z M12.6464256,2.76192733 C11.8505123,2.76192733 11.2049458,3.38232343 11.2049458,4.14494148 C11.2049458,4.9065753 11.8505123,5.52598716 12.6464256,5.52598716 C13.4425102,5.52598716 14.0901315,4.9065753 14.0901315,4.14494148 C14.0899603,3.38232343 13.4425102,2.76192733 12.6464256,2.76192733 L12.6464256,2.76192733 Z" id="path3061" fill-opacity="0.800000191"></path>
                <path d="M4.68780615,7.83549449 L4.68780615,12.2451952 L2.17163784,12.2451952 L2.17163784,8.26806575 C2.17163784,7.05007499 3.20488676,6.05927847 4.47735488,6.05927847 C4.70407374,6.05927847 4.91863471,6.10078038 5.12480502,6.15901428 C4.85493424,6.66491105 4.68780615,7.22887768 4.68780615,7.83549449 L4.68780615,7.83549449 Z M4.47735488,2.76192733 C3.68127033,2.76192733 3.03364895,3.38232343 3.03364895,4.14494148 C3.03364895,4.9065753 3.68109909,5.52598716 4.47735488,5.52598716 C5.27138459,5.52598716 5.91883473,4.9065753 5.91883473,4.14494148 C5.91883473,3.38232343 5.27138459,2.76192733 4.47735488,2.76192733 L4.47735488,2.76192733 Z" id="path3063" fill-opacity="0.800000191"></path>
                <path d="M5.2157323,13.5214198 L11.9059933,13.5214198 L11.9059933,7.83549449 C11.9059933,6.06830062 10.404409,4.63098951 8.56086282,4.63098951 C6.71509052,4.63098951 5.2157323,6.06830062 5.2157323,7.83549449 L5.2157323,13.5214198 L5.2157323,13.5214198 Z M8.56086282,-2.08166817e-16 C7.38531529,-2.08166817e-16 6.42843843,0.916650823 6.42843843,2.04277965 C6.42843843,3.16989272 7.38531529,4.08752777 8.56086282,4.08752777 C9.73641035,4.08752777 10.6953421,3.16989272 10.6953421,2.04277965 C10.6953421,0.916650823 9.73641035,-2.08166817e-16 8.56086282,-2.08166817e-16 L8.56086282,-2.08166817e-16 Z" id="path3065"></path>
            </g>
        </g>
    </g>
</svg>