<?xml version="1.0" encoding="UTF-8" standalone="no"?>
<svg width="64px" height="64px" viewBox="0 0 64 64" version="1.1" xmlns="http://www.w3.org/2000/svg" xmlns:xlink="http://www.w3.org/1999/xlink" xmlns:sketch="http://www.bohemiancoding.com/sketch/ns">
    <!-- Generator: Sketch 3.0.1 (7597) - http://www.bohemiancoding.com/sketch -->
    <title>domain</title>
    <description>Created with Sketch.</description>
    <defs></defs>
    <g id="Page-1" stroke="none" stroke-width="1" fill="none" fill-rule="evenodd" sketch:type="MSPage">
        <g id="domain" sketch:type="MSLayerGroup">
            <g id="group" transform="translate(14.000000, 17.000000)" fill="#FFFFFF" sketch:type="MSShapeGroup">
                <path d="M37.3609756,25.8855359 L33.7746956,25.8855359 L33.7746956,19.1668797 C33.7746956,18.0104707 33.4414357,16.9388626 32.9060529,16.0068144 C33.2213795,15.9128871 33.5452992,15.8463394 33.8871521,15.8463394 C35.7996604,15.8463394 37.3609756,17.4354986 37.3609756,19.3866773 L37.3609756,25.8855359 L37.3609756,25.8855359 Z M33.8871521,10.3186969 C32.71738,10.3186969 31.767664,11.2849696 31.767664,12.4714201 C31.767664,13.6574903 32.71738,14.6241433 33.8871521,14.6241433 C35.0524409,14.6241433 36.0017833,13.6574903 36.0017833,12.4714201 C36.0017833,11.2849696 35.0524409,10.3186969 33.8871521,10.3186969 L33.8871521,10.3186969 Z" id="path3053" fill-opacity="0.500000477"></path>
                <path d="M3.47830683,15.8463394 C3.82015976,15.8463394 4.13996971,15.9128871 4.45454912,16.0068144 C3.91468302,16.9388626 3.58628005,18.0104707 3.58628005,19.1668797 L3.58628005,25.8855359 L0,25.8855359 L0,19.3866773 C0,17.4358788 1.56131517,15.8463394 3.47830683,15.8463394 L3.47830683,15.8463394 Z M3.47830683,10.3186969 C2.30853468,10.3186969 1.35881868,11.2849696 1.35881868,12.4714201 C1.35881868,13.6574903 2.30853468,14.6241433 3.47830683,14.6241433 C4.64359566,14.6241433 5.59331166,13.6574903 5.59331166,12.4714201 C5.59331166,11.2849696 4.64359566,10.3186969 3.47830683,10.3186969 L3.47830683,10.3186969 Z" id="path3057" fill-opacity="0.500000477"></path>
                <path d="M32.6224831,28.3862085 L27.1285516,28.3862085 L27.1285516,18.1641009 C27.1285516,16.7582331 26.7639085,15.4504756 26.1743523,14.2780952 C26.624552,14.1430984 27.0971684,14.0468895 27.5918277,14.0468895 C30.3636385,14.0468895 32.6224831,16.3437359 32.6224831,19.16726 L32.6224831,28.3862085 L32.6224831,28.3862085 Z M27.5922013,6.40264971 C25.8556632,6.40264971 24.4471544,7.84084067 24.4471544,9.60872798 C24.4471544,11.3743336 25.8556632,12.810243 27.5922013,12.810243 C29.3291131,12.810243 30.7421052,11.3743336 30.7421052,9.60872798 C30.7417316,7.84084067 29.3291131,6.40264971 27.5922013,6.40264971 L27.5922013,6.40264971 Z" id="path3061" fill-opacity="0.800000191"></path>
                <path d="M10.2279407,18.1641009 L10.2279407,28.3865888 L4.73811893,28.3865888 L4.73811893,19.1668797 C4.73811893,16.3433557 6.9924802,14.0465092 9.76877429,14.0465092 C10.2634336,14.0465092 10.7315666,14.1427181 11.1813928,14.2777149 C10.5925838,15.4504756 10.2279407,16.7578528 10.2279407,18.1641009 L10.2279407,18.1641009 Z M9.76877429,6.40264971 C8.03186254,6.40264971 6.61887044,7.84084067 6.61887044,9.60872798 C6.61887044,11.3743336 8.03148893,12.810243 9.76877429,12.810243 C11.5012027,12.810243 12.9138212,11.3743336 12.9138212,9.60872798 C12.9138212,7.84084067 11.5012027,6.40264971 9.76877429,6.40264971 L9.76877429,6.40264971 Z" id="path3063" fill-opacity="0.800000191"></path>
                <path d="M11.3797796,31.3451096 L25.9767127,31.3451096 L25.9767127,18.1641009 C25.9767127,14.0674242 22.7005288,10.7354757 18.6782461,10.7354757 C14.6511066,10.7354757 11.3797796,14.0674242 11.3797796,18.1641009 L11.3797796,31.3451096 L11.3797796,31.3451096 Z M18.6782461,0 C16.1134152,0 14.0256839,2.12496327 14.0256839,4.73553465 C14.0256839,7.34838766 16.1134152,9.47563257 18.6782461,9.47563257 C21.2430771,9.47563257 23.3352918,7.34838766 23.3352918,4.73553465 C23.3352918,2.12496327 21.2430771,0 18.6782461,0 L18.6782461,0 Z" id="path3065"></path>
            </g>
            <path d="M9,56 L57,56 L57,20 L33,5.36816406 L9,20 L9,56 Z" id="home" stroke="#FFFFFF" stroke-width="3.00000191" sketch:type="MSShapeGroup"></path>
        </g>
        <g id="accesscontrol" sketch:type="MSLayerGroup" transform="translate(62.000000, -10.000000)">
            <g id="ac" transform="translate(38.000000, 36.000000) rotate(20.000000) translate(-38.000000, -36.000000) translate(7.000000, 9.000000)"></g>
        </g>
    </g>
</svg>