<?xml version="1.0" encoding="UTF-8" standalone="no"?>
<svg width="24px" height="24px" viewBox="0 0 24 24" version="1.1" xmlns="http://www.w3.org/2000/svg" xmlns:xlink="http://www.w3.org/1999/xlink" xmlns:sketch="http://www.bohemiancoding.com/sketch/ns">
    <!-- Generator: Sketch 3.0.4 (8053) - http://www.bohemiancoding.com/sketch -->
    <title>group_ico_dis</title>
    <desc>Created with Sketch.</desc>
    <defs></defs>
    <g id="Accesscontrol" stroke="none" stroke-width="1" fill="none" fill-rule="evenodd" sketch:type="MSPage">
        <g id="AC" sketch:type="MSArtboardGroup" transform="translate(-28.000000, -148.000000)" fill="#9B9B9B">
            <g id="group_ico_dis" sketch:type="MSLayerGroup" transform="translate(28.000000, 148.000000)">
                <path d="M23.2146341,19.17846 L21.0822514,19.17846 L21.0822514,14.9792998 C21.0822514,14.2565442 20.8840969,13.5867891 20.5657612,13.004259 C20.7532527,12.9455544 20.9458536,12.9039621 21.1491175,12.9039621 C22.2862846,12.9039621 23.2146341,13.8971866 23.2146341,15.1166733 L23.2146341,19.17846 L23.2146341,19.17846 Z M21.1491175,9.44918557 C20.4535773,9.44918557 19.8888813,10.053106 19.8888813,10.7946376 C19.8888813,11.5359314 20.4535773,12.1400895 21.1491175,12.1400895 C21.8419919,12.1400895 22.4064658,11.5359314 22.4064658,10.7946376 C22.4064658,10.053106 21.8419919,9.44918557 21.1491175,9.44918557 L21.1491175,9.44918557 Z" id="path3053" fill-opacity="0.3" sketch:type="MSShapeGroup"></path>
                <path d="M3.06818244,12.9039621 C3.27144634,12.9039621 3.46160361,12.9455544 3.64865083,13.004259 C3.32764937,13.5867891 3.13238273,14.2565442 3.13238273,14.9792998 L3.13238273,19.17846 L1,19.17846 L1,15.1166733 C1,13.8974243 1.92834956,12.9039621 3.06818244,12.9039621 L3.06818244,12.9039621 Z M3.06818244,9.44918557 C2.37264224,9.44918557 1.80794624,10.053106 1.80794624,10.7946376 C1.80794624,11.5359314 2.37264224,12.1400895 3.06818244,12.1400895 C3.76105688,12.1400895 4.32575288,11.5359314 4.32575288,10.7946376 C4.32575288,10.053106 3.76105688,9.44918557 3.06818244,9.44918557 L3.06818244,9.44918557 Z" id="path3057" fill-opacity="0.3" sketch:type="MSShapeGroup"></path>
                <path d="M20.3971521,20.7413803 L17.1304901,20.7413803 L17.1304901,14.352563 C17.1304901,13.4738957 16.9136753,12.6565473 16.5631284,11.9238095 C16.8308147,11.8394365 17.1118299,11.7793059 17.4059516,11.7793059 C19.0540553,11.7793059 20.3971521,13.214835 20.3971521,14.9795375 L20.3971521,20.7413803 L20.3971521,20.7413803 Z M17.4061738,7.00165607 C16.3736376,7.00165607 15.5361459,7.90052542 15.5361459,9.00545499 C15.5361459,10.1089585 16.3736376,11.0064019 17.4061738,11.0064019 C18.4389321,11.0064019 19.2790896,10.1089585 19.2790896,9.00545499 C19.2788674,7.90052542 18.4389321,7.00165607 17.4061738,7.00165607 L17.4061738,7.00165607 Z" id="path3061" fill-opacity="0.6" sketch:type="MSShapeGroup"></path>
                <path d="M7.08147824,14.352563 L7.08147824,20.741618 L3.8172599,20.741618 L3.8172599,14.9792998 C3.8172599,13.2145973 5.15769093,11.7790682 6.80846039,11.7790682 C7.10258215,11.7790682 7.38093151,11.8391988 7.64839571,11.9235718 C7.29829307,12.6565473 7.08147824,13.473658 7.08147824,14.352563 L7.08147824,14.352563 Z M6.80846039,7.00165607 C5.77570205,7.00165607 4.93554459,7.90052542 4.93554459,9.00545499 C4.93554459,10.1089585 5.7754799,11.0064019 6.80846039,11.0064019 C7.83855298,11.0064019 8.67848829,10.1089585 8.67848829,9.00545499 C8.67848829,7.90052542 7.83855298,7.00165607 6.80846039,7.00165607 L6.80846039,7.00165607 Z" id="path3063" fill-opacity="0.6" sketch:type="MSShapeGroup"></path>
                <path d="M7.76635541,22.5906935 L16.445613,22.5906935 L16.445613,14.352563 C16.445613,11.7921401 14.4976117,9.7096723 12.1059842,9.7096723 C9.71146878,9.7096723 7.76635541,11.7921401 7.76635541,14.352563 L7.76635541,22.5906935 L7.76635541,22.5906935 Z M12.1059842,3 C10.5809496,3 9.3395958,4.32810204 9.3395958,5.95970916 C9.3395958,7.59274229 10.5809496,8.92227036 12.1059842,8.92227036 C13.6310188,8.92227036 14.8750383,7.59274229 14.8750383,5.95970916 C14.8750383,4.32810204 13.6310188,3 12.1059842,3 L12.1059842,3 Z" id="path3065" sketch:type="MSShapeGroup"></path>
            </g>
        </g>
    </g>
</svg>