<?xml version="1.0" encoding="UTF-8" standalone="no"?>
<!-- Created with Inkscape (http://www.inkscape.org/) -->

<svg
   xmlns:dc="http://purl.org/dc/elements/1.1/"
   xmlns:cc="http://creativecommons.org/ns#"
   xmlns:rdf="http://www.w3.org/1999/02/22-rdf-syntax-ns#"
   xmlns:svg="http://www.w3.org/2000/svg"
   xmlns="http://www.w3.org/2000/svg"
   version="1.1"
   width="100"
   height="82.428001"
   viewBox="0 0 100 82.428"
   id="Layer_1"
   xml:space="preserve"><metadata
   id="metadata3071"><rdf:RDF><cc:Work
       rdf:about=""><dc:format>image/svg+xml</dc:format><dc:type
         rdf:resource="http://purl.org/dc/dcmitype/StillImage" /><dc:title></dc:title></cc:Work></rdf:RDF></metadata><defs
   id="defs3069"><filter
     x="0"
     y="0"
     width="1"
     height="1"
     color-interpolation-filters="sRGB"
     id="filter3092"><feColorMatrix
       result="fbSourceGraphic"
       values="1"
       type="saturate"
       id="feColorMatrix3094" /><feColorMatrix
       values="-1 0 0 0 1 0 -1 0 0 1 0 0 -1 0 1 0 0 0 1 0 "
       in="fbSourceGraphic"
       id="feColorMatrix3096" /></filter><filter
     x="0"
     y="0"
     width="1"
     height="1"
     color-interpolation-filters="sRGB"
     id="filter3098"><feColorMatrix
       result="fbSourceGraphic"
       values="1"
       type="saturate"
       id="feColorMatrix3100" /><feColorMatrix
       values="-1 0 0 0 1 0 -1 0 0 1 0 0 -1 0 1 0 0 0 1 0 "
       in="fbSourceGraphic"
       id="feColorMatrix3102" /></filter><filter
     x="0"
     y="0"
     width="1"
     height="1"
     color-interpolation-filters="sRGB"
     id="filter3104"><feColorMatrix
       result="fbSourceGraphic"
       values="1"
       type="saturate"
       id="feColorMatrix3106" /><feColorMatrix
       values="-1 0 0 0 1 0 -1 0 0 1 0 0 -1 0 1 0 0 0 1 0 "
       in="fbSourceGraphic"
       id="feColorMatrix3108" /></filter><filter
     x="0"
     y="0"
     width="1"
     height="1"
     color-interpolation-filters="sRGB"
     id="filter3110"><feColorMatrix
       result="fbSourceGraphic"
       values="1"
       type="saturate"
       id="feColorMatrix3112" /><feColorMatrix
       values="-1 0 0 0 1 0 -1 0 0 1 0 0 -1 0 1 0 0 0 1 0 "
       in="fbSourceGraphic"
       id="feColorMatrix3114" /></filter><filter
     x="0"
     y="0"
     width="1"
     height="1"
     color-interpolation-filters="sRGB"
     id="filter3116"><feColorMatrix
       result="fbSourceGraphic"
       values="1"
       type="saturate"
       id="feColorMatrix3118" /><feColorMatrix
       values="-1 0 0 0 1 0 -1 0 0 1 0 0 -1 0 1 0 0 0 1 0 "
       in="fbSourceGraphic"
       id="feColorMatrix3120" /></filter><filter
     x="0"
     y="0"
     width="1"
     height="1"
     color-interpolation-filters="sRGB"
     id="filter3122"><feColorMatrix
       result="fbSourceGraphic"
       values="1"
       type="saturate"
       id="feColorMatrix3124" /><feColorMatrix
       values="-1 0 0 0 1 0 -1 0 0 1 0 0 -1 0 1 0 0 0 1 0 "
       in="fbSourceGraphic"
       id="feColorMatrix3126" /></filter><filter
     x="0"
     y="0"
     width="1"
     height="1"
     color-interpolation-filters="sRGB"
     id="filter3128"><feColorMatrix
       result="fbSourceGraphic"
       values="1"
       type="saturate"
       id="feColorMatrix3130" /><feColorMatrix
       values="-1 0 0 0 1 0 -1 0 0 1 0 0 -1 0 1 0 0 0 1 0 "
       in="fbSourceGraphic"
       id="feColorMatrix3132" /></filter><filter
     x="0"
     y="0"
     width="1"
     height="1"
     color-interpolation-filters="sRGB"
     id="filter3134"><feColorMatrix
       result="fbSourceGraphic"
       values="1"
       type="saturate"
       id="feColorMatrix3136" /><feColorMatrix
       values="-1 0 0 0 1 0 -1 0 0 1 0 0 -1 0 1 0 0 0 1 0 "
       in="fbSourceGraphic"
       id="feColorMatrix3138" /></filter><filter
     x="0"
     y="0"
     width="1"
     height="1"
     color-interpolation-filters="sRGB"
     id="filter3140"><feColorMatrix
       result="fbSourceGraphic"
       values="1"
       type="saturate"
       id="feColorMatrix3142" /><feColorMatrix
       values="-1 0 0 0 1 0 -1 0 0 1 0 0 -1 0 1 0 0 0 1 0 "
       in="fbSourceGraphic"
       id="feColorMatrix3144" /></filter><filter
     x="0"
     y="0"
     width="1"
     height="1"
     color-interpolation-filters="sRGB"
     id="filter3146"><feColorMatrix
       result="fbSourceGraphic"
       values="1"
       type="saturate"
       id="feColorMatrix3148" /><feColorMatrix
       values="-1 0 0 0 1 0 -1 0 0 1 0 0 -1 0 1 0 0 0 1 0 "
       in="fbSourceGraphic"
       id="feColorMatrix3150" /></filter></defs>
<path
   d="m 90.702,27.135 c -3.131,0 -5.673,2.541 -5.673,5.661 0,3.119 2.542,5.661 5.673,5.661 3.119,0 5.66,-2.542 5.66,-5.661 0,-3.12 -2.541,-5.661 -5.66,-5.661 z"
   id="path3047"
   style="filter:url(#filter3092)" />
<path
   d="m 9.31,27.135 c -3.131,0 -5.673,2.541 -5.673,5.661 0,3.119 2.542,5.661 5.673,5.661 3.119,0 5.661,-2.542 5.661,-5.661 0,-3.12 -2.542,-5.661 -5.661,-5.661 z"
   id="path3049"
   style="filter:url(#filter3098)" />
<path
   d="m 73.853,16.837 c -4.648,0 -8.418,3.782 -8.418,8.431 0,4.643 3.77,8.419 8.418,8.419 4.649,0 8.431,-3.776 8.431,-8.419 -0.001,-4.649 -3.782,-8.431 -8.431,-8.431 z"
   id="path3051"
   style="filter:url(#filter3104)" />
<path
   d="M 100,68.071 H 90.401 V 50.403 c 0,-3.041 -0.892,-5.859 -2.325,-8.31 0.844,-0.247 1.711,-0.422 2.626,-0.422 5.119,0 9.298,4.179 9.298,9.31 v 17.09 z"
   id="path3053"
   style="filter:url(#filter3110)" />
<path
   d="m 26.147,16.837 c -4.649,0 -8.431,3.782 -8.431,8.431 0,4.643 3.781,8.419 8.431,8.419 4.637,0 8.418,-3.776 8.418,-8.419 0,-4.649 -3.781,-8.431 -8.418,-8.431 z"
   id="path3055"
   style="filter:url(#filter3116)" />
<path
   d="m 9.31,41.671 c 0.915,0 1.771,0.175 2.613,0.422 -1.445,2.451 -2.324,5.269 -2.324,8.31 V 68.071 H 0 v -17.09 c 0,-5.13 4.179,-9.31 9.31,-9.31 z"
   id="path3057"
   style="filter:url(#filter3122)" />
<path
   d="m 49.994,0 c -6.865,0 -12.453,5.588 -12.453,12.453 0,6.871 5.588,12.465 12.453,12.465 6.865,0 12.465,-5.594 12.465,-12.465 C 62.459,5.588 56.859,0 49.994,0 z"
   id="path3059"
   style="filter:url(#filter3128)" />
<path
   d="M 87.317,74.647 H 72.612 V 47.766 c 0,-3.697 -0.976,-7.136 -2.554,-10.219 1.205,-0.355 2.47,-0.608 3.794,-0.608 7.419,0 13.465,6.04 13.465,13.465 v 24.243 z"
   id="path3061"
   style="filter:url(#filter3134)" />
<path
   d="M 27.376,47.766 V 74.648 H 12.682 V 50.403 c 0,-7.425 6.034,-13.465 13.465,-13.465 1.324,0 2.577,0.253 3.781,0.608 -1.576,3.084 -2.552,6.522 -2.552,10.22 z"
   id="path3063"
   style="filter:url(#filter3140)" />
<path
   d="m 30.459,82.428 h 39.07 V 47.766 c 0,-10.773 -8.769,-19.535 -19.535,-19.535 -10.779,0 -19.535,8.762 -19.535,19.535 v 34.662 z"
   id="path3065"
   style="filter:url(#filter3146)" />
</svg>