<?xml version="1.0" encoding="UTF-8" standalone="no"?>
<svg width="64px" height="64px" viewBox="0 0 64 64" version="1.1" xmlns="http://www.w3.org/2000/svg" xmlns:xlink="http://www.w3.org/1999/xlink" xmlns:sketch="http://www.bohemiancoding.com/sketch/ns">
    <!-- Generator: Sketch 3.0.1 (7597) - http://www.bohemiancoding.com/sketch -->
    <title>group</title>
    <description>Created with Sketch.</description>
    <defs></defs>
    <g id="Page-1" stroke="none" stroke-width="1" fill="none" fill-rule="evenodd" sketch:type="MSPage">
        <g id="group" sketch:type="MSLayerGroup" fill="#FFFFFF">
            <g transform="translate(5.000000, 9.000000)" sketch:type="MSShapeGroup">
                <path d="M53.5170732,37.2104579 L48.3799693,37.2104579 L48.3799693,27.5523896 C48.3799693,25.8900517 47.902597,24.3496149 47.1356974,23.0097957 C47.5873815,22.8747752 48.0513745,22.7791129 48.5410557,22.7791129 C51.2805947,22.7791129 53.5170732,25.0635292 53.5170732,27.8683486 L53.5170732,37.2104579 L53.5170732,37.2104579 Z M48.5410557,14.8331268 C46.8654361,14.8331268 45.5050321,16.2221438 45.5050321,17.9276664 C45.5050321,19.6326423 46.8654361,21.0222059 48.5410557,21.0222059 C50.2102532,21.0222059 51.570122,19.6326423 51.570122,17.9276664 C51.570122,16.2221438 50.2102532,14.8331268 48.5410557,14.8331268 L48.5410557,14.8331268 Z" id="path3053" fill-opacity="0.500000477"></path>
                <path d="M4.98243951,22.7791129 C5.47212073,22.7791129 5.93022688,22.8747752 6.38084063,23.0097957 C5.60751893,24.3496149 5.13710385,25.8900517 5.13710385,27.5523896 L5.13710385,37.2104579 L0,37.2104579 L0,27.8683486 C0,25.0640758 2.23647849,22.7791129 4.98243951,22.7791129 L4.98243951,22.7791129 Z M4.98243951,14.8331268 C3.30681995,14.8331268 1.94641595,16.2221438 1.94641595,17.9276664 C1.94641595,19.6326423 3.30681995,21.0222059 4.98243951,21.0222059 C6.65163702,21.0222059 8.01204102,19.6326423 8.01204102,17.9276664 C8.01204102,16.2221438 6.65163702,14.8331268 4.98243951,14.8331268 L4.98243951,14.8331268 Z" id="path3057" fill-opacity="0.500000477"></path>
                <path d="M46.7295028,40.8051748 L38.8598172,40.8051748 L38.8598172,26.110895 C38.8598172,24.08996 38.3374905,22.2100587 37.4929911,20.5247618 C38.1378719,20.330704 38.8148628,20.1924036 39.5234289,20.1924036 C43.4938605,20.1924036 46.7295028,23.4941204 46.7295028,27.5529362 L46.7295028,40.8051748 L46.7295028,40.8051748 Z M39.523964,9.20380896 C37.0364905,9.20380896 35.0188968,11.2712085 35.0188968,13.8125465 C35.0188968,16.3506046 37.0364905,18.4147243 39.523964,18.4147243 C42.0119728,18.4147243 44.0359885,16.3506046 44.0359885,13.8125465 C44.0354533,11.2712085 42.0119728,9.20380896 39.523964,9.20380896 L39.523964,9.20380896 Z" id="path3061" fill-opacity="0.800000191"></path>
                <path d="M14.650834,26.110895 L14.650834,40.8057214 L6.78703522,40.8057214 L6.78703522,27.5523896 C6.78703522,23.4935738 10.0162554,20.1918569 13.9931091,20.1918569 C14.7016752,20.1918569 15.3722441,20.3301573 16.0165897,20.5242152 C15.1731606,22.2100587 14.650834,24.0894134 14.650834,26.110895 L14.650834,26.110895 Z M13.9931091,9.20380896 C11.5051004,9.20380896 9.48108468,11.2712085 9.48108468,13.8125465 C9.48108468,16.3506046 11.5045652,18.4147243 13.9931091,18.4147243 C16.4746958,18.4147243 18.4981763,16.3506046 18.4981763,13.8125465 C18.4981763,11.2712085 16.4746958,9.20380896 13.9931091,9.20380896 L13.9931091,9.20380896 Z" id="path3063" fill-opacity="0.800000191"></path>
                <path d="M16.3007653,45.0585951 L37.2098858,45.0585951 L37.2098858,26.110895 C37.2098858,20.2219223 32.5169737,15.4322463 26.7553256,15.4322463 C20.9867202,15.4322463 16.3007653,20.2219223 16.3007653,26.110895 L16.3007653,45.0585951 L16.3007653,45.0585951 Z M26.7553256,3.55271368e-15 C23.0813785,3.55271368e-15 20.0908444,3.0546347 20.0908444,6.80733106 C20.0908444,10.5633073 23.0813785,13.6212218 26.7553256,13.6212218 C30.4292726,13.6212218 33.4262287,10.5633073 33.4262287,6.80733106 C33.4262287,3.0546347 30.4292726,3.55271368e-15 26.7553256,3.55271368e-15 L26.7553256,3.55271368e-15 Z" id="path3065"></path>
            </g>
        </g>
    </g>
</svg>