<?xml version="1.0" encoding="UTF-8" standalone="no"?>
<svg width="64px" height="64px" viewBox="0 0 64 64" version="1.1" xmlns="http://www.w3.org/2000/svg" xmlns:xlink="http://www.w3.org/1999/xlink" xmlns:sketch="http://www.bohemiancoding.com/sketch/ns">
    <!-- Generator: Sketch 3.0.1 (7597) - http://www.bohemiancoding.com/sketch -->
    <title>role</title>
    <description>Created with Sketch.</description>
    <defs></defs>
    <g id="Page-1" stroke="none" stroke-width="1" fill="none" fill-rule="evenodd" sketch:type="MSPage">
        <g id="accesscontrol" sketch:type="MSLayerGroup" transform="translate(-69.000000, -10.000000)">
            <g id="ac" transform="translate(38.000000, 36.000000) rotate(20.000000) translate(-38.000000, -36.000000) translate(7.000000, 9.000000)"></g>
        </g>
        <g id="role" sketch:type="MSLayerGroup" fill="#FFFFFF">
            <path d="M12.5135135,40.9797927 L29.5301185,40.9797927 L29.5301185,25.5594632 C29.5301185,20.7668023 25.7108554,16.8687893 21.021816,16.8687893 C16.3271146,16.8687893 12.5135135,20.7668023 12.5135135,25.5594632 L12.5135135,40.9797927 L12.5135135,40.9797927 Z M21.021816,4.30946434 C18.0318239,4.30946434 15.5980182,6.79543749 15.5980182,9.84951867 C15.5980182,12.9062691 18.0318239,15.3949115 21.021816,15.3949115 C24.0118081,15.3949115 26.4508403,12.9062691 26.4508403,9.84951867 C26.4508403,6.79543749 24.0118081,4.30946434 21.021816,4.30946434 L21.021816,4.30946434 Z" id="path3065-2" sketch:type="MSShapeGroup"></path>
            <path d="M34.1352854,40.9797927 L51.1518904,40.9797927 L51.1518904,25.5594632 C51.1518904,20.7668023 47.3326273,16.8687893 42.6435879,16.8687893 C37.9488864,16.8687893 34.1352854,20.7668023 34.1352854,25.5594632 L34.1352854,40.9797927 L34.1352854,40.9797927 Z M42.6435879,4.30946434 C39.6535957,4.30946434 37.21979,6.79543749 37.21979,9.84951867 C37.21979,12.9062691 39.6535957,15.3949115 42.6435879,15.3949115 C45.63358,15.3949115 48.0726122,12.9062691 48.0726122,9.84951867 C48.0726122,6.79543749 45.63358,4.30946434 42.6435879,4.30946434 L42.6435879,4.30946434 Z" id="path3065-3" fill-opacity="0.600000381" sketch:type="MSShapeGroup"></path>
            <path d="M46.5596926,48.5213972 L59.615614,48.5213972 L61.3357285,50.0714906 L47.935131,49.9923531 L47.176264,50.5327285 L60.7577376,50.5689602 L60.7441181,51.622299 L58.8890036,53.5251739 L58.1564198,53.5251739 L57.4902607,52.3478848 L56.4422787,52.3321526 L55.797863,53.5251739 L54.6015006,53.5251739 L53.4526868,51.4845235 L52.650572,53.5251739 L51.2207671,53.5251739 L50.3596346,52.3116532 L48.7532546,52.3116532 L48.1755026,53.1888396 L46.4542484,53.1766386 C45.5025103,55.3915735 43.3038785,56.9423873 40.7436181,56.9423873 C37.3116173,56.9423873 34.5294309,54.1557135 34.5294309,50.7181772 C34.5294309,47.2806409 37.3116173,44.4939672 40.7436181,44.4939672 C43.4035615,44.4939672 45.6731682,46.1678928 46.5596926,48.5213972 Z M37.8192947,52.1826972 C38.6268243,52.1826972 39.2814564,51.5270093 39.2814564,50.7181772 C39.2814564,49.9093451 38.6268243,49.2536572 37.8192947,49.2536572 C37.0117651,49.2536572 36.357133,49.9093451 36.357133,50.7181772 C36.357133,51.5270093 37.0117651,52.1826972 37.8192947,52.1826972 Z" id="Oval-5" sketch:type="MSShapeGroup"></path>
            <path d="M16.7873189,48.5267661 L29.8432403,48.5267661 L31.5633549,50.0768594 L18.1627573,49.9977219 L17.4038903,50.5380974 L30.9853639,50.574329 L30.9717444,51.6276679 L29.11663,53.5305428 L28.3840461,53.5305428 L27.717887,52.3532536 L26.6699051,52.3375215 L26.0254893,53.5305428 L24.8291269,53.5305428 L23.6803131,51.4898924 L22.8781983,53.5305428 L21.4483934,53.5305428 L20.587261,52.317022 L18.9808809,52.317022 L18.4031289,53.1942085 L16.6818747,53.1820075 C15.7301366,55.3969423 13.5315049,56.9477561 10.9712444,56.9477561 C7.53924362,56.9477561 4.75705726,54.1610824 4.75705726,50.7235461 C4.75705726,47.2860098 7.53924362,44.499336 10.9712444,44.499336 C13.6311878,44.499336 15.9007945,46.1732617 16.7873189,48.5267661 Z M8.04692105,52.1880661 C8.85445065,52.1880661 9.50908274,51.5323781 9.50908274,50.7235461 C9.50908274,49.914714 8.85445065,49.2590261 8.04692105,49.2590261 C7.23939145,49.2590261 6.58475936,49.914714 6.58475936,50.7235461 C6.58475936,51.5323781 7.23939145,52.1880661 8.04692105,52.1880661 Z" id="Oval-6" fill-opacity="0.6" sketch:type="MSShapeGroup"></path>
        </g>
    </g>
</svg>