<?xml version="1.0" encoding="UTF-8" standalone="no"?>
<svg width="24px" height="24px" viewBox="0 0 24 24" version="1.1" xmlns="http://www.w3.org/2000/svg" xmlns:xlink="http://www.w3.org/1999/xlink" xmlns:sketch="http://www.bohemiancoding.com/sketch/ns">
    <!-- Generator: Sketch 3.0.4 (8053) - http://www.bohemiancoding.com/sketch -->
    <title>role_ico_dis</title>
    <desc>Created with Sketch.</desc>
    <defs></defs>
    <g id="Accesscontrol" stroke="none" stroke-width="1" fill="none" fill-rule="evenodd" sketch:type="MSPage">
        <g id="AC" sketch:type="MSArtboardGroup" transform="translate(-225.000000, -151.000000)" fill="#9B9B9B">
            <g id="role_ico_dis" sketch:type="MSLayerGroup" transform="translate(223.000000, 150.000000)">
                <path d="M13.114792,10.8874953 L26.3183016,10.8874953 L28.0578608,12.5048769 L14.5057788,12.4223042 L13.7383333,12.9861369 L27.4733361,13.0239413 L27.4595627,14.1230048 L25.5834774,16.1084819 L24.8426122,16.1084819 L24.1689227,14.8800876 L23.109094,14.8636726 L22.4573936,16.1084819 L21.2475071,16.1084819 L20.0857067,13.9792486 L19.2745246,16.1084819 L17.8285568,16.1084819 L16.9576898,14.8422832 L15.3331508,14.8422832 L14.7488676,15.7575477 L13.0081559,15.744817 C12.045659,18.0559004 9.82217327,19.6740338 7.23297086,19.6740338 C3.76217366,19.6740338 0.948536601,16.7663928 0.948536601,13.1796358 C0.948536601,9.59287874 3.76217366,6.68523768 7.23297086,6.68523768 C9.92298309,6.68523768 12.2182461,8.4318271 13.114792,10.8874953 Z M4.27559003,14.7077294 C5.09224819,14.7077294 5.75428044,14.0235786 5.75428044,13.1796358 C5.75428044,12.3356929 5.09224819,11.6515421 4.27559003,11.6515421 C3.45893187,11.6515421 2.79689962,12.3356929 2.79689962,13.1796358 C2.79689962,14.0235786 3.45893187,14.7077294 4.27559003,14.7077294 Z" id="Oval-5" sketch:type="MSShapeGroup" transform="translate(14.448537, 13.185238) rotate(40.000000) translate(-14.448537, -13.185238) "></path>
            </g>
        </g>
    </g>
</svg>