<?xml version="1.0" encoding="UTF-8" standalone="no"?>
<svg width="24px" height="24px" viewBox="0 0 24 24" version="1.1" xmlns="http://www.w3.org/2000/svg" xmlns:xlink="http://www.w3.org/1999/xlink" xmlns:sketch="http://www.bohemiancoding.com/sketch/ns">
    <!-- Generator: Sketch 3.0.1 (7597) - http://www.bohemiancoding.com/sketch -->
    <title>role_ico</title>
    <description>Created with Sketch.</description>
    <defs></defs>
    <g id="Page-1" stroke="none" stroke-width="1" fill="none" fill-rule="evenodd" sketch:type="MSPage">
        <g id="role_ico" sketch:type="MSLayerGroup" fill="#417505">
            <path d="M4.69256757,15.3674222 L11.0737944,15.3674222 L11.0737944,9.58479868 C11.0737944,7.78755087 9.64157077,6.32579599 7.883181,6.32579599 C6.12266796,6.32579599 4.69256757,7.78755087 4.69256757,9.58479868 L4.69256757,15.3674222 L4.69256757,15.3674222 Z M7.883181,1.61604913 C6.76193395,1.61604913 5.84925681,2.54828906 5.84925681,3.6935695 C5.84925681,4.83985092 6.76193395,5.77309182 7.883181,5.77309182 C9.00442806,5.77309182 9.91906513,4.83985092 9.91906513,3.6935695 C9.91906513,2.54828906 9.00442806,1.61604913 7.883181,1.61604913 L7.883181,1.61604913 Z" id="path3065-2" sketch:type="MSShapeGroup"></path>
            <path d="M12.800732,15.3674222 L19.1819589,15.3674222 L19.1819589,9.58479868 C19.1819589,7.78755087 17.7497352,6.32579599 15.9913455,6.32579599 C14.2308324,6.32579599 12.800732,7.78755087 12.800732,9.58479868 L12.800732,15.3674222 L12.800732,15.3674222 Z M15.9913455,1.61604913 C14.8700984,1.61604913 13.9574213,2.54828906 13.9574213,3.6935695 C13.9574213,4.83985092 14.8700984,5.77309182 15.9913455,5.77309182 C17.1125925,5.77309182 18.0272296,4.83985092 18.0272296,3.6935695 C18.0272296,2.54828906 17.1125925,1.61604913 15.9913455,1.61604913 L15.9913455,1.61604913 Z" id="path3065-3" fill-opacity="0.6" sketch:type="MSShapeGroup"></path>
            <path d="M17.4598847,18.1955239 L22.3558553,18.1955239 L23.0008982,18.776809 L17.9756741,18.7471324 L17.691099,18.9497732 L22.7841516,18.9633601 L22.7790443,19.3583621 L22.0833764,20.0719402 L21.8086574,20.0719402 L21.5588478,19.6304568 L21.1658545,19.6245572 L20.9241986,20.0719402 L20.4755627,20.0719402 L20.0447575,19.3066963 L19.7439645,20.0719402 L19.2077877,20.0719402 L18.884863,19.6168699 L18.2824705,19.6168699 L18.0658135,19.9458149 L17.4203432,19.9412395 C17.0634414,20.77184 16.2389545,21.3533952 15.2788568,21.3533952 C13.9918565,21.3533952 12.9485366,20.3083926 12.9485366,19.0193165 C12.9485366,17.7302403 13.9918565,16.6852377 15.2788568,16.6852377 C16.2763356,16.6852377 17.1274381,17.3129598 17.4598847,18.1955239 Z M14.1822355,19.5685115 C14.4850591,19.5685115 14.7305462,19.3226285 14.7305462,19.0193165 C14.7305462,18.7160044 14.4850591,18.4701214 14.1822355,18.4701214 C13.8794119,18.4701214 13.6339249,18.7160044 13.6339249,19.0193165 C13.6339249,19.3226285 13.8794119,19.5685115 14.1822355,19.5685115 Z" id="Oval-5" sketch:type="MSShapeGroup"></path>
            <path d="M6.29524458,18.1975373 L11.1912151,18.1975373 L11.8362581,18.7788223 L6.81103399,18.7491457 L6.52645885,18.9517865 L11.6195115,18.9653734 L11.6144042,19.3603755 L10.9187362,20.0739535 L10.6440173,20.0739535 L10.3942076,19.6324701 L10.0012144,19.6265706 L9.7595585,20.0739535 L9.31092258,20.0739535 L8.88011741,19.3087097 L8.57932436,20.0739535 L8.04314754,20.0739535 L7.72022286,19.6188833 L7.11783035,19.6188833 L6.90117334,19.9478282 L6.25570303,19.9432528 C5.89880123,20.7738534 5.07431432,21.3554085 4.11421666,21.3554085 C2.82721636,21.3554085 1.78389647,20.3104059 1.78389647,19.0213298 C1.78389647,17.7322537 2.82721636,16.687251 4.11421666,16.687251 C5.11169544,16.687251 5.96279795,17.3149731 6.29524458,18.1975373 Z M3.01759539,19.5705248 C3.32041899,19.5705248 3.56590603,19.3246418 3.56590603,19.0213298 C3.56590603,18.7180178 3.32041899,18.4721348 3.01759539,18.4721348 C2.71477179,18.4721348 2.46928476,18.7180178 2.46928476,19.0213298 C2.46928476,19.3246418 2.71477179,19.5705248 3.01759539,19.5705248 Z" id="Oval-6" fill-opacity="0.6" sketch:type="MSShapeGroup"></path>
        </g>
    </g>
</svg>