<?xml version="1.0" encoding="UTF-8" standalone="no"?>
<svg width="24px" height="24px" viewBox="0 0 24 24" version="1.1" xmlns="http://www.w3.org/2000/svg" xmlns:xlink="http://www.w3.org/1999/xlink" xmlns:sketch="http://www.bohemiancoding.com/sketch/ns">
    <!-- Generator: Sketch 3.0.4 (8053) - http://www.bohemiancoding.com/sketch -->
    <title>role_ico</title>
    <desc>Created with Sketch.</desc>
    <defs></defs>
    <g id="Accesscontrol" stroke="none" stroke-width="1" fill="none" fill-rule="evenodd" sketch:type="MSPage">
        <g id="AC" sketch:type="MSArtboardGroup" transform="translate(-225.000000, -99.000000)" fill="#417505">
            <g id="role_ico" sketch:type="MSLayerGroup" transform="translate(224.000000, 98.000000)">
                <path d="M12.6641899,11.3874953 L25.3786807,11.3874953 L27.0538118,13.0048769 L14.0036587,12.9223042 L13.2646371,13.4861369 L26.4909361,13.5239413 L26.4776728,14.6230048 L24.6710722,16.6084819 L23.9576465,16.6084819 L23.3089084,15.3800876 L22.2883326,15.3636726 L21.6607693,16.6084819 L20.4956934,16.6084819 L19.3769227,14.4792486 L18.5957843,16.6084819 L17.2033708,16.6084819 L16.3647582,15.3422832 L14.8003873,15.3422832 L14.2377443,16.2575477 L12.5615033,16.244817 C11.6346545,18.5559004 9.49352006,20.1740338 7.00021403,20.1740338 C3.65796488,20.1740338 0.948536601,17.2663928 0.948536601,13.6796358 C0.948536601,10.0928787 3.65796488,7.18523768 7.00021403,7.18523768 C9.59059618,7.18523768 11.8008495,8.9318271 12.6641899,11.3874953 Z M4.15236583,15.2077294 C4.93877739,15.2077294 5.57628993,14.5235786 5.57628993,13.6796358 C5.57628993,12.8356929 4.93877739,12.1515421 4.15236583,12.1515421 C3.36595426,12.1515421 2.72844173,12.8356929 2.72844173,13.6796358 C2.72844173,14.5235786 3.36595426,15.2077294 4.15236583,15.2077294 Z" id="Oval-5" sketch:type="MSShapeGroup" transform="translate(13.948537, 13.685238) rotate(40.000000) translate(-13.948537, -13.685238) "></path>
            </g>
        </g>
    </g>
</svg>