<?xml version="1.0" encoding="UTF-8" standalone="no"?>
<svg width="422px" height="71px" viewBox="0 0 422 71" version="1.1" xmlns="http://www.w3.org/2000/svg" xmlns:xlink="http://www.w3.org/1999/xlink" xmlns:sketch="http://www.bohemiancoding.com/sketch/ns">
    <!-- Generator: Sketch 3.1 (8751) - http://www.bohemiancoding.com/sketch -->
    <title>LoginLogo</title>
    <desc>Created with Sketch.</desc>
    <defs>
        <path id="path-1" d="M0.06,0.133 L422.024,0.133 L422.024,70.94 L0.06,70.94"></path>
    </defs>
    <g id="Citycom" stroke="none" stroke-width="1" fill="none" fill-rule="evenodd" sketch:type="MSPage">
        <g id="scratch" sketch:type="MSArtboardGroup" transform="translate(-18.000000, -171.000000)">
            <g id="knox_data_logo_blue_gray_cmyk" sketch:type="MSLayerGroup" transform="translate(18.000000, 171.000000)">
                <path d="M224.115,34.15 L244.386,3.967 L229.16,3.967 L216.326,24.148 L203.935,3.967 L187.825,3.967 L208.184,34.061 L186.144,67.166 L201.722,67.166 L215.796,45.303 L229.604,67.166 L246.156,67.166 L224.115,34.15" id="Fill-1" fill="#00A3DB" sketch:type="MSShapeGroup"></path>
                <g id="Group-6">
                    <mask id="mask-2" sketch:name="Clip 3" fill="white">
                        <use xlink:href="#path-1"></use>
                    </mask>
                    <g id="Clip-3"></g>
                    <path d="M102.506,67.166 L116.403,67.166 L116.403,3.967 L103.392,3.967 L103.392,46.365 L103.214,46.365 L76.837,3.967 L63.029,3.967 L63.029,67.166 L76.04,67.166 L76.04,24.855 L76.217,24.855 L102.506,67.166" id="Fill-2" fill="#00A3DB" sketch:type="MSShapeGroup" mask="url(#mask-2)"></path>
                    <path d="M38.592,3.967 L13.897,30.167 L13.897,3.967 L0,3.967 L0,67.166 L13.897,67.166 L13.897,46.808 L21.863,38.753 L40.893,67.166 L58.331,67.166 L31.245,28.928 L55.94,3.967 L38.592,3.967" id="Fill-4" fill="#00A3DB" sketch:type="MSShapeGroup" mask="url(#mask-2)"></path>
                    <path d="M192.229,35.555 C192.229,35.551 192.23,35.547 192.23,35.543 L192.229,35.543 C192.216,16.016 176.326,0.133 156.797,0.133 C137.258,0.133 121.363,16.028 121.363,35.566 C121.363,55.104 137.258,71 156.797,71 C165.778,71 174.362,67.55 180.854,61.554 L174.701,54.955 C169.859,59.414 163.484,62 156.797,62 C142.221,62 130.363,50.142 130.363,35.566 C130.363,20.991 142.221,9.133 156.797,9.133 C171.367,9.133 183.22,20.982 183.229,35.551 C183.224,37.384 181.733,38.875 179.899,38.875 C178.063,38.875 176.569,37.38 176.569,35.543 L176.567,35.543 C176.555,24.65 167.691,15.793 156.797,15.793 C145.895,15.793 137.025,24.663 137.025,35.565 C137.025,46.467 145.895,55.336 156.797,55.336 C163.835,55.336 170.01,51.628 173.514,46.073 C175.38,47.209 177.56,47.875 179.899,47.875 C186.69,47.875 192.216,42.355 192.229,35.566 L192.23,35.566 C192.23,35.562 192.229,35.559 192.229,35.555 M167.569,35.565 C167.569,41.504 162.736,46.336 156.797,46.336 C150.857,46.336 146.025,41.504 146.025,35.565 C146.025,29.626 150.857,24.793 156.797,24.793 C162.736,24.793 167.569,29.626 167.569,35.565" id="Fill-5" fill="#00A3DB" sketch:type="MSShapeGroup" mask="url(#mask-2)"></path>
                </g>
                <path d="M262.047,50.695 C262.607,52.73 263.463,54.544 264.613,56.137 C265.764,57.73 267.237,58.999 269.038,59.942 C270.836,60.887 272.945,61.358 275.365,61.358 C277.9,61.358 280.055,60.857 281.824,59.854 C283.594,58.852 285.039,57.539 286.16,55.916 C287.28,54.294 288.092,52.451 288.594,50.385 C289.094,48.321 289.346,46.227 289.346,44.103 C289.346,41.861 289.081,39.693 288.551,37.6 C288.02,35.505 287.178,33.661 286.028,32.068 C284.877,30.476 283.387,29.192 281.559,28.219 C279.73,27.245 277.518,26.759 274.922,26.759 C272.385,26.759 270.232,27.26 268.462,28.264 C266.693,29.268 265.277,30.594 264.215,32.245 C263.153,33.897 262.387,35.784 261.914,37.908 C261.441,40.032 261.206,42.215 261.206,44.456 C261.206,46.58 261.486,48.66 262.047,50.695 L262.047,50.695 Z M289.081,66.934 L289.081,60.739 L288.904,60.739 C287.665,63.276 285.719,65.105 283.063,66.226 C280.409,67.345 277.488,67.906 274.303,67.906 C270.764,67.906 267.68,67.256 265.057,65.959 C262.43,64.663 260.247,62.922 258.507,60.739 C256.768,58.558 255.455,56.02 254.57,53.128 C253.686,50.239 253.242,47.171 253.242,43.926 C253.242,40.683 253.67,37.614 254.525,34.724 C255.38,31.833 256.678,29.311 258.419,27.157 C260.158,25.004 262.341,23.294 264.967,22.024 C267.591,20.756 270.645,20.122 274.126,20.122 C275.305,20.122 276.573,20.241 277.932,20.477 C279.287,20.712 280.645,21.11 282.001,21.67 C283.357,22.232 284.641,22.969 285.852,23.883 C287.059,24.798 288.077,25.934 288.904,27.289 L289.081,27.289 L289.081,3.751 L296.602,3.751 L296.602,66.934 L289.081,66.934 L289.081,66.934 Z M342.607,67.906 C340.66,67.906 339.111,67.36 337.961,66.269 C336.812,65.178 336.236,63.393 336.236,60.916 C334.17,63.393 331.768,65.178 329.024,66.269 C326.28,67.36 323.316,67.906 320.13,67.906 C318.065,67.906 316.118,67.685 314.29,67.243 C312.461,66.8 310.854,66.063 309.467,65.03 C308.081,63.999 306.99,62.672 306.193,61.048 C305.397,59.426 304.999,57.464 304.999,55.164 C304.999,52.568 305.441,50.445 306.326,48.792 C307.211,47.143 308.375,45.799 309.821,44.767 C311.266,43.735 312.918,42.952 314.777,42.421 C316.635,41.891 318.538,41.448 320.484,41.094 C322.549,40.683 324.511,40.372 326.369,40.165 C328.228,39.959 329.864,39.664 331.28,39.28 C332.696,38.897 333.816,38.337 334.643,37.6 C335.468,36.862 335.882,35.784 335.882,34.369 C335.882,32.718 335.572,31.391 334.952,30.387 C334.333,29.384 333.537,28.617 332.563,28.086 C331.59,27.556 330.498,27.201 329.289,27.024 C328.079,26.848 326.885,26.759 325.705,26.759 C322.521,26.759 319.865,27.364 317.741,28.573 C315.617,29.782 314.467,32.068 314.29,35.432 L306.768,35.432 C306.886,32.6 307.477,30.21 308.538,28.264 C309.6,26.316 311.016,24.739 312.786,23.529 C314.556,22.32 316.591,21.449 318.893,20.918 C321.192,20.387 323.611,20.122 326.148,20.122 C328.212,20.122 330.262,20.27 332.298,20.564 C334.333,20.86 336.176,21.464 337.828,22.378 C339.479,23.294 340.807,24.577 341.811,26.228 C342.813,27.88 343.315,30.033 343.315,32.687 L343.315,56.227 C343.315,57.995 343.417,59.294 343.624,60.119 C343.83,60.946 344.523,61.358 345.704,61.358 C346.353,61.358 347.12,61.211 348.005,60.916 L348.005,66.756 C346.706,67.522 344.907,67.906 342.607,67.906 L342.607,67.906 Z M332.076,44.855 C330.542,45.181 328.936,45.445 327.254,45.651 C325.573,45.858 323.876,46.094 322.166,46.359 C320.454,46.624 318.921,47.053 317.564,47.643 C316.206,48.232 315.1,49.073 314.246,50.164 C313.39,51.256 312.963,52.745 312.963,54.633 C312.963,55.872 313.213,56.92 313.715,57.774 C314.215,58.63 314.865,59.323 315.662,59.854 C316.458,60.385 317.401,60.769 318.493,61.004 C319.584,61.24 320.69,61.358 321.813,61.358 C324.289,61.358 326.413,61.019 328.183,60.34 C329.953,59.663 331.398,58.808 332.52,57.774 C333.639,56.743 334.466,55.621 334.997,54.412 C335.528,53.203 335.793,52.067 335.793,51.005 L335.793,43.307 C334.849,44.015 333.61,44.531 332.076,44.855 L332.076,44.855 Z M373.595,21.185 L373.595,27.82 L364.48,27.82 L364.48,56.227 C364.48,57.11 364.554,57.818 364.701,58.35 C364.848,58.88 365.129,59.294 365.542,59.588 C365.954,59.884 366.529,60.075 367.268,60.163 C368.005,60.252 368.963,60.296 370.145,60.296 L373.595,60.296 L373.595,66.934 L367.843,66.934 C365.896,66.934 364.229,66.8 362.843,66.535 C361.456,66.269 360.335,65.782 359.481,65.075 C358.625,64.367 357.99,63.364 357.578,62.066 C357.165,60.769 356.959,59.058 356.959,56.935 L356.959,27.82 L349.172,27.82 L349.172,21.185 L356.959,21.185 L356.959,7.468 L364.48,7.468 L364.48,21.185 L373.595,21.185 L373.595,21.185 Z M416.626,67.906 C414.679,67.906 413.131,67.36 411.98,66.269 C410.83,65.178 410.255,63.393 410.255,60.916 C408.189,63.393 405.786,65.178 403.043,66.269 C400.3,67.36 397.335,67.906 394.15,67.906 C392.084,67.906 390.137,67.685 388.309,67.243 C386.48,66.8 384.872,66.063 383.487,65.03 C382.1,63.999 381.009,62.672 380.213,61.048 C379.416,59.426 379.018,57.464 379.018,55.164 C379.018,52.568 379.46,50.445 380.345,48.792 C381.23,47.143 382.395,45.799 383.841,44.767 C385.286,43.735 386.938,42.952 388.796,42.421 C390.654,41.891 392.557,41.448 394.504,41.094 C396.568,40.683 398.53,40.372 400.388,40.165 C402.246,39.959 403.884,39.664 405.299,39.28 C406.715,38.897 407.835,38.337 408.662,37.6 C409.487,36.862 409.901,35.784 409.901,34.369 C409.901,32.718 409.591,31.391 408.972,30.387 C408.353,29.384 407.556,28.617 406.582,28.086 C405.609,27.556 404.518,27.201 403.308,27.024 C402.099,26.848 400.904,26.759 399.725,26.759 C396.539,26.759 393.884,27.364 391.761,28.573 C389.637,29.782 388.486,32.068 388.309,35.432 L380.788,35.432 C380.905,32.6 381.496,30.21 382.558,28.264 C383.619,26.316 385.035,24.739 386.805,23.529 C388.575,22.32 390.61,21.449 392.911,20.918 C395.212,20.387 397.63,20.122 400.167,20.122 C402.231,20.122 404.282,20.27 406.317,20.564 C408.353,20.86 410.195,21.464 411.848,22.378 C413.498,23.294 414.826,24.577 415.83,26.228 C416.832,27.88 417.334,30.033 417.334,32.687 L417.334,56.227 C417.334,57.995 417.437,59.294 417.645,60.119 C417.85,60.946 418.542,61.358 419.723,61.358 C420.372,61.358 421.139,61.211 422.024,60.916 L422.024,66.756 C420.727,67.522 418.927,67.906 416.626,67.906 L416.626,67.906 Z M406.096,44.855 C404.562,45.181 402.954,45.445 401.273,45.651 C399.592,45.858 397.896,46.094 396.186,46.359 C394.473,46.624 392.94,47.053 391.583,47.643 C390.227,48.232 389.12,49.073 388.265,50.164 C387.409,51.256 386.982,52.745 386.982,54.633 C386.982,55.872 387.232,56.92 387.734,57.774 C388.235,58.63 388.885,59.323 389.681,59.854 C390.478,60.385 391.42,60.769 392.513,61.004 C393.604,61.24 394.71,61.358 395.831,61.358 C398.309,61.358 400.432,61.019 402.202,60.34 C403.972,59.663 405.417,58.808 406.538,57.774 C407.658,56.743 408.485,55.621 409.016,54.412 C409.547,53.203 409.813,52.067 409.813,51.005 L409.813,43.307 C408.868,44.015 407.629,44.531 406.096,44.855 L406.096,44.855 Z" id="Fill-7" fill="#636462" sketch:type="MSShapeGroup"></path>
            </g>
        </g>
    </g>
</svg>