<?xml version="1.0" encoding="UTF-8"?>
<!DOCTYPE svg PUBLIC "-//W3C//DTD SVG 1.1//EN" "http://www.w3.org/Graphics/SVG/1.1/DTD/svg11.dtd">
<svg version="1.1" xmlns="http://www.w3.org/2000/svg" xmlns:xlink="http://www.w3.org/1999/xlink" x="0px" y="0px" width="81.525" height="100" viewBox="0, 0, 81.525, 100">
  <g id="Layer 1">
    <path d="M43.984,41.129 L26.453,41.129 L26.453,42.974 L43.984,42.974 L43.984,41.129 z M43.984,46.979 L26.453,46.979 L26.453,48.824 L43.984,48.824 L43.984,46.979 z M43.984,52.621 L26.453,52.621 L26.453,54.469 L43.984,54.469 L43.984,52.621 z M43.984,64.525 L26.453,64.525 L26.453,66.37 L43.984,66.37 L43.984,64.525 z M43.984,58.471 L26.453,58.471 L26.453,60.319 L43.984,60.319 L43.984,58.471 z M57.383,23.235 L53.996,23.235 L56.034,15.816 L52.347,15.816 L50.309,23.235 L43.628,23.235 L45.667,15.816 L41.98,15.816 L39.94,23.235 L33.259,23.235 L35.298,15.816 L31.613,15.816 L29.572,23.235 L22.889,23.235 L24.929,15.816 L21.243,15.816 L19.203,23.235 L13.004,23.235 L13.004,84.184 L57.687,84.184 L57.687,74.127 L68.521,74.127 L57.383,23.235 z M52.169,78.643 L18.522,78.643 L18.522,28.776 L52.169,28.776 L52.169,78.643 z" fill="#FFFFFF"/>
  </g>
  <defs/>
</svg>
