<?xml version="1.0" encoding="UTF-8" standalone="no"?>
<!-- Created with Inkscape (http://www.inkscape.org/) -->

<svg
   xmlns:dc="http://purl.org/dc/elements/1.1/"
   xmlns:cc="http://creativecommons.org/ns#"
   xmlns:rdf="http://www.w3.org/1999/02/22-rdf-syntax-ns#"
   xmlns:svg="http://www.w3.org/2000/svg"
   xmlns="http://www.w3.org/2000/svg"
   version="1.1"
   width="32"
   height="32"
   viewBox="0 0 32 32"
   id="Layer_1"
   xml:space="preserve"><metadata
   id="metadata8"><rdf:RDF><cc:Work
       rdf:about=""><dc:format>image/svg+xml</dc:format><dc:type
         rdf:resource="http://purl.org/dc/dcmitype/StillImage" /><dc:title></dc:title></cc:Work></rdf:RDF></metadata><defs
   id="defs6"><filter
     x="0"
     y="0"
     width="1"
     height="1"
     color-interpolation-filters="sRGB"
     id="filter2985"><feColorMatrix
       result="fbSourceGraphic"
       values="1"
       type="saturate"
       id="feColorMatrix2987" /><feColorMatrix
       values="-1 0 0 0 1 0 -1 0 0 1 0 0 -1 0 1 0 0 0 1 0 "
       in="fbSourceGraphic"
       id="feColorMatrix2989" /></filter></defs>
<path
   d="m 11.167,18.793 c 0.275,0.479 0.889,0.644 1.365,0.367 l 3.305,-1.677 c 0.054,0.008 0.108,0.018 0.165,0.018 0.828,0 1.5,-0.671 1.5,-1.5 l -0.5,-7.876 c 0,-0.552 -0.448,-1 -1,-1 -0.552,0 -1,0.448 -1,1 l -0.466,7.343 -3.004,1.96 c -0.478,0.277 -0.642,0.889 -0.365,1.365 z m 1.395,-8.747 C 13.041,9.77 13.204,9.158 12.928,8.68 12.652,8.202 12.04,8.038 11.562,8.314 11.084,8.59 10.92,9.202 11.196,9.68 c 0.278,0.479 0.888,0.643 1.366,0.366 z M 8.68,19.073 C 8.202,19.35 8.038,19.962 8.315,20.44 8.59,20.919 9.204,21.081 9.68,20.805 10.159,20.53 10.323,19.909 10.047,19.438 9.771,18.962 9.159,18.798 8.68,19.073 z m 1.001,-7.876 c -0.479,-0.276 -1.09,-0.112 -1.366,0.366 -0.276,0.478 -0.111,1.09 0.365,1.366 0.479,0.276 1.09,0.113 1.367,-0.366 0.274,-0.478 0.111,-1.089 -0.366,-1.366 z m -2.556,4.804 c 0,0.553 0.449,1 1,1 0.552,0 1,-0.447 1.001,-1 -10e-4,-0.552 -0.448,-0.999 -1.001,-1 -0.554,0 -1,0.448 -1,1 z m 7.876,7.877 c 0,0.553 0.448,1 1,1 0.552,0 1,-0.447 1,-1 0,-0.553 -0.448,-1 -1,-1 -0.552,0 -1,0.447 -1,1 z m -3.805,-1.555 c -0.275,0.479 -0.111,1.09 0.366,1.365 0.478,0.271 1.091,0.104 1.365,-0.365 0.277,-0.479 0.113,-1.09 -0.365,-1.367 -0.478,-0.275 -1.088,-0.111 -1.366,0.367 z M 22.322,11.197 c -0.479,0.278 -0.643,0.89 -0.366,1.367 0.277,0.477 0.888,0.642 1.366,0.365 0.478,-0.275 0.643,-0.888 0.365,-1.366 -0.274,-0.478 -0.889,-0.642 -1.365,-0.366 z m -0.366,8.241 c -0.274,0.479 -0.112,1.104 0.367,1.367 0.477,0.274 1.089,0.112 1.364,-0.365 0.271,-0.479 0.104,-1.092 -0.364,-1.354 -0.48,-0.288 -1.093,-0.124 -1.367,0.352 z m 2.922,-3.437 c 0,-0.551 -0.448,-1 -1,-1 -0.554,0.002 -1.001,0.45 -1.001,1 0.001,0.552 0.448,1 1.001,1 0.552,0 1,-0.447 1,-1 z m -5.805,7.322 c 0.274,0.477 0.888,0.643 1.366,0.365 0.478,-0.275 0.642,-0.896 0.365,-1.365 -0.277,-0.479 -0.896,-0.643 -1.365,-0.367 -0.479,0.277 -0.643,0.889 -0.366,1.367 z m 0.366,-13.276 c 0.477,0.276 1.088,0.112 1.365,-0.366 0.271,-0.478 0.104,-1.091 -0.367,-1.367 -0.479,-0.276 -1.09,-0.111 -1.364,0.366 -0.275,0.48 -0.111,1.091 0.366,1.367 z m 9.764,4.818 C 28.574,7.573 22.154,2.171 14.864,2.796 11.61,3.077 8.746,4.522 6.614,6.673 L 4.841,5.182 3.532,12.546 10.563,9.998 8.927,8.621 C 10.555,7.054 12.694,6 15.122,5.788 c 5.64,-0.477 10.594,3.694 11.088,9.335 0.478,5.64 -3.692,10.595 -9.333,11.09 C 11.234,26.689 6.278,22.519 5.785,16.88 5.683,15.676 5.804,14.507 6.095,13.402 l -3.27,1.186 c -0.089,0.832 -0.106,1.684 -0.031,2.55 0.629,7.29 7.048,12.691 14.34,12.066 7.292,-0.629 12.694,-7.049 12.069,-14.339 z"
   id="timeback"
   style="filter:url(#filter2985)" />
</svg>