<?xml version="1.0" encoding="UTF-8" standalone="no"?>
<!-- Created with Inkscape (http://www.inkscape.org/) -->

<svg
   xmlns:dc="http://purl.org/dc/elements/1.1/"
   xmlns:cc="http://creativecommons.org/ns#"
   xmlns:rdf="http://www.w3.org/1999/02/22-rdf-syntax-ns#"
   xmlns:svg="http://www.w3.org/2000/svg"
   xmlns="http://www.w3.org/2000/svg"
   version="1.1"
   width="32"
   height="32"
   viewBox="0 0 32 32"
   id="Layer_1"
   xml:space="preserve"><metadata
   id="metadata8"><rdf:RDF><cc:Work
       rdf:about=""><dc:format>image/svg+xml</dc:format><dc:type
         rdf:resource="http://purl.org/dc/dcmitype/StillImage" /><dc:title></dc:title></cc:Work></rdf:RDF></metadata><defs
   id="defs6"><filter
     x="0"
     y="0"
     width="1"
     height="1"
     color-interpolation-filters="sRGB"
     id="filter3257"><feColorMatrix
       result="fbSourceGraphic"
       values="1"
       type="saturate"
       id="feColorMatrix3259" /><feColorMatrix
       values="-1 0 0 0 1 0 -1 0 0 1 0 0 -1 0 1 0 0 0 1 0 "
       in="fbSourceGraphic"
       id="feColorMatrix3261" /></filter></defs>
<path
   d="m 15.999,23.938 c -3.846,0 -7.708,-0.979 -9.534,-3.117 -0.054,0.236 -0.09,0.48 -0.09,0.738 v 3.877 c 0,3.438 4.988,4.998 9.625,4.998 4.637,0 9.625,-1.562 9.625,-4.998 v -3.877 c 0,-0.259 -0.036,-0.502 -0.09,-0.738 -1.826,2.13 -5.687,3.117 -9.536,3.117 z m 0,-7.495 c -3.846,0 -7.708,-0.987 -9.533,-3.117 -0.054,0.236 -0.091,0.479 -0.091,0.736 v 3.877 c 0,3.435 4.988,4.998 9.625,4.998 4.637,0 9.625,-1.563 9.625,-4.998 v -3.877 c 0,-0.257 -0.036,-0.501 -0.09,-0.737 -1.826,2.131 -5.687,3.118 -9.536,3.118 z M 16,1.566 c -4.637,0 -9.625,1.564 -9.625,5.001 v 3.876 c 0,3.435 4.988,4.998 9.625,4.998 4.637,0 9.625,-1.563 9.625,-4.998 V 6.567 C 25.625,3.132 20.637,1.566 16,1.566 z m 0,8 c -4.211,0 -7.625,-1.343 -7.625,-3 0,-1.656 3.414,-3 7.625,-3 4.211,0 7.625,1.344 7.625,3 0,1.659 -3.414,3 -7.625,3 z"
   id="db"
   style="filter:url(#filter3257)" />
</svg>