<?xml version="1.0" encoding="UTF-8" standalone="no"?>
<!-- Created with Inkscape (http://www.inkscape.org/) -->

<svg
   xmlns:dc="http://purl.org/dc/elements/1.1/"
   xmlns:cc="http://creativecommons.org/ns#"
   xmlns:rdf="http://www.w3.org/1999/02/22-rdf-syntax-ns#"
   xmlns:svg="http://www.w3.org/2000/svg"
   xmlns="http://www.w3.org/2000/svg"
   version="1.0"
   width="100"
   height="100"
   viewBox="0 0 100 100"
   id="svg2"
   xml:space="preserve"><metadata
   id="metadata12"><rdf:RDF><cc:Work
       rdf:about=""><dc:format>image/svg+xml</dc:format><dc:type
         rdf:resource="http://purl.org/dc/dcmitype/StillImage" /><dc:title></dc:title></cc:Work></rdf:RDF></metadata><defs
   id="defs10"><filter
     x="0"
     y="0"
     width="1"
     height="1"
     color-interpolation-filters="sRGB"
     id="filter2989"><feColorMatrix
       result="fbSourceGraphic"
       values="1"
       type="saturate"
       id="feColorMatrix2991" /><feColorMatrix
       values="-1 0 0 0 1 0 -1 0 0 1 0 0 -1 0 1 0 0 0 1 0 "
       in="fbSourceGraphic"
       id="feColorMatrix2993" /></filter><filter
     x="0"
     y="0"
     width="1"
     height="1"
     color-interpolation-filters="sRGB"
     id="filter2995"><feColorMatrix
       result="fbSourceGraphic"
       values="1"
       type="saturate"
       id="feColorMatrix2997" /><feColorMatrix
       values="-1 0 0 0 1 0 -1 0 0 1 0 0 -1 0 1 0 0 0 1 0 "
       in="fbSourceGraphic"
       id="feColorMatrix2999" /></filter></defs>
    <path
   d="m 49.784,1.479 c -26.749,0 -48.442,21.686 -48.442,48.435 0,26.755 21.693,48.447 48.442,48.447 26.75,0 48.442,-21.692 48.442,-48.447 C 98.227,23.165 76.534,1.479 49.784,1.479 z M 30.54,73.25 24.655,79.134 c -1.028,1.028 -2.698,1.028 -3.722,0 -1.028,-1.034 -1.028,-2.694 0,-3.723 l 3.772,-3.777 C 20.268,66.444 17.407,59.866 16.843,52.655 h -5.342 c -1.458,0 -2.632,-1.186 -2.632,-2.641 0,-1.456 1.174,-2.638 2.632,-2.638 h 5.342 C 17.2,42.822 18.469,38.53 20.464,34.68 l 3.828,5.44 c -1.173,3.07 -1.833,6.4 -1.833,9.893 0,7.625 3.09,14.52 8.081,19.507 1.028,1.037 1.028,2.701 0,3.73 z M 88.609,52.655 h -5.336 c -0.571,7.211 -3.431,13.788 -7.874,18.979 l 3.777,3.777 c 1.029,1.028 1.029,2.688 0,3.723 -1.027,1.028 -2.698,1.028 -3.721,0 L 69.564,73.25 c -1.022,-1.029 -1.022,-2.693 0,-3.729 C 74.56,64.53 77.65,57.639 77.65,50.014 77.65,34.779 65.296,22.41 50.057,22.41 c -5.711,0 -11.013,1.737 -15.417,4.71 L 56.054,41.75 56.01,41.8 c 0.502,0.357 0.984,0.737 1.43,1.185 3.985,3.978 3.985,10.441 0,14.411 -0.111,0.116 -0.229,0.229 -0.351,0.337 -4.059,3.614 -10.277,3.474 -14.171,-0.41 L 21.431,27.014 c -1.168,-1.475 -1.067,-3.629 0.296,-4.995 1.369,-1.369 3.521,-1.464 5.007,-0.302 l 2.895,1.984 c 4.99,-3.884 11.114,-6.379 17.792,-6.901 v -5.34 c 0,-1.455 1.179,-2.633 2.637,-2.633 1.454,0 2.632,1.179 2.632,2.633 v 5.34 c 7.226,0.559 13.797,3.434 18.993,7.862 l 3.772,-3.777 c 1.022,-1.028 2.693,-1.028 3.721,0 1.029,1.028 1.029,2.699 0,3.727 l -3.777,3.771 c 4.443,5.2 7.303,11.774 7.874,18.994 h 5.336 c 1.453,0 2.633,1.182 2.633,2.638 0,1.455 -1.18,2.64 -2.633,2.64 z"
   id="path4"
   style="filter:url(#filter2989)" />
    <circle
   cx="50.374001"
   cy="50.429001"
   r="4.0710001"
   id="circle6"
   style="filter:url(#filter2995)" />
</svg>