<?xml version="1.0" encoding="UTF-8" standalone="no"?>
<!-- Created with Inkscape (http://www.inkscape.org/) -->

<svg
   xmlns:dc="http://purl.org/dc/elements/1.1/"
   xmlns:cc="http://creativecommons.org/ns#"
   xmlns:rdf="http://www.w3.org/1999/02/22-rdf-syntax-ns#"
   xmlns:svg="http://www.w3.org/2000/svg"
   xmlns="http://www.w3.org/2000/svg"
   version="1.1"
   width="100"
   height="100"
   viewBox="0 0 100 100"
   id="Layer_1"
   xml:space="preserve"><metadata
   id="metadata41"><rdf:RDF><cc:Work
       rdf:about=""><dc:format>image/svg+xml</dc:format><dc:type
         rdf:resource="http://purl.org/dc/dcmitype/StillImage" /><dc:title></dc:title></cc:Work></rdf:RDF></metadata><defs
   id="defs39"><filter
     x="0"
     y="0"
     width="1"
     height="1"
     color-interpolation-filters="sRGB"
     id="filter3018"><feColorMatrix
       result="fbSourceGraphic"
       values="1"
       type="saturate"
       id="feColorMatrix3020" /><feColorMatrix
       values="-1 0 0 0 1 0 -1 0 0 1 0 0 -1 0 1 0 0 0 1 0 "
       in="fbSourceGraphic"
       id="feColorMatrix3022" /></filter><filter
     x="0"
     y="0"
     width="1"
     height="1"
     color-interpolation-filters="sRGB"
     id="filter3024"><feColorMatrix
       result="fbSourceGraphic"
       values="1"
       type="saturate"
       id="feColorMatrix3026" /><feColorMatrix
       values="-1 0 0 0 1 0 -1 0 0 1 0 0 -1 0 1 0 0 0 1 0 "
       in="fbSourceGraphic"
       id="feColorMatrix3028" /></filter><filter
     x="0"
     y="0"
     width="1"
     height="1"
     color-interpolation-filters="sRGB"
     id="filter3030"><feColorMatrix
       result="fbSourceGraphic"
       values="1"
       type="saturate"
       id="feColorMatrix3032" /><feColorMatrix
       values="-1 0 0 0 1 0 -1 0 0 1 0 0 -1 0 1 0 0 0 1 0 "
       in="fbSourceGraphic"
       id="feColorMatrix3034" /></filter><filter
     x="0"
     y="0"
     width="1"
     height="1"
     color-interpolation-filters="sRGB"
     id="filter3036"><feColorMatrix
       result="fbSourceGraphic"
       values="1"
       type="saturate"
       id="feColorMatrix3038" /><feColorMatrix
       values="-1 0 0 0 1 0 -1 0 0 1 0 0 -1 0 1 0 0 0 1 0 "
       in="fbSourceGraphic"
       id="feColorMatrix3040" /></filter><filter
     x="0"
     y="0"
     width="1"
     height="1"
     color-interpolation-filters="sRGB"
     id="filter3042"><feColorMatrix
       result="fbSourceGraphic"
       values="1"
       type="saturate"
       id="feColorMatrix3044" /><feColorMatrix
       values="-1 0 0 0 1 0 -1 0 0 1 0 0 -1 0 1 0 0 0 1 0 "
       in="fbSourceGraphic"
       id="feColorMatrix3046" /></filter><filter
     x="0"
     y="0"
     width="1"
     height="1"
     color-interpolation-filters="sRGB"
     id="filter3048"><feColorMatrix
       result="fbSourceGraphic"
       values="1"
       type="saturate"
       id="feColorMatrix3050" /><feColorMatrix
       values="-1 0 0 0 1 0 -1 0 0 1 0 0 -1 0 1 0 0 0 1 0 "
       in="fbSourceGraphic"
       id="feColorMatrix3052" /></filter><filter
     x="0"
     y="0"
     width="1"
     height="1"
     color-interpolation-filters="sRGB"
     id="filter3054"><feColorMatrix
       result="fbSourceGraphic"
       values="1"
       type="saturate"
       id="feColorMatrix3056" /><feColorMatrix
       values="-1 0 0 0 1 0 -1 0 0 1 0 0 -1 0 1 0 0 0 1 0 "
       in="fbSourceGraphic"
       id="feColorMatrix3058" /></filter><filter
     x="0"
     y="0"
     width="1"
     height="1"
     color-interpolation-filters="sRGB"
     id="filter3060"><feColorMatrix
       result="fbSourceGraphic"
       values="1"
       type="saturate"
       id="feColorMatrix3062" /><feColorMatrix
       values="-1 0 0 0 1 0 -1 0 0 1 0 0 -1 0 1 0 0 0 1 0 "
       in="fbSourceGraphic"
       id="feColorMatrix3064" /></filter><filter
     x="0"
     y="0"
     width="1"
     height="1"
     color-interpolation-filters="sRGB"
     id="filter3066"><feColorMatrix
       result="fbSourceGraphic"
       values="1"
       type="saturate"
       id="feColorMatrix3068" /><feColorMatrix
       values="-1 0 0 0 1 0 -1 0 0 1 0 0 -1 0 1 0 0 0 1 0 "
       in="fbSourceGraphic"
       id="feColorMatrix3070" /></filter><filter
     x="0"
     y="0"
     width="1"
     height="1"
     color-interpolation-filters="sRGB"
     id="filter3072"><feColorMatrix
       result="fbSourceGraphic"
       values="1"
       type="saturate"
       id="feColorMatrix3074" /><feColorMatrix
       values="-1 0 0 0 1 0 -1 0 0 1 0 0 -1 0 1 0 0 0 1 0 "
       in="fbSourceGraphic"
       id="feColorMatrix3076" /></filter><filter
     x="0"
     y="0"
     width="1"
     height="1"
     color-interpolation-filters="sRGB"
     id="filter3078"><feColorMatrix
       result="fbSourceGraphic"
       values="1"
       type="saturate"
       id="feColorMatrix3080" /><feColorMatrix
       values="-1 0 0 0 1 0 -1 0 0 1 0 0 -1 0 1 0 0 0 1 0 "
       in="fbSourceGraphic"
       id="feColorMatrix3082" /></filter><filter
     x="0"
     y="0"
     width="1"
     height="1"
     color-interpolation-filters="sRGB"
     id="filter3084"><feColorMatrix
       result="fbSourceGraphic"
       values="1"
       type="saturate"
       id="feColorMatrix3086" /><feColorMatrix
       values="-1 0 0 0 1 0 -1 0 0 1 0 0 -1 0 1 0 0 0 1 0 "
       in="fbSourceGraphic"
       id="feColorMatrix3088" /></filter><filter
     x="0"
     y="0"
     width="1"
     height="1"
     color-interpolation-filters="sRGB"
     id="filter3090"><feColorMatrix
       result="fbSourceGraphic"
       values="1"
       type="saturate"
       id="feColorMatrix3092" /><feColorMatrix
       values="-1 0 0 0 1 0 -1 0 0 1 0 0 -1 0 1 0 0 0 1 0 "
       in="fbSourceGraphic"
       id="feColorMatrix3094" /></filter><filter
     x="0"
     y="0"
     width="1"
     height="1"
     color-interpolation-filters="sRGB"
     id="filter3096"><feColorMatrix
       result="fbSourceGraphic"
       values="1"
       type="saturate"
       id="feColorMatrix3098" /><feColorMatrix
       values="-1 0 0 0 1 0 -1 0 0 1 0 0 -1 0 1 0 0 0 1 0 "
       in="fbSourceGraphic"
       id="feColorMatrix3100" /></filter><filter
     x="0"
     y="0"
     width="1"
     height="1"
     color-interpolation-filters="sRGB"
     id="filter3102"><feColorMatrix
       result="fbSourceGraphic"
       values="1"
       type="saturate"
       id="feColorMatrix3104" /><feColorMatrix
       values="-1 0 0 0 1 0 -1 0 0 1 0 0 -1 0 1 0 0 0 1 0 "
       in="fbSourceGraphic"
       id="feColorMatrix3106" /></filter><filter
     x="0"
     y="0"
     width="1"
     height="1"
     color-interpolation-filters="sRGB"
     id="filter3108"><feColorMatrix
       result="fbSourceGraphic"
       values="1"
       type="saturate"
       id="feColorMatrix3110" /><feColorMatrix
       values="-1 0 0 0 1 0 -1 0 0 1 0 0 -1 0 1 0 0 0 1 0 "
       in="fbSourceGraphic"
       id="feColorMatrix3112" /></filter><filter
     x="0"
     y="0"
     width="1"
     height="1"
     color-interpolation-filters="sRGB"
     id="filter3114"><feColorMatrix
       result="fbSourceGraphic"
       values="1"
       type="saturate"
       id="feColorMatrix3116" /><feColorMatrix
       values="-1 0 0 0 1 0 -1 0 0 1 0 0 -1 0 1 0 0 0 1 0 "
       in="fbSourceGraphic"
       id="feColorMatrix3118" /></filter></defs>
<path
   d="m 93.8,52.031 c 3.109,0 3.688,1.578 3.688,2.984 0,1.391 -0.5,2.984 -3.688,2.984 H 83.081 V 52.03 H 93.8 z"
   id="path3"
   style="fill:#010101;filter:url(#filter3018)" />
<path
   d="m 93.8,40.031 c 3.109,0 3.688,1.578 3.688,2.984 0,1.391 -0.5,2.984 -3.688,2.984 H 83.081 V 40.03 H 93.8 z"
   id="path5"
   style="fill:#010101;filter:url(#filter3024)" />
<path
   d="m 93.8,28.302 c 3.109,0 3.688,1.578 3.688,2.984 0,1.391 -0.5,2.984 -3.688,2.984 H 83.081 V 28.301 H 93.8 z"
   id="path7"
   style="fill:#010101;filter:url(#filter3030)" />
<path
   d="m 93.8,63.853 c 3.109,0 3.688,1.578 3.688,2.984 0,1.391 -0.5,2.984 -3.688,2.984 H 83.081 V 63.852 H 93.8 z"
   id="path9"
   style="fill:#010101;filter:url(#filter3036)" />
<path
   d="M 8.2,45.969 C 5.091,45.969 4.512,44.391 4.512,42.985 4.513,41.594 5.013,40 8.2,40 h 10.719 v 5.969 H 8.2 z"
   id="path11"
   style="fill:#010101;filter:url(#filter3042)" />
<path
   d="M 8.2,57.969 C 5.091,57.969 4.512,56.391 4.512,54.985 4.513,53.594 5.013,52 8.2,52 h 10.719 v 5.969 H 8.2 z"
   id="path13"
   style="fill:#010101;filter:url(#filter3048)" />
<path
   d="m 8.2,69.698 c -3.109,0 -3.688,-1.578 -3.688,-2.984 0,-1.391 0.5,-2.984 3.688,-2.984 h 10.719 v 5.969 H 8.2 z"
   id="path15"
   style="fill:#010101;filter:url(#filter3054)" />
<path
   d="m 8.2,34.147 c -3.109,0 -3.688,-1.578 -3.688,-2.984 0,-1.391 0.5,-2.984 3.688,-2.984 h 10.719 v 5.969 H 8.2 z"
   id="path17"
   style="fill:#010101;filter:url(#filter3060)" />
<path
   d="m 54.866,6.31 c 0,-3.109 1.578,-3.688 2.984,-3.688 1.391,0 2.984,0.5 2.984,3.688 V 17.029 H 54.865 V 6.31 z"
   id="path19"
   style="fill:#010101;filter:url(#filter3066)" />
<path
   d="m 42.866,6.31 c 0,-3.109 1.578,-3.688 2.984,-3.688 1.391,0 2.984,0.5 2.984,3.688 V 17.029 H 42.865 V 6.31 z"
   id="path21"
   style="fill:#010101;filter:url(#filter3072)" />
<path
   d="m 31.137,6.31 c 0,-3.109 1.578,-3.688 2.984,-3.688 1.391,0 2.984,0.5 2.984,3.688 V 17.029 H 31.136 V 6.31 z"
   id="path23"
   style="fill:#010101;filter:url(#filter3078)" />
<path
   d="m 66.688,6.31 c 0,-3.109 1.578,-3.688 2.984,-3.688 1.391,0 2.984,0.5 2.984,3.688 V 17.029 H 66.687 V 6.31 z"
   id="path25"
   style="fill:#010101;filter:url(#filter3084)" />
<path
   d="m 48.804,91.909 c 0,3.109 -1.578,3.688 -2.984,3.688 -1.391,0 -2.984,-0.5 -2.984,-3.688 V 81.19 h 5.969 v 10.719 z"
   id="path27"
   style="fill:#010101;filter:url(#filter3090)" />
<path
   d="m 60.804,91.909 c 0,3.109 -1.578,3.688 -2.984,3.688 -1.391,0 -2.984,-0.5 -2.984,-3.688 V 81.19 h 5.969 v 10.719 z"
   id="path29"
   style="fill:#010101;filter:url(#filter3096)" />
<path
   d="m 72.533,91.909 c 0,3.109 -1.578,3.688 -2.984,3.688 -1.391,0 -2.984,-0.5 -2.984,-3.688 V 81.19 h 5.969 v 10.719 z"
   id="path31"
   style="fill:#010101;filter:url(#filter3102)" />
<path
   d="m 36.982,91.909 c 0,3.109 -1.578,3.688 -2.984,3.688 -1.391,0 -2.984,-0.5 -2.984,-3.688 V 81.19 h 5.969 v 10.719 z"
   id="path33"
   style="fill:#010101;filter:url(#filter3108)" />
<path
   d="M 70.4,20.341 H 32.64 c -5.79,0 -10.5,4.71 -10.5,10.5 v 36.96 c 0,5.79 4.71,10.5 10.5,10.5 H 72.4 l 8.5,-8.5 v -38.96 c 0,-5.789 -4.71,-10.5 -10.5,-10.5 z M 34.186,34.15 c -1.615,0 -2.924,-1.309 -2.924,-2.924 0,-1.615 1.309,-2.924 2.924,-2.924 1.615,0 2.924,1.309 2.924,2.924 0,1.615 -1.309,2.924 -2.924,2.924 z"
   id="path35"
   style="fill:#010101;filter:url(#filter3114)" />
</svg>