<?xml version="1.0" encoding="UTF-8" standalone="no"?>
<!-- Created with Inkscape (http://www.inkscape.org/) -->

<svg
   xmlns:dc="http://purl.org/dc/elements/1.1/"
   xmlns:cc="http://creativecommons.org/ns#"
   xmlns:rdf="http://www.w3.org/1999/02/22-rdf-syntax-ns#"
   xmlns:svg="http://www.w3.org/2000/svg"
   xmlns="http://www.w3.org/2000/svg"
   version="1.1"
   width="100"
   height="83.113998"
   viewBox="0 0 100 83.114"
   id="Layer_1"
   xml:space="preserve"><metadata
   id="metadata2993"><rdf:RDF><cc:Work
       rdf:about=""><dc:format>image/svg+xml</dc:format><dc:type
         rdf:resource="http://purl.org/dc/dcmitype/StillImage" /><dc:title></dc:title></cc:Work></rdf:RDF></metadata><defs
   id="defs2991"><filter
     x="0"
     y="0"
     width="1"
     height="1"
     color-interpolation-filters="sRGB"
     id="filter2995"><feColorMatrix
       result="fbSourceGraphic"
       values="1"
       type="saturate"
       id="feColorMatrix2997" /><feColorMatrix
       values="-1 0 0 0 1 0 -1 0 0 1 0 0 -1 0 1 0 0 0 1 0 "
       in="fbSourceGraphic"
       id="feColorMatrix2999" /></filter><filter
     x="0"
     y="0"
     width="1"
     height="1"
     color-interpolation-filters="sRGB"
     id="filter3001"><feColorMatrix
       result="fbSourceGraphic"
       values="1"
       type="saturate"
       id="feColorMatrix3003" /><feColorMatrix
       values="-1 0 0 0 1 0 -1 0 0 1 0 0 -1 0 1 0 0 0 1 0 "
       in="fbSourceGraphic"
       id="feColorMatrix3005" /></filter></defs>
<path
   d="M 67.526,30.087 82.292,42.333 100,35.757 C 98.073,43.335 93.021,49.631 85.703,52.346 77.695,55.321 68.919,53.264 62.278,47.742 L 11.693,83.114 0,66.395 52.097,29.97 C 49.909,17.567 55.82,5.432 66.784,1.363 74.101,-1.352 82.057,0.119 88.437,4.618 l -17.708,6.556 -3.203,18.913 z"
   id="path2985"
   style="filter:url(#filter2995)" />
<polygon
   points="74.727,27.417 84.206,35.263 95.742,30.985 97.786,18.869 88.32,11.011 76.797,15.295 "
   id="polygon2987"
   style="filter:url(#filter3001)" />
</svg>