<?xml version="1.0" encoding="UTF-8" standalone="no"?>
<!-- Created with Inkscape (http://www.inkscape.org/) -->

<svg
   xmlns:dc="http://purl.org/dc/elements/1.1/"
   xmlns:cc="http://creativecommons.org/ns#"
   xmlns:rdf="http://www.w3.org/1999/02/22-rdf-syntax-ns#"
   xmlns:svg="http://www.w3.org/2000/svg"
   xmlns="http://www.w3.org/2000/svg"
   version="1.1"
   width="100"
   height="100"
   viewBox="0 0 100 100"
   id="svg2"
   xml:space="preserve"><metadata
   id="metadata70"><rdf:RDF><cc:Work
       rdf:about=""><dc:format>image/svg+xml</dc:format><dc:type
         rdf:resource="http://purl.org/dc/dcmitype/StillImage" /><dc:title></dc:title></cc:Work></rdf:RDF></metadata><defs
   id="defs68"><filter
     x="0"
     y="0"
     width="1"
     height="1"
     color-interpolation-filters="sRGB"
     id="filter3047"><feColorMatrix
       result="fbSourceGraphic"
       values="1"
       type="saturate"
       id="feColorMatrix3049" /><feColorMatrix
       values="-1 0 0 0 1 0 -1 0 0 1 0 0 -1 0 1 0 0 0 1 0 "
       in="fbSourceGraphic"
       id="feColorMatrix3051" /></filter><filter
     x="0"
     y="0"
     width="1"
     height="1"
     color-interpolation-filters="sRGB"
     id="filter3053"><feColorMatrix
       result="fbSourceGraphic"
       values="1"
       type="saturate"
       id="feColorMatrix3055" /><feColorMatrix
       values="-1 0 0 0 1 0 -1 0 0 1 0 0 -1 0 1 0 0 0 1 0 "
       in="fbSourceGraphic"
       id="feColorMatrix3057" /></filter></defs>
<g
   id="Captions"
   style="filter:url(#filter3047)">
</g>
<g
   id="Your_Icon"
   style="filter:url(#filter3053)">
	<g
   id="g6">
		<path
   d="m 52.734,4 c 1.025,0 1.859,0.834 1.859,1.859 v 36.719 c 0,1.025 -0.834,1.859 -1.859,1.859 H 5.859 C 4.834,44.438 4,43.604 4,42.578 V 5.859 C 4,4.834 4.834,4 5.859,4 h 46.875 m 0,-4 H 5.859 C 2.625,0 0,2.625 0,5.859 v 36.719 c 0,3.234 2.625,5.859 5.859,5.859 h 46.875 c 3.234,0 5.859,-2.625 5.859,-5.859 V 5.859 C 58.594,2.625 55.969,0 52.734,0 l 0,0 z"
   id="path8"
   style="fill:#000000" />
	</g>
	<g
   id="g10">
		<path
   d="m 52.734,55.563 c 1.025,0 1.859,0.834 1.859,1.859 V 94.141 C 54.593,95.166 53.759,96 52.734,96 H 5.859 C 4.834,96 4,95.166 4,94.141 V 57.422 c 0,-1.025 0.834,-1.859 1.859,-1.859 h 46.875 m 0,-4 H 5.859 C 2.625,51.563 0,54.188 0,57.422 V 94.141 C 0,97.375 2.625,100 5.859,100 h 46.875 c 3.234,0 5.859,-2.625 5.859,-5.859 V 57.422 c 10e-4,-3.234 -2.624,-5.859 -5.859,-5.859 l 0,0 z"
   id="path12"
   style="fill:#000000" />
	</g>
	<g
   id="g14">
		<path
   d="M 94.141,4 C 95.166,4 96,4.834 96,5.859 v 23.438 c 0,1.025 -0.834,1.859 -1.859,1.859 H 67.578 c -1.025,0 -1.859,-0.834 -1.859,-1.859 V 5.859 C 65.719,4.834 66.553,4 67.578,4 h 26.563 m 0,-4 H 67.578 c -3.234,0 -5.859,2.625 -5.859,5.859 v 23.438 c 0,3.234 2.625,5.859 5.859,5.859 h 26.563 c 3.234,0 5.859,-2.625 5.859,-5.859 V 5.859 C 100,2.625 97.375,0 94.141,0 l 0,0 z"
   id="path16"
   style="fill:#000000" />
	</g>
	<g
   id="g18">
		<path
   d="m 94.141,43.063 c 1.025,0 1.859,0.834 1.859,1.859 V 94.141 C 96,95.166 95.166,96 94.141,96 H 67.578 c -1.025,0 -1.859,-0.834 -1.859,-1.859 V 44.922 c 0,-1.025 0.834,-1.859 1.859,-1.859 h 26.563 m 0,-4 H 67.578 c -3.234,0 -5.859,2.625 -5.859,5.859 v 49.219 c 0,3.234 2.625,5.859 5.859,5.859 H 94.141 C 97.375,100 100,97.375 100,94.141 V 44.922 c 0,-3.234 -2.625,-5.859 -5.859,-5.859 l 0,0 z"
   id="path20"
   style="fill:#000000" />
	</g>
	<rect
   width="53.515999"
   height="7.8130002"
   x="2.734"
   y="2.734"
   id="rect22"
   style="fill:#000000;fill-rule:evenodd" />
	<rect
   width="53.515999"
   height="7.8130002"
   x="2.734"
   y="54.297001"
   id="rect24"
   style="fill:#000000;fill-rule:evenodd" />
	<rect
   width="32.292999"
   height="7.8130002"
   x="64.582001"
   y="42.188"
   id="rect26"
   style="fill:#000000;fill-rule:evenodd" />
	<rect
   width="32.292999"
   height="7.8130002"
   x="64.582001"
   y="2.734"
   id="rect28"
   style="fill:#000000;fill-rule:evenodd" />
	
		<line
   fill-rule="evenodd"
   clip-rule="evenodd"
   fill="#000000"
   stroke="#010101"
   stroke-width="4"
   stroke-linejoin="round"
   stroke-miterlimit="10"
   x1="6.934"
   y1="16.601999"
   x2="51.367001"
   y2="16.601999"
   id="line30"
   style="fill:#000000;fill-rule:evenodd;stroke:#010101;stroke-width:4;stroke-linejoin:round;stroke-miterlimit:10" />
	
		<line
   fill-rule="evenodd"
   clip-rule="evenodd"
   fill="#000000"
   stroke="#010101"
   stroke-width="4"
   stroke-linejoin="round"
   stroke-miterlimit="10"
   x1="6.934"
   y1="23.632999"
   x2="51.367001"
   y2="23.632999"
   id="line32"
   style="fill:#000000;fill-rule:evenodd;stroke:#010101;stroke-width:4;stroke-linejoin:round;stroke-miterlimit:10" />
	
		<line
   fill-rule="evenodd"
   clip-rule="evenodd"
   fill="#000000"
   stroke="#010101"
   stroke-width="4"
   stroke-linejoin="round"
   stroke-miterlimit="10"
   x1="6.934"
   y1="30.664"
   x2="51.367001"
   y2="30.664"
   id="line34"
   style="fill:#000000;fill-rule:evenodd;stroke:#010101;stroke-width:4;stroke-linejoin:round;stroke-miterlimit:10" />
	
		<line
   fill-rule="evenodd"
   clip-rule="evenodd"
   fill="#000000"
   stroke="#010101"
   stroke-width="4"
   stroke-linejoin="round"
   stroke-miterlimit="10"
   x1="6.934"
   y1="37.695"
   x2="51.367001"
   y2="37.695"
   id="line36"
   style="fill:#000000;fill-rule:evenodd;stroke:#010101;stroke-width:4;stroke-linejoin:round;stroke-miterlimit:10" />
	
		<line
   fill-rule="evenodd"
   clip-rule="evenodd"
   fill="#000000"
   stroke="#010101"
   stroke-width="4"
   stroke-linejoin="round"
   stroke-miterlimit="10"
   x1="14.5"
   y1="68.359001"
   x2="51.563"
   y2="68.359001"
   id="line38"
   style="fill:#000000;fill-rule:evenodd;stroke:#010101;stroke-width:4;stroke-linejoin:round;stroke-miterlimit:10" />
	
		<line
   fill-rule="evenodd"
   clip-rule="evenodd"
   fill="#000000"
   stroke="#010101"
   stroke-width="4"
   stroke-linejoin="round"
   stroke-miterlimit="10"
   x1="14.5"
   y1="75.390999"
   x2="51.563"
   y2="75.390999"
   id="line40"
   style="fill:#000000;fill-rule:evenodd;stroke:#010101;stroke-width:4;stroke-linejoin:round;stroke-miterlimit:10" />
	
		<line
   fill-rule="evenodd"
   clip-rule="evenodd"
   fill="#000000"
   stroke="#010101"
   stroke-width="4"
   stroke-linejoin="round"
   stroke-miterlimit="10"
   x1="14.5"
   y1="82.421997"
   x2="51.563"
   y2="82.421997"
   id="line42"
   style="fill:#000000;fill-rule:evenodd;stroke:#010101;stroke-width:4;stroke-linejoin:round;stroke-miterlimit:10" />
	
		<line
   fill-rule="evenodd"
   clip-rule="evenodd"
   fill="#000000"
   stroke="#010101"
   stroke-width="4"
   stroke-linejoin="round"
   stroke-miterlimit="10"
   x1="14.5"
   y1="89.453003"
   x2="51.563"
   y2="89.453003"
   id="line44"
   style="fill:#000000;fill-rule:evenodd;stroke:#010101;stroke-width:4;stroke-linejoin:round;stroke-miterlimit:10" />
	
		<line
   fill-rule="evenodd"
   clip-rule="evenodd"
   fill="#000000"
   stroke="#010101"
   stroke-width="4"
   stroke-linejoin="round"
   stroke-miterlimit="10"
   x1="68.75"
   y1="55.859001"
   x2="92.969002"
   y2="55.859001"
   id="line46"
   style="fill:#000000;fill-rule:evenodd;stroke:#010101;stroke-width:4;stroke-linejoin:round;stroke-miterlimit:10" />
	
		<line
   fill-rule="evenodd"
   clip-rule="evenodd"
   fill="#000000"
   stroke="#010101"
   stroke-width="4"
   stroke-linejoin="round"
   stroke-miterlimit="10"
   x1="68.75"
   y1="67.578003"
   x2="92.969002"
   y2="67.578003"
   id="line48"
   style="fill:#000000;fill-rule:evenodd;stroke:#010101;stroke-width:4;stroke-linejoin:round;stroke-miterlimit:10" />
	
		<line
   fill-rule="evenodd"
   clip-rule="evenodd"
   fill="#000000"
   stroke="#010101"
   stroke-width="4"
   stroke-linejoin="round"
   stroke-miterlimit="10"
   x1="68.75"
   y1="79.296997"
   x2="92.969002"
   y2="79.296997"
   id="line50"
   style="fill:#000000;fill-rule:evenodd;stroke:#010101;stroke-width:4;stroke-linejoin:round;stroke-miterlimit:10" />
	
		<line
   fill-rule="evenodd"
   clip-rule="evenodd"
   fill="#000000"
   stroke="#010101"
   stroke-width="4"
   stroke-linejoin="round"
   stroke-miterlimit="10"
   x1="68.75"
   y1="91.015999"
   x2="92.969002"
   y2="91.015999"
   id="line52"
   style="fill:#000000;fill-rule:evenodd;stroke:#010101;stroke-width:4;stroke-linejoin:round;stroke-miterlimit:10" />
	
		<line
   fill-rule="evenodd"
   clip-rule="evenodd"
   fill="#000000"
   stroke="#010101"
   stroke-width="4"
   stroke-linejoin="round"
   stroke-miterlimit="10"
   stroke-dasharray="5,5"
   x1="68.164001"
   y1="16.601999"
   x2="93.555"
   y2="16.601999"
   id="line54"
   style="fill:#000000;fill-rule:evenodd;stroke:#010101;stroke-width:4;stroke-linejoin:round;stroke-miterlimit:10;stroke-dasharray:5, 5" />
	
		<line
   fill-rule="evenodd"
   clip-rule="evenodd"
   fill="#000000"
   stroke="#010101"
   stroke-width="4"
   stroke-linejoin="round"
   stroke-miterlimit="10"
   stroke-dasharray="5,5"
   x1="68.164001"
   y1="23.632999"
   x2="93.555"
   y2="23.632999"
   id="line56"
   style="fill:#000000;fill-rule:evenodd;stroke:#010101;stroke-width:4;stroke-linejoin:round;stroke-miterlimit:10;stroke-dasharray:5, 5" />
	
		<line
   fill="#000000"
   stroke="#010101"
   stroke-width="4"
   stroke-linecap="square"
   stroke-miterlimit="10"
   x1="9.3809996"
   y1="68.359001"
   x2="10"
   y2="68.359001"
   id="line58"
   style="fill:#000000;stroke:#010101;stroke-width:4;stroke-linecap:square;stroke-miterlimit:10" />
	
		<line
   fill="#000000"
   stroke="#010101"
   stroke-width="4"
   stroke-linecap="square"
   stroke-miterlimit="10"
   x1="9.3809996"
   y1="75.390999"
   x2="10"
   y2="75.390999"
   id="line60"
   style="fill:#000000;stroke:#010101;stroke-width:4;stroke-linecap:square;stroke-miterlimit:10" />
	
		<line
   fill="#000000"
   stroke="#010101"
   stroke-width="4"
   stroke-linecap="square"
   stroke-miterlimit="10"
   x1="9.3809996"
   y1="82.421997"
   x2="10"
   y2="82.421997"
   id="line62"
   style="fill:#000000;stroke:#010101;stroke-width:4;stroke-linecap:square;stroke-miterlimit:10" />
	
		<line
   fill="#000000"
   stroke="#010101"
   stroke-width="4"
   stroke-linecap="square"
   stroke-miterlimit="10"
   x1="9.3809996"
   y1="89.453003"
   x2="10"
   y2="89.453003"
   id="line64"
   style="fill:#000000;stroke:#010101;stroke-width:4;stroke-linecap:square;stroke-miterlimit:10" />
</g>
</svg>