<?xml version="1.0" encoding="UTF-8" standalone="no"?>
<svg width="24px" height="24px" viewBox="0 0 24 24" version="1.1" xmlns="http://www.w3.org/2000/svg" xmlns:xlink="http://www.w3.org/1999/xlink" xmlns:sketch="http://www.bohemiancoding.com/sketch/ns">
    <!-- Generator: Sketch 3.0.3 (7891) - http://www.bohemiancoding.com/sketch -->
    <title>wf_step_auto</title>
    <desc>Created with Sketch.</desc>
    <defs></defs>
    <g id="Page-1" stroke="none" stroke-width="1" fill="none" fill-rule="evenodd" sketch:type="MSPage">
        <g id="Landscape" sketch:type="MSArtboardGroup" transform="translate(-562.000000, -369.000000)">
            <g id="WF_step_auto" sketch:type="MSLayerGroup" transform="translate(574.000000, 381.000000) scale(-1, 1) translate(-574.000000, -381.000000) translate(562.000000, 369.000000)">
                <g id="Rectangle-7-+-Rectangle-8-+-Rectangle-9" transform="translate(13.808036, 15.816964)" sketch:type="MSShapeGroup">
                    <rect id="Rectangle-7" stroke="#417505" stroke-width="1.20535714" opacity="0.7" x="0" y="0" width="9.44196429" height="7.43303571" rx="1.60714286"></rect>
                    <rect id="Rectangle-8" fill="#417505" x="2.20982143" y="1.80803571" width="5.02232143" height="1.40625" rx="1.60714286"></rect>
                    <rect id="Rectangle-9" fill="#417505" x="2.20982143" y="4.01785714" width="5.02232143" height="1.40625" rx="1.60714286"></rect>
                </g>
                <g id="Rectangle-7-+-Rectangle-8-+-Rectangle-9" transform="translate(0.750000, 11.598214)" sketch:type="MSShapeGroup">
                    <rect id="Rectangle-7" stroke="#417505" stroke-width="1.20535714" x="0" y="0" width="9.44196429" height="7.43303571" rx="1.60714286"></rect>
                    <rect id="Rectangle-8" fill="#417505" x="2.20982143" y="1.80803571" width="5.02232143" height="1.40625" rx="1.60714286"></rect>
                    <rect id="Rectangle-9" fill="#417505" x="2.20982143" y="4.01785714" width="5.02232143" height="1.40625" rx="1.60714286"></rect>
                </g>
                <g id="Rectangle-7-+-Rectangle-8-+-Rectangle-9" transform="translate(13.757812, 0.750000)" sketch:type="MSShapeGroup">
                    <rect id="Rectangle-7" stroke="#417505" stroke-width="1.20535714" x="0.0502232143" y="0" width="9.44196429" height="7.43303571" rx="1.60714286"></rect>
                    <rect id="Rectangle-8" fill="#417505" x="2.26004464" y="1.80803571" width="5.02232143" height="1.40625" rx="1.60714286"></rect>
                    <rect id="Rectangle-9" fill="#417505" x="2.26004464" y="4.01785714" width="5.02232143" height="1.40625" rx="1.60714286"></rect>
                </g>
                <path d="M9.99107143,12 L9.99107143,7.98214286 L14.0089286,9.99107143 L9.99107143,12 Z" id="Triangle-1" opacity="0.4" fill="#417505" sketch:type="MSShapeGroup" transform="translate(12.000000, 9.991071) scale(-1, 1) rotate(45.000000) translate(-12.000000, -9.991071) "></path>
                <path d="M16.4196429,14.6116071 L16.4196429,10.59375 L20.4375,12.6026786 L16.4196429,14.6116071 Z" id="Triangle-2" opacity="0.7" fill="#417505" sketch:type="MSShapeGroup" transform="translate(18.428571, 12.602679) rotate(90.000000) translate(-18.428571, -12.602679) "></path>
                <g id="Computer-2" transform="translate(4.000000, 5.000000)" stroke="#FFFFFF" stroke-width="0.554999948" sketch:type="MSShapeGroup" fill="#417505">
                    <rect id="Rectangle-52" stroke-opacity="0.6" x="0" y="0" width="16" height="12.9107581" rx="1.16163911"></rect>
                    <rect id="Rectangle-53" stroke-opacity="0.6" x="0.727272727" y="0.727272727" width="14.5454545" height="11.2727273" rx="1.16163911"></rect>
                    <path d="M5.99538352,12.7556687 C5.99538352,12.7556687 10.4316406,12.7672367 10.4316406,12.7672368 C10.4316406,12.7672368 9.66281939,14.0949752 12.1548295,15.1705504 C14.6468397,16.2461256 1.17524858,16.4214221 4.0793679,15.1705504 C6.98348722,13.9196786 5.99538352,12.7556687 5.99538352,12.7556687 Z" id="Path-146" stroke-opacity="0"></path>
                </g>
            </g>
        </g>
    </g>
</svg>