<?xml version="1.0" encoding="UTF-8" standalone="no"?>
<svg width="24px" height="24px" viewBox="0 0 24 24" version="1.1" xmlns="http://www.w3.org/2000/svg" xmlns:xlink="http://www.w3.org/1999/xlink" xmlns:sketch="http://www.bohemiancoding.com/sketch/ns">
    <!-- Generator: Sketch 3.0.2 (7799) - http://www.bohemiancoding.com/sketch -->
    <title>wf_step_error</title>
    <description>Created with Sketch.</description>
    <defs></defs>
    <g id="Page-1" stroke="none" stroke-width="1" fill="none" fill-rule="evenodd" sketch:type="MSPage">
        <g id="WF_step_error" sketch:type="MSLayerGroup" transform="translate(12.000000, 12.000000) scale(-1, 1) translate(-12.000000, -12.000000) ">
            <g id="Rectangle-7-+-Rectangle-8-+-Rectangle-9" transform="translate(13.808036, 15.816964)" sketch:type="MSShapeGroup" opacity="0.7">
                <rect id="Rectangle-7" stroke="#FF0000" stroke-width="1.20535714" x="0" y="0" width="9.44196429" height="7.43303571" rx="1.60714286"></rect>
                <rect id="Rectangle-8" fill="#FF0000" x="2.20982143" y="1.80803571" width="5.02232143" height="1.40625" rx="1.60714286"></rect>
                <rect id="Rectangle-9" fill="#FF0000" x="2.20982143" y="4.01785714" width="5.02232143" height="1.40625" rx="1.60714286"></rect>
            </g>
            <g id="Rectangle-7-+-Rectangle-8-+-Rectangle-9" transform="translate(0.750000, 11.598214)" sketch:type="MSShapeGroup">
                <rect id="Rectangle-7" stroke="#FF0000" stroke-width="1.20535714" x="0" y="0" width="9.44196429" height="7.43303571" rx="1.60714286"></rect>
                <rect id="Rectangle-8" fill="#FF0000" x="2.20982143" y="1.80803571" width="5.02232143" height="1.40625" rx="1.60714286"></rect>
                <rect id="Rectangle-9" fill="#FF0000" x="2.20982143" y="4.01785714" width="5.02232143" height="1.40625" rx="1.60714286"></rect>
            </g>
            <g id="Rectangle-7-+-Rectangle-8-+-Rectangle-9" transform="translate(13.757812, 0.750000)" sketch:type="MSShapeGroup">
                <rect id="Rectangle-7" stroke="#FF0000" stroke-width="1.20535714" x="0.0502232143" y="0" width="9.44196429" height="7.43303571" rx="1.60714286"></rect>
                <rect id="Rectangle-8" fill="#FF0000" x="2.26004464" y="1.80803571" width="5.02232143" height="1.40625" rx="1.60714286"></rect>
                <rect id="Rectangle-9" fill="#FF0000" x="2.26004464" y="4.01785714" width="5.02232143" height="1.40625" rx="1.60714286"></rect>
            </g>
            <path d="M9.99107143,12 L9.99107143,7.98214286 L14.0089286,9.99107143 L9.99107143,12 Z" id="Triangle-1" opacity="0.4" fill="#FF0000" sketch:type="MSShapeGroup" transform="translate(12.000000, 9.991071) scale(-1, 1) rotate(45.000000) translate(-12.000000, -9.991071) "></path>
            <path d="M16.4196429,14.6116071 L16.4196429,10.59375 L20.4375,12.6026786 L16.4196429,14.6116071 Z" id="Triangle-2" opacity="0.7" fill="#FF0000" sketch:type="MSShapeGroup" transform="translate(18.428571, 12.602679) rotate(90.000000) translate(-18.428571, -12.602679) "></path>
        </g>
    </g>
</svg>